<?xml version="1.0" encoding="utf-8" standalone="no"?>
<!DOCTYPE svg PUBLIC "-//W3C//DTD SVG 1.1//EN"
  "http://www.w3.org/Graphics/SVG/1.1/DTD/svg11.dtd">
<svg height="345.6pt" version="1.1" viewBox="0 0 460.8 345.6" width="460.8pt" xmlns="http://www.w3.org/2000/svg" xmlns:xlink="http://www.w3.org/1999/xlink">
 <metadata>
  <rdf:RDF xmlns:cc="http://creativecommons.org/ns#" xmlns:dc="http://purl.org/dc/elements/1.1/" xmlns:rdf="http://www.w3.org/1999/02/22-rdf-syntax-ns#">
   <cc:Work>
    <dc:type rdf:resource="http://purl.org/dc/dcmitype/StillImage"/>
    <dc:date>2023-02-21T17:21:46.510849</dc:date>
    <dc:format>image/svg+xml</dc:format>
    <dc:creator>
     <cc:Agent>
      <dc:title>Matplotlib v3.4.3, https://matplotlib.org/</dc:title>
     </cc:Agent>
    </dc:creator>
   </cc:Work>
  </rdf:RDF>
 </metadata>
 <defs>
  <style type="text/css">*{stroke-linecap:butt;stroke-linejoin:round;}</style>
 </defs>
 <g id="figure_1">
  <g id="patch_1">
   <path d="M 0 345.6 
L 460.8 345.6 
L 460.8 0 
L 0 0 
z
" style="fill:#ffffff;"/>
  </g>
  <g id="axes_1">
   <g id="patch_2">
    <path d="M 57.6 307.584 
L 414.72 307.584 
L 414.72 41.472 
L 57.6 41.472 
z
" style="fill:#ffffff;"/>
   </g>
   <g id="matplotlib.axis_1">
    <g id="xtick_1">
     <g id="line2d_1">
      <defs>
       <path d="M 0 0 
L 0 3.5 
" id="m7ae4127a14" style="stroke:#000000;stroke-width:0.8;"/>
      </defs>
      <g>
       <use style="stroke:#000000;stroke-width:0.8;" x="57.6" xlink:href="#m7ae4127a14" y="307.584"/>
      </g>
     </g>
     <g id="text_1">
      <!-- 1980 -->
      <g transform="translate(44.875 322.182437)scale(0.1 -0.1)">
       <defs>
        <path d="M 794 531 
L 1825 531 
L 1825 4091 
L 703 3866 
L 703 4441 
L 1819 4666 
L 2450 4666 
L 2450 531 
L 3481 531 
L 3481 0 
L 794 0 
L 794 531 
z
" id="DejaVuSans-31" transform="scale(0.015625)"/>
        <path d="M 703 97 
L 703 672 
Q 941 559 1184 500 
Q 1428 441 1663 441 
Q 2288 441 2617 861 
Q 2947 1281 2994 2138 
Q 2813 1869 2534 1725 
Q 2256 1581 1919 1581 
Q 1219 1581 811 2004 
Q 403 2428 403 3163 
Q 403 3881 828 4315 
Q 1253 4750 1959 4750 
Q 2769 4750 3195 4129 
Q 3622 3509 3622 2328 
Q 3622 1225 3098 567 
Q 2575 -91 1691 -91 
Q 1453 -91 1209 -44 
Q 966 3 703 97 
z
M 1959 2075 
Q 2384 2075 2632 2365 
Q 2881 2656 2881 3163 
Q 2881 3666 2632 3958 
Q 2384 4250 1959 4250 
Q 1534 4250 1286 3958 
Q 1038 3666 1038 3163 
Q 1038 2656 1286 2365 
Q 1534 2075 1959 2075 
z
" id="DejaVuSans-39" transform="scale(0.015625)"/>
        <path d="M 2034 2216 
Q 1584 2216 1326 1975 
Q 1069 1734 1069 1313 
Q 1069 891 1326 650 
Q 1584 409 2034 409 
Q 2484 409 2743 651 
Q 3003 894 3003 1313 
Q 3003 1734 2745 1975 
Q 2488 2216 2034 2216 
z
M 1403 2484 
Q 997 2584 770 2862 
Q 544 3141 544 3541 
Q 544 4100 942 4425 
Q 1341 4750 2034 4750 
Q 2731 4750 3128 4425 
Q 3525 4100 3525 3541 
Q 3525 3141 3298 2862 
Q 3072 2584 2669 2484 
Q 3125 2378 3379 2068 
Q 3634 1759 3634 1313 
Q 3634 634 3220 271 
Q 2806 -91 2034 -91 
Q 1263 -91 848 271 
Q 434 634 434 1313 
Q 434 1759 690 2068 
Q 947 2378 1403 2484 
z
M 1172 3481 
Q 1172 3119 1398 2916 
Q 1625 2713 2034 2713 
Q 2441 2713 2670 2916 
Q 2900 3119 2900 3481 
Q 2900 3844 2670 4047 
Q 2441 4250 2034 4250 
Q 1625 4250 1398 4047 
Q 1172 3844 1172 3481 
z
" id="DejaVuSans-38" transform="scale(0.015625)"/>
        <path d="M 2034 4250 
Q 1547 4250 1301 3770 
Q 1056 3291 1056 2328 
Q 1056 1369 1301 889 
Q 1547 409 2034 409 
Q 2525 409 2770 889 
Q 3016 1369 3016 2328 
Q 3016 3291 2770 3770 
Q 2525 4250 2034 4250 
z
M 2034 4750 
Q 2819 4750 3233 4129 
Q 3647 3509 3647 2328 
Q 3647 1150 3233 529 
Q 2819 -91 2034 -91 
Q 1250 -91 836 529 
Q 422 1150 422 2328 
Q 422 3509 836 4129 
Q 1250 4750 2034 4750 
z
" id="DejaVuSans-30" transform="scale(0.015625)"/>
       </defs>
       <use xlink:href="#DejaVuSans-31"/>
       <use x="63.623047" xlink:href="#DejaVuSans-39"/>
       <use x="127.246094" xlink:href="#DejaVuSans-38"/>
       <use x="190.869141" xlink:href="#DejaVuSans-30"/>
      </g>
     </g>
    </g>
    <g id="xtick_2">
     <g id="line2d_2">
      <g>
       <use style="stroke:#000000;stroke-width:0.8;" x="91.357152" xlink:href="#m7ae4127a14" y="307.584"/>
      </g>
     </g>
     <g id="text_2">
      <!-- 1985 -->
      <g transform="translate(78.632152 322.182437)scale(0.1 -0.1)">
       <defs>
        <path d="M 691 4666 
L 3169 4666 
L 3169 4134 
L 1269 4134 
L 1269 2991 
Q 1406 3038 1543 3061 
Q 1681 3084 1819 3084 
Q 2600 3084 3056 2656 
Q 3513 2228 3513 1497 
Q 3513 744 3044 326 
Q 2575 -91 1722 -91 
Q 1428 -91 1123 -41 
Q 819 9 494 109 
L 494 744 
Q 775 591 1075 516 
Q 1375 441 1709 441 
Q 2250 441 2565 725 
Q 2881 1009 2881 1497 
Q 2881 1984 2565 2268 
Q 2250 2553 1709 2553 
Q 1456 2553 1204 2497 
Q 953 2441 691 2322 
L 691 4666 
z
" id="DejaVuSans-35" transform="scale(0.015625)"/>
       </defs>
       <use xlink:href="#DejaVuSans-31"/>
       <use x="63.623047" xlink:href="#DejaVuSans-39"/>
       <use x="127.246094" xlink:href="#DejaVuSans-38"/>
       <use x="190.869141" xlink:href="#DejaVuSans-35"/>
      </g>
     </g>
    </g>
    <g id="xtick_3">
     <g id="line2d_3">
      <g>
       <use style="stroke:#000000;stroke-width:0.8;" x="125.095828" xlink:href="#m7ae4127a14" y="307.584"/>
      </g>
     </g>
     <g id="text_3">
      <!-- 1990 -->
      <g transform="translate(112.370828 322.182437)scale(0.1 -0.1)">
       <use xlink:href="#DejaVuSans-31"/>
       <use x="63.623047" xlink:href="#DejaVuSans-39"/>
       <use x="127.246094" xlink:href="#DejaVuSans-39"/>
       <use x="190.869141" xlink:href="#DejaVuSans-30"/>
      </g>
     </g>
    </g>
    <g id="xtick_4">
     <g id="line2d_4">
      <g>
       <use style="stroke:#000000;stroke-width:0.8;" x="158.834503" xlink:href="#m7ae4127a14" y="307.584"/>
      </g>
     </g>
     <g id="text_4">
      <!-- 1995 -->
      <g transform="translate(146.109503 322.182437)scale(0.1 -0.1)">
       <use xlink:href="#DejaVuSans-31"/>
       <use x="63.623047" xlink:href="#DejaVuSans-39"/>
       <use x="127.246094" xlink:href="#DejaVuSans-39"/>
       <use x="190.869141" xlink:href="#DejaVuSans-35"/>
      </g>
     </g>
    </g>
    <g id="xtick_5">
     <g id="line2d_5">
      <g>
       <use style="stroke:#000000;stroke-width:0.8;" x="192.573179" xlink:href="#m7ae4127a14" y="307.584"/>
      </g>
     </g>
     <g id="text_5">
      <!-- 2000 -->
      <g transform="translate(179.848179 322.182437)scale(0.1 -0.1)">
       <defs>
        <path d="M 1228 531 
L 3431 531 
L 3431 0 
L 469 0 
L 469 531 
Q 828 903 1448 1529 
Q 2069 2156 2228 2338 
Q 2531 2678 2651 2914 
Q 2772 3150 2772 3378 
Q 2772 3750 2511 3984 
Q 2250 4219 1831 4219 
Q 1534 4219 1204 4116 
Q 875 4013 500 3803 
L 500 4441 
Q 881 4594 1212 4672 
Q 1544 4750 1819 4750 
Q 2544 4750 2975 4387 
Q 3406 4025 3406 3419 
Q 3406 3131 3298 2873 
Q 3191 2616 2906 2266 
Q 2828 2175 2409 1742 
Q 1991 1309 1228 531 
z
" id="DejaVuSans-32" transform="scale(0.015625)"/>
       </defs>
       <use xlink:href="#DejaVuSans-32"/>
       <use x="63.623047" xlink:href="#DejaVuSans-30"/>
       <use x="127.246094" xlink:href="#DejaVuSans-30"/>
       <use x="190.869141" xlink:href="#DejaVuSans-30"/>
      </g>
     </g>
    </g>
    <g id="xtick_6">
     <g id="line2d_6">
      <g>
       <use style="stroke:#000000;stroke-width:0.8;" x="226.330331" xlink:href="#m7ae4127a14" y="307.584"/>
      </g>
     </g>
     <g id="text_6">
      <!-- 2005 -->
      <g transform="translate(213.605331 322.182437)scale(0.1 -0.1)">
       <use xlink:href="#DejaVuSans-32"/>
       <use x="63.623047" xlink:href="#DejaVuSans-30"/>
       <use x="127.246094" xlink:href="#DejaVuSans-30"/>
       <use x="190.869141" xlink:href="#DejaVuSans-35"/>
      </g>
     </g>
    </g>
    <g id="xtick_7">
     <g id="line2d_7">
      <g>
       <use style="stroke:#000000;stroke-width:0.8;" x="260.069007" xlink:href="#m7ae4127a14" y="307.584"/>
      </g>
     </g>
     <g id="text_7">
      <!-- 2010 -->
      <g transform="translate(247.344007 322.182437)scale(0.1 -0.1)">
       <use xlink:href="#DejaVuSans-32"/>
       <use x="63.623047" xlink:href="#DejaVuSans-30"/>
       <use x="127.246094" xlink:href="#DejaVuSans-31"/>
       <use x="190.869141" xlink:href="#DejaVuSans-30"/>
      </g>
     </g>
    </g>
    <g id="xtick_8">
     <g id="line2d_8">
      <g>
       <use style="stroke:#000000;stroke-width:0.8;" x="293.807682" xlink:href="#m7ae4127a14" y="307.584"/>
      </g>
     </g>
     <g id="text_8">
      <!-- 2015 -->
      <g transform="translate(281.082682 322.182437)scale(0.1 -0.1)">
       <use xlink:href="#DejaVuSans-32"/>
       <use x="63.623047" xlink:href="#DejaVuSans-30"/>
       <use x="127.246094" xlink:href="#DejaVuSans-31"/>
       <use x="190.869141" xlink:href="#DejaVuSans-35"/>
      </g>
     </g>
    </g>
    <g id="xtick_9">
     <g id="line2d_9">
      <g>
       <use style="stroke:#000000;stroke-width:0.8;" x="327.546358" xlink:href="#m7ae4127a14" y="307.584"/>
      </g>
     </g>
     <g id="text_9">
      <!-- 2020 -->
      <g transform="translate(314.821358 322.182437)scale(0.1 -0.1)">
       <use xlink:href="#DejaVuSans-32"/>
       <use x="63.623047" xlink:href="#DejaVuSans-30"/>
       <use x="127.246094" xlink:href="#DejaVuSans-32"/>
       <use x="190.869141" xlink:href="#DejaVuSans-30"/>
      </g>
     </g>
    </g>
    <g id="xtick_10">
     <g id="line2d_10">
      <g>
       <use style="stroke:#000000;stroke-width:0.8;" x="361.30351" xlink:href="#m7ae4127a14" y="307.584"/>
      </g>
     </g>
     <g id="text_10">
      <!-- 2025 -->
      <g transform="translate(348.57851 322.182437)scale(0.1 -0.1)">
       <use xlink:href="#DejaVuSans-32"/>
       <use x="63.623047" xlink:href="#DejaVuSans-30"/>
       <use x="127.246094" xlink:href="#DejaVuSans-32"/>
       <use x="190.869141" xlink:href="#DejaVuSans-35"/>
      </g>
     </g>
    </g>
    <g id="xtick_11">
     <g id="line2d_11">
      <g>
       <use style="stroke:#000000;stroke-width:0.8;" x="395.042185" xlink:href="#m7ae4127a14" y="307.584"/>
      </g>
     </g>
     <g id="text_11">
      <!-- 2030 -->
      <g transform="translate(382.317185 322.182437)scale(0.1 -0.1)">
       <defs>
        <path d="M 2597 2516 
Q 3050 2419 3304 2112 
Q 3559 1806 3559 1356 
Q 3559 666 3084 287 
Q 2609 -91 1734 -91 
Q 1441 -91 1130 -33 
Q 819 25 488 141 
L 488 750 
Q 750 597 1062 519 
Q 1375 441 1716 441 
Q 2309 441 2620 675 
Q 2931 909 2931 1356 
Q 2931 1769 2642 2001 
Q 2353 2234 1838 2234 
L 1294 2234 
L 1294 2753 
L 1863 2753 
Q 2328 2753 2575 2939 
Q 2822 3125 2822 3475 
Q 2822 3834 2567 4026 
Q 2313 4219 1838 4219 
Q 1578 4219 1281 4162 
Q 984 4106 628 3988 
L 628 4550 
Q 988 4650 1302 4700 
Q 1616 4750 1894 4750 
Q 2613 4750 3031 4423 
Q 3450 4097 3450 3541 
Q 3450 3153 3228 2886 
Q 3006 2619 2597 2516 
z
" id="DejaVuSans-33" transform="scale(0.015625)"/>
       </defs>
       <use xlink:href="#DejaVuSans-32"/>
       <use x="63.623047" xlink:href="#DejaVuSans-30"/>
       <use x="127.246094" xlink:href="#DejaVuSans-33"/>
       <use x="190.869141" xlink:href="#DejaVuSans-30"/>
      </g>
     </g>
    </g>
    <g id="text_12">
     <!-- Date -->
     <g transform="translate(224.209219 335.860562)scale(0.1 -0.1)">
      <defs>
       <path d="M 1259 4147 
L 1259 519 
L 2022 519 
Q 2988 519 3436 956 
Q 3884 1394 3884 2338 
Q 3884 3275 3436 3711 
Q 2988 4147 2022 4147 
L 1259 4147 
z
M 628 4666 
L 1925 4666 
Q 3281 4666 3915 4102 
Q 4550 3538 4550 2338 
Q 4550 1131 3912 565 
Q 3275 0 1925 0 
L 628 0 
L 628 4666 
z
" id="DejaVuSans-44" transform="scale(0.015625)"/>
       <path d="M 2194 1759 
Q 1497 1759 1228 1600 
Q 959 1441 959 1056 
Q 959 750 1161 570 
Q 1363 391 1709 391 
Q 2188 391 2477 730 
Q 2766 1069 2766 1631 
L 2766 1759 
L 2194 1759 
z
M 3341 1997 
L 3341 0 
L 2766 0 
L 2766 531 
Q 2569 213 2275 61 
Q 1981 -91 1556 -91 
Q 1019 -91 701 211 
Q 384 513 384 1019 
Q 384 1609 779 1909 
Q 1175 2209 1959 2209 
L 2766 2209 
L 2766 2266 
Q 2766 2663 2505 2880 
Q 2244 3097 1772 3097 
Q 1472 3097 1187 3025 
Q 903 2953 641 2809 
L 641 3341 
Q 956 3463 1253 3523 
Q 1550 3584 1831 3584 
Q 2591 3584 2966 3190 
Q 3341 2797 3341 1997 
z
" id="DejaVuSans-61" transform="scale(0.015625)"/>
       <path d="M 1172 4494 
L 1172 3500 
L 2356 3500 
L 2356 3053 
L 1172 3053 
L 1172 1153 
Q 1172 725 1289 603 
Q 1406 481 1766 481 
L 2356 481 
L 2356 0 
L 1766 0 
Q 1100 0 847 248 
Q 594 497 594 1153 
L 594 3053 
L 172 3053 
L 172 3500 
L 594 3500 
L 594 4494 
L 1172 4494 
z
" id="DejaVuSans-74" transform="scale(0.015625)"/>
       <path d="M 3597 1894 
L 3597 1613 
L 953 1613 
Q 991 1019 1311 708 
Q 1631 397 2203 397 
Q 2534 397 2845 478 
Q 3156 559 3463 722 
L 3463 178 
Q 3153 47 2828 -22 
Q 2503 -91 2169 -91 
Q 1331 -91 842 396 
Q 353 884 353 1716 
Q 353 2575 817 3079 
Q 1281 3584 2069 3584 
Q 2775 3584 3186 3129 
Q 3597 2675 3597 1894 
z
M 3022 2063 
Q 3016 2534 2758 2815 
Q 2500 3097 2075 3097 
Q 1594 3097 1305 2825 
Q 1016 2553 972 2059 
L 3022 2063 
z
" id="DejaVuSans-65" transform="scale(0.015625)"/>
      </defs>
      <use xlink:href="#DejaVuSans-44"/>
      <use x="77.001953" xlink:href="#DejaVuSans-61"/>
      <use x="138.28125" xlink:href="#DejaVuSans-74"/>
      <use x="177.490234" xlink:href="#DejaVuSans-65"/>
     </g>
    </g>
   </g>
   <g id="matplotlib.axis_2">
    <g id="ytick_1">
     <g id="line2d_12">
      <defs>
       <path d="M 0 0 
L -3.5 0 
" id="m39f33b3577" style="stroke:#000000;stroke-width:0.8;"/>
      </defs>
      <g>
       <use style="stroke:#000000;stroke-width:0.8;" x="57.6" xlink:href="#m39f33b3577" y="276.200536"/>
      </g>
     </g>
     <g id="text_13">
      <!-- 0 -->
      <g transform="translate(44.2375 279.999755)scale(0.1 -0.1)">
       <use xlink:href="#DejaVuSans-30"/>
      </g>
     </g>
    </g>
    <g id="ytick_2">
     <g id="line2d_13">
      <g>
       <use style="stroke:#000000;stroke-width:0.8;" x="57.6" xlink:href="#m39f33b3577" y="218.43392"/>
      </g>
     </g>
     <g id="text_14">
      <!-- 5 -->
      <g transform="translate(44.2375 222.233139)scale(0.1 -0.1)">
       <use xlink:href="#DejaVuSans-35"/>
      </g>
     </g>
    </g>
    <g id="ytick_3">
     <g id="line2d_14">
      <g>
       <use style="stroke:#000000;stroke-width:0.8;" x="57.6" xlink:href="#m39f33b3577" y="160.667305"/>
      </g>
     </g>
     <g id="text_15">
      <!-- 10 -->
      <g transform="translate(37.875 164.466524)scale(0.1 -0.1)">
       <use xlink:href="#DejaVuSans-31"/>
       <use x="63.623047" xlink:href="#DejaVuSans-30"/>
      </g>
     </g>
    </g>
    <g id="ytick_4">
     <g id="line2d_15">
      <g>
       <use style="stroke:#000000;stroke-width:0.8;" x="57.6" xlink:href="#m39f33b3577" y="102.90069"/>
      </g>
     </g>
     <g id="text_16">
      <!-- 15 -->
      <g transform="translate(37.875 106.699908)scale(0.1 -0.1)">
       <use xlink:href="#DejaVuSans-31"/>
       <use x="63.623047" xlink:href="#DejaVuSans-35"/>
      </g>
     </g>
    </g>
    <g id="ytick_5">
     <g id="line2d_16">
      <g>
       <use style="stroke:#000000;stroke-width:0.8;" x="57.6" xlink:href="#m39f33b3577" y="45.134074"/>
      </g>
     </g>
     <g id="text_17">
      <!-- 20 -->
      <g transform="translate(37.875 48.933293)scale(0.1 -0.1)">
       <use xlink:href="#DejaVuSans-32"/>
       <use x="63.623047" xlink:href="#DejaVuSans-30"/>
      </g>
     </g>
    </g>
    <g id="text_18">
     <!-- Percent -->
     <g transform="translate(31.795312 193.335813)rotate(-90)scale(0.1 -0.1)">
      <defs>
       <path d="M 1259 4147 
L 1259 2394 
L 2053 2394 
Q 2494 2394 2734 2622 
Q 2975 2850 2975 3272 
Q 2975 3691 2734 3919 
Q 2494 4147 2053 4147 
L 1259 4147 
z
M 628 4666 
L 2053 4666 
Q 2838 4666 3239 4311 
Q 3641 3956 3641 3272 
Q 3641 2581 3239 2228 
Q 2838 1875 2053 1875 
L 1259 1875 
L 1259 0 
L 628 0 
L 628 4666 
z
" id="DejaVuSans-50" transform="scale(0.015625)"/>
       <path d="M 2631 2963 
Q 2534 3019 2420 3045 
Q 2306 3072 2169 3072 
Q 1681 3072 1420 2755 
Q 1159 2438 1159 1844 
L 1159 0 
L 581 0 
L 581 3500 
L 1159 3500 
L 1159 2956 
Q 1341 3275 1631 3429 
Q 1922 3584 2338 3584 
Q 2397 3584 2469 3576 
Q 2541 3569 2628 3553 
L 2631 2963 
z
" id="DejaVuSans-72" transform="scale(0.015625)"/>
       <path d="M 3122 3366 
L 3122 2828 
Q 2878 2963 2633 3030 
Q 2388 3097 2138 3097 
Q 1578 3097 1268 2742 
Q 959 2388 959 1747 
Q 959 1106 1268 751 
Q 1578 397 2138 397 
Q 2388 397 2633 464 
Q 2878 531 3122 666 
L 3122 134 
Q 2881 22 2623 -34 
Q 2366 -91 2075 -91 
Q 1284 -91 818 406 
Q 353 903 353 1747 
Q 353 2603 823 3093 
Q 1294 3584 2113 3584 
Q 2378 3584 2631 3529 
Q 2884 3475 3122 3366 
z
" id="DejaVuSans-63" transform="scale(0.015625)"/>
       <path d="M 3513 2113 
L 3513 0 
L 2938 0 
L 2938 2094 
Q 2938 2591 2744 2837 
Q 2550 3084 2163 3084 
Q 1697 3084 1428 2787 
Q 1159 2491 1159 1978 
L 1159 0 
L 581 0 
L 581 3500 
L 1159 3500 
L 1159 2956 
Q 1366 3272 1645 3428 
Q 1925 3584 2291 3584 
Q 2894 3584 3203 3211 
Q 3513 2838 3513 2113 
z
" id="DejaVuSans-6e" transform="scale(0.015625)"/>
      </defs>
      <use xlink:href="#DejaVuSans-50"/>
      <use x="56.677734" xlink:href="#DejaVuSans-65"/>
      <use x="118.201172" xlink:href="#DejaVuSans-72"/>
      <use x="157.064453" xlink:href="#DejaVuSans-63"/>
      <use x="212.044922" xlink:href="#DejaVuSans-65"/>
      <use x="273.568359" xlink:href="#DejaVuSans-6e"/>
      <use x="336.947266" xlink:href="#DejaVuSans-74"/>
     </g>
    </g>
   </g>
   <g id="line2d_17">
    <path clip-path="url(#pd272d76b42)" d="M 58.708609 111.188658 
L 59.281391 108.024203 
L 59.835695 107.164251 
L 60.408477 108.596478 
L 62.108344 127.525442 
L 62.662649 128.937644 
L 63.23543 129.801832 
L 63.789735 130.126095 
L 64.362517 133.749218 
L 64.935298 138.529983 
L 66.02543 153.374462 
L 66.579735 159.639637 
L 67.152517 163.237727 
L 67.706821 160.303953 
L 68.279603 156.359071 
L 68.852384 150.96829 
L 69.406689 153.357132 
L 69.97947 158.031068 
L 71.106556 172.591066 
L 72.76947 195.668097 
L 73.323775 199.291181 
L 73.896556 198.19608 
L 74.450861 198.459842 
L 75.023642 201.66019 
L 75.596424 209.443664 
L 77.850596 229.484828 
L 78.423377 233.723896 
L 78.940728 234.617007 
L 79.51351 233.895771 
L 80.067815 233.662047 
L 80.640596 237.592334 
L 81.194901 243.127531 
L 81.767682 246.940936 
L 82.340464 245.852074 
L 82.894768 244.350989 
L 83.46755 241.630336 
L 84.021854 238.045263 
L 85.703245 223.8656 
L 86.276026 222.434259 
L 86.830331 223.830901 
L 87.403113 226.063427 
L 87.957417 227.44867 
L 89.657285 226.83334 
L 90.230066 227.75776 
L 90.784371 228.99566 
L 91.357152 231.78598 
L 91.929934 233.84925 
L 92.447285 234.792656 
L 93.020066 234.203975 
L 93.574371 233.217553 
L 94.147152 232.997462 
L 94.701457 233.503728 
L 95.274238 235.130744 
L 95.84702 237.51069 
L 96.401325 238.763879 
L 96.974106 238.130411 
L 98.101192 233.073136 
L 98.673974 234.615736 
L 99.191325 240.558111 
L 99.764106 249.400215 
L 100.318411 255.646943 
L 100.891192 257.53337 
L 101.445497 257.584512 
L 102.018278 257.265178 
L 102.59106 257.30912 
L 103.145364 257.713678 
L 103.718146 258.829229 
L 104.27245 261.357443 
L 104.845232 261.404002 
L 105.418013 258.246479 
L 107.06245 235.127856 
L 107.635232 232.740631 
L 108.189536 232.156727 
L 108.762318 230.509762 
L 109.889404 225.469047 
L 110.462185 224.527143 
L 111.01649 224.224176 
L 111.589272 226.097086 
L 112.697881 230.31659 
L 113.270662 230.86572 
L 113.824967 231.067094 
L 114.397748 230.914244 
L 114.952053 230.044355 
L 115.524834 229.541324 
L 116.097616 228.735865 
L 116.651921 228.274771 
L 117.779007 226.462363 
L 118.351788 224.85468 
L 120.014702 218.703652 
L 120.569007 216.646737 
L 121.141788 215.911368 
L 121.696093 216.469509 
L 122.268874 218.995142 
L 122.841656 222.187403 
L 123.39596 224.060543 
L 123.968742 224.256372 
L 124.523046 223.075121 
L 125.668609 217.999631 
L 126.18596 215.743922 
L 126.758742 217.633622 
L 127.313046 221.104587 
L 127.885828 223.258819 
L 128.440132 222.829305 
L 129.585695 212.267796 
L 130.14 206.619531 
L 130.712781 204.089969 
L 131.267086 204.296889 
L 131.839868 206.755128 
L 132.412649 210.461126 
L 132.93 215.125472 
L 133.502781 218.067642 
L 134.057086 219.449958 
L 134.629868 220.217022 
L 135.184172 221.9102 
L 136.329735 231.379997 
L 136.88404 237.258712 
L 137.456821 240.377532 
L 138.583907 242.872588 
L 139.156689 243.529394 
L 139.692517 243.063795 
L 140.265298 240.829498 
L 140.819603 240.041523 
L 141.392384 240.414888 
L 141.946689 240.504811 
L 142.51947 240.026196 
L 143.092252 240.410883 
L 143.646556 240.236774 
L 144.773642 240.959511 
L 145.346424 240.743156 
L 146.436556 239.260249 
L 147.563642 239.484614 
L 148.136424 239.835604 
L 149.26351 243.314233 
L 149.836291 244.494251 
L 150.390596 244.592261 
L 150.963377 244.946024 
L 151.517682 244.718424 
L 152.090464 245.588042 
L 152.663245 246.205529 
L 153.180596 247.135379 
L 153.753377 247.764765 
L 154.307682 248.639853 
L 154.880464 248.693344 
L 155.434768 247.118357 
L 156.00755 244.761248 
L 156.580331 242.949687 
L 157.134636 243.573489 
L 157.707417 244.442492 
L 158.261722 245.553806 
L 160.497417 242.429518 
L 161.051722 241.183877 
L 161.624503 240.462642 
L 162.178808 241.579925 
L 163.324371 245.685283 
L 163.878675 245.505937 
L 165.005762 245.572715 
L 165.578543 245.886542 
L 166.151325 245.711124 
L 166.687152 244.549052 
L 167.259934 243.899139 
L 167.814238 242.974218 
L 168.38702 243.305645 
L 168.941325 243.096992 
L 169.514106 243.147942 
L 170.086887 242.190903 
L 170.641192 242.02908 
L 171.768278 239.343394 
L 172.34106 239.146217 
L 172.913841 239.997274 
L 174.003974 244.270463 
L 174.558278 247.348384 
L 175.13106 249.136607 
L 175.685364 250.160616 
L 176.258146 250.198896 
L 177.385232 251.305705 
L 178.512318 254.574448 
L 179.085099 256.55126 
L 180.175232 259.304032 
L 180.748013 259.826396 
L 182.429404 256.740773 
L 183.002185 257.008579 
L 184.129272 258.520524 
L 184.702053 258.785942 
L 185.256358 258.311987 
L 185.829139 257.597067 
L 186.401921 257.373934 
L 186.919272 256.933521 
L 188.046358 252.741013 
L 188.619139 251.82857 
L 189.173444 252.33811 
L 189.746225 251.660584 
L 190.319007 249.098943 
L 191.446093 246.118417 
L 192.000397 245.901985 
L 192.573179 245.216834 
L 193.14596 242.906439 
L 193.681788 238.774123 
L 194.25457 237.504413 
L 195.381656 237.735826 
L 195.93596 235.461054 
L 196.508742 234.605338 
L 197.635828 236.480789 
L 198.208609 236.345615 
L 198.762914 236.606065 
L 199.335695 235.512543 
L 199.908477 235.176188 
L 200.998609 238.755253 
L 201.552914 238.441041 
L 202.125695 237.179033 
L 202.68 239.2941 
L 203.252781 242.741804 
L 204.379868 247.338063 
L 204.952649 250.513108 
L 206.079735 258.526339 
L 206.652517 261.444709 
L 207.169868 261.737855 
L 207.742649 259.823315 
L 208.296954 259.653443 
L 208.869735 261.225388 
L 209.42404 261.897599 
L 209.996821 259.505868 
L 210.569603 257.784885 
L 211.123907 255.624029 
L 211.696689 254.100531 
L 212.250993 250.778527 
L 212.823775 248.57758 
L 213.913907 243.087133 
L 214.486689 244.522479 
L 215.613775 251.573434 
L 216.168079 252.015348 
L 216.740861 251.628582 
L 217.313642 250.826935 
L 217.867947 251.093124 
L 218.995033 254.305679 
L 219.567815 254.746901 
L 220.140596 255.024065 
L 220.676424 255.571885 
L 221.249205 254.189953 
L 222.376291 243.069225 
L 222.930596 240.351614 
L 223.503377 241.881967 
L 224.076159 244.687114 
L 224.630464 243.922939 
L 225.75755 237.813503 
L 226.330331 238.658552 
L 226.903113 240.643875 
L 227.420464 241.056752 
L 227.993245 238.973765 
L 228.54755 239.762356 
L 229.120331 242.142495 
L 229.674636 243.462423 
L 230.247417 240.233616 
L 230.820199 231.929203 
L 231.374503 227.385166 
L 231.947285 228.100162 
L 232.501589 232.994997 
L 233.074371 234.391062 
L 233.647152 233.844205 
L 234.164503 234.048352 
L 234.737285 235.741261 
L 235.291589 233.549326 
L 235.864371 229.867204 
L 236.418675 227.558042 
L 236.991457 228.897958 
L 237.564238 237.587597 
L 238.118543 248.525205 
L 238.691325 255.63073 
L 239.245629 253.788822 
L 239.818411 250.821852 
L 240.391192 249.121511 
L 240.908543 248.204446 
L 241.481325 246.286364 
L 242.035629 245.224767 
L 242.608411 245.578068 
L 243.162715 246.407866 
L 243.735497 249.183667 
L 244.308278 248.921754 
L 244.862583 244.38538 
L 245.435364 235.38873 
L 245.989669 230.281314 
L 246.56245 227.415628 
L 247.135232 228.492552 
L 247.67106 228.876931 
L 248.243841 230.199401 
L 248.798146 229.625663 
L 249.370927 225.61924 
L 249.925232 219.213962 
L 250.498013 214.606844 
L 251.070795 214.933649 
L 251.625099 222.423784 
L 253.324967 271.614521 
L 253.897748 274.823954 
L 254.415099 276.65311 
L 254.987881 279.605882 
L 255.542185 285.450442 
L 256.114967 289.46801 
L 256.669272 294.706572 
L 257.242053 295.488 
L 257.814834 294.94665 
L 258.369139 287.574428 
L 258.941921 274.778545 
L 259.496225 259.345077 
L 260.069007 248.529018 
L 260.641788 247.354314 
L 261.731921 250.422222 
L 262.286225 250.893367 
L 263.413311 259.604072 
L 263.986093 262.965627 
L 264.558874 262.617756 
L 265.113179 262.860376 
L 265.68596 262.879439 
L 266.240265 261.523695 
L 266.813046 259.753495 
L 267.385828 256.039409 
L 268.47596 245.573408 
L 269.030265 239.94667 
L 269.603046 236.568363 
L 270.157351 234.777251 
L 270.730132 233.997171 
L 271.302914 232.805138 
L 271.857219 233.203804 
L 272.43 234.655017 
L 272.984305 238.14389 
L 274.129868 242.469685 
L 274.665695 243.667456 
L 275.238477 246.064694 
L 276.365563 254.360981 
L 276.919868 257.804988 
L 277.492649 257.850701 
L 278.06543 256.590272 
L 278.619735 253.68696 
L 279.192517 253.410643 
L 279.746821 254.374421 
L 280.319603 256.559848 
L 280.892384 255.73652 
L 281.409735 256.765228 
L 282.536821 261.185298 
L 283.109603 260.104985 
L 283.663907 256.648231 
L 284.236689 256.045879 
L 284.80947 258.239085 
L 285.363775 262.078897 
L 285.936556 263.162214 
L 286.490861 261.942106 
L 287.063642 259.572377 
L 287.636424 259.998772 
L 288.153775 259.958489 
L 288.726556 258.518521 
L 289.280861 254.664487 
L 289.853642 252.507327 
L 290.407947 252.355324 
L 291.55351 255.597649 
L 292.680596 258.313604 
L 293.234901 261.785096 
L 293.807682 268.538738 
L 294.380464 273.728067 
L 294.897815 276.924987 
L 295.470596 277.34926 
L 296.024901 277.406268 
L 296.597682 276.646028 
L 297.151987 275.224634 
L 297.724768 274.319578 
L 298.29755 274.935374 
L 298.851854 274.931507 
L 299.424636 273.750299 
L 299.97894 270.801699 
L 300.551722 266.17068 
L 301.124503 264.183501 
L 301.660331 263.709753 
L 302.233113 264.664751 
L 302.787417 264.658897 
L 303.360199 264.101295 
L 303.914503 265.248814 
L 304.487285 265.081059 
L 305.060066 263.284695 
L 305.614371 260.169722 
L 306.741457 255.392423 
L 307.314238 252.064874 
L 307.88702 248.038849 
L 308.404371 246.860448 
L 308.977152 248.017128 
L 310.104238 254.218182 
L 310.658543 256.034788 
L 311.231325 255.787971 
L 311.804106 253.479347 
L 312.931192 251.258182 
L 313.485497 251.735257 
L 314.63106 251.586605 
L 315.148411 250.621402 
L 315.721192 249.110882 
L 316.848278 244.870619 
L 317.402583 242.995977 
L 317.975364 243.388136 
L 318.548146 245.677927 
L 320.229536 250.747679 
L 320.802318 254.488029 
L 321.375099 257.016127 
L 321.89245 257.199594 
L 322.465232 255.485042 
L 323.019536 254.444897 
L 324.146623 255.981527 
L 324.719404 256.137305 
L 325.292185 255.895339 
L 325.84649 256.077997 
L 326.419272 254.916889 
L 326.973576 252.707046 
L 327.546358 249.924505 
L 328.119139 248.832369 
L 328.654967 251.704526 
L 329.782053 268.550877 
L 330.354834 271.992215 
L 330.909139 269.462095 
L 331.481921 264.872637 
L 332.054702 262.078285 
L 332.609007 261.323514 
L 333.181788 261.843837 
L 333.736093 261.879768 
L 334.308874 261.041382 
L 334.881656 259.109358 
L 335.399007 254.265589 
L 335.971788 243.636802 
L 337.098874 220.190565 
L 337.653179 215.546976 
L 338.22596 214.551234 
L 338.798742 214.55547 
L 339.353046 211.25742 
L 341.052914 194.074624 
L 341.625695 189.984517 
L 342.143046 184.184518 
L 343.270132 178.44941 
L 343.842914 176.457232 
L 344.397219 175.432144 
L 344.97 176.659954 
L 346.097086 182.966027 
L 346.669868 187.403928 
L 347.224172 194.132853 
L 347.224172 194.132853 
" style="fill:none;stroke:#1f77b4;stroke-linecap:square;stroke-width:1.5;"/>
   </g>
   <g id="line2d_18">
    <path clip-path="url(#pd272d76b42)" d="M 58.708609 85.262616 
L 59.281391 80.487243 
L 59.835695 100.78258 
L 60.408477 137.021504 
L 60.962781 155.160221 
L 61.535563 156.392575 
L 62.108344 145.802029 
L 62.662649 131.013776 
L 63.789735 66.969855 
L 64.362517 53.568 
L 64.935298 65.236856 
L 65.452649 93.61952 
L 66.02543 87.18817 
L 66.579735 79.370422 
L 67.152517 63.92748 
L 67.706821 69.550097 
L 68.279603 72.361406 
L 68.852384 80.294687 
L 69.406689 91.925033 
L 70.533775 122.117717 
L 71.106556 123.003472 
L 71.679338 117.997032 
L 72.196689 103.863466 
L 72.76947 99.742781 
L 73.323775 101.12918 
L 73.896556 109.678639 
L 74.450861 124.582426 
L 75.596424 144.454142 
L 76.72351 158.70324 
L 77.850596 165.712256 
L 78.940728 168.754631 
L 79.51351 167.676321 
L 80.067815 166.097367 
L 80.640596 168.985698 
L 81.767682 163.863724 
L 82.340464 161.822637 
L 82.894768 162.169237 
L 83.46755 163.132014 
L 84.021854 165.712256 
L 84.594636 166.020345 
L 85.167417 165.596723 
L 85.703245 164.364368 
L 86.830331 153.157645 
L 87.403113 150.808469 
L 88.530199 144.03052 
L 89.10298 142.567099 
L 89.657285 149.653137 
L 90.784371 169.717408 
L 91.357152 174.569804 
L 93.020066 176.456847 
L 93.574371 180.693065 
L 94.147152 183.119263 
L 94.701457 183.00373 
L 95.274238 182.387552 
L 95.84702 178.960067 
L 96.401325 181.001154 
L 96.974106 178.151334 
L 97.528411 182.349041 
L 98.101192 183.619907 
L 98.673974 186.662282 
L 99.191325 188.587836 
L 100.318411 196.049357 
L 101.445497 198.937688 
L 102.59106 206.399209 
L 103.145364 208.324763 
L 104.27245 208.324763 
L 105.935364 206.880597 
L 106.508146 204.955043 
L 107.635232 199.178382 
L 108.189536 198.696993 
L 108.762318 198.696993 
L 109.335099 196.530745 
L 109.889404 193.883109 
L 110.462185 193.642415 
L 111.01649 195.567968 
L 111.589272 198.215605 
L 112.162053 199.419076 
L 112.697881 199.65977 
L 113.270662 199.178382 
L 114.952053 190.032001 
L 115.524834 186.662282 
L 116.097616 184.014645 
L 116.651921 182.329786 
L 117.224702 181.367009 
L 117.779007 179.200761 
L 118.351788 175.831042 
L 119.441921 166.443967 
L 120.014702 163.555636 
L 120.569007 163.314942 
L 121.141788 164.037024 
L 122.268874 169.572992 
L 122.841656 171.498545 
L 123.39596 172.702017 
L 123.968742 174.868265 
L 124.523046 177.99729 
L 125.095828 179.922843 
L 125.668609 180.88562 
L 127.885828 180.88562 
L 130.14 184.736728 
L 130.712781 186.662282 
L 132.412649 199.178382 
L 133.502781 206.880597 
L 134.057086 208.806151 
L 134.629868 209.768928 
L 135.184172 209.768928 
L 135.756954 210.731705 
L 136.329735 212.657259 
L 137.456821 218.43392 
L 138.011126 223.247805 
L 138.583907 227.098913 
L 139.156689 229.987244 
L 139.692517 229.987244 
L 141.392384 232.875574 
L 142.51947 236.726682 
L 143.092252 239.615013 
L 144.219338 241.540567 
L 152.090464 241.540567 
L 152.663245 240.57779 
L 153.180596 238.652236 
L 153.753377 235.763905 
L 154.307682 231.912797 
L 154.880464 229.024467 
L 157.134636 221.322251 
L 158.834503 212.657259 
L 160.497417 206.880597 
L 161.624503 206.880597 
L 163.324371 209.768928 
L 164.451457 209.768928 
L 165.005762 210.731705 
L 166.151325 214.582813 
L 166.687152 215.54559 
L 172.913841 215.54559 
L 174.558278 212.657259 
L 183.002185 212.657259 
L 183.574967 213.620036 
L 184.129272 215.54559 
L 184.702053 218.43392 
L 185.256358 220.359474 
L 185.829139 221.322251 
L 188.046358 221.322251 
L 189.173444 219.396697 
L 189.746225 217.471143 
L 193.14596 211.694482 
L 194.25457 207.843374 
L 194.808874 204.955043 
L 195.93596 201.103936 
L 198.762914 201.103936 
L 199.908477 208.806151 
L 200.425828 214.582813 
L 200.998609 218.43392 
L 202.125695 229.024467 
L 202.68 231.912797 
L 203.252781 233.838351 
L 203.825563 236.726682 
L 205.506954 252.131113 
L 206.079735 255.019444 
L 206.652517 255.98222 
L 211.123907 255.98222 
L 212.823775 261.758882 
L 215.040993 261.758882 
L 216.740861 264.647213 
L 221.80351 264.647213 
L 222.930596 262.721659 
L 229.120331 241.540567 
L 232.501589 229.987244 
L 233.074371 227.098913 
L 234.164503 223.247805 
L 234.737285 222.285028 
L 236.418675 216.508367 
L 236.991457 215.54559 
L 243.735497 215.54559 
L 244.308278 217.471143 
L 245.435364 223.247805 
L 245.989669 225.173359 
L 247.135232 236.726682 
L 247.67106 244.428897 
L 248.798146 252.131113 
L 249.370927 253.09389 
L 251.070795 253.09389 
L 252.197881 260.796105 
L 252.752185 268.016932 
L 253.897748 274.75637 
L 299.424636 274.75637 
L 301.124503 271.86804 
L 306.187152 271.86804 
L 311.231325 263.203047 
L 312.931192 263.203047 
L 320.802318 249.72417 
L 321.375099 248.761394 
L 324.146623 248.761394 
L 324.719404 249.72417 
L 325.292185 251.649724 
L 325.84649 254.538055 
L 326.419272 256.463609 
L 326.973576 257.426386 
L 328.119139 257.426386 
L 329.782053 274.75637 
L 341.625695 274.75637 
L 342.715828 272.830817 
L 343.270132 269.942486 
L 343.842914 265.128601 
L 344.397219 257.426386 
L 345.542781 245.873063 
L 346.097086 242.984732 
L 347.224172 232.394186 
L 347.224172 232.394186 
" style="fill:none;stroke:#ff7f0e;stroke-linecap:square;stroke-width:1.5;"/>
   </g>
   <g id="line2d_19">
    <path clip-path="url(#pd272d76b42)" d="M 347.224172 307.584 
L 347.224172 41.472 
" style="fill:none;stroke:#d3d3d3;stroke-dasharray:5.55,2.4;stroke-dashoffset:0;stroke-width:1.5;"/>
   </g>
   <g id="patch_3">
    <path d="M 57.6 307.584 
L 57.6 41.472 
" style="fill:none;stroke:#000000;stroke-linecap:square;stroke-linejoin:miter;stroke-width:0.8;"/>
   </g>
   <g id="patch_4">
    <path d="M 414.72 307.584 
L 414.72 41.472 
" style="fill:none;stroke:#000000;stroke-linecap:square;stroke-linejoin:miter;stroke-width:0.8;"/>
   </g>
   <g id="patch_5">
    <path d="M 57.6 307.584 
L 414.72 307.584 
" style="fill:none;stroke:#000000;stroke-linecap:square;stroke-linejoin:miter;stroke-width:0.8;"/>
   </g>
   <g id="patch_6">
    <path d="M 57.6 41.472 
L 414.72 41.472 
" style="fill:none;stroke:#000000;stroke-linecap:square;stroke-linejoin:miter;stroke-width:0.8;"/>
   </g>
   <g id="text_19">
    <!-- US Inflation vs. Federal Discount Rate - 1980 to present -->
    <g transform="translate(69.210938 35.472)scale(0.12 -0.12)">
     <defs>
      <path d="M 556 4666 
L 1191 4666 
L 1191 1831 
Q 1191 1081 1462 751 
Q 1734 422 2344 422 
Q 2950 422 3222 751 
Q 3494 1081 3494 1831 
L 3494 4666 
L 4128 4666 
L 4128 1753 
Q 4128 841 3676 375 
Q 3225 -91 2344 -91 
Q 1459 -91 1007 375 
Q 556 841 556 1753 
L 556 4666 
z
" id="DejaVuSans-55" transform="scale(0.015625)"/>
      <path d="M 3425 4513 
L 3425 3897 
Q 3066 4069 2747 4153 
Q 2428 4238 2131 4238 
Q 1616 4238 1336 4038 
Q 1056 3838 1056 3469 
Q 1056 3159 1242 3001 
Q 1428 2844 1947 2747 
L 2328 2669 
Q 3034 2534 3370 2195 
Q 3706 1856 3706 1288 
Q 3706 609 3251 259 
Q 2797 -91 1919 -91 
Q 1588 -91 1214 -16 
Q 841 59 441 206 
L 441 856 
Q 825 641 1194 531 
Q 1563 422 1919 422 
Q 2459 422 2753 634 
Q 3047 847 3047 1241 
Q 3047 1584 2836 1778 
Q 2625 1972 2144 2069 
L 1759 2144 
Q 1053 2284 737 2584 
Q 422 2884 422 3419 
Q 422 4038 858 4394 
Q 1294 4750 2059 4750 
Q 2388 4750 2728 4690 
Q 3069 4631 3425 4513 
z
" id="DejaVuSans-53" transform="scale(0.015625)"/>
      <path id="DejaVuSans-20" transform="scale(0.015625)"/>
      <path d="M 628 4666 
L 1259 4666 
L 1259 0 
L 628 0 
L 628 4666 
z
" id="DejaVuSans-49" transform="scale(0.015625)"/>
      <path d="M 2375 4863 
L 2375 4384 
L 1825 4384 
Q 1516 4384 1395 4259 
Q 1275 4134 1275 3809 
L 1275 3500 
L 2222 3500 
L 2222 3053 
L 1275 3053 
L 1275 0 
L 697 0 
L 697 3053 
L 147 3053 
L 147 3500 
L 697 3500 
L 697 3744 
Q 697 4328 969 4595 
Q 1241 4863 1831 4863 
L 2375 4863 
z
" id="DejaVuSans-66" transform="scale(0.015625)"/>
      <path d="M 603 4863 
L 1178 4863 
L 1178 0 
L 603 0 
L 603 4863 
z
" id="DejaVuSans-6c" transform="scale(0.015625)"/>
      <path d="M 603 3500 
L 1178 3500 
L 1178 0 
L 603 0 
L 603 3500 
z
M 603 4863 
L 1178 4863 
L 1178 4134 
L 603 4134 
L 603 4863 
z
" id="DejaVuSans-69" transform="scale(0.015625)"/>
      <path d="M 1959 3097 
Q 1497 3097 1228 2736 
Q 959 2375 959 1747 
Q 959 1119 1226 758 
Q 1494 397 1959 397 
Q 2419 397 2687 759 
Q 2956 1122 2956 1747 
Q 2956 2369 2687 2733 
Q 2419 3097 1959 3097 
z
M 1959 3584 
Q 2709 3584 3137 3096 
Q 3566 2609 3566 1747 
Q 3566 888 3137 398 
Q 2709 -91 1959 -91 
Q 1206 -91 779 398 
Q 353 888 353 1747 
Q 353 2609 779 3096 
Q 1206 3584 1959 3584 
z
" id="DejaVuSans-6f" transform="scale(0.015625)"/>
      <path d="M 191 3500 
L 800 3500 
L 1894 563 
L 2988 3500 
L 3597 3500 
L 2284 0 
L 1503 0 
L 191 3500 
z
" id="DejaVuSans-76" transform="scale(0.015625)"/>
      <path d="M 2834 3397 
L 2834 2853 
Q 2591 2978 2328 3040 
Q 2066 3103 1784 3103 
Q 1356 3103 1142 2972 
Q 928 2841 928 2578 
Q 928 2378 1081 2264 
Q 1234 2150 1697 2047 
L 1894 2003 
Q 2506 1872 2764 1633 
Q 3022 1394 3022 966 
Q 3022 478 2636 193 
Q 2250 -91 1575 -91 
Q 1294 -91 989 -36 
Q 684 19 347 128 
L 347 722 
Q 666 556 975 473 
Q 1284 391 1588 391 
Q 1994 391 2212 530 
Q 2431 669 2431 922 
Q 2431 1156 2273 1281 
Q 2116 1406 1581 1522 
L 1381 1569 
Q 847 1681 609 1914 
Q 372 2147 372 2553 
Q 372 3047 722 3315 
Q 1072 3584 1716 3584 
Q 2034 3584 2315 3537 
Q 2597 3491 2834 3397 
z
" id="DejaVuSans-73" transform="scale(0.015625)"/>
      <path d="M 684 794 
L 1344 794 
L 1344 0 
L 684 0 
L 684 794 
z
" id="DejaVuSans-2e" transform="scale(0.015625)"/>
      <path d="M 628 4666 
L 3309 4666 
L 3309 4134 
L 1259 4134 
L 1259 2759 
L 3109 2759 
L 3109 2228 
L 1259 2228 
L 1259 0 
L 628 0 
L 628 4666 
z
" id="DejaVuSans-46" transform="scale(0.015625)"/>
      <path d="M 2906 2969 
L 2906 4863 
L 3481 4863 
L 3481 0 
L 2906 0 
L 2906 525 
Q 2725 213 2448 61 
Q 2172 -91 1784 -91 
Q 1150 -91 751 415 
Q 353 922 353 1747 
Q 353 2572 751 3078 
Q 1150 3584 1784 3584 
Q 2172 3584 2448 3432 
Q 2725 3281 2906 2969 
z
M 947 1747 
Q 947 1113 1208 752 
Q 1469 391 1925 391 
Q 2381 391 2643 752 
Q 2906 1113 2906 1747 
Q 2906 2381 2643 2742 
Q 2381 3103 1925 3103 
Q 1469 3103 1208 2742 
Q 947 2381 947 1747 
z
" id="DejaVuSans-64" transform="scale(0.015625)"/>
      <path d="M 544 1381 
L 544 3500 
L 1119 3500 
L 1119 1403 
Q 1119 906 1312 657 
Q 1506 409 1894 409 
Q 2359 409 2629 706 
Q 2900 1003 2900 1516 
L 2900 3500 
L 3475 3500 
L 3475 0 
L 2900 0 
L 2900 538 
Q 2691 219 2414 64 
Q 2138 -91 1772 -91 
Q 1169 -91 856 284 
Q 544 659 544 1381 
z
M 1991 3584 
L 1991 3584 
z
" id="DejaVuSans-75" transform="scale(0.015625)"/>
      <path d="M 2841 2188 
Q 3044 2119 3236 1894 
Q 3428 1669 3622 1275 
L 4263 0 
L 3584 0 
L 2988 1197 
Q 2756 1666 2539 1819 
Q 2322 1972 1947 1972 
L 1259 1972 
L 1259 0 
L 628 0 
L 628 4666 
L 2053 4666 
Q 2853 4666 3247 4331 
Q 3641 3997 3641 3322 
Q 3641 2881 3436 2590 
Q 3231 2300 2841 2188 
z
M 1259 4147 
L 1259 2491 
L 2053 2491 
Q 2509 2491 2742 2702 
Q 2975 2913 2975 3322 
Q 2975 3731 2742 3939 
Q 2509 4147 2053 4147 
L 1259 4147 
z
" id="DejaVuSans-52" transform="scale(0.015625)"/>
      <path d="M 313 2009 
L 1997 2009 
L 1997 1497 
L 313 1497 
L 313 2009 
z
" id="DejaVuSans-2d" transform="scale(0.015625)"/>
      <path d="M 1159 525 
L 1159 -1331 
L 581 -1331 
L 581 3500 
L 1159 3500 
L 1159 2969 
Q 1341 3281 1617 3432 
Q 1894 3584 2278 3584 
Q 2916 3584 3314 3078 
Q 3713 2572 3713 1747 
Q 3713 922 3314 415 
Q 2916 -91 2278 -91 
Q 1894 -91 1617 61 
Q 1341 213 1159 525 
z
M 3116 1747 
Q 3116 2381 2855 2742 
Q 2594 3103 2138 3103 
Q 1681 3103 1420 2742 
Q 1159 2381 1159 1747 
Q 1159 1113 1420 752 
Q 1681 391 2138 391 
Q 2594 391 2855 752 
Q 3116 1113 3116 1747 
z
" id="DejaVuSans-70" transform="scale(0.015625)"/>
     </defs>
     <use xlink:href="#DejaVuSans-55"/>
     <use x="73.193359" xlink:href="#DejaVuSans-53"/>
     <use x="136.669922" xlink:href="#DejaVuSans-20"/>
     <use x="168.457031" xlink:href="#DejaVuSans-49"/>
     <use x="197.949219" xlink:href="#DejaVuSans-6e"/>
     <use x="261.328125" xlink:href="#DejaVuSans-66"/>
     <use x="296.533203" xlink:href="#DejaVuSans-6c"/>
     <use x="324.316406" xlink:href="#DejaVuSans-61"/>
     <use x="385.595703" xlink:href="#DejaVuSans-74"/>
     <use x="424.804688" xlink:href="#DejaVuSans-69"/>
     <use x="452.587891" xlink:href="#DejaVuSans-6f"/>
     <use x="513.769531" xlink:href="#DejaVuSans-6e"/>
     <use x="577.148438" xlink:href="#DejaVuSans-20"/>
     <use x="608.935547" xlink:href="#DejaVuSans-76"/>
     <use x="668.115234" xlink:href="#DejaVuSans-73"/>
     <use x="720.214844" xlink:href="#DejaVuSans-2e"/>
     <use x="752.001953" xlink:href="#DejaVuSans-20"/>
     <use x="783.789062" xlink:href="#DejaVuSans-46"/>
     <use x="835.808594" xlink:href="#DejaVuSans-65"/>
     <use x="897.332031" xlink:href="#DejaVuSans-64"/>
     <use x="960.808594" xlink:href="#DejaVuSans-65"/>
     <use x="1022.332031" xlink:href="#DejaVuSans-72"/>
     <use x="1063.445312" xlink:href="#DejaVuSans-61"/>
     <use x="1124.724609" xlink:href="#DejaVuSans-6c"/>
     <use x="1152.507812" xlink:href="#DejaVuSans-20"/>
     <use x="1184.294922" xlink:href="#DejaVuSans-44"/>
     <use x="1261.296875" xlink:href="#DejaVuSans-69"/>
     <use x="1289.080078" xlink:href="#DejaVuSans-73"/>
     <use x="1341.179688" xlink:href="#DejaVuSans-63"/>
     <use x="1396.160156" xlink:href="#DejaVuSans-6f"/>
     <use x="1457.341797" xlink:href="#DejaVuSans-75"/>
     <use x="1520.720703" xlink:href="#DejaVuSans-6e"/>
     <use x="1584.099609" xlink:href="#DejaVuSans-74"/>
     <use x="1623.308594" xlink:href="#DejaVuSans-20"/>
     <use x="1655.095703" xlink:href="#DejaVuSans-52"/>
     <use x="1722.328125" xlink:href="#DejaVuSans-61"/>
     <use x="1783.607422" xlink:href="#DejaVuSans-74"/>
     <use x="1822.816406" xlink:href="#DejaVuSans-65"/>
     <use x="1884.339844" xlink:href="#DejaVuSans-20"/>
     <use x="1916.126953" xlink:href="#DejaVuSans-2d"/>
     <use x="1952.210938" xlink:href="#DejaVuSans-20"/>
     <use x="1983.998047" xlink:href="#DejaVuSans-31"/>
     <use x="2047.621094" xlink:href="#DejaVuSans-39"/>
     <use x="2111.244141" xlink:href="#DejaVuSans-38"/>
     <use x="2174.867188" xlink:href="#DejaVuSans-30"/>
     <use x="2238.490234" xlink:href="#DejaVuSans-20"/>
     <use x="2270.277344" xlink:href="#DejaVuSans-74"/>
     <use x="2309.486328" xlink:href="#DejaVuSans-6f"/>
     <use x="2370.667969" xlink:href="#DejaVuSans-20"/>
     <use x="2402.455078" xlink:href="#DejaVuSans-70"/>
     <use x="2465.931641" xlink:href="#DejaVuSans-72"/>
     <use x="2504.794922" xlink:href="#DejaVuSans-65"/>
     <use x="2566.318359" xlink:href="#DejaVuSans-73"/>
     <use x="2618.417969" xlink:href="#DejaVuSans-65"/>
     <use x="2679.941406" xlink:href="#DejaVuSans-6e"/>
     <use x="2743.320312" xlink:href="#DejaVuSans-74"/>
    </g>
   </g>
   <g id="legend_1">
    <g id="patch_7">
     <path d="M 64.6 302.584 
L 213.089062 302.584 
Q 215.089062 302.584 215.089062 300.584 
L 215.089062 272.22775 
Q 215.089062 270.22775 213.089062 270.22775 
L 64.6 270.22775 
Q 62.6 270.22775 62.6 272.22775 
L 62.6 300.584 
Q 62.6 302.584 64.6 302.584 
z
" style="fill:#ffffff;opacity:0.8;stroke:#cccccc;stroke-linejoin:miter;"/>
    </g>
    <g id="line2d_20">
     <path d="M 66.6 278.326187 
L 86.6 278.326187 
" style="fill:none;stroke:#1f77b4;stroke-linecap:square;stroke-width:1.5;"/>
    </g>
    <g id="line2d_21"/>
    <g id="text_20">
     <!-- CPI (Q-smoothed) -->
     <g transform="translate(94.6 281.826187)scale(0.1 -0.1)">
      <defs>
       <path d="M 4122 4306 
L 4122 3641 
Q 3803 3938 3442 4084 
Q 3081 4231 2675 4231 
Q 1875 4231 1450 3742 
Q 1025 3253 1025 2328 
Q 1025 1406 1450 917 
Q 1875 428 2675 428 
Q 3081 428 3442 575 
Q 3803 722 4122 1019 
L 4122 359 
Q 3791 134 3420 21 
Q 3050 -91 2638 -91 
Q 1578 -91 968 557 
Q 359 1206 359 2328 
Q 359 3453 968 4101 
Q 1578 4750 2638 4750 
Q 3056 4750 3426 4639 
Q 3797 4528 4122 4306 
z
" id="DejaVuSans-43" transform="scale(0.015625)"/>
       <path d="M 1984 4856 
Q 1566 4138 1362 3434 
Q 1159 2731 1159 2009 
Q 1159 1288 1364 580 
Q 1569 -128 1984 -844 
L 1484 -844 
Q 1016 -109 783 600 
Q 550 1309 550 2009 
Q 550 2706 781 3412 
Q 1013 4119 1484 4856 
L 1984 4856 
z
" id="DejaVuSans-28" transform="scale(0.015625)"/>
       <path d="M 2522 4238 
Q 1834 4238 1429 3725 
Q 1025 3213 1025 2328 
Q 1025 1447 1429 934 
Q 1834 422 2522 422 
Q 3209 422 3611 934 
Q 4013 1447 4013 2328 
Q 4013 3213 3611 3725 
Q 3209 4238 2522 4238 
z
M 3406 84 
L 4238 -825 
L 3475 -825 
L 2784 -78 
Q 2681 -84 2626 -87 
Q 2572 -91 2522 -91 
Q 1538 -91 948 567 
Q 359 1225 359 2328 
Q 359 3434 948 4092 
Q 1538 4750 2522 4750 
Q 3503 4750 4090 4092 
Q 4678 3434 4678 2328 
Q 4678 1516 4351 937 
Q 4025 359 3406 84 
z
" id="DejaVuSans-51" transform="scale(0.015625)"/>
       <path d="M 3328 2828 
Q 3544 3216 3844 3400 
Q 4144 3584 4550 3584 
Q 5097 3584 5394 3201 
Q 5691 2819 5691 2113 
L 5691 0 
L 5113 0 
L 5113 2094 
Q 5113 2597 4934 2840 
Q 4756 3084 4391 3084 
Q 3944 3084 3684 2787 
Q 3425 2491 3425 1978 
L 3425 0 
L 2847 0 
L 2847 2094 
Q 2847 2600 2669 2842 
Q 2491 3084 2119 3084 
Q 1678 3084 1418 2786 
Q 1159 2488 1159 1978 
L 1159 0 
L 581 0 
L 581 3500 
L 1159 3500 
L 1159 2956 
Q 1356 3278 1631 3431 
Q 1906 3584 2284 3584 
Q 2666 3584 2933 3390 
Q 3200 3197 3328 2828 
z
" id="DejaVuSans-6d" transform="scale(0.015625)"/>
       <path d="M 3513 2113 
L 3513 0 
L 2938 0 
L 2938 2094 
Q 2938 2591 2744 2837 
Q 2550 3084 2163 3084 
Q 1697 3084 1428 2787 
Q 1159 2491 1159 1978 
L 1159 0 
L 581 0 
L 581 4863 
L 1159 4863 
L 1159 2956 
Q 1366 3272 1645 3428 
Q 1925 3584 2291 3584 
Q 2894 3584 3203 3211 
Q 3513 2838 3513 2113 
z
" id="DejaVuSans-68" transform="scale(0.015625)"/>
       <path d="M 513 4856 
L 1013 4856 
Q 1481 4119 1714 3412 
Q 1947 2706 1947 2009 
Q 1947 1309 1714 600 
Q 1481 -109 1013 -844 
L 513 -844 
Q 928 -128 1133 580 
Q 1338 1288 1338 2009 
Q 1338 2731 1133 3434 
Q 928 4138 513 4856 
z
" id="DejaVuSans-29" transform="scale(0.015625)"/>
      </defs>
      <use xlink:href="#DejaVuSans-43"/>
      <use x="69.824219" xlink:href="#DejaVuSans-50"/>
      <use x="130.126953" xlink:href="#DejaVuSans-49"/>
      <use x="159.619141" xlink:href="#DejaVuSans-20"/>
      <use x="191.40625" xlink:href="#DejaVuSans-28"/>
      <use x="230.419922" xlink:href="#DejaVuSans-51"/>
      <use x="311.880859" xlink:href="#DejaVuSans-2d"/>
      <use x="347.964844" xlink:href="#DejaVuSans-73"/>
      <use x="400.064453" xlink:href="#DejaVuSans-6d"/>
      <use x="497.476562" xlink:href="#DejaVuSans-6f"/>
      <use x="558.658203" xlink:href="#DejaVuSans-6f"/>
      <use x="619.839844" xlink:href="#DejaVuSans-74"/>
      <use x="659.048828" xlink:href="#DejaVuSans-68"/>
      <use x="722.427734" xlink:href="#DejaVuSans-65"/>
      <use x="783.951172" xlink:href="#DejaVuSans-64"/>
      <use x="847.427734" xlink:href="#DejaVuSans-29"/>
     </g>
    </g>
    <g id="line2d_22">
     <path d="M 66.6 293.004312 
L 86.6 293.004312 
" style="fill:none;stroke:#ff7f0e;stroke-linecap:square;stroke-width:1.5;"/>
    </g>
    <g id="line2d_23"/>
    <g id="text_21">
     <!-- Fed Rate (Q-smoothed) -->
     <g transform="translate(94.6 296.504312)scale(0.1 -0.1)">
      <use xlink:href="#DejaVuSans-46"/>
      <use x="52.019531" xlink:href="#DejaVuSans-65"/>
      <use x="113.542969" xlink:href="#DejaVuSans-64"/>
      <use x="177.019531" xlink:href="#DejaVuSans-20"/>
      <use x="208.806641" xlink:href="#DejaVuSans-52"/>
      <use x="276.039062" xlink:href="#DejaVuSans-61"/>
      <use x="337.318359" xlink:href="#DejaVuSans-74"/>
      <use x="376.527344" xlink:href="#DejaVuSans-65"/>
      <use x="438.050781" xlink:href="#DejaVuSans-20"/>
      <use x="469.837891" xlink:href="#DejaVuSans-28"/>
      <use x="508.851562" xlink:href="#DejaVuSans-51"/>
      <use x="590.3125" xlink:href="#DejaVuSans-2d"/>
      <use x="626.396484" xlink:href="#DejaVuSans-73"/>
      <use x="678.496094" xlink:href="#DejaVuSans-6d"/>
      <use x="775.908203" xlink:href="#DejaVuSans-6f"/>
      <use x="837.089844" xlink:href="#DejaVuSans-6f"/>
      <use x="898.271484" xlink:href="#DejaVuSans-74"/>
      <use x="937.480469" xlink:href="#DejaVuSans-68"/>
      <use x="1000.859375" xlink:href="#DejaVuSans-65"/>
      <use x="1062.382812" xlink:href="#DejaVuSans-64"/>
      <use x="1125.859375" xlink:href="#DejaVuSans-29"/>
     </g>
    </g>
   </g>
  </g>
 </g>
 <defs>
  <clipPath id="pd272d76b42">
   <rect height="266.112" width="357.12" x="57.6" y="41.472"/>
  </clipPath>
 </defs>
</svg>
