<?xml version="1.0" encoding="utf-8" standalone="no"?>
<!DOCTYPE svg PUBLIC "-//W3C//DTD SVG 1.1//EN"
  "http://www.w3.org/Graphics/SVG/1.1/DTD/svg11.dtd">
<svg height="303.75pt" version="1.1" viewBox="0 0 540 303.75" width="540pt" xmlns="http://www.w3.org/2000/svg" xmlns:xlink="http://www.w3.org/1999/xlink">
 <metadata>
  <rdf:RDF xmlns:cc="http://creativecommons.org/ns#" xmlns:dc="http://purl.org/dc/elements/1.1/" xmlns:rdf="http://www.w3.org/1999/02/22-rdf-syntax-ns#">
   <cc:Work>
    <dc:type rdf:resource="http://purl.org/dc/dcmitype/StillImage"/>
    <dc:date>2023-02-20T08:28:35.651327</dc:date>
    <dc:format>image/svg+xml</dc:format>
    <dc:creator>
     <cc:Agent>
      <dc:title>Matplotlib v3.4.3, https://matplotlib.org/</dc:title>
     </cc:Agent>
    </dc:creator>
   </cc:Work>
  </rdf:RDF>
 </metadata>
 <defs>
  <style type="text/css">*{stroke-linecap:butt;stroke-linejoin:round;}</style>
 </defs>
 <g id="figure_1">
  <g id="patch_1">
   <path d="M 0 303.75 
L 540 303.75 
L 540 0 
L 0 0 
z
" style="fill:#ffffff;"/>
  </g>
  <g id="axes_1">
   <g id="patch_2">
    <path d="M 54 273.375 
L 486 273.375 
L 486 30.375 
L 54 30.375 
z
" style="fill:#ffffff;"/>
   </g>
   <g id="matplotlib.axis_1">
    <g id="xtick_1">
     <g id="line2d_1">
      <defs>
       <path d="M 0 0 
L 0 3.5 
" id="mf8db83a289" style="stroke:#000000;stroke-width:0.8;"/>
      </defs>
      <g>
       <use style="stroke:#000000;stroke-width:0.8;" x="54" xlink:href="#mf8db83a289" y="273.375"/>
      </g>
     </g>
     <g id="text_1">
      <!-- 1980 -->
      <g transform="translate(41.275 287.973437)scale(0.1 -0.1)">
       <defs>
        <path d="M 794 531 
L 1825 531 
L 1825 4091 
L 703 3866 
L 703 4441 
L 1819 4666 
L 2450 4666 
L 2450 531 
L 3481 531 
L 3481 0 
L 794 0 
L 794 531 
z
" id="DejaVuSans-31" transform="scale(0.015625)"/>
        <path d="M 703 97 
L 703 672 
Q 941 559 1184 500 
Q 1428 441 1663 441 
Q 2288 441 2617 861 
Q 2947 1281 2994 2138 
Q 2813 1869 2534 1725 
Q 2256 1581 1919 1581 
Q 1219 1581 811 2004 
Q 403 2428 403 3163 
Q 403 3881 828 4315 
Q 1253 4750 1959 4750 
Q 2769 4750 3195 4129 
Q 3622 3509 3622 2328 
Q 3622 1225 3098 567 
Q 2575 -91 1691 -91 
Q 1453 -91 1209 -44 
Q 966 3 703 97 
z
M 1959 2075 
Q 2384 2075 2632 2365 
Q 2881 2656 2881 3163 
Q 2881 3666 2632 3958 
Q 2384 4250 1959 4250 
Q 1534 4250 1286 3958 
Q 1038 3666 1038 3163 
Q 1038 2656 1286 2365 
Q 1534 2075 1959 2075 
z
" id="DejaVuSans-39" transform="scale(0.015625)"/>
        <path d="M 2034 2216 
Q 1584 2216 1326 1975 
Q 1069 1734 1069 1313 
Q 1069 891 1326 650 
Q 1584 409 2034 409 
Q 2484 409 2743 651 
Q 3003 894 3003 1313 
Q 3003 1734 2745 1975 
Q 2488 2216 2034 2216 
z
M 1403 2484 
Q 997 2584 770 2862 
Q 544 3141 544 3541 
Q 544 4100 942 4425 
Q 1341 4750 2034 4750 
Q 2731 4750 3128 4425 
Q 3525 4100 3525 3541 
Q 3525 3141 3298 2862 
Q 3072 2584 2669 2484 
Q 3125 2378 3379 2068 
Q 3634 1759 3634 1313 
Q 3634 634 3220 271 
Q 2806 -91 2034 -91 
Q 1263 -91 848 271 
Q 434 634 434 1313 
Q 434 1759 690 2068 
Q 947 2378 1403 2484 
z
M 1172 3481 
Q 1172 3119 1398 2916 
Q 1625 2713 2034 2713 
Q 2441 2713 2670 2916 
Q 2900 3119 2900 3481 
Q 2900 3844 2670 4047 
Q 2441 4250 2034 4250 
Q 1625 4250 1398 4047 
Q 1172 3844 1172 3481 
z
" id="DejaVuSans-38" transform="scale(0.015625)"/>
        <path d="M 2034 4250 
Q 1547 4250 1301 3770 
Q 1056 3291 1056 2328 
Q 1056 1369 1301 889 
Q 1547 409 2034 409 
Q 2525 409 2770 889 
Q 3016 1369 3016 2328 
Q 3016 3291 2770 3770 
Q 2525 4250 2034 4250 
z
M 2034 4750 
Q 2819 4750 3233 4129 
Q 3647 3509 3647 2328 
Q 3647 1150 3233 529 
Q 2819 -91 2034 -91 
Q 1250 -91 836 529 
Q 422 1150 422 2328 
Q 422 3509 836 4129 
Q 1250 4750 2034 4750 
z
" id="DejaVuSans-30" transform="scale(0.015625)"/>
       </defs>
       <use xlink:href="#DejaVuSans-31"/>
       <use x="63.623047" xlink:href="#DejaVuSans-39"/>
       <use x="127.246094" xlink:href="#DejaVuSans-38"/>
       <use x="190.869141" xlink:href="#DejaVuSans-30"/>
      </g>
     </g>
    </g>
    <g id="xtick_2">
     <g id="line2d_2">
      <g>
       <use style="stroke:#000000;stroke-width:0.8;" x="94.835265" xlink:href="#mf8db83a289" y="273.375"/>
      </g>
     </g>
     <g id="text_2">
      <!-- 1985 -->
      <g transform="translate(82.110265 287.973437)scale(0.1 -0.1)">
       <defs>
        <path d="M 691 4666 
L 3169 4666 
L 3169 4134 
L 1269 4134 
L 1269 2991 
Q 1406 3038 1543 3061 
Q 1681 3084 1819 3084 
Q 2600 3084 3056 2656 
Q 3513 2228 3513 1497 
Q 3513 744 3044 326 
Q 2575 -91 1722 -91 
Q 1428 -91 1123 -41 
Q 819 9 494 109 
L 494 744 
Q 775 591 1075 516 
Q 1375 441 1709 441 
Q 2250 441 2565 725 
Q 2881 1009 2881 1497 
Q 2881 1984 2565 2268 
Q 2250 2553 1709 2553 
Q 1456 2553 1204 2497 
Q 953 2441 691 2322 
L 691 4666 
z
" id="DejaVuSans-35" transform="scale(0.015625)"/>
       </defs>
       <use xlink:href="#DejaVuSans-31"/>
       <use x="63.623047" xlink:href="#DejaVuSans-39"/>
       <use x="127.246094" xlink:href="#DejaVuSans-38"/>
       <use x="190.869141" xlink:href="#DejaVuSans-35"/>
      </g>
     </g>
    </g>
    <g id="xtick_3">
     <g id="line2d_3">
      <g>
       <use style="stroke:#000000;stroke-width:0.8;" x="135.648179" xlink:href="#mf8db83a289" y="273.375"/>
      </g>
     </g>
     <g id="text_3">
      <!-- 1990 -->
      <g transform="translate(122.923179 287.973437)scale(0.1 -0.1)">
       <use xlink:href="#DejaVuSans-31"/>
       <use x="63.623047" xlink:href="#DejaVuSans-39"/>
       <use x="127.246094" xlink:href="#DejaVuSans-39"/>
       <use x="190.869141" xlink:href="#DejaVuSans-30"/>
      </g>
     </g>
    </g>
    <g id="xtick_4">
     <g id="line2d_4">
      <g>
       <use style="stroke:#000000;stroke-width:0.8;" x="176.461093" xlink:href="#mf8db83a289" y="273.375"/>
      </g>
     </g>
     <g id="text_4">
      <!-- 1995 -->
      <g transform="translate(163.736093 287.973437)scale(0.1 -0.1)">
       <use xlink:href="#DejaVuSans-31"/>
       <use x="63.623047" xlink:href="#DejaVuSans-39"/>
       <use x="127.246094" xlink:href="#DejaVuSans-39"/>
       <use x="190.869141" xlink:href="#DejaVuSans-35"/>
      </g>
     </g>
    </g>
    <g id="xtick_5">
     <g id="line2d_5">
      <g>
       <use style="stroke:#000000;stroke-width:0.8;" x="217.274007" xlink:href="#mf8db83a289" y="273.375"/>
      </g>
     </g>
     <g id="text_5">
      <!-- 2000 -->
      <g transform="translate(204.549007 287.973437)scale(0.1 -0.1)">
       <defs>
        <path d="M 1228 531 
L 3431 531 
L 3431 0 
L 469 0 
L 469 531 
Q 828 903 1448 1529 
Q 2069 2156 2228 2338 
Q 2531 2678 2651 2914 
Q 2772 3150 2772 3378 
Q 2772 3750 2511 3984 
Q 2250 4219 1831 4219 
Q 1534 4219 1204 4116 
Q 875 4013 500 3803 
L 500 4441 
Q 881 4594 1212 4672 
Q 1544 4750 1819 4750 
Q 2544 4750 2975 4387 
Q 3406 4025 3406 3419 
Q 3406 3131 3298 2873 
Q 3191 2616 2906 2266 
Q 2828 2175 2409 1742 
Q 1991 1309 1228 531 
z
" id="DejaVuSans-32" transform="scale(0.015625)"/>
       </defs>
       <use xlink:href="#DejaVuSans-32"/>
       <use x="63.623047" xlink:href="#DejaVuSans-30"/>
       <use x="127.246094" xlink:href="#DejaVuSans-30"/>
       <use x="190.869141" xlink:href="#DejaVuSans-30"/>
      </g>
     </g>
    </g>
    <g id="xtick_6">
     <g id="line2d_6">
      <g>
       <use style="stroke:#000000;stroke-width:0.8;" x="258.109272" xlink:href="#mf8db83a289" y="273.375"/>
      </g>
     </g>
     <g id="text_6">
      <!-- 2005 -->
      <g transform="translate(245.384272 287.973437)scale(0.1 -0.1)">
       <use xlink:href="#DejaVuSans-32"/>
       <use x="63.623047" xlink:href="#DejaVuSans-30"/>
       <use x="127.246094" xlink:href="#DejaVuSans-30"/>
       <use x="190.869141" xlink:href="#DejaVuSans-35"/>
      </g>
     </g>
    </g>
    <g id="xtick_7">
     <g id="line2d_7">
      <g>
       <use style="stroke:#000000;stroke-width:0.8;" x="298.922185" xlink:href="#mf8db83a289" y="273.375"/>
      </g>
     </g>
     <g id="text_7">
      <!-- 2010 -->
      <g transform="translate(286.197185 287.973437)scale(0.1 -0.1)">
       <use xlink:href="#DejaVuSans-32"/>
       <use x="63.623047" xlink:href="#DejaVuSans-30"/>
       <use x="127.246094" xlink:href="#DejaVuSans-31"/>
       <use x="190.869141" xlink:href="#DejaVuSans-30"/>
      </g>
     </g>
    </g>
    <g id="xtick_8">
     <g id="line2d_8">
      <g>
       <use style="stroke:#000000;stroke-width:0.8;" x="339.735099" xlink:href="#mf8db83a289" y="273.375"/>
      </g>
     </g>
     <g id="text_8">
      <!-- 2015 -->
      <g transform="translate(327.010099 287.973437)scale(0.1 -0.1)">
       <use xlink:href="#DejaVuSans-32"/>
       <use x="63.623047" xlink:href="#DejaVuSans-30"/>
       <use x="127.246094" xlink:href="#DejaVuSans-31"/>
       <use x="190.869141" xlink:href="#DejaVuSans-35"/>
      </g>
     </g>
    </g>
    <g id="xtick_9">
     <g id="line2d_9">
      <g>
       <use style="stroke:#000000;stroke-width:0.8;" x="380.548013" xlink:href="#mf8db83a289" y="273.375"/>
      </g>
     </g>
     <g id="text_9">
      <!-- 2020 -->
      <g transform="translate(367.823013 287.973437)scale(0.1 -0.1)">
       <use xlink:href="#DejaVuSans-32"/>
       <use x="63.623047" xlink:href="#DejaVuSans-30"/>
       <use x="127.246094" xlink:href="#DejaVuSans-32"/>
       <use x="190.869141" xlink:href="#DejaVuSans-30"/>
      </g>
     </g>
    </g>
    <g id="xtick_10">
     <g id="line2d_10">
      <g>
       <use style="stroke:#000000;stroke-width:0.8;" x="421.383278" xlink:href="#mf8db83a289" y="273.375"/>
      </g>
     </g>
     <g id="text_10">
      <!-- 2025 -->
      <g transform="translate(408.658278 287.973437)scale(0.1 -0.1)">
       <use xlink:href="#DejaVuSans-32"/>
       <use x="63.623047" xlink:href="#DejaVuSans-30"/>
       <use x="127.246094" xlink:href="#DejaVuSans-32"/>
       <use x="190.869141" xlink:href="#DejaVuSans-35"/>
      </g>
     </g>
    </g>
    <g id="xtick_11">
     <g id="line2d_11">
      <g>
       <use style="stroke:#000000;stroke-width:0.8;" x="462.196192" xlink:href="#mf8db83a289" y="273.375"/>
      </g>
     </g>
     <g id="text_11">
      <!-- 2030 -->
      <g transform="translate(449.471192 287.973437)scale(0.1 -0.1)">
       <defs>
        <path d="M 2597 2516 
Q 3050 2419 3304 2112 
Q 3559 1806 3559 1356 
Q 3559 666 3084 287 
Q 2609 -91 1734 -91 
Q 1441 -91 1130 -33 
Q 819 25 488 141 
L 488 750 
Q 750 597 1062 519 
Q 1375 441 1716 441 
Q 2309 441 2620 675 
Q 2931 909 2931 1356 
Q 2931 1769 2642 2001 
Q 2353 2234 1838 2234 
L 1294 2234 
L 1294 2753 
L 1863 2753 
Q 2328 2753 2575 2939 
Q 2822 3125 2822 3475 
Q 2822 3834 2567 4026 
Q 2313 4219 1838 4219 
Q 1578 4219 1281 4162 
Q 984 4106 628 3988 
L 628 4550 
Q 988 4650 1302 4700 
Q 1616 4750 1894 4750 
Q 2613 4750 3031 4423 
Q 3450 4097 3450 3541 
Q 3450 3153 3228 2886 
Q 3006 2619 2597 2516 
z
" id="DejaVuSans-33" transform="scale(0.015625)"/>
       </defs>
       <use xlink:href="#DejaVuSans-32"/>
       <use x="63.623047" xlink:href="#DejaVuSans-30"/>
       <use x="127.246094" xlink:href="#DejaVuSans-33"/>
       <use x="190.869141" xlink:href="#DejaVuSans-30"/>
      </g>
     </g>
    </g>
    <g id="text_12">
     <!-- Date -->
     <g transform="translate(255.659063 303.17125)scale(0.12 -0.12)">
      <defs>
       <path d="M 1259 4147 
L 1259 519 
L 2022 519 
Q 2988 519 3436 956 
Q 3884 1394 3884 2338 
Q 3884 3275 3436 3711 
Q 2988 4147 2022 4147 
L 1259 4147 
z
M 628 4666 
L 1925 4666 
Q 3281 4666 3915 4102 
Q 4550 3538 4550 2338 
Q 4550 1131 3912 565 
Q 3275 0 1925 0 
L 628 0 
L 628 4666 
z
" id="DejaVuSans-44" transform="scale(0.015625)"/>
       <path d="M 2194 1759 
Q 1497 1759 1228 1600 
Q 959 1441 959 1056 
Q 959 750 1161 570 
Q 1363 391 1709 391 
Q 2188 391 2477 730 
Q 2766 1069 2766 1631 
L 2766 1759 
L 2194 1759 
z
M 3341 1997 
L 3341 0 
L 2766 0 
L 2766 531 
Q 2569 213 2275 61 
Q 1981 -91 1556 -91 
Q 1019 -91 701 211 
Q 384 513 384 1019 
Q 384 1609 779 1909 
Q 1175 2209 1959 2209 
L 2766 2209 
L 2766 2266 
Q 2766 2663 2505 2880 
Q 2244 3097 1772 3097 
Q 1472 3097 1187 3025 
Q 903 2953 641 2809 
L 641 3341 
Q 956 3463 1253 3523 
Q 1550 3584 1831 3584 
Q 2591 3584 2966 3190 
Q 3341 2797 3341 1997 
z
" id="DejaVuSans-61" transform="scale(0.015625)"/>
       <path d="M 1172 4494 
L 1172 3500 
L 2356 3500 
L 2356 3053 
L 1172 3053 
L 1172 1153 
Q 1172 725 1289 603 
Q 1406 481 1766 481 
L 2356 481 
L 2356 0 
L 1766 0 
Q 1100 0 847 248 
Q 594 497 594 1153 
L 594 3053 
L 172 3053 
L 172 3500 
L 594 3500 
L 594 4494 
L 1172 4494 
z
" id="DejaVuSans-74" transform="scale(0.015625)"/>
       <path d="M 3597 1894 
L 3597 1613 
L 953 1613 
Q 991 1019 1311 708 
Q 1631 397 2203 397 
Q 2534 397 2845 478 
Q 3156 559 3463 722 
L 3463 178 
Q 3153 47 2828 -22 
Q 2503 -91 2169 -91 
Q 1331 -91 842 396 
Q 353 884 353 1716 
Q 353 2575 817 3079 
Q 1281 3584 2069 3584 
Q 2775 3584 3186 3129 
Q 3597 2675 3597 1894 
z
M 3022 2063 
Q 3016 2534 2758 2815 
Q 2500 3097 2075 3097 
Q 1594 3097 1305 2825 
Q 1016 2553 972 2059 
L 3022 2063 
z
" id="DejaVuSans-65" transform="scale(0.015625)"/>
      </defs>
      <use xlink:href="#DejaVuSans-44"/>
      <use x="77.001953" xlink:href="#DejaVuSans-61"/>
      <use x="138.28125" xlink:href="#DejaVuSans-74"/>
      <use x="177.490234" xlink:href="#DejaVuSans-65"/>
     </g>
    </g>
   </g>
   <g id="matplotlib.axis_2">
    <g id="ytick_1">
     <g id="line2d_12">
      <defs>
       <path d="M 0 0 
L -3.5 0 
" id="m97bcd215bd" style="stroke:#000000;stroke-width:0.8;"/>
      </defs>
      <g>
       <use style="stroke:#000000;stroke-width:0.8;" x="54" xlink:href="#m97bcd215bd" y="254.70275"/>
      </g>
     </g>
     <g id="text_13">
      <!-- 0.0 -->
      <g transform="translate(31.096875 258.501968)scale(0.1 -0.1)">
       <defs>
        <path d="M 684 794 
L 1344 794 
L 1344 0 
L 684 0 
L 684 794 
z
" id="DejaVuSans-2e" transform="scale(0.015625)"/>
       </defs>
       <use xlink:href="#DejaVuSans-30"/>
       <use x="63.623047" xlink:href="#DejaVuSans-2e"/>
       <use x="95.410156" xlink:href="#DejaVuSans-30"/>
      </g>
     </g>
    </g>
    <g id="ytick_2">
     <g id="line2d_13">
      <g>
       <use style="stroke:#000000;stroke-width:0.8;" x="54" xlink:href="#m97bcd215bd" y="223.999924"/>
      </g>
     </g>
     <g id="text_14">
      <!-- 2.5 -->
      <g transform="translate(31.096875 227.799143)scale(0.1 -0.1)">
       <use xlink:href="#DejaVuSans-32"/>
       <use x="63.623047" xlink:href="#DejaVuSans-2e"/>
       <use x="95.410156" xlink:href="#DejaVuSans-35"/>
      </g>
     </g>
    </g>
    <g id="ytick_3">
     <g id="line2d_14">
      <g>
       <use style="stroke:#000000;stroke-width:0.8;" x="54" xlink:href="#m97bcd215bd" y="193.297098"/>
      </g>
     </g>
     <g id="text_15">
      <!-- 5.0 -->
      <g transform="translate(31.096875 197.096317)scale(0.1 -0.1)">
       <use xlink:href="#DejaVuSans-35"/>
       <use x="63.623047" xlink:href="#DejaVuSans-2e"/>
       <use x="95.410156" xlink:href="#DejaVuSans-30"/>
      </g>
     </g>
    </g>
    <g id="ytick_4">
     <g id="line2d_15">
      <g>
       <use style="stroke:#000000;stroke-width:0.8;" x="54" xlink:href="#m97bcd215bd" y="162.594273"/>
      </g>
     </g>
     <g id="text_16">
      <!-- 7.5 -->
      <g transform="translate(31.096875 166.393492)scale(0.1 -0.1)">
       <defs>
        <path d="M 525 4666 
L 3525 4666 
L 3525 4397 
L 1831 0 
L 1172 0 
L 2766 4134 
L 525 4134 
L 525 4666 
z
" id="DejaVuSans-37" transform="scale(0.015625)"/>
       </defs>
       <use xlink:href="#DejaVuSans-37"/>
       <use x="63.623047" xlink:href="#DejaVuSans-2e"/>
       <use x="95.410156" xlink:href="#DejaVuSans-35"/>
      </g>
     </g>
    </g>
    <g id="ytick_5">
     <g id="line2d_16">
      <g>
       <use style="stroke:#000000;stroke-width:0.8;" x="54" xlink:href="#m97bcd215bd" y="131.891447"/>
      </g>
     </g>
     <g id="text_17">
      <!-- 10.0 -->
      <g transform="translate(24.734375 135.690666)scale(0.1 -0.1)">
       <use xlink:href="#DejaVuSans-31"/>
       <use x="63.623047" xlink:href="#DejaVuSans-30"/>
       <use x="127.246094" xlink:href="#DejaVuSans-2e"/>
       <use x="159.033203" xlink:href="#DejaVuSans-30"/>
      </g>
     </g>
    </g>
    <g id="ytick_6">
     <g id="line2d_17">
      <g>
       <use style="stroke:#000000;stroke-width:0.8;" x="54" xlink:href="#m97bcd215bd" y="101.188622"/>
      </g>
     </g>
     <g id="text_18">
      <!-- 12.5 -->
      <g transform="translate(24.734375 104.98784)scale(0.1 -0.1)">
       <use xlink:href="#DejaVuSans-31"/>
       <use x="63.623047" xlink:href="#DejaVuSans-32"/>
       <use x="127.246094" xlink:href="#DejaVuSans-2e"/>
       <use x="159.033203" xlink:href="#DejaVuSans-35"/>
      </g>
     </g>
    </g>
    <g id="ytick_7">
     <g id="line2d_18">
      <g>
       <use style="stroke:#000000;stroke-width:0.8;" x="54" xlink:href="#m97bcd215bd" y="70.485796"/>
      </g>
     </g>
     <g id="text_19">
      <!-- 15.0 -->
      <g transform="translate(24.734375 74.285015)scale(0.1 -0.1)">
       <use xlink:href="#DejaVuSans-31"/>
       <use x="63.623047" xlink:href="#DejaVuSans-35"/>
       <use x="127.246094" xlink:href="#DejaVuSans-2e"/>
       <use x="159.033203" xlink:href="#DejaVuSans-30"/>
      </g>
     </g>
    </g>
    <g id="ytick_8">
     <g id="line2d_19">
      <g>
       <use style="stroke:#000000;stroke-width:0.8;" x="54" xlink:href="#m97bcd215bd" y="39.782971"/>
      </g>
     </g>
     <g id="text_20">
      <!-- 17.5 -->
      <g transform="translate(24.734375 43.582189)scale(0.1 -0.1)">
       <use xlink:href="#DejaVuSans-31"/>
       <use x="63.623047" xlink:href="#DejaVuSans-37"/>
       <use x="127.246094" xlink:href="#DejaVuSans-2e"/>
       <use x="159.033203" xlink:href="#DejaVuSans-35"/>
      </g>
     </g>
    </g>
    <g id="text_21">
     <!-- Percent -->
     <g transform="translate(18.23875 174.444375)rotate(-90)scale(0.12 -0.12)">
      <defs>
       <path d="M 1259 4147 
L 1259 2394 
L 2053 2394 
Q 2494 2394 2734 2622 
Q 2975 2850 2975 3272 
Q 2975 3691 2734 3919 
Q 2494 4147 2053 4147 
L 1259 4147 
z
M 628 4666 
L 2053 4666 
Q 2838 4666 3239 4311 
Q 3641 3956 3641 3272 
Q 3641 2581 3239 2228 
Q 2838 1875 2053 1875 
L 1259 1875 
L 1259 0 
L 628 0 
L 628 4666 
z
" id="DejaVuSans-50" transform="scale(0.015625)"/>
       <path d="M 2631 2963 
Q 2534 3019 2420 3045 
Q 2306 3072 2169 3072 
Q 1681 3072 1420 2755 
Q 1159 2438 1159 1844 
L 1159 0 
L 581 0 
L 581 3500 
L 1159 3500 
L 1159 2956 
Q 1341 3275 1631 3429 
Q 1922 3584 2338 3584 
Q 2397 3584 2469 3576 
Q 2541 3569 2628 3553 
L 2631 2963 
z
" id="DejaVuSans-72" transform="scale(0.015625)"/>
       <path d="M 3122 3366 
L 3122 2828 
Q 2878 2963 2633 3030 
Q 2388 3097 2138 3097 
Q 1578 3097 1268 2742 
Q 959 2388 959 1747 
Q 959 1106 1268 751 
Q 1578 397 2138 397 
Q 2388 397 2633 464 
Q 2878 531 3122 666 
L 3122 134 
Q 2881 22 2623 -34 
Q 2366 -91 2075 -91 
Q 1284 -91 818 406 
Q 353 903 353 1747 
Q 353 2603 823 3093 
Q 1294 3584 2113 3584 
Q 2378 3584 2631 3529 
Q 2884 3475 3122 3366 
z
" id="DejaVuSans-63" transform="scale(0.015625)"/>
       <path d="M 3513 2113 
L 3513 0 
L 2938 0 
L 2938 2094 
Q 2938 2591 2744 2837 
Q 2550 3084 2163 3084 
Q 1697 3084 1428 2787 
Q 1159 2491 1159 1978 
L 1159 0 
L 581 0 
L 581 3500 
L 1159 3500 
L 1159 2956 
Q 1366 3272 1645 3428 
Q 1925 3584 2291 3584 
Q 2894 3584 3203 3211 
Q 3513 2838 3513 2113 
z
" id="DejaVuSans-6e" transform="scale(0.015625)"/>
      </defs>
      <use xlink:href="#DejaVuSans-50"/>
      <use x="56.677734" xlink:href="#DejaVuSans-65"/>
      <use x="118.201172" xlink:href="#DejaVuSans-72"/>
      <use x="157.064453" xlink:href="#DejaVuSans-63"/>
      <use x="212.044922" xlink:href="#DejaVuSans-65"/>
      <use x="273.568359" xlink:href="#DejaVuSans-6e"/>
      <use x="336.947266" xlink:href="#DejaVuSans-74"/>
     </g>
    </g>
   </g>
   <g id="line2d_20">
    <path clip-path="url(#pad55d72a12)" d="M 61.487583 87.981085 
L 62.180464 90.113908 
L 62.873344 92.954431 
L 65.555464 111.844805 
L 66.918874 116.388004 
L 67.611755 118.074715 
L 68.975166 123.889892 
L 73.020695 145.493393 
L 73.713576 148.040274 
L 75.076987 157.532114 
L 76.440397 168.69954 
L 78.496689 183.818993 
L 79.815397 191.306092 
L 80.508278 193.977954 
L 81.178808 197.18379 
L 82.542219 205.848342 
L 83.235099 209.217097 
L 84.59851 213.792565 
L 85.291391 215.147378 
L 85.961921 215.187098 
L 86.654801 214.695167 
L 87.995861 212.329923 
L 89.359272 210.948429 
L 92.778974 202.827348 
L 93.471854 202.022862 
L 94.142384 201.861478 
L 94.835265 202.536275 
L 96.846854 205.664064 
L 98.210265 206.608042 
L 98.880795 207.273188 
L 100.266556 209.391059 
L 100.937086 210.443716 
L 101.629967 210.993921 
L 102.300497 211.147435 
L 102.993377 210.785776 
L 103.686258 211.197613 
L 104.312086 212.679598 
L 107.731788 223.040399 
L 108.424669 224.461398 
L 109.095199 226.259488 
L 109.788079 228.541087 
L 111.15149 233.788384 
L 111.844371 234.82093 
L 112.470199 234.025267 
L 115.19702 225.031621 
L 117.253311 216.462646 
L 119.309603 207.079873 
L 120.002483 205.198455 
L 120.650662 204.285578 
L 122.706954 203.800218 
L 123.377483 203.592349 
L 126.126656 204.627485 
L 126.797185 204.642816 
L 127.490066 204.0078 
L 128.182947 203.102128 
L 129.501656 200.775744 
L 130.172185 199.269934 
L 130.865066 198.03698 
L 131.535596 197.168244 
L 132.228477 196.467298 
L 133.591887 196.048317 
L 134.284768 195.629807 
L 134.955298 195.396578 
L 136.34106 194.403198 
L 136.966887 194.142746 
L 137.659768 194.564613 
L 138.330298 195.587867 
L 139.023179 196.095323 
L 139.693709 196.254722 
L 140.386589 195.321254 
L 142.442881 189.962055 
L 143.113411 188.468905 
L 143.806291 188.009202 
L 144.499172 187.958706 
L 145.125 188.304553 
L 145.817881 188.124542 
L 146.488411 187.51899 
L 147.181291 187.496199 
L 147.851821 187.880291 
L 148.544702 189.741486 
L 149.237583 192.575244 
L 151.271523 202.498121 
L 151.964404 205.620793 
L 152.657285 208.17272 
L 155.361755 215.290259 
L 156.032285 216.611228 
L 156.725166 217.278001 
L 157.418046 217.690207 
L 158.088576 217.402644 
L 158.781457 217.342917 
L 159.451987 217.51038 
L 160.144868 216.83675 
L 160.837748 216.398969 
L 161.463576 216.499592 
L 162.156457 216.45319 
L 162.826987 216.250971 
L 163.519868 216.345648 
L 166.93957 218.273919 
L 167.610099 218.429725 
L 170.31457 221.40749 
L 170.985099 222.362041 
L 171.67798 222.876467 
L 172.34851 222.882321 
L 173.041391 222.746584 
L 173.734272 222.466001 
L 174.404801 222.611583 
L 175.768212 222.688003 
L 177.153974 222.046201 
L 177.779801 221.691788 
L 178.472682 220.983771 
L 179.143212 220.064784 
L 179.836093 219.504488 
L 180.506623 219.511939 
L 181.199503 219.801671 
L 181.892384 220.23147 
L 182.562914 220.025484 
L 184.619205 220.314787 
L 185.312086 220.531989 
L 185.960265 220.545396 
L 186.653146 220.705337 
L 188.016556 221.300921 
L 189.379967 220.842149 
L 190.072848 220.372293 
L 190.743377 220.184525 
L 191.436258 219.519297 
L 192.106788 218.716858 
L 193.49255 218.000848 
L 194.118377 218.081125 
L 194.811258 218.49197 
L 195.481788 219.163277 
L 196.174669 219.630697 
L 198.23096 221.904907 
L 198.90149 222.834373 
L 200.264901 225.952542 
L 202.969371 231.593715 
L 205.696192 233.964772 
L 207.059603 235.259715 
L 207.752483 235.546796 
L 208.423013 235.639416 
L 209.808775 235.368945 
L 210.434603 235.009456 
L 211.127483 234.148528 
L 211.798013 233.73711 
L 212.490894 233.451728 
L 213.161424 232.978525 
L 213.854305 232.315887 
L 217.274007 226.758593 
L 217.966887 225.104786 
L 218.615066 223.025877 
L 219.307947 222.21566 
L 219.978477 221.089399 
L 221.341887 217.730602 
L 222.034768 216.556986 
L 225.45447 212.224561 
L 226.147351 211.905569 
L 226.773179 212.762199 
L 227.46606 212.556971 
L 228.136589 212.120755 
L 228.82947 212.614232 
L 229.5 213.575598 
L 230.885762 215.108099 
L 232.249172 218.048007 
L 232.919702 219.926089 
L 234.305464 225.028837 
L 235.624172 228.175611 
L 236.987583 232.897941 
L 237.658113 234.182465 
L 238.350993 235.12104 
L 239.043874 236.281546 
L 239.714404 236.384451 
L 240.407285 236.074394 
L 241.077815 235.229871 
L 241.770695 233.74058 
L 243.089404 230.273463 
L 243.782285 229.6744 
L 245.816225 227.048203 
L 246.509106 226.684426 
L 247.201987 225.8594 
L 247.872517 225.84412 
L 249.235927 226.796737 
L 249.928808 227.48361 
L 251.269868 230.114545 
L 251.962748 230.05273 
L 253.996689 226.953106 
L 254.68957 226.445363 
L 255.38245 226.222911 
L 256.05298 225.047638 
L 256.745861 223.248442 
L 257.416391 221.840134 
L 258.109272 220.772177 
L 260.120861 216.728492 
L 260.791391 216.983346 
L 261.484272 217.736476 
L 262.154801 217.555186 
L 262.847682 216.545298 
L 263.540563 214.346076 
L 264.211093 213.160292 
L 264.903974 213.229414 
L 265.574503 213.065563 
L 266.267384 212.026211 
L 266.960265 211.422409 
L 267.586093 211.203089 
L 268.278974 211.167177 
L 268.949503 209.771303 
L 269.642384 207.940944 
L 270.312914 206.940605 
L 271.005795 206.758865 
L 271.698675 209.444656 
L 272.369205 212.558547 
L 273.062086 214.075082 
L 273.732616 214.970592 
L 274.425497 216.925011 
L 275.118377 218.135009 
L 275.744205 218.732558 
L 276.437086 219.72736 
L 277.800497 222.907702 
L 279.163907 226.628649 
L 279.856788 225.919741 
L 281.220199 221.24936 
L 281.890728 219.672647 
L 282.583609 217.416348 
L 283.27649 215.767238 
L 284.61755 213.141256 
L 285.288079 211.621793 
L 285.98096 209.232346 
L 287.344371 202.433042 
L 288.037252 200.200045 
L 288.707781 200.078237 
L 289.400662 203.390693 
L 292.082781 220.170489 
L 292.775662 224.95376 
L 294.139073 237.138227 
L 295.502483 252.032659 
L 296.195364 258.401592 
L 296.865894 262.329545 
L 297.558775 261.542806 
L 298.922185 256.194599 
L 299.615066 254.24278 
L 303.660596 236.416493 
L 304.353477 233.929676 
L 305.024007 232.542893 
L 305.716887 233.254319 
L 306.387417 234.508642 
L 307.080298 235.525785 
L 307.773179 235.562373 
L 308.399007 235.18612 
L 309.091887 234.237218 
L 309.762417 232.653301 
L 313.875 217.454358 
L 315.238411 214.629626 
L 315.931291 213.848219 
L 316.57947 213.879127 
L 317.272351 214.760185 
L 319.306291 220.87978 
L 320.692053 224.928367 
L 323.418874 230.60314 
L 324.111755 231.517245 
L 325.430464 233.991033 
L 326.100993 234.341342 
L 326.793874 234.248793 
L 327.464404 233.683626 
L 328.157285 233.861713 
L 328.850166 234.686964 
L 329.520695 235.913774 
L 330.213576 236.453182 
L 330.884106 236.698067 
L 331.576987 236.71435 
L 332.269868 237.58587 
L 332.895695 237.546673 
L 334.259106 235.852972 
L 334.951987 235.527604 
L 335.622517 235.495212 
L 336.315397 235.309726 
L 337.008278 234.825645 
L 337.678808 234.108502 
L 338.371689 234.021214 
L 339.042219 234.78392 
L 339.735099 236.491302 
L 340.42798 237.669758 
L 341.053808 239.292748 
L 343.110099 245.70758 
L 343.780629 247.573043 
L 345.836921 252.37532 
L 346.529801 253.215106 
L 347.200331 253.242711 
L 347.893212 251.746011 
L 349.234272 249.730777 
L 350.597682 247.291049 
L 351.290563 246.397028 
L 351.961093 245.724054 
L 352.653974 244.835923 
L 354.017384 241.801127 
L 356.073675 238.052524 
L 357.392384 234.728192 
L 358.755795 232.752834 
L 359.448675 232.101766 
L 360.812086 230.283206 
L 361.504967 229.496006 
L 362.868377 228.559386 
L 363.538907 228.524118 
L 364.924669 229.502198 
L 365.550497 229.523588 
L 366.243377 229.254375 
L 366.913907 228.306548 
L 368.277318 225.789326 
L 368.970199 225.011306 
L 369.663079 224.966265 
L 370.333609 224.473648 
L 371.02649 224.500237 
L 371.69702 224.703817 
L 372.389901 225.235263 
L 373.708609 226.451964 
L 374.40149 226.929189 
L 375.764901 229.215372 
L 376.43543 230.380084 
L 377.128311 231.351726 
L 377.821192 231.930638 
L 378.491722 232.706836 
L 379.184603 232.835092 
L 379.855132 232.451337 
L 381.240894 230.660268 
L 381.889073 230.991029 
L 383.252483 234.408916 
L 384.615894 236.279879 
L 386.672185 237.67387 
L 388.035596 239.515906 
L 388.728477 240.628167 
L 389.421358 241.302248 
L 390.047185 240.196506 
L 390.740066 236.276161 
L 392.774007 221.948279 
L 394.159768 213.801141 
L 395.523179 202.87681 
L 397.57947 184.506961 
L 398.205298 178.445507 
L 399.568709 170.577673 
L 400.932119 163.590078 
L 402.317881 157.630926 
L 402.988411 156.071673 
L 403.681291 155.763293 
L 404.351821 156.358928 
L 404.351821 156.358928 
" style="fill:none;stroke:#1f77b4;stroke-linecap:square;stroke-width:2;"/>
   </g>
   <g id="line2d_21">
    <path clip-path="url(#pad55d72a12)" d="M 61.487583 76.71847 
L 62.180464 72.778274 
L 62.873344 73.597016 
L 63.499172 78.939307 
L 64.192053 74.559038 
L 64.862583 67.906759 
L 66.225993 51.808244 
L 66.918874 45.57557 
L 67.611755 42.106151 
L 68.282285 41.420455 
L 68.975166 47.683831 
L 69.645695 56.761633 
L 70.338576 59.872853 
L 71.031457 61.704788 
L 71.657285 59.48395 
L 72.350166 63.209226 
L 73.713576 71.642269 
L 75.076987 84.179256 
L 75.769868 88.692572 
L 76.440397 93.840412 
L 77.133278 97.432643 
L 77.803808 99.407858 
L 79.815397 116.652612 
L 80.508278 123.243485 
L 81.871689 132.413395 
L 82.542219 134.347673 
L 83.235099 135.412038 
L 83.92798 137.029053 
L 84.59851 137.008585 
L 85.291391 136.58898 
L 85.961921 137.898967 
L 87.347682 136.148906 
L 87.995861 136.732259 
L 89.359272 132.710189 
L 90.052152 131.901682 
L 91.415563 127.439538 
L 92.778974 126.211425 
L 93.471854 126.641264 
L 94.142384 127.848909 
L 95.528146 129.210067 
L 96.153974 130.908957 
L 96.846854 133.283309 
L 99.573675 146.720912 
L 100.266556 149.166904 
L 100.937086 151.12165 
L 101.629967 151.510553 
L 103.686258 154.539898 
L 104.312086 155.901057 
L 105.004967 157.773929 
L 105.675497 158.620816 
L 106.368377 159.721 
L 109.095199 169.269579 
L 109.788079 171.997013 
L 111.15149 175.706938 
L 111.844371 177.497936 
L 112.470199 178.777221 
L 113.163079 179.033077 
L 114.52649 179.22497 
L 115.19702 178.969113 
L 115.889901 178.073614 
L 117.253311 175.13126 
L 118.616722 173.212333 
L 120.650662 171.293407 
L 121.343543 171.03755 
L 122.014073 170.525836 
L 122.706954 169.82223 
L 123.377483 168.734838 
L 124.070364 167.327625 
L 125.433775 165.664555 
L 126.126656 164.06545 
L 126.797185 162.146523 
L 127.490066 159.715883 
L 129.501656 150.249178 
L 130.172185 147.626645 
L 130.865066 145.451862 
L 131.535596 144.044649 
L 132.921358 142.125722 
L 133.591887 141.48608 
L 134.284768 141.358152 
L 134.955298 141.805901 
L 135.648179 142.573472 
L 139.023179 150.12125 
L 141.75 154.406853 
L 142.442881 155.43028 
L 143.806291 158.244706 
L 144.499172 160.291561 
L 149.237583 177.945686 
L 151.964404 189.459245 
L 153.998344 195.855667 
L 155.361755 199.949377 
L 156.725166 204.810658 
L 158.088576 209.160225 
L 158.781457 210.951223 
L 161.463576 215.044933 
L 163.519868 217.347645 
L 164.883278 217.859359 
L 168.30298 217.859359 
L 168.995861 217.603502 
L 169.621689 217.091788 
L 170.31457 216.324218 
L 172.34851 212.486364 
L 174.404801 207.11337 
L 177.153974 196.623238 
L 177.779801 194.064669 
L 178.472682 191.761957 
L 180.506623 186.64482 
L 182.562914 183.574537 
L 183.255795 183.31868 
L 183.926325 183.31868 
L 184.619205 183.574537 
L 188.687086 187.924104 
L 191.436258 189.970959 
L 192.106788 190.226816 
L 193.49255 190.226816 
L 197.538079 188.691675 
L 201.650662 187.156533 
L 205.696192 187.156533 
L 206.389073 187.41239 
L 207.059603 187.924104 
L 212.490894 193.808812 
L 213.161424 194.320526 
L 213.854305 194.576383 
L 214.547185 194.576383 
L 215.217715 194.320526 
L 217.274007 192.017814 
L 217.966887 190.994387 
L 219.307947 188.435818 
L 220.671358 185.109678 
L 221.341887 183.574537 
L 224.09106 178.713256 
L 224.761589 177.689829 
L 225.45447 177.689829 
L 226.147351 177.945686 
L 226.773179 178.969113 
L 227.46606 180.504254 
L 229.5 188.691675 
L 230.192881 191.761957 
L 230.885762 195.343954 
L 232.249172 204.043087 
L 232.919702 208.904368 
L 234.931291 219.906214 
L 236.294702 225.023352 
L 238.350993 230.90806 
L 239.043874 232.187344 
L 240.407285 233.722486 
L 244.452815 236.792768 
L 247.872517 240.630621 
L 252.633278 242.421619 
L 253.996689 241.909906 
L 254.68957 241.398192 
L 256.05298 239.863051 
L 256.745861 238.839623 
L 258.802152 234.745913 
L 263.540563 220.929642 
L 271.005795 198.414236 
L 273.062086 194.064669 
L 273.732616 193.041242 
L 275.118377 191.5061 
L 276.437086 190.482673 
L 277.107616 190.226816 
L 279.163907 190.226816 
L 279.856788 190.73853 
L 281.220199 192.273671 
L 281.890728 193.297098 
L 283.27649 197.902522 
L 288.707781 223.999924 
L 289.400662 227.58192 
L 290.071192 231.803559 
L 292.082781 239.863051 
L 296.195364 251.37661 
L 297.558775 253.167608 
L 346.529801 253.167608 
L 356.766556 249.329755 
L 359.448675 247.027043 
L 369.663079 235.257627 
L 373.082781 230.140489 
L 375.07202 227.837777 
L 376.43543 226.81435 
L 377.128311 226.558493 
L 377.821192 226.81435 
L 379.184603 227.837777 
L 381.240894 230.140489 
L 383.945364 239.351337 
L 385.308775 243.700904 
L 386.672185 247.027043 
L 389.421358 253.167608 
L 397.57947 253.167608 
L 398.898179 252.655895 
L 399.568709 251.888324 
L 400.261589 250.353183 
L 401.625 245.747759 
L 402.988411 239.607194 
L 403.681291 235.769341 
L 404.351821 231.419774 
L 404.351821 231.419774 
" style="fill:none;stroke:#ff7f0e;stroke-linecap:square;stroke-width:2;"/>
   </g>
   <g id="line2d_22">
    <path clip-path="url(#pad55d72a12)" d="M 404.351821 273.375 
L 404.351821 30.375 
" style="fill:none;stroke:#ff0000;stroke-dasharray:7.4,3.2;stroke-dashoffset:0;stroke-width:2;"/>
   </g>
   <g id="patch_3">
    <path d="M 54 273.375 
L 54 30.375 
" style="fill:none;stroke:#000000;stroke-linecap:square;stroke-linejoin:miter;stroke-width:2;"/>
   </g>
   <g id="patch_4">
    <path d="M 486 273.375 
L 486 30.375 
" style="fill:none;stroke:#000000;stroke-linecap:square;stroke-linejoin:miter;stroke-width:2;"/>
   </g>
   <g id="patch_5">
    <path d="M 54 273.375 
L 486 273.375 
" style="fill:none;stroke:#000000;stroke-linecap:square;stroke-linejoin:miter;stroke-width:2;"/>
   </g>
   <g id="patch_6">
    <path d="M 54 30.375 
L 486 30.375 
" style="fill:none;stroke:#000000;stroke-linecap:square;stroke-linejoin:miter;stroke-width:2;"/>
   </g>
   <g id="text_22">
    <!-- US Inflation vs. Federal Discount Rate - 1980 to present -->
    <g transform="translate(75.226094 24.375)scale(0.14 -0.14)">
     <defs>
      <path d="M 556 4666 
L 1191 4666 
L 1191 1831 
Q 1191 1081 1462 751 
Q 1734 422 2344 422 
Q 2950 422 3222 751 
Q 3494 1081 3494 1831 
L 3494 4666 
L 4128 4666 
L 4128 1753 
Q 4128 841 3676 375 
Q 3225 -91 2344 -91 
Q 1459 -91 1007 375 
Q 556 841 556 1753 
L 556 4666 
z
" id="DejaVuSans-55" transform="scale(0.015625)"/>
      <path d="M 3425 4513 
L 3425 3897 
Q 3066 4069 2747 4153 
Q 2428 4238 2131 4238 
Q 1616 4238 1336 4038 
Q 1056 3838 1056 3469 
Q 1056 3159 1242 3001 
Q 1428 2844 1947 2747 
L 2328 2669 
Q 3034 2534 3370 2195 
Q 3706 1856 3706 1288 
Q 3706 609 3251 259 
Q 2797 -91 1919 -91 
Q 1588 -91 1214 -16 
Q 841 59 441 206 
L 441 856 
Q 825 641 1194 531 
Q 1563 422 1919 422 
Q 2459 422 2753 634 
Q 3047 847 3047 1241 
Q 3047 1584 2836 1778 
Q 2625 1972 2144 2069 
L 1759 2144 
Q 1053 2284 737 2584 
Q 422 2884 422 3419 
Q 422 4038 858 4394 
Q 1294 4750 2059 4750 
Q 2388 4750 2728 4690 
Q 3069 4631 3425 4513 
z
" id="DejaVuSans-53" transform="scale(0.015625)"/>
      <path id="DejaVuSans-20" transform="scale(0.015625)"/>
      <path d="M 628 4666 
L 1259 4666 
L 1259 0 
L 628 0 
L 628 4666 
z
" id="DejaVuSans-49" transform="scale(0.015625)"/>
      <path d="M 2375 4863 
L 2375 4384 
L 1825 4384 
Q 1516 4384 1395 4259 
Q 1275 4134 1275 3809 
L 1275 3500 
L 2222 3500 
L 2222 3053 
L 1275 3053 
L 1275 0 
L 697 0 
L 697 3053 
L 147 3053 
L 147 3500 
L 697 3500 
L 697 3744 
Q 697 4328 969 4595 
Q 1241 4863 1831 4863 
L 2375 4863 
z
" id="DejaVuSans-66" transform="scale(0.015625)"/>
      <path d="M 603 4863 
L 1178 4863 
L 1178 0 
L 603 0 
L 603 4863 
z
" id="DejaVuSans-6c" transform="scale(0.015625)"/>
      <path d="M 603 3500 
L 1178 3500 
L 1178 0 
L 603 0 
L 603 3500 
z
M 603 4863 
L 1178 4863 
L 1178 4134 
L 603 4134 
L 603 4863 
z
" id="DejaVuSans-69" transform="scale(0.015625)"/>
      <path d="M 1959 3097 
Q 1497 3097 1228 2736 
Q 959 2375 959 1747 
Q 959 1119 1226 758 
Q 1494 397 1959 397 
Q 2419 397 2687 759 
Q 2956 1122 2956 1747 
Q 2956 2369 2687 2733 
Q 2419 3097 1959 3097 
z
M 1959 3584 
Q 2709 3584 3137 3096 
Q 3566 2609 3566 1747 
Q 3566 888 3137 398 
Q 2709 -91 1959 -91 
Q 1206 -91 779 398 
Q 353 888 353 1747 
Q 353 2609 779 3096 
Q 1206 3584 1959 3584 
z
" id="DejaVuSans-6f" transform="scale(0.015625)"/>
      <path d="M 191 3500 
L 800 3500 
L 1894 563 
L 2988 3500 
L 3597 3500 
L 2284 0 
L 1503 0 
L 191 3500 
z
" id="DejaVuSans-76" transform="scale(0.015625)"/>
      <path d="M 2834 3397 
L 2834 2853 
Q 2591 2978 2328 3040 
Q 2066 3103 1784 3103 
Q 1356 3103 1142 2972 
Q 928 2841 928 2578 
Q 928 2378 1081 2264 
Q 1234 2150 1697 2047 
L 1894 2003 
Q 2506 1872 2764 1633 
Q 3022 1394 3022 966 
Q 3022 478 2636 193 
Q 2250 -91 1575 -91 
Q 1294 -91 989 -36 
Q 684 19 347 128 
L 347 722 
Q 666 556 975 473 
Q 1284 391 1588 391 
Q 1994 391 2212 530 
Q 2431 669 2431 922 
Q 2431 1156 2273 1281 
Q 2116 1406 1581 1522 
L 1381 1569 
Q 847 1681 609 1914 
Q 372 2147 372 2553 
Q 372 3047 722 3315 
Q 1072 3584 1716 3584 
Q 2034 3584 2315 3537 
Q 2597 3491 2834 3397 
z
" id="DejaVuSans-73" transform="scale(0.015625)"/>
      <path d="M 628 4666 
L 3309 4666 
L 3309 4134 
L 1259 4134 
L 1259 2759 
L 3109 2759 
L 3109 2228 
L 1259 2228 
L 1259 0 
L 628 0 
L 628 4666 
z
" id="DejaVuSans-46" transform="scale(0.015625)"/>
      <path d="M 2906 2969 
L 2906 4863 
L 3481 4863 
L 3481 0 
L 2906 0 
L 2906 525 
Q 2725 213 2448 61 
Q 2172 -91 1784 -91 
Q 1150 -91 751 415 
Q 353 922 353 1747 
Q 353 2572 751 3078 
Q 1150 3584 1784 3584 
Q 2172 3584 2448 3432 
Q 2725 3281 2906 2969 
z
M 947 1747 
Q 947 1113 1208 752 
Q 1469 391 1925 391 
Q 2381 391 2643 752 
Q 2906 1113 2906 1747 
Q 2906 2381 2643 2742 
Q 2381 3103 1925 3103 
Q 1469 3103 1208 2742 
Q 947 2381 947 1747 
z
" id="DejaVuSans-64" transform="scale(0.015625)"/>
      <path d="M 544 1381 
L 544 3500 
L 1119 3500 
L 1119 1403 
Q 1119 906 1312 657 
Q 1506 409 1894 409 
Q 2359 409 2629 706 
Q 2900 1003 2900 1516 
L 2900 3500 
L 3475 3500 
L 3475 0 
L 2900 0 
L 2900 538 
Q 2691 219 2414 64 
Q 2138 -91 1772 -91 
Q 1169 -91 856 284 
Q 544 659 544 1381 
z
M 1991 3584 
L 1991 3584 
z
" id="DejaVuSans-75" transform="scale(0.015625)"/>
      <path d="M 2841 2188 
Q 3044 2119 3236 1894 
Q 3428 1669 3622 1275 
L 4263 0 
L 3584 0 
L 2988 1197 
Q 2756 1666 2539 1819 
Q 2322 1972 1947 1972 
L 1259 1972 
L 1259 0 
L 628 0 
L 628 4666 
L 2053 4666 
Q 2853 4666 3247 4331 
Q 3641 3997 3641 3322 
Q 3641 2881 3436 2590 
Q 3231 2300 2841 2188 
z
M 1259 4147 
L 1259 2491 
L 2053 2491 
Q 2509 2491 2742 2702 
Q 2975 2913 2975 3322 
Q 2975 3731 2742 3939 
Q 2509 4147 2053 4147 
L 1259 4147 
z
" id="DejaVuSans-52" transform="scale(0.015625)"/>
      <path d="M 313 2009 
L 1997 2009 
L 1997 1497 
L 313 1497 
L 313 2009 
z
" id="DejaVuSans-2d" transform="scale(0.015625)"/>
      <path d="M 1159 525 
L 1159 -1331 
L 581 -1331 
L 581 3500 
L 1159 3500 
L 1159 2969 
Q 1341 3281 1617 3432 
Q 1894 3584 2278 3584 
Q 2916 3584 3314 3078 
Q 3713 2572 3713 1747 
Q 3713 922 3314 415 
Q 2916 -91 2278 -91 
Q 1894 -91 1617 61 
Q 1341 213 1159 525 
z
M 3116 1747 
Q 3116 2381 2855 2742 
Q 2594 3103 2138 3103 
Q 1681 3103 1420 2742 
Q 1159 2381 1159 1747 
Q 1159 1113 1420 752 
Q 1681 391 2138 391 
Q 2594 391 2855 752 
Q 3116 1113 3116 1747 
z
" id="DejaVuSans-70" transform="scale(0.015625)"/>
     </defs>
     <use xlink:href="#DejaVuSans-55"/>
     <use x="73.193359" xlink:href="#DejaVuSans-53"/>
     <use x="136.669922" xlink:href="#DejaVuSans-20"/>
     <use x="168.457031" xlink:href="#DejaVuSans-49"/>
     <use x="197.949219" xlink:href="#DejaVuSans-6e"/>
     <use x="261.328125" xlink:href="#DejaVuSans-66"/>
     <use x="296.533203" xlink:href="#DejaVuSans-6c"/>
     <use x="324.316406" xlink:href="#DejaVuSans-61"/>
     <use x="385.595703" xlink:href="#DejaVuSans-74"/>
     <use x="424.804688" xlink:href="#DejaVuSans-69"/>
     <use x="452.587891" xlink:href="#DejaVuSans-6f"/>
     <use x="513.769531" xlink:href="#DejaVuSans-6e"/>
     <use x="577.148438" xlink:href="#DejaVuSans-20"/>
     <use x="608.935547" xlink:href="#DejaVuSans-76"/>
     <use x="668.115234" xlink:href="#DejaVuSans-73"/>
     <use x="720.214844" xlink:href="#DejaVuSans-2e"/>
     <use x="752.001953" xlink:href="#DejaVuSans-20"/>
     <use x="783.789062" xlink:href="#DejaVuSans-46"/>
     <use x="835.808594" xlink:href="#DejaVuSans-65"/>
     <use x="897.332031" xlink:href="#DejaVuSans-64"/>
     <use x="960.808594" xlink:href="#DejaVuSans-65"/>
     <use x="1022.332031" xlink:href="#DejaVuSans-72"/>
     <use x="1063.445312" xlink:href="#DejaVuSans-61"/>
     <use x="1124.724609" xlink:href="#DejaVuSans-6c"/>
     <use x="1152.507812" xlink:href="#DejaVuSans-20"/>
     <use x="1184.294922" xlink:href="#DejaVuSans-44"/>
     <use x="1261.296875" xlink:href="#DejaVuSans-69"/>
     <use x="1289.080078" xlink:href="#DejaVuSans-73"/>
     <use x="1341.179688" xlink:href="#DejaVuSans-63"/>
     <use x="1396.160156" xlink:href="#DejaVuSans-6f"/>
     <use x="1457.341797" xlink:href="#DejaVuSans-75"/>
     <use x="1520.720703" xlink:href="#DejaVuSans-6e"/>
     <use x="1584.099609" xlink:href="#DejaVuSans-74"/>
     <use x="1623.308594" xlink:href="#DejaVuSans-20"/>
     <use x="1655.095703" xlink:href="#DejaVuSans-52"/>
     <use x="1722.328125" xlink:href="#DejaVuSans-61"/>
     <use x="1783.607422" xlink:href="#DejaVuSans-74"/>
     <use x="1822.816406" xlink:href="#DejaVuSans-65"/>
     <use x="1884.339844" xlink:href="#DejaVuSans-20"/>
     <use x="1916.126953" xlink:href="#DejaVuSans-2d"/>
     <use x="1952.210938" xlink:href="#DejaVuSans-20"/>
     <use x="1983.998047" xlink:href="#DejaVuSans-31"/>
     <use x="2047.621094" xlink:href="#DejaVuSans-39"/>
     <use x="2111.244141" xlink:href="#DejaVuSans-38"/>
     <use x="2174.867188" xlink:href="#DejaVuSans-30"/>
     <use x="2238.490234" xlink:href="#DejaVuSans-20"/>
     <use x="2270.277344" xlink:href="#DejaVuSans-74"/>
     <use x="2309.486328" xlink:href="#DejaVuSans-6f"/>
     <use x="2370.667969" xlink:href="#DejaVuSans-20"/>
     <use x="2402.455078" xlink:href="#DejaVuSans-70"/>
     <use x="2465.931641" xlink:href="#DejaVuSans-72"/>
     <use x="2504.794922" xlink:href="#DejaVuSans-65"/>
     <use x="2566.318359" xlink:href="#DejaVuSans-73"/>
     <use x="2618.417969" xlink:href="#DejaVuSans-65"/>
     <use x="2679.941406" xlink:href="#DejaVuSans-6e"/>
     <use x="2743.320312" xlink:href="#DejaVuSans-74"/>
    </g>
   </g>
   <g id="legend_1">
    <g id="patch_7">
     <path d="M 61 268.375 
L 197.734375 268.375 
Q 199.734375 268.375 199.734375 266.375 
L 199.734375 238.01875 
Q 199.734375 236.01875 197.734375 236.01875 
L 61 236.01875 
Q 59 236.01875 59 238.01875 
L 59 266.375 
Q 59 268.375 61 268.375 
z
" style="fill:#ffffff;opacity:0.8;stroke:#cccccc;stroke-linejoin:miter;"/>
    </g>
    <g id="line2d_23">
     <path d="M 63 244.117188 
L 83 244.117188 
" style="fill:none;stroke:#1f77b4;stroke-linecap:square;stroke-width:2;"/>
    </g>
    <g id="line2d_24"/>
    <g id="text_23">
     <!-- CPI (smoothed) -->
     <g transform="translate(91 247.617188)scale(0.1 -0.1)">
      <defs>
       <path d="M 4122 4306 
L 4122 3641 
Q 3803 3938 3442 4084 
Q 3081 4231 2675 4231 
Q 1875 4231 1450 3742 
Q 1025 3253 1025 2328 
Q 1025 1406 1450 917 
Q 1875 428 2675 428 
Q 3081 428 3442 575 
Q 3803 722 4122 1019 
L 4122 359 
Q 3791 134 3420 21 
Q 3050 -91 2638 -91 
Q 1578 -91 968 557 
Q 359 1206 359 2328 
Q 359 3453 968 4101 
Q 1578 4750 2638 4750 
Q 3056 4750 3426 4639 
Q 3797 4528 4122 4306 
z
" id="DejaVuSans-43" transform="scale(0.015625)"/>
       <path d="M 1984 4856 
Q 1566 4138 1362 3434 
Q 1159 2731 1159 2009 
Q 1159 1288 1364 580 
Q 1569 -128 1984 -844 
L 1484 -844 
Q 1016 -109 783 600 
Q 550 1309 550 2009 
Q 550 2706 781 3412 
Q 1013 4119 1484 4856 
L 1984 4856 
z
" id="DejaVuSans-28" transform="scale(0.015625)"/>
       <path d="M 3328 2828 
Q 3544 3216 3844 3400 
Q 4144 3584 4550 3584 
Q 5097 3584 5394 3201 
Q 5691 2819 5691 2113 
L 5691 0 
L 5113 0 
L 5113 2094 
Q 5113 2597 4934 2840 
Q 4756 3084 4391 3084 
Q 3944 3084 3684 2787 
Q 3425 2491 3425 1978 
L 3425 0 
L 2847 0 
L 2847 2094 
Q 2847 2600 2669 2842 
Q 2491 3084 2119 3084 
Q 1678 3084 1418 2786 
Q 1159 2488 1159 1978 
L 1159 0 
L 581 0 
L 581 3500 
L 1159 3500 
L 1159 2956 
Q 1356 3278 1631 3431 
Q 1906 3584 2284 3584 
Q 2666 3584 2933 3390 
Q 3200 3197 3328 2828 
z
" id="DejaVuSans-6d" transform="scale(0.015625)"/>
       <path d="M 3513 2113 
L 3513 0 
L 2938 0 
L 2938 2094 
Q 2938 2591 2744 2837 
Q 2550 3084 2163 3084 
Q 1697 3084 1428 2787 
Q 1159 2491 1159 1978 
L 1159 0 
L 581 0 
L 581 4863 
L 1159 4863 
L 1159 2956 
Q 1366 3272 1645 3428 
Q 1925 3584 2291 3584 
Q 2894 3584 3203 3211 
Q 3513 2838 3513 2113 
z
" id="DejaVuSans-68" transform="scale(0.015625)"/>
       <path d="M 513 4856 
L 1013 4856 
Q 1481 4119 1714 3412 
Q 1947 2706 1947 2009 
Q 1947 1309 1714 600 
Q 1481 -109 1013 -844 
L 513 -844 
Q 928 -128 1133 580 
Q 1338 1288 1338 2009 
Q 1338 2731 1133 3434 
Q 928 4138 513 4856 
z
" id="DejaVuSans-29" transform="scale(0.015625)"/>
      </defs>
      <use xlink:href="#DejaVuSans-43"/>
      <use x="69.824219" xlink:href="#DejaVuSans-50"/>
      <use x="130.126953" xlink:href="#DejaVuSans-49"/>
      <use x="159.619141" xlink:href="#DejaVuSans-20"/>
      <use x="191.40625" xlink:href="#DejaVuSans-28"/>
      <use x="230.419922" xlink:href="#DejaVuSans-73"/>
      <use x="282.519531" xlink:href="#DejaVuSans-6d"/>
      <use x="379.931641" xlink:href="#DejaVuSans-6f"/>
      <use x="441.113281" xlink:href="#DejaVuSans-6f"/>
      <use x="502.294922" xlink:href="#DejaVuSans-74"/>
      <use x="541.503906" xlink:href="#DejaVuSans-68"/>
      <use x="604.882812" xlink:href="#DejaVuSans-65"/>
      <use x="666.40625" xlink:href="#DejaVuSans-64"/>
      <use x="729.882812" xlink:href="#DejaVuSans-29"/>
     </g>
    </g>
    <g id="line2d_25">
     <path d="M 63 258.795313 
L 83 258.795313 
" style="fill:none;stroke:#ff7f0e;stroke-linecap:square;stroke-width:2;"/>
    </g>
    <g id="line2d_26"/>
    <g id="text_24">
     <!-- Fed Rate (smoothed) -->
     <g transform="translate(91 262.295313)scale(0.1 -0.1)">
      <use xlink:href="#DejaVuSans-46"/>
      <use x="52.019531" xlink:href="#DejaVuSans-65"/>
      <use x="113.542969" xlink:href="#DejaVuSans-64"/>
      <use x="177.019531" xlink:href="#DejaVuSans-20"/>
      <use x="208.806641" xlink:href="#DejaVuSans-52"/>
      <use x="276.039062" xlink:href="#DejaVuSans-61"/>
      <use x="337.318359" xlink:href="#DejaVuSans-74"/>
      <use x="376.527344" xlink:href="#DejaVuSans-65"/>
      <use x="438.050781" xlink:href="#DejaVuSans-20"/>
      <use x="469.837891" xlink:href="#DejaVuSans-28"/>
      <use x="508.851562" xlink:href="#DejaVuSans-73"/>
      <use x="560.951172" xlink:href="#DejaVuSans-6d"/>
      <use x="658.363281" xlink:href="#DejaVuSans-6f"/>
      <use x="719.544922" xlink:href="#DejaVuSans-6f"/>
      <use x="780.726562" xlink:href="#DejaVuSans-74"/>
      <use x="819.935547" xlink:href="#DejaVuSans-68"/>
      <use x="883.314453" xlink:href="#DejaVuSans-65"/>
      <use x="944.837891" xlink:href="#DejaVuSans-64"/>
      <use x="1008.314453" xlink:href="#DejaVuSans-29"/>
     </g>
    </g>
   </g>
  </g>
 </g>
 <defs>
  <clipPath id="pad55d72a12">
   <rect height="243" width="432" x="54" y="30.375"/>
  </clipPath>
 </defs>
</svg>
