<?xml version="1.0" encoding="utf-8" standalone="no"?>
<!DOCTYPE svg PUBLIC "-//W3C//DTD SVG 1.1//EN"
  "http://www.w3.org/Graphics/SVG/1.1/DTD/svg11.dtd">
<svg height="303.75pt" version="1.1" viewBox="0 0 540 303.75" width="540pt" xmlns="http://www.w3.org/2000/svg" xmlns:xlink="http://www.w3.org/1999/xlink">
 <metadata>
  <rdf:RDF xmlns:cc="http://creativecommons.org/ns#" xmlns:dc="http://purl.org/dc/elements/1.1/" xmlns:rdf="http://www.w3.org/1999/02/22-rdf-syntax-ns#">
   <cc:Work>
    <dc:type rdf:resource="http://purl.org/dc/dcmitype/StillImage"/>
    <dc:date>2023-02-20T08:39:45.033274</dc:date>
    <dc:format>image/svg+xml</dc:format>
    <dc:creator>
     <cc:Agent>
      <dc:title>Matplotlib v3.4.3, https://matplotlib.org/</dc:title>
     </cc:Agent>
    </dc:creator>
   </cc:Work>
  </rdf:RDF>
 </metadata>
 <defs>
  <style type="text/css">*{stroke-linecap:butt;stroke-linejoin:round;}</style>
 </defs>
 <g id="figure_1">
  <g id="patch_1">
   <path d="M 0 303.75 
L 540 303.75 
L 540 0 
L 0 0 
z
" style="fill:#ffffff;"/>
  </g>
  <g id="axes_1">
   <g id="patch_2">
    <path d="M 54 273.375 
L 486 273.375 
L 486 30.375 
L 54 30.375 
z
" style="fill:#ffffff;"/>
   </g>
   <g id="matplotlib.axis_1">
    <g id="xtick_1">
     <g id="line2d_1">
      <defs>
       <path d="M 0 0 
L 0 3.5 
" id="mbb60a28cc3" style="stroke:#000000;stroke-width:0.8;"/>
      </defs>
      <g>
       <use style="stroke:#000000;stroke-width:0.8;" x="54" xlink:href="#mbb60a28cc3" y="273.375"/>
      </g>
     </g>
     <g id="text_1">
      <!-- 1980 -->
      <g transform="translate(41.275 287.973437)scale(0.1 -0.1)">
       <defs>
        <path d="M 794 531 
L 1825 531 
L 1825 4091 
L 703 3866 
L 703 4441 
L 1819 4666 
L 2450 4666 
L 2450 531 
L 3481 531 
L 3481 0 
L 794 0 
L 794 531 
z
" id="DejaVuSans-31" transform="scale(0.015625)"/>
        <path d="M 703 97 
L 703 672 
Q 941 559 1184 500 
Q 1428 441 1663 441 
Q 2288 441 2617 861 
Q 2947 1281 2994 2138 
Q 2813 1869 2534 1725 
Q 2256 1581 1919 1581 
Q 1219 1581 811 2004 
Q 403 2428 403 3163 
Q 403 3881 828 4315 
Q 1253 4750 1959 4750 
Q 2769 4750 3195 4129 
Q 3622 3509 3622 2328 
Q 3622 1225 3098 567 
Q 2575 -91 1691 -91 
Q 1453 -91 1209 -44 
Q 966 3 703 97 
z
M 1959 2075 
Q 2384 2075 2632 2365 
Q 2881 2656 2881 3163 
Q 2881 3666 2632 3958 
Q 2384 4250 1959 4250 
Q 1534 4250 1286 3958 
Q 1038 3666 1038 3163 
Q 1038 2656 1286 2365 
Q 1534 2075 1959 2075 
z
" id="DejaVuSans-39" transform="scale(0.015625)"/>
        <path d="M 2034 2216 
Q 1584 2216 1326 1975 
Q 1069 1734 1069 1313 
Q 1069 891 1326 650 
Q 1584 409 2034 409 
Q 2484 409 2743 651 
Q 3003 894 3003 1313 
Q 3003 1734 2745 1975 
Q 2488 2216 2034 2216 
z
M 1403 2484 
Q 997 2584 770 2862 
Q 544 3141 544 3541 
Q 544 4100 942 4425 
Q 1341 4750 2034 4750 
Q 2731 4750 3128 4425 
Q 3525 4100 3525 3541 
Q 3525 3141 3298 2862 
Q 3072 2584 2669 2484 
Q 3125 2378 3379 2068 
Q 3634 1759 3634 1313 
Q 3634 634 3220 271 
Q 2806 -91 2034 -91 
Q 1263 -91 848 271 
Q 434 634 434 1313 
Q 434 1759 690 2068 
Q 947 2378 1403 2484 
z
M 1172 3481 
Q 1172 3119 1398 2916 
Q 1625 2713 2034 2713 
Q 2441 2713 2670 2916 
Q 2900 3119 2900 3481 
Q 2900 3844 2670 4047 
Q 2441 4250 2034 4250 
Q 1625 4250 1398 4047 
Q 1172 3844 1172 3481 
z
" id="DejaVuSans-38" transform="scale(0.015625)"/>
        <path d="M 2034 4250 
Q 1547 4250 1301 3770 
Q 1056 3291 1056 2328 
Q 1056 1369 1301 889 
Q 1547 409 2034 409 
Q 2525 409 2770 889 
Q 3016 1369 3016 2328 
Q 3016 3291 2770 3770 
Q 2525 4250 2034 4250 
z
M 2034 4750 
Q 2819 4750 3233 4129 
Q 3647 3509 3647 2328 
Q 3647 1150 3233 529 
Q 2819 -91 2034 -91 
Q 1250 -91 836 529 
Q 422 1150 422 2328 
Q 422 3509 836 4129 
Q 1250 4750 2034 4750 
z
" id="DejaVuSans-30" transform="scale(0.015625)"/>
       </defs>
       <use xlink:href="#DejaVuSans-31"/>
       <use x="63.623047" xlink:href="#DejaVuSans-39"/>
       <use x="127.246094" xlink:href="#DejaVuSans-38"/>
       <use x="190.869141" xlink:href="#DejaVuSans-30"/>
      </g>
     </g>
    </g>
    <g id="xtick_2">
     <g id="line2d_2">
      <g>
       <use style="stroke:#000000;stroke-width:0.8;" x="94.835265" xlink:href="#mbb60a28cc3" y="273.375"/>
      </g>
     </g>
     <g id="text_2">
      <!-- 1985 -->
      <g transform="translate(82.110265 287.973437)scale(0.1 -0.1)">
       <defs>
        <path d="M 691 4666 
L 3169 4666 
L 3169 4134 
L 1269 4134 
L 1269 2991 
Q 1406 3038 1543 3061 
Q 1681 3084 1819 3084 
Q 2600 3084 3056 2656 
Q 3513 2228 3513 1497 
Q 3513 744 3044 326 
Q 2575 -91 1722 -91 
Q 1428 -91 1123 -41 
Q 819 9 494 109 
L 494 744 
Q 775 591 1075 516 
Q 1375 441 1709 441 
Q 2250 441 2565 725 
Q 2881 1009 2881 1497 
Q 2881 1984 2565 2268 
Q 2250 2553 1709 2553 
Q 1456 2553 1204 2497 
Q 953 2441 691 2322 
L 691 4666 
z
" id="DejaVuSans-35" transform="scale(0.015625)"/>
       </defs>
       <use xlink:href="#DejaVuSans-31"/>
       <use x="63.623047" xlink:href="#DejaVuSans-39"/>
       <use x="127.246094" xlink:href="#DejaVuSans-38"/>
       <use x="190.869141" xlink:href="#DejaVuSans-35"/>
      </g>
     </g>
    </g>
    <g id="xtick_3">
     <g id="line2d_3">
      <g>
       <use style="stroke:#000000;stroke-width:0.8;" x="135.648179" xlink:href="#mbb60a28cc3" y="273.375"/>
      </g>
     </g>
     <g id="text_3">
      <!-- 1990 -->
      <g transform="translate(122.923179 287.973437)scale(0.1 -0.1)">
       <use xlink:href="#DejaVuSans-31"/>
       <use x="63.623047" xlink:href="#DejaVuSans-39"/>
       <use x="127.246094" xlink:href="#DejaVuSans-39"/>
       <use x="190.869141" xlink:href="#DejaVuSans-30"/>
      </g>
     </g>
    </g>
    <g id="xtick_4">
     <g id="line2d_4">
      <g>
       <use style="stroke:#000000;stroke-width:0.8;" x="176.461093" xlink:href="#mbb60a28cc3" y="273.375"/>
      </g>
     </g>
     <g id="text_4">
      <!-- 1995 -->
      <g transform="translate(163.736093 287.973437)scale(0.1 -0.1)">
       <use xlink:href="#DejaVuSans-31"/>
       <use x="63.623047" xlink:href="#DejaVuSans-39"/>
       <use x="127.246094" xlink:href="#DejaVuSans-39"/>
       <use x="190.869141" xlink:href="#DejaVuSans-35"/>
      </g>
     </g>
    </g>
    <g id="xtick_5">
     <g id="line2d_5">
      <g>
       <use style="stroke:#000000;stroke-width:0.8;" x="217.274007" xlink:href="#mbb60a28cc3" y="273.375"/>
      </g>
     </g>
     <g id="text_5">
      <!-- 2000 -->
      <g transform="translate(204.549007 287.973437)scale(0.1 -0.1)">
       <defs>
        <path d="M 1228 531 
L 3431 531 
L 3431 0 
L 469 0 
L 469 531 
Q 828 903 1448 1529 
Q 2069 2156 2228 2338 
Q 2531 2678 2651 2914 
Q 2772 3150 2772 3378 
Q 2772 3750 2511 3984 
Q 2250 4219 1831 4219 
Q 1534 4219 1204 4116 
Q 875 4013 500 3803 
L 500 4441 
Q 881 4594 1212 4672 
Q 1544 4750 1819 4750 
Q 2544 4750 2975 4387 
Q 3406 4025 3406 3419 
Q 3406 3131 3298 2873 
Q 3191 2616 2906 2266 
Q 2828 2175 2409 1742 
Q 1991 1309 1228 531 
z
" id="DejaVuSans-32" transform="scale(0.015625)"/>
       </defs>
       <use xlink:href="#DejaVuSans-32"/>
       <use x="63.623047" xlink:href="#DejaVuSans-30"/>
       <use x="127.246094" xlink:href="#DejaVuSans-30"/>
       <use x="190.869141" xlink:href="#DejaVuSans-30"/>
      </g>
     </g>
    </g>
    <g id="xtick_6">
     <g id="line2d_6">
      <g>
       <use style="stroke:#000000;stroke-width:0.8;" x="258.109272" xlink:href="#mbb60a28cc3" y="273.375"/>
      </g>
     </g>
     <g id="text_6">
      <!-- 2005 -->
      <g transform="translate(245.384272 287.973437)scale(0.1 -0.1)">
       <use xlink:href="#DejaVuSans-32"/>
       <use x="63.623047" xlink:href="#DejaVuSans-30"/>
       <use x="127.246094" xlink:href="#DejaVuSans-30"/>
       <use x="190.869141" xlink:href="#DejaVuSans-35"/>
      </g>
     </g>
    </g>
    <g id="xtick_7">
     <g id="line2d_7">
      <g>
       <use style="stroke:#000000;stroke-width:0.8;" x="298.922185" xlink:href="#mbb60a28cc3" y="273.375"/>
      </g>
     </g>
     <g id="text_7">
      <!-- 2010 -->
      <g transform="translate(286.197185 287.973437)scale(0.1 -0.1)">
       <use xlink:href="#DejaVuSans-32"/>
       <use x="63.623047" xlink:href="#DejaVuSans-30"/>
       <use x="127.246094" xlink:href="#DejaVuSans-31"/>
       <use x="190.869141" xlink:href="#DejaVuSans-30"/>
      </g>
     </g>
    </g>
    <g id="xtick_8">
     <g id="line2d_8">
      <g>
       <use style="stroke:#000000;stroke-width:0.8;" x="339.735099" xlink:href="#mbb60a28cc3" y="273.375"/>
      </g>
     </g>
     <g id="text_8">
      <!-- 2015 -->
      <g transform="translate(327.010099 287.973437)scale(0.1 -0.1)">
       <use xlink:href="#DejaVuSans-32"/>
       <use x="63.623047" xlink:href="#DejaVuSans-30"/>
       <use x="127.246094" xlink:href="#DejaVuSans-31"/>
       <use x="190.869141" xlink:href="#DejaVuSans-35"/>
      </g>
     </g>
    </g>
    <g id="xtick_9">
     <g id="line2d_9">
      <g>
       <use style="stroke:#000000;stroke-width:0.8;" x="380.548013" xlink:href="#mbb60a28cc3" y="273.375"/>
      </g>
     </g>
     <g id="text_9">
      <!-- 2020 -->
      <g transform="translate(367.823013 287.973437)scale(0.1 -0.1)">
       <use xlink:href="#DejaVuSans-32"/>
       <use x="63.623047" xlink:href="#DejaVuSans-30"/>
       <use x="127.246094" xlink:href="#DejaVuSans-32"/>
       <use x="190.869141" xlink:href="#DejaVuSans-30"/>
      </g>
     </g>
    </g>
    <g id="xtick_10">
     <g id="line2d_10">
      <g>
       <use style="stroke:#000000;stroke-width:0.8;" x="421.383278" xlink:href="#mbb60a28cc3" y="273.375"/>
      </g>
     </g>
     <g id="text_10">
      <!-- 2025 -->
      <g transform="translate(408.658278 287.973437)scale(0.1 -0.1)">
       <use xlink:href="#DejaVuSans-32"/>
       <use x="63.623047" xlink:href="#DejaVuSans-30"/>
       <use x="127.246094" xlink:href="#DejaVuSans-32"/>
       <use x="190.869141" xlink:href="#DejaVuSans-35"/>
      </g>
     </g>
    </g>
    <g id="xtick_11">
     <g id="line2d_11">
      <g>
       <use style="stroke:#000000;stroke-width:0.8;" x="462.196192" xlink:href="#mbb60a28cc3" y="273.375"/>
      </g>
     </g>
     <g id="text_11">
      <!-- 2030 -->
      <g transform="translate(449.471192 287.973437)scale(0.1 -0.1)">
       <defs>
        <path d="M 2597 2516 
Q 3050 2419 3304 2112 
Q 3559 1806 3559 1356 
Q 3559 666 3084 287 
Q 2609 -91 1734 -91 
Q 1441 -91 1130 -33 
Q 819 25 488 141 
L 488 750 
Q 750 597 1062 519 
Q 1375 441 1716 441 
Q 2309 441 2620 675 
Q 2931 909 2931 1356 
Q 2931 1769 2642 2001 
Q 2353 2234 1838 2234 
L 1294 2234 
L 1294 2753 
L 1863 2753 
Q 2328 2753 2575 2939 
Q 2822 3125 2822 3475 
Q 2822 3834 2567 4026 
Q 2313 4219 1838 4219 
Q 1578 4219 1281 4162 
Q 984 4106 628 3988 
L 628 4550 
Q 988 4650 1302 4700 
Q 1616 4750 1894 4750 
Q 2613 4750 3031 4423 
Q 3450 4097 3450 3541 
Q 3450 3153 3228 2886 
Q 3006 2619 2597 2516 
z
" id="DejaVuSans-33" transform="scale(0.015625)"/>
       </defs>
       <use xlink:href="#DejaVuSans-32"/>
       <use x="63.623047" xlink:href="#DejaVuSans-30"/>
       <use x="127.246094" xlink:href="#DejaVuSans-33"/>
       <use x="190.869141" xlink:href="#DejaVuSans-30"/>
      </g>
     </g>
    </g>
    <g id="text_12">
     <!-- Date -->
     <g transform="translate(255.659063 303.17125)scale(0.12 -0.12)">
      <defs>
       <path d="M 1259 4147 
L 1259 519 
L 2022 519 
Q 2988 519 3436 956 
Q 3884 1394 3884 2338 
Q 3884 3275 3436 3711 
Q 2988 4147 2022 4147 
L 1259 4147 
z
M 628 4666 
L 1925 4666 
Q 3281 4666 3915 4102 
Q 4550 3538 4550 2338 
Q 4550 1131 3912 565 
Q 3275 0 1925 0 
L 628 0 
L 628 4666 
z
" id="DejaVuSans-44" transform="scale(0.015625)"/>
       <path d="M 2194 1759 
Q 1497 1759 1228 1600 
Q 959 1441 959 1056 
Q 959 750 1161 570 
Q 1363 391 1709 391 
Q 2188 391 2477 730 
Q 2766 1069 2766 1631 
L 2766 1759 
L 2194 1759 
z
M 3341 1997 
L 3341 0 
L 2766 0 
L 2766 531 
Q 2569 213 2275 61 
Q 1981 -91 1556 -91 
Q 1019 -91 701 211 
Q 384 513 384 1019 
Q 384 1609 779 1909 
Q 1175 2209 1959 2209 
L 2766 2209 
L 2766 2266 
Q 2766 2663 2505 2880 
Q 2244 3097 1772 3097 
Q 1472 3097 1187 3025 
Q 903 2953 641 2809 
L 641 3341 
Q 956 3463 1253 3523 
Q 1550 3584 1831 3584 
Q 2591 3584 2966 3190 
Q 3341 2797 3341 1997 
z
" id="DejaVuSans-61" transform="scale(0.015625)"/>
       <path d="M 1172 4494 
L 1172 3500 
L 2356 3500 
L 2356 3053 
L 1172 3053 
L 1172 1153 
Q 1172 725 1289 603 
Q 1406 481 1766 481 
L 2356 481 
L 2356 0 
L 1766 0 
Q 1100 0 847 248 
Q 594 497 594 1153 
L 594 3053 
L 172 3053 
L 172 3500 
L 594 3500 
L 594 4494 
L 1172 4494 
z
" id="DejaVuSans-74" transform="scale(0.015625)"/>
       <path d="M 3597 1894 
L 3597 1613 
L 953 1613 
Q 991 1019 1311 708 
Q 1631 397 2203 397 
Q 2534 397 2845 478 
Q 3156 559 3463 722 
L 3463 178 
Q 3153 47 2828 -22 
Q 2503 -91 2169 -91 
Q 1331 -91 842 396 
Q 353 884 353 1716 
Q 353 2575 817 3079 
Q 1281 3584 2069 3584 
Q 2775 3584 3186 3129 
Q 3597 2675 3597 1894 
z
M 3022 2063 
Q 3016 2534 2758 2815 
Q 2500 3097 2075 3097 
Q 1594 3097 1305 2825 
Q 1016 2553 972 2059 
L 3022 2063 
z
" id="DejaVuSans-65" transform="scale(0.015625)"/>
      </defs>
      <use xlink:href="#DejaVuSans-44"/>
      <use x="77.001953" xlink:href="#DejaVuSans-61"/>
      <use x="138.28125" xlink:href="#DejaVuSans-74"/>
      <use x="177.490234" xlink:href="#DejaVuSans-65"/>
     </g>
    </g>
   </g>
   <g id="matplotlib.axis_2">
    <g id="ytick_1">
     <g id="line2d_12">
      <defs>
       <path d="M 0 0 
L -3.5 0 
" id="m058e8fd88b" style="stroke:#000000;stroke-width:0.8;"/>
      </defs>
      <g>
       <use style="stroke:#000000;stroke-width:0.8;" x="54" xlink:href="#m058e8fd88b" y="244.71721"/>
      </g>
     </g>
     <g id="text_13">
      <!-- 0 -->
      <g transform="translate(40.6375 248.516429)scale(0.1 -0.1)">
       <use xlink:href="#DejaVuSans-30"/>
      </g>
     </g>
    </g>
    <g id="ytick_2">
     <g id="line2d_13">
      <g>
       <use style="stroke:#000000;stroke-width:0.8;" x="54" xlink:href="#m058e8fd88b" y="191.967663"/>
      </g>
     </g>
     <g id="text_14">
      <!-- 5 -->
      <g transform="translate(40.6375 195.766881)scale(0.1 -0.1)">
       <use xlink:href="#DejaVuSans-35"/>
      </g>
     </g>
    </g>
    <g id="ytick_3">
     <g id="line2d_14">
      <g>
       <use style="stroke:#000000;stroke-width:0.8;" x="54" xlink:href="#m058e8fd88b" y="139.218115"/>
      </g>
     </g>
     <g id="text_15">
      <!-- 10 -->
      <g transform="translate(34.275 143.017334)scale(0.1 -0.1)">
       <use xlink:href="#DejaVuSans-31"/>
       <use x="63.623047" xlink:href="#DejaVuSans-30"/>
      </g>
     </g>
    </g>
    <g id="ytick_4">
     <g id="line2d_15">
      <g>
       <use style="stroke:#000000;stroke-width:0.8;" x="54" xlink:href="#m058e8fd88b" y="86.468568"/>
      </g>
     </g>
     <g id="text_16">
      <!-- 15 -->
      <g transform="translate(34.275 90.267787)scale(0.1 -0.1)">
       <use xlink:href="#DejaVuSans-31"/>
       <use x="63.623047" xlink:href="#DejaVuSans-35"/>
      </g>
     </g>
    </g>
    <g id="ytick_5">
     <g id="line2d_16">
      <g>
       <use style="stroke:#000000;stroke-width:0.8;" x="54" xlink:href="#m058e8fd88b" y="33.719021"/>
      </g>
     </g>
     <g id="text_17">
      <!-- 20 -->
      <g transform="translate(34.275 37.518239)scale(0.1 -0.1)">
       <use xlink:href="#DejaVuSans-32"/>
       <use x="63.623047" xlink:href="#DejaVuSans-30"/>
      </g>
     </g>
    </g>
    <g id="text_18">
     <!-- Percent -->
     <g transform="translate(27.779375 174.444375)rotate(-90)scale(0.12 -0.12)">
      <defs>
       <path d="M 1259 4147 
L 1259 2394 
L 2053 2394 
Q 2494 2394 2734 2622 
Q 2975 2850 2975 3272 
Q 2975 3691 2734 3919 
Q 2494 4147 2053 4147 
L 1259 4147 
z
M 628 4666 
L 2053 4666 
Q 2838 4666 3239 4311 
Q 3641 3956 3641 3272 
Q 3641 2581 3239 2228 
Q 2838 1875 2053 1875 
L 1259 1875 
L 1259 0 
L 628 0 
L 628 4666 
z
" id="DejaVuSans-50" transform="scale(0.015625)"/>
       <path d="M 2631 2963 
Q 2534 3019 2420 3045 
Q 2306 3072 2169 3072 
Q 1681 3072 1420 2755 
Q 1159 2438 1159 1844 
L 1159 0 
L 581 0 
L 581 3500 
L 1159 3500 
L 1159 2956 
Q 1341 3275 1631 3429 
Q 1922 3584 2338 3584 
Q 2397 3584 2469 3576 
Q 2541 3569 2628 3553 
L 2631 2963 
z
" id="DejaVuSans-72" transform="scale(0.015625)"/>
       <path d="M 3122 3366 
L 3122 2828 
Q 2878 2963 2633 3030 
Q 2388 3097 2138 3097 
Q 1578 3097 1268 2742 
Q 959 2388 959 1747 
Q 959 1106 1268 751 
Q 1578 397 2138 397 
Q 2388 397 2633 464 
Q 2878 531 3122 666 
L 3122 134 
Q 2881 22 2623 -34 
Q 2366 -91 2075 -91 
Q 1284 -91 818 406 
Q 353 903 353 1747 
Q 353 2603 823 3093 
Q 1294 3584 2113 3584 
Q 2378 3584 2631 3529 
Q 2884 3475 3122 3366 
z
" id="DejaVuSans-63" transform="scale(0.015625)"/>
       <path d="M 3513 2113 
L 3513 0 
L 2938 0 
L 2938 2094 
Q 2938 2591 2744 2837 
Q 2550 3084 2163 3084 
Q 1697 3084 1428 2787 
Q 1159 2491 1159 1978 
L 1159 0 
L 581 0 
L 581 3500 
L 1159 3500 
L 1159 2956 
Q 1366 3272 1645 3428 
Q 1925 3584 2291 3584 
Q 2894 3584 3203 3211 
Q 3513 2838 3513 2113 
z
" id="DejaVuSans-6e" transform="scale(0.015625)"/>
      </defs>
      <use xlink:href="#DejaVuSans-50"/>
      <use x="56.677734" xlink:href="#DejaVuSans-65"/>
      <use x="118.201172" xlink:href="#DejaVuSans-72"/>
      <use x="157.064453" xlink:href="#DejaVuSans-63"/>
      <use x="212.044922" xlink:href="#DejaVuSans-65"/>
      <use x="273.568359" xlink:href="#DejaVuSans-6e"/>
      <use x="336.947266" xlink:href="#DejaVuSans-74"/>
     </g>
    </g>
   </g>
   <g id="line2d_17">
    <path clip-path="url(#p952a2d5079)" d="M 55.34106 94.036721 
L 56.03394 91.147101 
L 56.70447 90.361836 
L 57.397351 91.669673 
L 59.453642 108.954645 
L 60.124172 110.244196 
L 60.817053 111.033329 
L 61.487583 111.32943 
L 62.180464 114.637881 
L 62.873344 119.003434 
L 63.499172 126.140096 
L 64.862583 138.279701 
L 65.555464 141.565294 
L 66.225993 138.886321 
L 66.918874 135.284054 
L 67.611755 130.361466 
L 68.282285 132.542836 
L 68.975166 136.810837 
L 69.645695 143.94975 
L 71.031457 157.028226 
L 71.657285 164.563323 
L 72.350166 171.179066 
L 73.020695 174.487483 
L 73.713576 173.487492 
L 74.384106 173.728346 
L 75.076987 176.650741 
L 75.769868 183.758215 
L 78.496689 202.058792 
L 79.18957 205.929694 
L 79.815397 206.745237 
L 80.508278 206.086642 
L 81.178808 205.873217 
L 81.871689 209.462156 
L 82.542219 214.516617 
L 83.235099 217.998826 
L 83.92798 217.004532 
L 84.59851 215.633817 
L 85.291391 213.149454 
L 85.961921 209.875747 
L 87.347682 200.478837 
L 87.995861 196.927597 
L 88.688742 195.620569 
L 89.359272 196.895912 
L 90.052152 198.934542 
L 90.722682 200.199476 
L 92.778974 199.637588 
L 93.471854 200.481721 
L 94.142384 201.612109 
L 94.835265 204.160088 
L 95.528146 206.044161 
L 96.153974 206.905631 
L 96.846854 206.368078 
L 97.517384 205.467327 
L 98.210265 205.266351 
L 98.880795 205.728648 
L 99.573675 207.214357 
L 100.266556 209.387603 
L 100.937086 210.531952 
L 101.629967 209.9535 
L 102.993377 205.335453 
L 103.686258 206.744077 
L 104.312086 212.170353 
L 105.004967 220.244515 
L 105.675497 225.94871 
L 106.368377 227.671299 
L 107.038907 227.718 
L 107.731788 227.426401 
L 108.424669 227.466526 
L 109.095199 227.835948 
L 109.788079 228.854612 
L 110.458609 231.163249 
L 111.15149 231.205765 
L 111.844371 228.322475 
L 113.833609 207.211719 
L 114.52649 205.031827 
L 115.19702 204.498634 
L 115.889901 202.994709 
L 117.253311 198.391784 
L 117.946192 197.531685 
L 118.616722 197.255031 
L 119.309603 198.965277 
L 120.650662 202.818315 
L 121.343543 203.319752 
L 122.014073 203.503637 
L 122.706954 203.364062 
L 123.377483 202.569724 
L 124.070364 202.110381 
L 124.763245 201.374876 
L 125.433775 200.953829 
L 126.797185 199.29883 
L 127.490066 197.830775 
L 129.501656 192.213968 
L 130.172185 190.335697 
L 130.865066 189.664195 
L 131.535596 190.173862 
L 132.228477 192.480142 
L 132.921358 195.395152 
L 133.591887 197.105609 
L 134.284768 197.28443 
L 134.955298 196.205772 
L 136.34106 191.571092 
L 136.966887 189.511292 
L 137.659768 191.23687 
L 138.330298 194.40638 
L 139.023179 196.373516 
L 139.693709 195.981305 
L 140.386589 191.564023 
L 141.75 181.17936 
L 142.442881 178.869493 
L 143.113411 179.058442 
L 143.806291 181.303181 
L 144.499172 184.687311 
L 145.125 188.946555 
L 145.817881 191.633195 
L 146.488411 192.895457 
L 147.181291 193.595901 
L 147.851821 195.142025 
L 149.237583 203.789364 
L 149.908113 209.157509 
L 150.600993 212.005457 
L 151.964404 214.283816 
L 152.657285 214.883578 
L 153.305464 214.458417 
L 153.998344 212.41817 
L 154.668874 211.698631 
L 155.361755 212.039569 
L 156.032285 212.121682 
L 156.725166 211.684635 
L 157.418046 212.035912 
L 158.088576 211.876924 
L 159.451987 212.536892 
L 160.144868 212.339327 
L 161.463576 210.985211 
L 162.826987 211.19009 
L 163.519868 211.510596 
L 164.883278 214.687104 
L 165.576159 215.764636 
L 166.246689 215.854135 
L 166.93957 216.177173 
L 167.610099 215.96934 
L 168.30298 216.763431 
L 168.995861 217.327289 
L 169.621689 218.176381 
L 170.31457 218.751105 
L 170.985099 219.55019 
L 171.67798 219.599036 
L 172.34851 218.160837 
L 173.041391 216.008445 
L 173.734272 214.354219 
L 174.404801 214.923844 
L 175.097682 215.717373 
L 175.768212 216.732169 
L 177.779801 214.753252 
L 178.472682 213.879227 
L 179.143212 212.741771 
L 179.836093 212.083175 
L 180.506623 213.103422 
L 181.892384 216.852227 
L 182.562914 216.688457 
L 183.926325 216.749435 
L 184.619205 217.036006 
L 185.312086 216.875823 
L 185.960265 215.814678 
L 186.653146 215.221211 
L 187.323675 214.37662 
L 188.016556 214.679262 
L 188.687086 214.48873 
L 189.379967 214.535255 
L 190.072848 213.661336 
L 190.743377 213.513567 
L 192.106788 211.061135 
L 192.799669 210.881083 
L 193.49255 211.658225 
L 194.811258 215.560285 
L 195.481788 218.370886 
L 196.174669 220.003801 
L 196.845199 220.938875 
L 197.538079 220.97383 
L 198.90149 221.984511 
L 200.264901 224.969362 
L 200.957781 226.774487 
L 202.27649 229.288178 
L 202.969371 229.765175 
L 203.639901 228.902368 
L 205.003311 226.94754 
L 205.696192 227.192087 
L 207.059603 228.572719 
L 207.752483 228.815085 
L 208.423013 228.382293 
L 209.115894 227.729465 
L 209.808775 227.525711 
L 210.434603 227.123548 
L 211.127483 224.992009 
L 211.798013 223.295162 
L 212.490894 222.461965 
L 213.161424 222.927251 
L 213.854305 222.308569 
L 214.547185 219.969408 
L 215.910596 217.247743 
L 216.581126 217.050108 
L 217.274007 216.424463 
L 217.966887 214.314727 
L 218.615066 210.541306 
L 219.307947 209.381871 
L 220.671358 209.593185 
L 221.341887 207.515979 
L 222.034768 206.734582 
L 222.727649 207.705174 
L 223.398179 208.447149 
L 224.09106 208.323715 
L 224.761589 208.561545 
L 225.45447 207.562996 
L 226.147351 207.255853 
L 227.46606 210.524074 
L 228.136589 210.237152 
L 228.82947 209.08475 
L 229.5 211.016122 
L 230.192881 214.164391 
L 231.556291 218.361461 
L 232.249172 221.260752 
L 233.612583 228.578029 
L 234.305464 231.242936 
L 234.931291 231.510622 
L 235.624172 229.762362 
L 236.294702 229.607243 
L 236.987583 231.042664 
L 237.658113 231.656492 
L 238.350993 229.472485 
L 239.043874 227.900971 
L 239.714404 225.927786 
L 240.407285 224.536605 
L 241.077815 221.503119 
L 241.770695 219.493326 
L 243.089404 214.479728 
L 243.782285 215.790413 
L 245.145695 222.228988 
L 245.816225 222.632522 
L 246.509106 222.279346 
L 247.201987 221.547323 
L 247.872517 221.790393 
L 249.235927 224.723936 
L 249.928808 225.126837 
L 250.621689 225.379929 
L 251.269868 225.880171 
L 251.962748 224.618261 
L 253.326159 214.463375 
L 253.996689 211.98179 
L 254.68957 213.379231 
L 255.38245 215.94075 
L 256.05298 215.242943 
L 257.416391 209.664116 
L 258.109272 210.435772 
L 258.802152 212.248668 
L 259.42798 212.625687 
L 260.120861 210.723608 
L 260.791391 211.44371 
L 261.484272 213.617132 
L 262.154801 214.822424 
L 262.847682 211.874041 
L 263.540563 204.290871 
L 264.211093 200.141486 
L 264.903974 200.794385 
L 265.574503 205.2641 
L 266.267384 206.538916 
L 266.960265 206.039554 
L 267.586093 206.225971 
L 268.278974 207.771849 
L 268.949503 205.770285 
L 269.642384 202.407959 
L 270.312914 200.299348 
L 271.005795 201.522892 
L 271.698675 209.45783 
L 272.369205 219.4455 
L 273.062086 225.933905 
L 273.732616 224.251968 
L 274.425497 221.542681 
L 275.118377 219.990016 
L 275.744205 219.152599 
L 276.437086 217.401103 
L 277.107616 216.431707 
L 277.800497 216.754323 
L 278.471026 217.512053 
L 279.163907 220.046774 
L 279.856788 219.807608 
L 280.527318 215.665221 
L 281.220199 207.449936 
L 281.890728 202.786103 
L 282.583609 200.169303 
L 283.27649 201.152695 
L 283.924669 201.503691 
L 284.61755 202.711304 
L 285.288079 202.187395 
L 285.98096 198.528933 
L 286.65149 192.679957 
L 287.344371 188.47297 
L 288.037252 188.771392 
L 288.707781 195.611004 
L 290.764073 240.529494 
L 291.456954 243.460185 
L 292.082781 245.130478 
L 292.775662 247.826799 
L 293.446192 253.163756 
L 294.139073 256.832396 
L 294.809603 261.615985 
L 295.502483 262.329545 
L 296.195364 261.835212 
L 296.865894 255.103272 
L 297.558775 243.41872 
L 298.229305 229.325659 
L 298.922185 219.448981 
L 299.615066 218.376302 
L 300.933775 221.17776 
L 301.604305 221.607985 
L 302.297185 226.041092 
L 303.660596 232.631761 
L 304.353477 232.314104 
L 305.024007 232.535652 
L 305.716887 232.553059 
L 306.387417 231.315062 
L 307.080298 229.698605 
L 307.773179 226.307091 
L 308.399007 222.136782 
L 309.762417 211.612016 
L 310.455298 208.527117 
L 311.125828 206.891565 
L 311.818709 206.179235 
L 312.511589 205.09073 
L 313.182119 205.454772 
L 313.875 206.779947 
L 314.54553 209.965808 
L 315.931291 213.915905 
L 316.57947 215.00965 
L 317.272351 217.198686 
L 317.942881 221.302073 
L 319.306291 227.919328 
L 319.999172 227.96107 
L 320.692053 226.81011 
L 321.362583 224.158953 
L 322.055464 223.906634 
L 322.725993 224.786708 
L 323.418874 226.782329 
L 324.111755 226.030507 
L 324.737583 226.969871 
L 325.430464 228.839948 
L 326.100993 231.006055 
L 326.793874 230.019569 
L 327.464404 226.863036 
L 328.157285 226.312999 
L 328.850166 228.315723 
L 329.520695 231.822045 
L 330.213576 232.811275 
L 330.884106 231.697134 
L 331.576987 229.533218 
L 332.269868 229.92258 
L 332.895695 229.885796 
L 333.588576 228.57089 
L 334.259106 225.051581 
L 334.951987 223.081772 
L 335.622517 222.942971 
L 337.008278 225.903697 
L 338.371689 228.38377 
L 339.042219 231.553761 
L 339.735099 237.720844 
L 340.42798 242.459477 
L 341.053808 245.378742 
L 341.746689 245.766166 
L 342.417219 245.818223 
L 343.110099 245.124011 
L 343.780629 243.826066 
L 344.47351 242.999614 
L 345.166391 243.561928 
L 345.836921 243.558397 
L 346.529801 242.479778 
L 347.200331 239.787266 
L 347.893212 235.558454 
L 348.586093 233.743862 
L 349.234272 233.31126 
L 349.927152 234.183315 
L 350.597682 234.17797 
L 351.290563 233.668796 
L 351.961093 234.716652 
L 352.653974 234.563467 
L 353.346854 232.923118 
L 354.017384 230.078683 
L 355.380795 225.716296 
L 356.073675 222.677746 
L 356.766556 219.001384 
L 357.392384 217.925328 
L 358.085265 218.98155 
L 359.448675 224.644038 
L 360.119205 226.302871 
L 360.812086 226.077489 
L 361.504967 223.969371 
L 362.868377 221.941116 
L 363.538907 222.376757 
L 364.924669 222.241015 
L 365.550497 221.35964 
L 366.243377 219.98031 
L 367.606788 216.108317 
L 368.277318 214.396489 
L 368.970199 214.754588 
L 369.663079 216.84551 
L 370.333609 218.347289 
L 371.02649 220.185013 
L 371.69702 221.474951 
L 372.389901 224.890449 
L 373.082781 227.19898 
L 373.708609 227.366512 
L 374.40149 225.800871 
L 375.07202 224.851062 
L 376.43543 226.254236 
L 377.128311 226.396483 
L 377.821192 226.175533 
L 378.491722 226.342327 
L 379.184603 225.282061 
L 379.855132 223.264145 
L 380.548013 220.72327 
L 381.240894 219.725987 
L 381.889073 222.348694 
L 383.252483 237.731929 
L 383.945364 240.874384 
L 384.615894 238.564007 
L 385.308775 234.373147 
L 386.001656 231.821486 
L 386.672185 231.132267 
L 387.365066 231.6074 
L 388.035596 231.64021 
L 388.728477 230.874639 
L 389.421358 229.110413 
L 390.047185 224.687328 
L 390.740066 214.981657 
L 391.410596 203.318767 
L 392.103477 193.571741 
L 392.774007 189.331451 
L 393.466887 188.42219 
L 394.159768 188.426058 
L 394.830298 185.414446 
L 396.886589 169.723987 
L 397.57947 165.989108 
L 398.205298 160.692843 
L 399.568709 155.455833 
L 400.261589 153.636677 
L 400.932119 152.700618 
L 401.625 153.821792 
L 402.988411 159.580179 
L 403.681291 163.632646 
L 404.351821 169.777159 
L 404.351821 169.777159 
" style="fill:none;stroke:#1f77b4;stroke-linecap:square;stroke-width:2;"/>
   </g>
   <g id="line2d_18">
    <path clip-path="url(#p952a2d5079)" d="M 55.34106 70.362373 
L 56.03394 66.001744 
L 56.70447 84.534418 
L 57.397351 117.625967 
L 58.067881 134.189325 
L 58.760762 135.314649 
L 59.453642 125.643899 
L 60.124172 112.140014 
L 61.487583 53.65835 
L 62.180464 41.420455 
L 62.873344 52.075863 
L 63.499172 77.993474 
L 64.192053 72.120691 
L 64.862583 64.981919 
L 65.555464 50.880207 
L 66.225993 56.014496 
L 66.918874 58.581641 
L 67.611755 65.825912 
L 68.282285 76.446154 
L 68.975166 91.884188 
L 69.645695 104.016584 
L 70.338576 104.82541 
L 71.031457 100.253783 
L 71.657285 87.347727 
L 72.350166 83.584926 
L 73.020695 84.850915 
L 73.713576 92.657848 
L 74.384106 106.267231 
L 75.769868 124.413076 
L 76.440397 131.446349 
L 77.133278 137.424631 
L 78.496689 143.824909 
L 79.815397 146.603052 
L 80.508278 145.618394 
L 81.178808 144.176573 
L 81.871689 146.81405 
L 83.235099 142.136924 
L 83.92798 140.273106 
L 84.59851 140.589604 
L 85.291391 141.468763 
L 85.961921 143.824909 
L 86.654801 144.10624 
L 87.347682 143.71941 
L 87.995861 142.594086 
L 89.359272 132.360674 
L 90.052152 130.215526 
L 91.415563 124.026246 
L 92.108444 122.689924 
L 92.778974 129.160535 
L 94.142384 147.482211 
L 94.835265 151.913173 
L 96.846854 153.636325 
L 97.517384 157.504625 
L 98.210265 159.720106 
L 98.880795 159.614607 
L 99.573675 159.051945 
L 100.266556 155.922139 
L 100.937086 157.785956 
L 101.629967 155.183645 
L 102.300497 159.016779 
L 102.993377 160.177269 
L 103.686258 162.955412 
L 104.312086 164.71373 
L 105.675497 171.527213 
L 107.038907 174.16469 
L 108.424669 180.978174 
L 109.095199 182.736492 
L 110.458609 182.736492 
L 112.470199 181.417753 
L 113.163079 179.659435 
L 114.52649 174.38448 
L 115.19702 173.944901 
L 115.889901 173.944901 
L 116.582781 171.966793 
L 117.253311 169.549105 
L 117.946192 169.329315 
L 118.616722 171.087634 
L 119.309603 173.505321 
L 120.002483 174.60427 
L 120.650662 174.82406 
L 121.343543 174.38448 
L 123.377483 166.032469 
L 124.070364 162.955412 
L 124.763245 160.537724 
L 125.433775 158.999196 
L 126.126656 158.120036 
L 126.797185 156.141928 
L 127.490066 153.064872 
L 128.808775 144.49307 
L 129.501656 141.855593 
L 130.172185 141.635803 
L 130.865066 142.295172 
L 132.228477 147.350337 
L 132.921358 149.108655 
L 133.591887 150.207604 
L 134.284768 152.185712 
L 134.955298 155.04298 
L 135.648179 156.801298 
L 136.34106 157.680457 
L 139.023179 157.680457 
L 141.75 161.197093 
L 142.442881 162.955412 
L 143.806291 169.988685 
L 145.125 177.901117 
L 145.817881 181.417753 
L 146.488411 183.176071 
L 147.181291 184.055231 
L 147.851821 184.055231 
L 148.544702 184.93439 
L 149.237583 186.692708 
L 150.600993 191.967663 
L 151.271523 196.363458 
L 151.964404 199.880095 
L 152.657285 202.517572 
L 153.305464 202.517572 
L 155.361755 205.15505 
L 156.725166 208.671686 
L 157.418046 211.309163 
L 158.781457 213.067482 
L 168.30298 213.067482 
L 168.995861 212.188323 
L 169.621689 210.430004 
L 170.31457 207.792527 
L 170.985099 204.27589 
L 171.67798 201.638413 
L 174.404801 194.60514 
L 176.461093 186.692708 
L 178.472682 181.417753 
L 179.836093 181.417753 
L 181.892384 184.055231 
L 183.255795 184.055231 
L 183.926325 184.93439 
L 185.312086 188.451026 
L 185.960265 189.330185 
L 193.49255 189.330185 
L 195.481788 186.692708 
L 205.696192 186.692708 
L 206.389073 187.571867 
L 207.059603 189.330185 
L 207.752483 191.967663 
L 208.423013 193.725981 
L 209.115894 194.60514 
L 211.798013 194.60514 
L 213.161424 192.846822 
L 213.854305 191.088504 
L 217.966887 185.813549 
L 219.307947 182.296912 
L 219.978477 179.659435 
L 221.341887 176.142799 
L 224.761589 176.142799 
L 226.147351 183.176071 
L 226.773179 188.451026 
L 227.46606 191.967663 
L 228.136589 197.242617 
L 228.82947 201.638413 
L 229.5 204.27589 
L 230.192881 206.034209 
L 230.885762 208.671686 
L 232.919702 222.738232 
L 233.612583 225.375709 
L 234.305464 226.254869 
L 239.714404 226.254869 
L 241.770695 231.529823 
L 244.452815 231.529823 
L 246.509106 234.167301 
L 252.633278 234.167301 
L 253.996689 232.408982 
L 260.120861 216.584118 
L 265.574503 202.517572 
L 266.267384 199.880095 
L 267.586093 196.363458 
L 268.278974 195.484299 
L 270.312914 190.209344 
L 271.005795 189.330185 
L 279.163907 189.330185 
L 279.856788 191.088504 
L 281.220199 196.363458 
L 281.890728 198.121777 
L 283.27649 208.671686 
L 283.924669 215.704959 
L 285.288079 222.738232 
L 285.98096 223.617391 
L 288.037252 223.617391 
L 289.400662 230.650664 
L 290.071192 237.244358 
L 291.456954 243.398471 
L 346.529801 243.398471 
L 348.586093 240.760994 
L 354.710265 240.760994 
L 360.812086 232.848562 
L 362.868377 232.848562 
L 372.389901 220.540334 
L 373.082781 219.661175 
L 376.43543 219.661175 
L 377.128311 220.540334 
L 377.821192 222.298652 
L 378.491722 224.93613 
L 379.184603 226.694448 
L 379.855132 227.573607 
L 381.240894 227.573607 
L 383.252483 243.398471 
L 397.57947 243.398471 
L 398.898179 241.640153 
L 399.568709 239.002676 
L 400.261589 234.60688 
L 400.932119 227.573607 
L 402.317881 217.023698 
L 402.988411 214.38622 
L 404.351821 204.71547 
L 404.351821 204.71547 
" style="fill:none;stroke:#ff7f0e;stroke-linecap:square;stroke-width:2;"/>
   </g>
   <g id="line2d_19">
    <path clip-path="url(#p952a2d5079)" d="M 404.351821 273.375 
L 404.351821 30.375 
" style="fill:none;stroke:#d3d3d3;stroke-dasharray:5.55,2.4;stroke-dashoffset:0;stroke-width:1.5;"/>
   </g>
   <g id="patch_3">
    <path d="M 54 273.375 
L 54 30.375 
" style="fill:none;stroke:#000000;stroke-linecap:square;stroke-linejoin:miter;stroke-width:2;"/>
   </g>
   <g id="patch_4">
    <path d="M 486 273.375 
L 486 30.375 
" style="fill:none;stroke:#000000;stroke-linecap:square;stroke-linejoin:miter;stroke-width:2;"/>
   </g>
   <g id="patch_5">
    <path d="M 54 273.375 
L 486 273.375 
" style="fill:none;stroke:#000000;stroke-linecap:square;stroke-linejoin:miter;stroke-width:2;"/>
   </g>
   <g id="patch_6">
    <path d="M 54 30.375 
L 486 30.375 
" style="fill:none;stroke:#000000;stroke-linecap:square;stroke-linejoin:miter;stroke-width:2;"/>
   </g>
   <g id="text_19">
    <!-- US Inflation vs. Federal Discount Rate - 1980 to present -->
    <g transform="translate(75.226094 24.375)scale(0.14 -0.14)">
     <defs>
      <path d="M 556 4666 
L 1191 4666 
L 1191 1831 
Q 1191 1081 1462 751 
Q 1734 422 2344 422 
Q 2950 422 3222 751 
Q 3494 1081 3494 1831 
L 3494 4666 
L 4128 4666 
L 4128 1753 
Q 4128 841 3676 375 
Q 3225 -91 2344 -91 
Q 1459 -91 1007 375 
Q 556 841 556 1753 
L 556 4666 
z
" id="DejaVuSans-55" transform="scale(0.015625)"/>
      <path d="M 3425 4513 
L 3425 3897 
Q 3066 4069 2747 4153 
Q 2428 4238 2131 4238 
Q 1616 4238 1336 4038 
Q 1056 3838 1056 3469 
Q 1056 3159 1242 3001 
Q 1428 2844 1947 2747 
L 2328 2669 
Q 3034 2534 3370 2195 
Q 3706 1856 3706 1288 
Q 3706 609 3251 259 
Q 2797 -91 1919 -91 
Q 1588 -91 1214 -16 
Q 841 59 441 206 
L 441 856 
Q 825 641 1194 531 
Q 1563 422 1919 422 
Q 2459 422 2753 634 
Q 3047 847 3047 1241 
Q 3047 1584 2836 1778 
Q 2625 1972 2144 2069 
L 1759 2144 
Q 1053 2284 737 2584 
Q 422 2884 422 3419 
Q 422 4038 858 4394 
Q 1294 4750 2059 4750 
Q 2388 4750 2728 4690 
Q 3069 4631 3425 4513 
z
" id="DejaVuSans-53" transform="scale(0.015625)"/>
      <path id="DejaVuSans-20" transform="scale(0.015625)"/>
      <path d="M 628 4666 
L 1259 4666 
L 1259 0 
L 628 0 
L 628 4666 
z
" id="DejaVuSans-49" transform="scale(0.015625)"/>
      <path d="M 2375 4863 
L 2375 4384 
L 1825 4384 
Q 1516 4384 1395 4259 
Q 1275 4134 1275 3809 
L 1275 3500 
L 2222 3500 
L 2222 3053 
L 1275 3053 
L 1275 0 
L 697 0 
L 697 3053 
L 147 3053 
L 147 3500 
L 697 3500 
L 697 3744 
Q 697 4328 969 4595 
Q 1241 4863 1831 4863 
L 2375 4863 
z
" id="DejaVuSans-66" transform="scale(0.015625)"/>
      <path d="M 603 4863 
L 1178 4863 
L 1178 0 
L 603 0 
L 603 4863 
z
" id="DejaVuSans-6c" transform="scale(0.015625)"/>
      <path d="M 603 3500 
L 1178 3500 
L 1178 0 
L 603 0 
L 603 3500 
z
M 603 4863 
L 1178 4863 
L 1178 4134 
L 603 4134 
L 603 4863 
z
" id="DejaVuSans-69" transform="scale(0.015625)"/>
      <path d="M 1959 3097 
Q 1497 3097 1228 2736 
Q 959 2375 959 1747 
Q 959 1119 1226 758 
Q 1494 397 1959 397 
Q 2419 397 2687 759 
Q 2956 1122 2956 1747 
Q 2956 2369 2687 2733 
Q 2419 3097 1959 3097 
z
M 1959 3584 
Q 2709 3584 3137 3096 
Q 3566 2609 3566 1747 
Q 3566 888 3137 398 
Q 2709 -91 1959 -91 
Q 1206 -91 779 398 
Q 353 888 353 1747 
Q 353 2609 779 3096 
Q 1206 3584 1959 3584 
z
" id="DejaVuSans-6f" transform="scale(0.015625)"/>
      <path d="M 191 3500 
L 800 3500 
L 1894 563 
L 2988 3500 
L 3597 3500 
L 2284 0 
L 1503 0 
L 191 3500 
z
" id="DejaVuSans-76" transform="scale(0.015625)"/>
      <path d="M 2834 3397 
L 2834 2853 
Q 2591 2978 2328 3040 
Q 2066 3103 1784 3103 
Q 1356 3103 1142 2972 
Q 928 2841 928 2578 
Q 928 2378 1081 2264 
Q 1234 2150 1697 2047 
L 1894 2003 
Q 2506 1872 2764 1633 
Q 3022 1394 3022 966 
Q 3022 478 2636 193 
Q 2250 -91 1575 -91 
Q 1294 -91 989 -36 
Q 684 19 347 128 
L 347 722 
Q 666 556 975 473 
Q 1284 391 1588 391 
Q 1994 391 2212 530 
Q 2431 669 2431 922 
Q 2431 1156 2273 1281 
Q 2116 1406 1581 1522 
L 1381 1569 
Q 847 1681 609 1914 
Q 372 2147 372 2553 
Q 372 3047 722 3315 
Q 1072 3584 1716 3584 
Q 2034 3584 2315 3537 
Q 2597 3491 2834 3397 
z
" id="DejaVuSans-73" transform="scale(0.015625)"/>
      <path d="M 684 794 
L 1344 794 
L 1344 0 
L 684 0 
L 684 794 
z
" id="DejaVuSans-2e" transform="scale(0.015625)"/>
      <path d="M 628 4666 
L 3309 4666 
L 3309 4134 
L 1259 4134 
L 1259 2759 
L 3109 2759 
L 3109 2228 
L 1259 2228 
L 1259 0 
L 628 0 
L 628 4666 
z
" id="DejaVuSans-46" transform="scale(0.015625)"/>
      <path d="M 2906 2969 
L 2906 4863 
L 3481 4863 
L 3481 0 
L 2906 0 
L 2906 525 
Q 2725 213 2448 61 
Q 2172 -91 1784 -91 
Q 1150 -91 751 415 
Q 353 922 353 1747 
Q 353 2572 751 3078 
Q 1150 3584 1784 3584 
Q 2172 3584 2448 3432 
Q 2725 3281 2906 2969 
z
M 947 1747 
Q 947 1113 1208 752 
Q 1469 391 1925 391 
Q 2381 391 2643 752 
Q 2906 1113 2906 1747 
Q 2906 2381 2643 2742 
Q 2381 3103 1925 3103 
Q 1469 3103 1208 2742 
Q 947 2381 947 1747 
z
" id="DejaVuSans-64" transform="scale(0.015625)"/>
      <path d="M 544 1381 
L 544 3500 
L 1119 3500 
L 1119 1403 
Q 1119 906 1312 657 
Q 1506 409 1894 409 
Q 2359 409 2629 706 
Q 2900 1003 2900 1516 
L 2900 3500 
L 3475 3500 
L 3475 0 
L 2900 0 
L 2900 538 
Q 2691 219 2414 64 
Q 2138 -91 1772 -91 
Q 1169 -91 856 284 
Q 544 659 544 1381 
z
M 1991 3584 
L 1991 3584 
z
" id="DejaVuSans-75" transform="scale(0.015625)"/>
      <path d="M 2841 2188 
Q 3044 2119 3236 1894 
Q 3428 1669 3622 1275 
L 4263 0 
L 3584 0 
L 2988 1197 
Q 2756 1666 2539 1819 
Q 2322 1972 1947 1972 
L 1259 1972 
L 1259 0 
L 628 0 
L 628 4666 
L 2053 4666 
Q 2853 4666 3247 4331 
Q 3641 3997 3641 3322 
Q 3641 2881 3436 2590 
Q 3231 2300 2841 2188 
z
M 1259 4147 
L 1259 2491 
L 2053 2491 
Q 2509 2491 2742 2702 
Q 2975 2913 2975 3322 
Q 2975 3731 2742 3939 
Q 2509 4147 2053 4147 
L 1259 4147 
z
" id="DejaVuSans-52" transform="scale(0.015625)"/>
      <path d="M 313 2009 
L 1997 2009 
L 1997 1497 
L 313 1497 
L 313 2009 
z
" id="DejaVuSans-2d" transform="scale(0.015625)"/>
      <path d="M 1159 525 
L 1159 -1331 
L 581 -1331 
L 581 3500 
L 1159 3500 
L 1159 2969 
Q 1341 3281 1617 3432 
Q 1894 3584 2278 3584 
Q 2916 3584 3314 3078 
Q 3713 2572 3713 1747 
Q 3713 922 3314 415 
Q 2916 -91 2278 -91 
Q 1894 -91 1617 61 
Q 1341 213 1159 525 
z
M 3116 1747 
Q 3116 2381 2855 2742 
Q 2594 3103 2138 3103 
Q 1681 3103 1420 2742 
Q 1159 2381 1159 1747 
Q 1159 1113 1420 752 
Q 1681 391 2138 391 
Q 2594 391 2855 752 
Q 3116 1113 3116 1747 
z
" id="DejaVuSans-70" transform="scale(0.015625)"/>
     </defs>
     <use xlink:href="#DejaVuSans-55"/>
     <use x="73.193359" xlink:href="#DejaVuSans-53"/>
     <use x="136.669922" xlink:href="#DejaVuSans-20"/>
     <use x="168.457031" xlink:href="#DejaVuSans-49"/>
     <use x="197.949219" xlink:href="#DejaVuSans-6e"/>
     <use x="261.328125" xlink:href="#DejaVuSans-66"/>
     <use x="296.533203" xlink:href="#DejaVuSans-6c"/>
     <use x="324.316406" xlink:href="#DejaVuSans-61"/>
     <use x="385.595703" xlink:href="#DejaVuSans-74"/>
     <use x="424.804688" xlink:href="#DejaVuSans-69"/>
     <use x="452.587891" xlink:href="#DejaVuSans-6f"/>
     <use x="513.769531" xlink:href="#DejaVuSans-6e"/>
     <use x="577.148438" xlink:href="#DejaVuSans-20"/>
     <use x="608.935547" xlink:href="#DejaVuSans-76"/>
     <use x="668.115234" xlink:href="#DejaVuSans-73"/>
     <use x="720.214844" xlink:href="#DejaVuSans-2e"/>
     <use x="752.001953" xlink:href="#DejaVuSans-20"/>
     <use x="783.789062" xlink:href="#DejaVuSans-46"/>
     <use x="835.808594" xlink:href="#DejaVuSans-65"/>
     <use x="897.332031" xlink:href="#DejaVuSans-64"/>
     <use x="960.808594" xlink:href="#DejaVuSans-65"/>
     <use x="1022.332031" xlink:href="#DejaVuSans-72"/>
     <use x="1063.445312" xlink:href="#DejaVuSans-61"/>
     <use x="1124.724609" xlink:href="#DejaVuSans-6c"/>
     <use x="1152.507812" xlink:href="#DejaVuSans-20"/>
     <use x="1184.294922" xlink:href="#DejaVuSans-44"/>
     <use x="1261.296875" xlink:href="#DejaVuSans-69"/>
     <use x="1289.080078" xlink:href="#DejaVuSans-73"/>
     <use x="1341.179688" xlink:href="#DejaVuSans-63"/>
     <use x="1396.160156" xlink:href="#DejaVuSans-6f"/>
     <use x="1457.341797" xlink:href="#DejaVuSans-75"/>
     <use x="1520.720703" xlink:href="#DejaVuSans-6e"/>
     <use x="1584.099609" xlink:href="#DejaVuSans-74"/>
     <use x="1623.308594" xlink:href="#DejaVuSans-20"/>
     <use x="1655.095703" xlink:href="#DejaVuSans-52"/>
     <use x="1722.328125" xlink:href="#DejaVuSans-61"/>
     <use x="1783.607422" xlink:href="#DejaVuSans-74"/>
     <use x="1822.816406" xlink:href="#DejaVuSans-65"/>
     <use x="1884.339844" xlink:href="#DejaVuSans-20"/>
     <use x="1916.126953" xlink:href="#DejaVuSans-2d"/>
     <use x="1952.210938" xlink:href="#DejaVuSans-20"/>
     <use x="1983.998047" xlink:href="#DejaVuSans-31"/>
     <use x="2047.621094" xlink:href="#DejaVuSans-39"/>
     <use x="2111.244141" xlink:href="#DejaVuSans-38"/>
     <use x="2174.867188" xlink:href="#DejaVuSans-30"/>
     <use x="2238.490234" xlink:href="#DejaVuSans-20"/>
     <use x="2270.277344" xlink:href="#DejaVuSans-74"/>
     <use x="2309.486328" xlink:href="#DejaVuSans-6f"/>
     <use x="2370.667969" xlink:href="#DejaVuSans-20"/>
     <use x="2402.455078" xlink:href="#DejaVuSans-70"/>
     <use x="2465.931641" xlink:href="#DejaVuSans-72"/>
     <use x="2504.794922" xlink:href="#DejaVuSans-65"/>
     <use x="2566.318359" xlink:href="#DejaVuSans-73"/>
     <use x="2618.417969" xlink:href="#DejaVuSans-65"/>
     <use x="2679.941406" xlink:href="#DejaVuSans-6e"/>
     <use x="2743.320312" xlink:href="#DejaVuSans-74"/>
    </g>
   </g>
   <g id="legend_1">
    <g id="patch_7">
     <path d="M 61 268.375 
L 209.489062 268.375 
Q 211.489062 268.375 211.489062 266.375 
L 211.489062 238.01875 
Q 211.489062 236.01875 209.489062 236.01875 
L 61 236.01875 
Q 59 236.01875 59 238.01875 
L 59 266.375 
Q 59 268.375 61 268.375 
z
" style="fill:#ffffff;opacity:0.8;stroke:#cccccc;stroke-linejoin:miter;"/>
    </g>
    <g id="line2d_20">
     <path d="M 63 244.117188 
L 83 244.117188 
" style="fill:none;stroke:#1f77b4;stroke-linecap:square;stroke-width:2;"/>
    </g>
    <g id="line2d_21"/>
    <g id="text_20">
     <!-- CPI (Q-smoothed) -->
     <g transform="translate(91 247.617188)scale(0.1 -0.1)">
      <defs>
       <path d="M 4122 4306 
L 4122 3641 
Q 3803 3938 3442 4084 
Q 3081 4231 2675 4231 
Q 1875 4231 1450 3742 
Q 1025 3253 1025 2328 
Q 1025 1406 1450 917 
Q 1875 428 2675 428 
Q 3081 428 3442 575 
Q 3803 722 4122 1019 
L 4122 359 
Q 3791 134 3420 21 
Q 3050 -91 2638 -91 
Q 1578 -91 968 557 
Q 359 1206 359 2328 
Q 359 3453 968 4101 
Q 1578 4750 2638 4750 
Q 3056 4750 3426 4639 
Q 3797 4528 4122 4306 
z
" id="DejaVuSans-43" transform="scale(0.015625)"/>
       <path d="M 1984 4856 
Q 1566 4138 1362 3434 
Q 1159 2731 1159 2009 
Q 1159 1288 1364 580 
Q 1569 -128 1984 -844 
L 1484 -844 
Q 1016 -109 783 600 
Q 550 1309 550 2009 
Q 550 2706 781 3412 
Q 1013 4119 1484 4856 
L 1984 4856 
z
" id="DejaVuSans-28" transform="scale(0.015625)"/>
       <path d="M 2522 4238 
Q 1834 4238 1429 3725 
Q 1025 3213 1025 2328 
Q 1025 1447 1429 934 
Q 1834 422 2522 422 
Q 3209 422 3611 934 
Q 4013 1447 4013 2328 
Q 4013 3213 3611 3725 
Q 3209 4238 2522 4238 
z
M 3406 84 
L 4238 -825 
L 3475 -825 
L 2784 -78 
Q 2681 -84 2626 -87 
Q 2572 -91 2522 -91 
Q 1538 -91 948 567 
Q 359 1225 359 2328 
Q 359 3434 948 4092 
Q 1538 4750 2522 4750 
Q 3503 4750 4090 4092 
Q 4678 3434 4678 2328 
Q 4678 1516 4351 937 
Q 4025 359 3406 84 
z
" id="DejaVuSans-51" transform="scale(0.015625)"/>
       <path d="M 3328 2828 
Q 3544 3216 3844 3400 
Q 4144 3584 4550 3584 
Q 5097 3584 5394 3201 
Q 5691 2819 5691 2113 
L 5691 0 
L 5113 0 
L 5113 2094 
Q 5113 2597 4934 2840 
Q 4756 3084 4391 3084 
Q 3944 3084 3684 2787 
Q 3425 2491 3425 1978 
L 3425 0 
L 2847 0 
L 2847 2094 
Q 2847 2600 2669 2842 
Q 2491 3084 2119 3084 
Q 1678 3084 1418 2786 
Q 1159 2488 1159 1978 
L 1159 0 
L 581 0 
L 581 3500 
L 1159 3500 
L 1159 2956 
Q 1356 3278 1631 3431 
Q 1906 3584 2284 3584 
Q 2666 3584 2933 3390 
Q 3200 3197 3328 2828 
z
" id="DejaVuSans-6d" transform="scale(0.015625)"/>
       <path d="M 3513 2113 
L 3513 0 
L 2938 0 
L 2938 2094 
Q 2938 2591 2744 2837 
Q 2550 3084 2163 3084 
Q 1697 3084 1428 2787 
Q 1159 2491 1159 1978 
L 1159 0 
L 581 0 
L 581 4863 
L 1159 4863 
L 1159 2956 
Q 1366 3272 1645 3428 
Q 1925 3584 2291 3584 
Q 2894 3584 3203 3211 
Q 3513 2838 3513 2113 
z
" id="DejaVuSans-68" transform="scale(0.015625)"/>
       <path d="M 513 4856 
L 1013 4856 
Q 1481 4119 1714 3412 
Q 1947 2706 1947 2009 
Q 1947 1309 1714 600 
Q 1481 -109 1013 -844 
L 513 -844 
Q 928 -128 1133 580 
Q 1338 1288 1338 2009 
Q 1338 2731 1133 3434 
Q 928 4138 513 4856 
z
" id="DejaVuSans-29" transform="scale(0.015625)"/>
      </defs>
      <use xlink:href="#DejaVuSans-43"/>
      <use x="69.824219" xlink:href="#DejaVuSans-50"/>
      <use x="130.126953" xlink:href="#DejaVuSans-49"/>
      <use x="159.619141" xlink:href="#DejaVuSans-20"/>
      <use x="191.40625" xlink:href="#DejaVuSans-28"/>
      <use x="230.419922" xlink:href="#DejaVuSans-51"/>
      <use x="311.880859" xlink:href="#DejaVuSans-2d"/>
      <use x="347.964844" xlink:href="#DejaVuSans-73"/>
      <use x="400.064453" xlink:href="#DejaVuSans-6d"/>
      <use x="497.476562" xlink:href="#DejaVuSans-6f"/>
      <use x="558.658203" xlink:href="#DejaVuSans-6f"/>
      <use x="619.839844" xlink:href="#DejaVuSans-74"/>
      <use x="659.048828" xlink:href="#DejaVuSans-68"/>
      <use x="722.427734" xlink:href="#DejaVuSans-65"/>
      <use x="783.951172" xlink:href="#DejaVuSans-64"/>
      <use x="847.427734" xlink:href="#DejaVuSans-29"/>
     </g>
    </g>
    <g id="line2d_22">
     <path d="M 63 258.795313 
L 83 258.795313 
" style="fill:none;stroke:#ff7f0e;stroke-linecap:square;stroke-width:2;"/>
    </g>
    <g id="line2d_23"/>
    <g id="text_21">
     <!-- Fed Rate (Q-smoothed) -->
     <g transform="translate(91 262.295313)scale(0.1 -0.1)">
      <use xlink:href="#DejaVuSans-46"/>
      <use x="52.019531" xlink:href="#DejaVuSans-65"/>
      <use x="113.542969" xlink:href="#DejaVuSans-64"/>
      <use x="177.019531" xlink:href="#DejaVuSans-20"/>
      <use x="208.806641" xlink:href="#DejaVuSans-52"/>
      <use x="276.039062" xlink:href="#DejaVuSans-61"/>
      <use x="337.318359" xlink:href="#DejaVuSans-74"/>
      <use x="376.527344" xlink:href="#DejaVuSans-65"/>
      <use x="438.050781" xlink:href="#DejaVuSans-20"/>
      <use x="469.837891" xlink:href="#DejaVuSans-28"/>
      <use x="508.851562" xlink:href="#DejaVuSans-51"/>
      <use x="590.3125" xlink:href="#DejaVuSans-2d"/>
      <use x="626.396484" xlink:href="#DejaVuSans-73"/>
      <use x="678.496094" xlink:href="#DejaVuSans-6d"/>
      <use x="775.908203" xlink:href="#DejaVuSans-6f"/>
      <use x="837.089844" xlink:href="#DejaVuSans-6f"/>
      <use x="898.271484" xlink:href="#DejaVuSans-74"/>
      <use x="937.480469" xlink:href="#DejaVuSans-68"/>
      <use x="1000.859375" xlink:href="#DejaVuSans-65"/>
      <use x="1062.382812" xlink:href="#DejaVuSans-64"/>
      <use x="1125.859375" xlink:href="#DejaVuSans-29"/>
     </g>
    </g>
   </g>
  </g>
 </g>
 <defs>
  <clipPath id="p952a2d5079">
   <rect height="243" width="432" x="54" y="30.375"/>
  </clipPath>
 </defs>
</svg>
