<?xml version="1.0" encoding="utf-8" standalone="no"?>
<!DOCTYPE svg PUBLIC "-//W3C//DTD SVG 1.1//EN"
  "http://www.w3.org/Graphics/SVG/1.1/DTD/svg11.dtd">
<svg height="288pt" version="1.1" viewBox="0 0 432 288" width="432pt" xmlns="http://www.w3.org/2000/svg" xmlns:xlink="http://www.w3.org/1999/xlink">
 <metadata>
  <rdf:RDF xmlns:cc="http://creativecommons.org/ns#" xmlns:dc="http://purl.org/dc/elements/1.1/" xmlns:rdf="http://www.w3.org/1999/02/22-rdf-syntax-ns#">
   <cc:Work>
    <dc:type rdf:resource="http://purl.org/dc/dcmitype/StillImage"/>
    <dc:date>2023-02-24T11:32:50.390845</dc:date>
    <dc:format>image/svg+xml</dc:format>
    <dc:creator>
     <cc:Agent>
      <dc:title>Matplotlib v3.4.3, https://matplotlib.org/</dc:title>
     </cc:Agent>
    </dc:creator>
   </cc:Work>
  </rdf:RDF>
 </metadata>
 <defs>
  <style type="text/css">*{stroke-linecap:butt;stroke-linejoin:round;}</style>
 </defs>
 <g id="figure_1">
  <g id="patch_1">
   <path d="M 0 288 
L 432 288 
L 432 0 
L 0 0 
z
" style="fill:none;"/>
  </g>
  <g id="axes_1">
   <g id="patch_2">
    <path d="M 54 252 
L 388.8 252 
L 388.8 34.56 
L 54 34.56 
z
" style="fill:#ffffff;"/>
   </g>
   <g id="matplotlib.axis_1">
    <g id="xtick_1">
     <g id="line2d_1">
      <defs>
       <path d="M 0 0 
L 0 3.5 
" id="mb21fa8ae17" style="stroke:#000000;stroke-width:0.8;"/>
      </defs>
      <g>
       <use style="stroke:#000000;stroke-width:0.8;" x="75.599523" xlink:href="#mb21fa8ae17" y="252"/>
      </g>
     </g>
     <g id="text_1">
      <!-- 1975 -->
      <g transform="translate(62.874523 266.598437)scale(0.1 -0.1)">
       <defs>
        <path d="M 794 531 
L 1825 531 
L 1825 4091 
L 703 3866 
L 703 4441 
L 1819 4666 
L 2450 4666 
L 2450 531 
L 3481 531 
L 3481 0 
L 794 0 
L 794 531 
z
" id="DejaVuSans-31" transform="scale(0.015625)"/>
        <path d="M 703 97 
L 703 672 
Q 941 559 1184 500 
Q 1428 441 1663 441 
Q 2288 441 2617 861 
Q 2947 1281 2994 2138 
Q 2813 1869 2534 1725 
Q 2256 1581 1919 1581 
Q 1219 1581 811 2004 
Q 403 2428 403 3163 
Q 403 3881 828 4315 
Q 1253 4750 1959 4750 
Q 2769 4750 3195 4129 
Q 3622 3509 3622 2328 
Q 3622 1225 3098 567 
Q 2575 -91 1691 -91 
Q 1453 -91 1209 -44 
Q 966 3 703 97 
z
M 1959 2075 
Q 2384 2075 2632 2365 
Q 2881 2656 2881 3163 
Q 2881 3666 2632 3958 
Q 2384 4250 1959 4250 
Q 1534 4250 1286 3958 
Q 1038 3666 1038 3163 
Q 1038 2656 1286 2365 
Q 1534 2075 1959 2075 
z
" id="DejaVuSans-39" transform="scale(0.015625)"/>
        <path d="M 525 4666 
L 3525 4666 
L 3525 4397 
L 1831 0 
L 1172 0 
L 2766 4134 
L 525 4134 
L 525 4666 
z
" id="DejaVuSans-37" transform="scale(0.015625)"/>
        <path d="M 691 4666 
L 3169 4666 
L 3169 4134 
L 1269 4134 
L 1269 2991 
Q 1406 3038 1543 3061 
Q 1681 3084 1819 3084 
Q 2600 3084 3056 2656 
Q 3513 2228 3513 1497 
Q 3513 744 3044 326 
Q 2575 -91 1722 -91 
Q 1428 -91 1123 -41 
Q 819 9 494 109 
L 494 744 
Q 775 591 1075 516 
Q 1375 441 1709 441 
Q 2250 441 2565 725 
Q 2881 1009 2881 1497 
Q 2881 1984 2565 2268 
Q 2250 2553 1709 2553 
Q 1456 2553 1204 2497 
Q 953 2441 691 2322 
L 691 4666 
z
" id="DejaVuSans-35" transform="scale(0.015625)"/>
       </defs>
       <use xlink:href="#DejaVuSans-31"/>
       <use x="63.623047" xlink:href="#DejaVuSans-39"/>
       <use x="127.246094" xlink:href="#DejaVuSans-37"/>
       <use x="190.869141" xlink:href="#DejaVuSans-35"/>
      </g>
     </g>
    </g>
    <g id="xtick_2">
     <g id="line2d_2">
      <g>
       <use style="stroke:#000000;stroke-width:0.8;" x="102.595231" xlink:href="#mb21fa8ae17" y="252"/>
      </g>
     </g>
     <g id="text_2">
      <!-- 1980 -->
      <g transform="translate(89.870231 266.598437)scale(0.1 -0.1)">
       <defs>
        <path d="M 2034 2216 
Q 1584 2216 1326 1975 
Q 1069 1734 1069 1313 
Q 1069 891 1326 650 
Q 1584 409 2034 409 
Q 2484 409 2743 651 
Q 3003 894 3003 1313 
Q 3003 1734 2745 1975 
Q 2488 2216 2034 2216 
z
M 1403 2484 
Q 997 2584 770 2862 
Q 544 3141 544 3541 
Q 544 4100 942 4425 
Q 1341 4750 2034 4750 
Q 2731 4750 3128 4425 
Q 3525 4100 3525 3541 
Q 3525 3141 3298 2862 
Q 3072 2584 2669 2484 
Q 3125 2378 3379 2068 
Q 3634 1759 3634 1313 
Q 3634 634 3220 271 
Q 2806 -91 2034 -91 
Q 1263 -91 848 271 
Q 434 634 434 1313 
Q 434 1759 690 2068 
Q 947 2378 1403 2484 
z
M 1172 3481 
Q 1172 3119 1398 2916 
Q 1625 2713 2034 2713 
Q 2441 2713 2670 2916 
Q 2900 3119 2900 3481 
Q 2900 3844 2670 4047 
Q 2441 4250 2034 4250 
Q 1625 4250 1398 4047 
Q 1172 3844 1172 3481 
z
" id="DejaVuSans-38" transform="scale(0.015625)"/>
        <path d="M 2034 4250 
Q 1547 4250 1301 3770 
Q 1056 3291 1056 2328 
Q 1056 1369 1301 889 
Q 1547 409 2034 409 
Q 2525 409 2770 889 
Q 3016 1369 3016 2328 
Q 3016 3291 2770 3770 
Q 2525 4250 2034 4250 
z
M 2034 4750 
Q 2819 4750 3233 4129 
Q 3647 3509 3647 2328 
Q 3647 1150 3233 529 
Q 2819 -91 2034 -91 
Q 1250 -91 836 529 
Q 422 1150 422 2328 
Q 422 3509 836 4129 
Q 1250 4750 2034 4750 
z
" id="DejaVuSans-30" transform="scale(0.015625)"/>
       </defs>
       <use xlink:href="#DejaVuSans-31"/>
       <use x="63.623047" xlink:href="#DejaVuSans-39"/>
       <use x="127.246094" xlink:href="#DejaVuSans-38"/>
       <use x="190.869141" xlink:href="#DejaVuSans-30"/>
      </g>
     </g>
    </g>
    <g id="xtick_3">
     <g id="line2d_3">
      <g>
       <use style="stroke:#000000;stroke-width:0.8;" x="129.605723" xlink:href="#mb21fa8ae17" y="252"/>
      </g>
     </g>
     <g id="text_3">
      <!-- 1985 -->
      <g transform="translate(116.880723 266.598437)scale(0.1 -0.1)">
       <use xlink:href="#DejaVuSans-31"/>
       <use x="63.623047" xlink:href="#DejaVuSans-39"/>
       <use x="127.246094" xlink:href="#DejaVuSans-38"/>
       <use x="190.869141" xlink:href="#DejaVuSans-35"/>
      </g>
     </g>
    </g>
    <g id="xtick_4">
     <g id="line2d_4">
      <g>
       <use style="stroke:#000000;stroke-width:0.8;" x="156.601431" xlink:href="#mb21fa8ae17" y="252"/>
      </g>
     </g>
     <g id="text_4">
      <!-- 1990 -->
      <g transform="translate(143.876431 266.598437)scale(0.1 -0.1)">
       <use xlink:href="#DejaVuSans-31"/>
       <use x="63.623047" xlink:href="#DejaVuSans-39"/>
       <use x="127.246094" xlink:href="#DejaVuSans-39"/>
       <use x="190.869141" xlink:href="#DejaVuSans-30"/>
      </g>
     </g>
    </g>
    <g id="xtick_5">
     <g id="line2d_5">
      <g>
       <use style="stroke:#000000;stroke-width:0.8;" x="183.597139" xlink:href="#mb21fa8ae17" y="252"/>
      </g>
     </g>
     <g id="text_5">
      <!-- 1995 -->
      <g transform="translate(170.872139 266.598437)scale(0.1 -0.1)">
       <use xlink:href="#DejaVuSans-31"/>
       <use x="63.623047" xlink:href="#DejaVuSans-39"/>
       <use x="127.246094" xlink:href="#DejaVuSans-39"/>
       <use x="190.869141" xlink:href="#DejaVuSans-35"/>
      </g>
     </g>
    </g>
    <g id="xtick_6">
     <g id="line2d_6">
      <g>
       <use style="stroke:#000000;stroke-width:0.8;" x="210.592846" xlink:href="#mb21fa8ae17" y="252"/>
      </g>
     </g>
     <g id="text_6">
      <!-- 2000 -->
      <g transform="translate(197.867846 266.598437)scale(0.1 -0.1)">
       <defs>
        <path d="M 1228 531 
L 3431 531 
L 3431 0 
L 469 0 
L 469 531 
Q 828 903 1448 1529 
Q 2069 2156 2228 2338 
Q 2531 2678 2651 2914 
Q 2772 3150 2772 3378 
Q 2772 3750 2511 3984 
Q 2250 4219 1831 4219 
Q 1534 4219 1204 4116 
Q 875 4013 500 3803 
L 500 4441 
Q 881 4594 1212 4672 
Q 1544 4750 1819 4750 
Q 2544 4750 2975 4387 
Q 3406 4025 3406 3419 
Q 3406 3131 3298 2873 
Q 3191 2616 2906 2266 
Q 2828 2175 2409 1742 
Q 1991 1309 1228 531 
z
" id="DejaVuSans-32" transform="scale(0.015625)"/>
       </defs>
       <use xlink:href="#DejaVuSans-32"/>
       <use x="63.623047" xlink:href="#DejaVuSans-30"/>
       <use x="127.246094" xlink:href="#DejaVuSans-30"/>
       <use x="190.869141" xlink:href="#DejaVuSans-30"/>
      </g>
     </g>
    </g>
    <g id="xtick_7">
     <g id="line2d_7">
      <g>
       <use style="stroke:#000000;stroke-width:0.8;" x="237.603338" xlink:href="#mb21fa8ae17" y="252"/>
      </g>
     </g>
     <g id="text_7">
      <!-- 2005 -->
      <g transform="translate(224.878338 266.598437)scale(0.1 -0.1)">
       <use xlink:href="#DejaVuSans-32"/>
       <use x="63.623047" xlink:href="#DejaVuSans-30"/>
       <use x="127.246094" xlink:href="#DejaVuSans-30"/>
       <use x="190.869141" xlink:href="#DejaVuSans-35"/>
      </g>
     </g>
    </g>
    <g id="xtick_8">
     <g id="line2d_8">
      <g>
       <use style="stroke:#000000;stroke-width:0.8;" x="264.599046" xlink:href="#mb21fa8ae17" y="252"/>
      </g>
     </g>
     <g id="text_8">
      <!-- 2010 -->
      <g transform="translate(251.874046 266.598437)scale(0.1 -0.1)">
       <use xlink:href="#DejaVuSans-32"/>
       <use x="63.623047" xlink:href="#DejaVuSans-30"/>
       <use x="127.246094" xlink:href="#DejaVuSans-31"/>
       <use x="190.869141" xlink:href="#DejaVuSans-30"/>
      </g>
     </g>
    </g>
    <g id="xtick_9">
     <g id="line2d_9">
      <g>
       <use style="stroke:#000000;stroke-width:0.8;" x="291.594754" xlink:href="#mb21fa8ae17" y="252"/>
      </g>
     </g>
     <g id="text_9">
      <!-- 2015 -->
      <g transform="translate(278.869754 266.598437)scale(0.1 -0.1)">
       <use xlink:href="#DejaVuSans-32"/>
       <use x="63.623047" xlink:href="#DejaVuSans-30"/>
       <use x="127.246094" xlink:href="#DejaVuSans-31"/>
       <use x="190.869141" xlink:href="#DejaVuSans-35"/>
      </g>
     </g>
    </g>
    <g id="xtick_10">
     <g id="line2d_10">
      <g>
       <use style="stroke:#000000;stroke-width:0.8;" x="318.590462" xlink:href="#mb21fa8ae17" y="252"/>
      </g>
     </g>
     <g id="text_10">
      <!-- 2020 -->
      <g transform="translate(305.865462 266.598437)scale(0.1 -0.1)">
       <use xlink:href="#DejaVuSans-32"/>
       <use x="63.623047" xlink:href="#DejaVuSans-30"/>
       <use x="127.246094" xlink:href="#DejaVuSans-32"/>
       <use x="190.869141" xlink:href="#DejaVuSans-30"/>
      </g>
     </g>
    </g>
    <g id="xtick_11">
     <g id="line2d_11">
      <g>
       <use style="stroke:#000000;stroke-width:0.8;" x="345.600954" xlink:href="#mb21fa8ae17" y="252"/>
      </g>
     </g>
     <g id="text_11">
      <!-- 2025 -->
      <g transform="translate(332.875954 266.598437)scale(0.1 -0.1)">
       <use xlink:href="#DejaVuSans-32"/>
       <use x="63.623047" xlink:href="#DejaVuSans-30"/>
       <use x="127.246094" xlink:href="#DejaVuSans-32"/>
       <use x="190.869141" xlink:href="#DejaVuSans-35"/>
      </g>
     </g>
    </g>
    <g id="xtick_12">
     <g id="line2d_12">
      <g>
       <use style="stroke:#000000;stroke-width:0.8;" x="372.596662" xlink:href="#mb21fa8ae17" y="252"/>
      </g>
     </g>
     <g id="text_12">
      <!-- 2030 -->
      <g transform="translate(359.871662 266.598437)scale(0.1 -0.1)">
       <defs>
        <path d="M 2597 2516 
Q 3050 2419 3304 2112 
Q 3559 1806 3559 1356 
Q 3559 666 3084 287 
Q 2609 -91 1734 -91 
Q 1441 -91 1130 -33 
Q 819 25 488 141 
L 488 750 
Q 750 597 1062 519 
Q 1375 441 1716 441 
Q 2309 441 2620 675 
Q 2931 909 2931 1356 
Q 2931 1769 2642 2001 
Q 2353 2234 1838 2234 
L 1294 2234 
L 1294 2753 
L 1863 2753 
Q 2328 2753 2575 2939 
Q 2822 3125 2822 3475 
Q 2822 3834 2567 4026 
Q 2313 4219 1838 4219 
Q 1578 4219 1281 4162 
Q 984 4106 628 3988 
L 628 4550 
Q 988 4650 1302 4700 
Q 1616 4750 1894 4750 
Q 2613 4750 3031 4423 
Q 3450 4097 3450 3541 
Q 3450 3153 3228 2886 
Q 3006 2619 2597 2516 
z
" id="DejaVuSans-33" transform="scale(0.015625)"/>
       </defs>
       <use xlink:href="#DejaVuSans-32"/>
       <use x="63.623047" xlink:href="#DejaVuSans-30"/>
       <use x="127.246094" xlink:href="#DejaVuSans-33"/>
       <use x="190.869141" xlink:href="#DejaVuSans-30"/>
      </g>
     </g>
    </g>
    <g id="text_13">
     <!-- Date -->
     <g transform="translate(209.449219 280.276563)scale(0.1 -0.1)">
      <defs>
       <path d="M 1259 4147 
L 1259 519 
L 2022 519 
Q 2988 519 3436 956 
Q 3884 1394 3884 2338 
Q 3884 3275 3436 3711 
Q 2988 4147 2022 4147 
L 1259 4147 
z
M 628 4666 
L 1925 4666 
Q 3281 4666 3915 4102 
Q 4550 3538 4550 2338 
Q 4550 1131 3912 565 
Q 3275 0 1925 0 
L 628 0 
L 628 4666 
z
" id="DejaVuSans-44" transform="scale(0.015625)"/>
       <path d="M 2194 1759 
Q 1497 1759 1228 1600 
Q 959 1441 959 1056 
Q 959 750 1161 570 
Q 1363 391 1709 391 
Q 2188 391 2477 730 
Q 2766 1069 2766 1631 
L 2766 1759 
L 2194 1759 
z
M 3341 1997 
L 3341 0 
L 2766 0 
L 2766 531 
Q 2569 213 2275 61 
Q 1981 -91 1556 -91 
Q 1019 -91 701 211 
Q 384 513 384 1019 
Q 384 1609 779 1909 
Q 1175 2209 1959 2209 
L 2766 2209 
L 2766 2266 
Q 2766 2663 2505 2880 
Q 2244 3097 1772 3097 
Q 1472 3097 1187 3025 
Q 903 2953 641 2809 
L 641 3341 
Q 956 3463 1253 3523 
Q 1550 3584 1831 3584 
Q 2591 3584 2966 3190 
Q 3341 2797 3341 1997 
z
" id="DejaVuSans-61" transform="scale(0.015625)"/>
       <path d="M 1172 4494 
L 1172 3500 
L 2356 3500 
L 2356 3053 
L 1172 3053 
L 1172 1153 
Q 1172 725 1289 603 
Q 1406 481 1766 481 
L 2356 481 
L 2356 0 
L 1766 0 
Q 1100 0 847 248 
Q 594 497 594 1153 
L 594 3053 
L 172 3053 
L 172 3500 
L 594 3500 
L 594 4494 
L 1172 4494 
z
" id="DejaVuSans-74" transform="scale(0.015625)"/>
       <path d="M 3597 1894 
L 3597 1613 
L 953 1613 
Q 991 1019 1311 708 
Q 1631 397 2203 397 
Q 2534 397 2845 478 
Q 3156 559 3463 722 
L 3463 178 
Q 3153 47 2828 -22 
Q 2503 -91 2169 -91 
Q 1331 -91 842 396 
Q 353 884 353 1716 
Q 353 2575 817 3079 
Q 1281 3584 2069 3584 
Q 2775 3584 3186 3129 
Q 3597 2675 3597 1894 
z
M 3022 2063 
Q 3016 2534 2758 2815 
Q 2500 3097 2075 3097 
Q 1594 3097 1305 2825 
Q 1016 2553 972 2059 
L 3022 2063 
z
" id="DejaVuSans-65" transform="scale(0.015625)"/>
      </defs>
      <use xlink:href="#DejaVuSans-44"/>
      <use x="77.001953" xlink:href="#DejaVuSans-61"/>
      <use x="138.28125" xlink:href="#DejaVuSans-74"/>
      <use x="177.490234" xlink:href="#DejaVuSans-65"/>
     </g>
    </g>
   </g>
   <g id="matplotlib.axis_2">
    <g id="ytick_1">
     <g id="line2d_13">
      <defs>
       <path d="M 0 0 
L -3.5 0 
" id="m80b356e325" style="stroke:#000000;stroke-width:0.8;"/>
      </defs>
      <g>
       <use style="stroke:#000000;stroke-width:0.8;" x="54" xlink:href="#m80b356e325" y="242.222167"/>
      </g>
     </g>
     <g id="text_14">
      <!-- 0 -->
      <g transform="translate(40.6375 246.021385)scale(0.1 -0.1)">
       <use xlink:href="#DejaVuSans-30"/>
      </g>
     </g>
    </g>
    <g id="ytick_2">
     <g id="line2d_14">
      <g>
       <use style="stroke:#000000;stroke-width:0.8;" x="54" xlink:href="#m80b356e325" y="199.900968"/>
      </g>
     </g>
     <g id="text_15">
      <!-- 5 -->
      <g transform="translate(40.6375 203.700186)scale(0.1 -0.1)">
       <use xlink:href="#DejaVuSans-35"/>
      </g>
     </g>
    </g>
    <g id="ytick_3">
     <g id="line2d_15">
      <g>
       <use style="stroke:#000000;stroke-width:0.8;" x="54" xlink:href="#m80b356e325" y="157.579769"/>
      </g>
     </g>
     <g id="text_16">
      <!-- 10 -->
      <g transform="translate(34.275 161.378988)scale(0.1 -0.1)">
       <use xlink:href="#DejaVuSans-31"/>
       <use x="63.623047" xlink:href="#DejaVuSans-30"/>
      </g>
     </g>
    </g>
    <g id="ytick_4">
     <g id="line2d_16">
      <g>
       <use style="stroke:#000000;stroke-width:0.8;" x="54" xlink:href="#m80b356e325" y="115.25857"/>
      </g>
     </g>
     <g id="text_17">
      <!-- 15 -->
      <g transform="translate(34.275 119.057789)scale(0.1 -0.1)">
       <use xlink:href="#DejaVuSans-31"/>
       <use x="63.623047" xlink:href="#DejaVuSans-35"/>
      </g>
     </g>
    </g>
    <g id="ytick_5">
     <g id="line2d_17">
      <g>
       <use style="stroke:#000000;stroke-width:0.8;" x="54" xlink:href="#m80b356e325" y="72.937371"/>
      </g>
     </g>
     <g id="text_18">
      <!-- 20 -->
      <g transform="translate(34.275 76.73659)scale(0.1 -0.1)">
       <use xlink:href="#DejaVuSans-32"/>
       <use x="63.623047" xlink:href="#DejaVuSans-30"/>
      </g>
     </g>
    </g>
    <g id="text_19">
     <!-- Exchange Rate -->
     <g transform="translate(28.195312 180.764375)rotate(-90)scale(0.1 -0.1)">
      <defs>
       <path d="M 628 4666 
L 3578 4666 
L 3578 4134 
L 1259 4134 
L 1259 2753 
L 3481 2753 
L 3481 2222 
L 1259 2222 
L 1259 531 
L 3634 531 
L 3634 0 
L 628 0 
L 628 4666 
z
" id="DejaVuSans-45" transform="scale(0.015625)"/>
       <path d="M 3513 3500 
L 2247 1797 
L 3578 0 
L 2900 0 
L 1881 1375 
L 863 0 
L 184 0 
L 1544 1831 
L 300 3500 
L 978 3500 
L 1906 2253 
L 2834 3500 
L 3513 3500 
z
" id="DejaVuSans-78" transform="scale(0.015625)"/>
       <path d="M 3122 3366 
L 3122 2828 
Q 2878 2963 2633 3030 
Q 2388 3097 2138 3097 
Q 1578 3097 1268 2742 
Q 959 2388 959 1747 
Q 959 1106 1268 751 
Q 1578 397 2138 397 
Q 2388 397 2633 464 
Q 2878 531 3122 666 
L 3122 134 
Q 2881 22 2623 -34 
Q 2366 -91 2075 -91 
Q 1284 -91 818 406 
Q 353 903 353 1747 
Q 353 2603 823 3093 
Q 1294 3584 2113 3584 
Q 2378 3584 2631 3529 
Q 2884 3475 3122 3366 
z
" id="DejaVuSans-63" transform="scale(0.015625)"/>
       <path d="M 3513 2113 
L 3513 0 
L 2938 0 
L 2938 2094 
Q 2938 2591 2744 2837 
Q 2550 3084 2163 3084 
Q 1697 3084 1428 2787 
Q 1159 2491 1159 1978 
L 1159 0 
L 581 0 
L 581 4863 
L 1159 4863 
L 1159 2956 
Q 1366 3272 1645 3428 
Q 1925 3584 2291 3584 
Q 2894 3584 3203 3211 
Q 3513 2838 3513 2113 
z
" id="DejaVuSans-68" transform="scale(0.015625)"/>
       <path d="M 3513 2113 
L 3513 0 
L 2938 0 
L 2938 2094 
Q 2938 2591 2744 2837 
Q 2550 3084 2163 3084 
Q 1697 3084 1428 2787 
Q 1159 2491 1159 1978 
L 1159 0 
L 581 0 
L 581 3500 
L 1159 3500 
L 1159 2956 
Q 1366 3272 1645 3428 
Q 1925 3584 2291 3584 
Q 2894 3584 3203 3211 
Q 3513 2838 3513 2113 
z
" id="DejaVuSans-6e" transform="scale(0.015625)"/>
       <path d="M 2906 1791 
Q 2906 2416 2648 2759 
Q 2391 3103 1925 3103 
Q 1463 3103 1205 2759 
Q 947 2416 947 1791 
Q 947 1169 1205 825 
Q 1463 481 1925 481 
Q 2391 481 2648 825 
Q 2906 1169 2906 1791 
z
M 3481 434 
Q 3481 -459 3084 -895 
Q 2688 -1331 1869 -1331 
Q 1566 -1331 1297 -1286 
Q 1028 -1241 775 -1147 
L 775 -588 
Q 1028 -725 1275 -790 
Q 1522 -856 1778 -856 
Q 2344 -856 2625 -561 
Q 2906 -266 2906 331 
L 2906 616 
Q 2728 306 2450 153 
Q 2172 0 1784 0 
Q 1141 0 747 490 
Q 353 981 353 1791 
Q 353 2603 747 3093 
Q 1141 3584 1784 3584 
Q 2172 3584 2450 3431 
Q 2728 3278 2906 2969 
L 2906 3500 
L 3481 3500 
L 3481 434 
z
" id="DejaVuSans-67" transform="scale(0.015625)"/>
       <path id="DejaVuSans-20" transform="scale(0.015625)"/>
       <path d="M 2841 2188 
Q 3044 2119 3236 1894 
Q 3428 1669 3622 1275 
L 4263 0 
L 3584 0 
L 2988 1197 
Q 2756 1666 2539 1819 
Q 2322 1972 1947 1972 
L 1259 1972 
L 1259 0 
L 628 0 
L 628 4666 
L 2053 4666 
Q 2853 4666 3247 4331 
Q 3641 3997 3641 3322 
Q 3641 2881 3436 2590 
Q 3231 2300 2841 2188 
z
M 1259 4147 
L 1259 2491 
L 2053 2491 
Q 2509 2491 2742 2702 
Q 2975 2913 2975 3322 
Q 2975 3731 2742 3939 
Q 2509 4147 2053 4147 
L 1259 4147 
z
" id="DejaVuSans-52" transform="scale(0.015625)"/>
      </defs>
      <use xlink:href="#DejaVuSans-45"/>
      <use x="63.183594" xlink:href="#DejaVuSans-78"/>
      <use x="120.613281" xlink:href="#DejaVuSans-63"/>
      <use x="175.59375" xlink:href="#DejaVuSans-68"/>
      <use x="238.972656" xlink:href="#DejaVuSans-61"/>
      <use x="300.251953" xlink:href="#DejaVuSans-6e"/>
      <use x="363.630859" xlink:href="#DejaVuSans-67"/>
      <use x="427.107422" xlink:href="#DejaVuSans-65"/>
      <use x="488.630859" xlink:href="#DejaVuSans-20"/>
      <use x="520.417969" xlink:href="#DejaVuSans-52"/>
      <use x="587.650391" xlink:href="#DejaVuSans-61"/>
      <use x="648.929688" xlink:href="#DejaVuSans-74"/>
      <use x="688.138672" xlink:href="#DejaVuSans-65"/>
     </g>
    </g>
   </g>
   <g id="line2d_18">
    <path clip-path="url(#pa71eb9c563)" d="M 54.87226 233.692752 
L 58.937879 233.730841 
M 60.283229 233.74523 
L 63.447019 233.89928 
L 64.348847 233.833259 
M 65.679414 233.774291 
L 69.745032 233.77147 
M 71.075598 233.956836 
L 71.977426 234.052482 
L 72.879255 234.001415 
L 74.239389 233.875862 
L 75.141217 233.861191 
M 76.471783 233.754541 
L 79.192052 233.502702 
L 80.537402 233.63212 
M 81.882752 233.844567 
L 83.686408 233.981419 
L 85.046542 233.96922 
L 85.948371 233.720332 
M 87.278937 233.394049 
L 88.180765 233.320439 
L 89.540899 233.178634 
L 90.442727 233.034573 
L 91.344555 232.886759 
M 92.675121 232.757905 
L 93.57695 232.67662 
L 94.478778 232.700489 
L 96.74074 232.284303 
M 98.071306 232.212667 
L 98.973134 232.456155 
L 102.136925 232.274879 
M 103.482275 232.357659 
L 104.384103 232.238596 
L 105.285931 232.411831 
L 106.202543 232.360481 
L 107.547894 232.191224 
M 108.87846 232.113889 
L 110.238594 232.070722 
L 111.140422 231.970562 
L 112.04225 232.031194 
L 112.944078 232.162672 
M 114.274645 231.916673 
L 115.634779 231.627224 
L 116.078301 231.518882 
L 116.536607 231.528728 
L 117.438435 231.784884 
L 118.340263 231.782909 
M 119.670829 231.801587 
L 121.474486 231.810305 
L 123.736448 231.73946 
M 125.081798 231.562021 
L 127.34376 231.135113 
L 129.147417 231.052192 
M 130.477983 230.728293 
L 131.379811 230.624747 
L 134.100079 230.601612 
L 134.543602 230.525434 
M 135.874168 230.236803 
L 137.234302 230.526562 
L 139.939786 230.495809 
M 141.270352 230.976013 
L 145.335971 231.137652 
M 146.681321 231.571303 
L 147.583149 231.782063 
L 148.943284 231.890716 
L 149.845112 231.860273 
L 150.74694 232.068521 
M 152.077506 232.136997 
L 153.881162 232.117275 
L 155.241296 232.268221 
L 156.143125 232.355628 
M 157.473691 232.200225 
L 158.833825 232.326624 
L 160.637481 232.411548 
L 161.539309 232.352581 
M 162.869875 232.42622 
L 166.491972 232.661554 
L 166.935494 232.590708 
M 168.280844 232.219692 
L 169.640979 232.072443 
L 170.542807 232.1379 
L 171.444635 231.815694 
L 171.902941 231.557253 
L 172.346463 231.50785 
M 173.677029 231.569074 
L 175.037163 231.439854 
L 175.938991 231.252202 
L 176.84082 231.008996 
L 177.742648 230.976013 
M 179.073214 230.778797 
L 179.975042 230.505148 
L 181.335176 230.552801 
L 182.237004 230.752501 
L 182.69531 230.73134 
L 183.138832 230.557852 
M 184.469399 230.34317 
L 185.371227 230.550544 
L 187.633189 230.864568 
L 188.535017 230.780772 
M 189.880367 230.602994 
L 190.782196 230.664247 
L 193.044158 230.73845 
L 193.945986 230.772561 
M 195.276552 230.675533 
L 196.17838 230.498912 
L 198.898649 230.350534 
L 199.342171 230.204075 
M 200.672737 230.059026 
L 201.131043 230.143386 
L 202.032871 229.936633 
L 203.836527 229.143505 
L 204.294834 229.215452 
L 204.738356 229.147738 
M 206.068922 229.414276 
L 207.429056 229.762552 
L 208.330884 229.601759 
L 210.13454 229.803124 
M 211.47989 229.938185 
L 213.283547 229.619309 
L 213.741853 229.696728 
L 214.643681 229.490963 
L 215.101987 229.308502 
L 215.545509 229.322468 
M 216.876075 229.226709 
L 217.777903 229.051781 
L 218.679732 229.232521 
L 219.138038 229.249196 
L 220.498172 228.833094 
L 220.941694 228.781518 
M 222.27226 228.724441 
L 222.730566 228.766198 
L 223.632394 229.230856 
L 224.534222 229.135098 
L 224.992528 228.925072 
L 226.337879 228.920896 
M 227.668445 229.538983 
L 228.570273 230.134358 
L 229.028579 230.45882 
L 229.472101 230.568601 
L 230.388713 230.520045 
L 231.734063 231.221505 
M 233.079414 230.962217 
L 234.439548 230.717459 
L 235.799682 231.194616 
L 237.145032 232.028316 
M 238.475598 231.82035 
L 240.279255 231.725917 
L 241.639389 232.238201 
L 242.541217 232.322335 
M 243.871783 232.49478 
L 244.773611 232.673686 
L 245.231917 232.820287 
L 247.035574 232.762871 
L 247.937402 232.546271 
M 249.267968 232.336104 
L 250.169796 232.799888 
L 251.071624 233.235768 
L 251.52993 233.279302 
L 251.988236 233.445258 
L 252.431758 233.749319 
L 252.890064 233.914487 
L 253.333587 233.955276 
M 254.678937 233.739215 
L 256.940899 233.512774 
L 257.399205 233.414843 
L 258.744555 231.810926 
M 260.075121 231.61859 
L 260.533428 231.762764 
L 260.97695 232.227508 
L 261.878778 232.831036 
L 262.337084 232.811145 
L 262.79539 233.033134 
L 263.238912 233.032231 
L 264.14074 233.23557 
M 265.471306 233.357822 
L 265.929612 233.5378 
L 266.373134 233.56624 
L 267.733269 233.343348 
L 269.536925 233.639862 
M 270.867491 233.905391 
L 271.325797 234.046631 
L 273.129453 234.055546 
L 274.031281 233.706789 
L 274.489588 233.591777 
L 274.93311 233.657375 
M 276.27846 233.810216 
L 276.736766 233.850117 
L 278.082116 233.607094 
L 279.44225 233.836754 
L 280.344078 233.785334 
M 281.674645 233.633361 
L 283.478301 233.444581 
L 284.394913 233.4397 
L 285.740263 233.289403 
M 287.070829 232.811371 
L 289.332792 233.065129 
L 291.136448 232.557557 
M 292.467014 231.531973 
L 292.92532 231.715365 
L 293.827148 231.830619 
L 295.187283 231.015344 
L 296.532633 230.815616 
M 297.877983 230.773887 
L 298.336289 231.208498 
L 298.779811 231.359697 
L 299.238117 231.356566 
L 299.681639 231.173682 
L 301.041773 231.032555 
L 301.943602 230.86863 
M 303.274168 231.046972 
L 304.175996 230.808986 
L 304.634302 230.918259 
L 305.53613 231.476391 
L 305.994436 231.621807 
L 306.896264 231.439543 
L 307.339786 231.41147 
M 308.670352 231.513859 
L 309.128658 231.346606 
L 310.474009 231.180566 
L 310.932315 231.128341 
L 311.834143 231.168349 
L 312.735971 230.918936 
M 314.066537 231.026996 
L 314.968365 230.839429 
L 316.786806 231.027137 
L 318.132156 231.089829 
M 319.477506 230.673389 
L 320.379334 230.417881 
L 322.197774 230.972176 
L 323.099603 231.038451 
L 323.543125 231.221646 
M 324.873691 231.488382 
L 326.233825 231.857366 
L 327.135653 231.666018 
L 327.593959 231.567128 
L 328.939309 231.547152 
M 330.269875 231.497185 
L 331.63001 231.406956 
L 332.531838 231.252089 
L 333.891972 230.673868 
L 334.335494 230.732864 
M 54.87226 233.685529 
L 56.232394 233.65139 
L 57.592528 233.624389 
L 58.937879 233.73548 
M 60.283229 233.732258 
L 63.905325 233.890195 
L 64.348847 233.851414 
M 65.679414 233.781632 
L 69.745032 233.759041 
M 71.075598 233.926777 
L 72.435733 234.050629 
L 75.141217 233.874694 
M 76.471783 233.770163 
L 79.635574 233.517063 
L 80.537402 233.613442 
M 81.882752 233.798344 
L 83.686408 233.971564 
L 85.948371 233.822103 
M 87.278937 233.506229 
L 88.180765 233.335364 
L 89.999205 233.171016 
L 91.344555 232.895675 
M 92.675121 232.803612 
L 93.57695 232.67758 
L 94.937084 232.670667 
L 96.74074 232.249769 
M 98.071306 232.181293 
L 99.43144 232.419448 
L 101.235097 232.316636 
L 102.136925 232.279817 
M 103.482275 232.369904 
L 104.384103 232.262691 
L 106.202543 232.420718 
L 107.547894 232.20488 
M 108.87846 232.119645 
L 110.682116 232.023463 
L 111.598728 231.966132 
L 112.944078 232.135445 
M 114.274645 231.992879 
L 116.536607 231.530421 
L 117.896741 231.812986 
L 118.340263 231.803167 
M 119.670829 231.83708 
L 123.736448 231.741181 
M 125.081798 231.598784 
L 127.802067 231.105008 
L 129.147417 231.063788 
M 130.477983 230.76737 
L 131.379811 230.582596 
L 133.198251 230.711449 
L 134.543602 230.547836 
M 135.874168 230.334904 
L 138.13613 230.489432 
L 139.939786 230.502185 
M 141.270352 230.892697 
L 141.728658 231.014272 
L 143.532315 230.965941 
L 145.335971 231.12521 
M 146.681321 231.488608 
L 148.041455 231.812167 
L 148.943284 231.928551 
L 150.303418 231.92367 
L 150.74694 232.012375 
M 152.077506 232.135812 
L 155.699603 232.273835 
L 156.143125 232.331477 
M 157.473691 232.210974 
L 159.277347 232.33348 
L 160.193959 232.460105 
L 161.539309 232.393802 
M 162.869875 232.439255 
L 165.590144 232.542688 
L 166.935494 232.618725 
M 168.280844 232.261195 
L 169.182672 232.123623 
L 171.001113 232.057264 
L 172.346463 231.5434 
M 173.677029 231.544415 
L 174.578857 231.561485 
L 177.742648 231.008714 
M 179.073214 230.87622 
L 179.975042 230.578279 
L 181.335176 230.527775 
L 182.69531 230.742175 
L 183.138832 230.645259 
M 184.469399 230.313997 
L 186.273055 230.656488 
L 188.535017 230.746491 
M 189.880367 230.632309 
L 191.684024 230.641845 
L 193.044158 230.674263 
L 193.945986 230.791408 
M 195.276552 230.724005 
L 196.17838 230.53102 
L 197.538515 230.513189 
L 198.898649 230.415173 
L 199.342171 230.303755 
M 200.672737 230.118106 
L 201.574565 230.116272 
L 202.476393 229.822281 
L 203.393005 229.415518 
L 203.836527 229.250888 
L 204.738356 229.173384 
M 206.068922 229.42734 
L 207.872578 229.758771 
L 208.78919 229.64315 
L 210.13454 229.759505 
M 211.47989 229.920748 
L 215.101987 229.419665 
L 215.545509 229.306132 
M 216.876075 229.293407 
L 217.777903 229.080729 
L 219.138038 229.264713 
L 220.941694 228.84627 
M 222.27226 228.727432 
L 223.174088 228.909131 
L 224.075916 229.172933 
L 224.992528 229.000714 
L 225.894357 228.896632 
L 226.337879 228.939094 
M 227.668445 229.443422 
L 228.126751 229.667668 
L 229.028579 230.375109 
L 229.472101 230.604208 
L 230.388713 230.529214 
L 231.734063 231.076145 
M 233.079414 231.059358 
L 234.439548 230.718531 
L 234.88307 230.770643 
L 236.243204 231.346973 
L 237.145032 231.885186 
M 238.475598 231.838096 
L 240.279255 231.721233 
L 242.097695 232.234956 
L 242.541217 232.282751 
M 243.871783 232.442415 
L 244.773611 232.59257 
L 245.675439 232.766369 
L 247.937402 232.583485 
M 249.267968 232.30394 
L 250.169796 232.63475 
L 251.071624 233.161424 
L 251.988236 233.370914 
L 253.333587 233.915286 
M 254.678937 233.733355 
L 256.482593 233.68042 
L 257.399205 233.408241 
L 258.744555 231.979421 
M 260.075121 231.680718 
L 260.533428 231.678968 
L 261.435256 232.338079 
L 262.337084 232.809819 
L 264.14074 233.284748 
M 265.471306 233.412473 
L 266.373134 233.566438 
L 268.191575 233.424887 
L 269.536925 233.647976 
M 270.867491 233.875411 
L 271.769319 234.033396 
L 273.587759 233.929446 
L 274.489588 233.623458 
L 274.93311 233.564463 
M 276.27846 233.7447 
L 277.180288 233.766374 
L 278.082116 233.611016 
L 278.998728 233.797362 
L 279.900556 233.864331 
L 280.344078 233.833758 
M 281.674645 233.683882 
L 283.478301 233.494068 
L 284.838435 233.441364 
L 285.740263 233.339257 
M 287.070829 232.884982 
L 287.972657 232.915707 
L 289.332792 233.056072 
L 290.23462 232.870367 
L 291.136448 232.607072 
M 292.467014 231.725776 
L 292.92532 231.650529 
L 293.827148 231.817161 
L 294.27067 231.677981 
L 295.187283 231.148599 
L 296.532633 230.923789 
M 297.877983 230.576868 
L 298.779811 231.214451 
L 299.238117 231.313059 
L 301.943602 230.928642 
M 303.274168 231.018222 
L 304.634302 230.83909 
L 305.53613 231.320762 
L 305.994436 231.608292 
L 306.896264 231.602931 
L 307.339786 231.46804 
M 308.670352 231.520095 
L 310.932315 231.131417 
L 312.292449 231.148797 
L 312.735971 231.043586 
M 314.066537 230.969044 
L 315.870193 230.977847 
L 316.786806 231.044207 
L 318.132156 231.047734 
M 319.477506 230.849755 
L 320.379334 230.379143 
L 321.281162 230.648532 
L 322.197774 230.948364 
L 323.543125 231.190751 
M 324.873691 231.500091 
L 325.775519 231.722954 
L 326.677347 231.820067 
L 327.593959 231.560751 
L 328.939309 231.556547 
M 330.269875 231.500937 
L 331.63001 231.421768 
L 333.433666 230.951016 
L 334.335494 230.728858 
M 56.675916 233.642531 
L 58.036051 233.658613 
M 62.086885 233.851598 
L 63.447019 233.857523 
M 67.48307 233.748334 
L 68.843204 233.75708 
M 72.879255 233.952604 
L 74.239389 233.900126 
M 78.275439 233.593467 
L 79.635574 233.557832 
M 83.686408 233.967487 
L 85.046542 233.893795 
M 89.082593 233.217457 
L 90.442727 233.110638 
M 94.478778 232.539246 
L 95.838912 232.391714 
M 99.874962 232.381641 
L 101.235097 232.350042 
M 105.285931 232.314774 
L 106.646066 232.313391 
M 110.682116 232.079722 
L 112.04225 232.078593 
M 116.078301 231.624092 
L 117.438435 231.612524 
M 121.474486 231.808612 
L 122.83462 231.770523 
M 126.885454 231.186773 
L 128.245589 231.067991 
M 132.281639 230.650422 
L 133.641773 230.56578 
M 137.677824 230.448127 
L 139.037958 230.496091 
M 143.074009 231.05696 
L 144.434143 231.086585 
M 148.484977 231.889587 
L 149.845112 232.008679 
M 153.881162 232.158157 
L 155.241296 232.258035 
M 159.277347 232.369227 
L 160.637481 232.400263 
M 164.673532 232.539951 
L 166.033666 232.54644 
M 170.084501 231.957357 
L 171.444635 231.736441 
M 175.480685 231.302451 
L 176.84082 231.10072 
M 180.87687 230.630644 
L 182.237004 230.573934 
M 186.273055 230.578758 
L 187.633189 230.691051 
M 191.684024 230.68064 
L 193.044158 230.66089 
M 197.080208 230.552519 
L 198.440343 230.391106 
M 202.476393 229.768477 
L 203.836527 229.417211 
M 207.872578 229.654322 
L 209.232712 229.809528 
M 213.283547 229.694866 
L 214.643681 229.559523 
M 218.679732 229.024414 
L 220.039866 228.959465 
M 224.075916 229.021056 
L 225.436051 229.071277 
M 229.472101 230.434895 
L 230.832235 230.961398 
M 234.88307 231.161775 
L 236.243204 231.449503 
M 240.279255 232.02572 
L 241.639389 232.168117 
M 245.675439 232.652525 
L 247.035574 232.661808 
M 251.071624 233.180779 
L 252.431758 233.666787 
M 256.482593 233.522423 
L 257.842727 232.971684 
M 261.878778 232.409178 
L 263.238912 232.983731 
M 267.274962 233.484222 
L 268.635097 233.536203 
M 272.671147 233.813952 
L 274.031281 233.669964 
M 278.082116 233.758138 
L 279.44225 233.760822 
M 283.478301 233.488538 
L 284.838435 233.356101 
M 288.874486 232.940846 
L 290.23462 232.788235 
M 294.27067 231.3437 
L 295.630805 231.028915 
M 299.681639 231.200824 
L 301.041773 231.055605 
M 305.077824 231.292294 
L 306.437958 231.51891 
M 310.474009 231.173625 
L 311.834143 230.968198 
M 315.870193 231.025021 
L 317.230328 231.125633 
M 321.281162 230.56183 
L 322.641296 230.989133 
M 326.677347 231.575846 
L 328.037481 231.547462 
M 332.073532 231.165048 
L 333.433666 230.877123 
M 56.675916 233.65376 
L 58.036051 233.670745 
M 62.086885 233.831893 
L 63.447019 233.871153 
M 67.48307 233.754995 
L 68.843204 233.747691 
M 72.879255 233.965318 
L 74.239389 233.949272 
M 78.275439 233.616072 
L 79.635574 233.562262 
M 83.686408 233.897601 
L 85.046542 233.902671 
M 89.082593 233.327548 
L 90.442727 233.126297 
M 94.478778 232.680232 
L 95.838912 232.494978 
M 99.874962 232.316664 
L 101.235097 232.347615 
M 105.285931 232.371992 
L 106.646066 232.318978 
M 110.682116 232.055994 
L 112.04225 232.06048 
M 116.078301 231.772103 
L 117.438435 231.710371 
M 121.474486 231.810249 
L 122.83462 231.778282 
M 126.885454 231.328436 
L 128.245589 231.1508 
M 132.281639 230.70544 
L 133.641773 230.63276 
M 137.677824 230.444995 
L 139.037958 230.500549 
M 143.074009 230.955615 
L 144.434143 231.032667 
M 148.484977 231.737569 
L 149.845112 231.909224 
M 153.881162 232.157452 
L 155.241296 232.222006 
M 159.277347 232.328881 
L 160.637481 232.388554 
M 164.673532 232.492495 
L 166.033666 232.553324 
M 170.084501 232.143853 
L 171.444635 231.904371 
M 175.480685 231.403345 
L 176.84082 231.222548 
M 180.87687 230.668225 
L 182.237004 230.593458 
M 186.273055 230.558444 
L 187.633189 230.704904 
M 191.684024 230.642804 
L 193.044158 230.696129 
M 197.080208 230.575824 
L 198.440343 230.436503 
M 202.476393 229.839492 
L 203.836527 229.523691 
M 207.872578 229.606725 
L 209.232712 229.71834 
M 213.283547 229.763116 
L 214.643681 229.558648 
M 218.679732 229.209244 
L 220.039866 229.060612 
M 224.075916 228.931899 
L 225.436051 229.001786 
M 229.472101 230.118247 
L 230.832235 230.662837 
M 234.88307 230.971556 
L 236.243204 231.248703 
M 240.279255 231.856407 
L 241.639389 232.003685 
M 245.675439 232.634779 
L 247.035574 232.684125 
M 251.071624 232.868194 
L 252.431758 233.40852 
M 256.482593 233.607658 
L 257.842727 233.026927 
M 261.878778 232.318131 
L 263.238912 232.853692 
M 267.274962 233.455048 
L 268.635097 233.53165 
M 272.671147 233.943838 
L 274.031281 233.839175 
M 278.082116 233.734518 
L 279.44225 233.764377 
M 283.478301 233.558002 
L 284.838435 233.443452 
M 288.874486 232.963614 
L 290.23462 232.871608 
M 294.27067 231.564109 
L 295.630805 231.296893 
M 299.681639 231.027871 
L 301.041773 231.142561 
M 305.077824 231.152521 
L 306.437958 231.305103 
M 310.474009 231.323865 
L 311.834143 231.168095 
M 315.870193 230.970032 
L 317.230328 230.996666 
M 321.281162 230.762404 
L 322.641296 230.877574 
M 326.677347 231.631512 
L 328.037481 231.647679 
M 332.073532 231.362096 
L 333.433666 231.105065 
L 333.433666 231.105065 
" style="fill:none;stroke:#1f77b4;stroke-linecap:square;stroke-width:1.5;"/>
   </g>
   <g id="line2d_19">
    <path clip-path="url(#pa71eb9c563)" d="M 54.87226 242.116364 
L 58.937879 242.116364 
M 60.283229 242.116364 
L 64.348847 242.116364 
M 65.679414 242.116364 
L 69.745032 242.116364 
M 71.075598 242.116364 
L 75.141217 242.116364 
M 76.471783 242.116364 
L 80.537402 242.116364 
M 81.882752 242.116364 
L 85.948371 242.031693 
M 87.278937 242.032709 
L 91.344555 242.02969 
M 92.675121 242.02969 
L 96.74074 242.029944 
M 98.071306 242.029774 
L 102.136925 242.029436 
M 103.482275 242.029379 
L 107.547894 242.02605 
M 108.87846 242.022721 
L 112.944078 242.003789 
M 114.274645 241.888337 
L 115.634779 241.825222 
L 116.078301 241.817999 
L 116.994913 241.594035 
L 117.438435 241.533742 
L 117.896741 241.62967 
L 118.340263 241.406073 
M 119.670829 240.963957 
L 123.736448 240.890572 
M 125.081798 240.790074 
L 129.147417 240.484543 
M 130.477983 240.356846 
L 131.838117 240.199975 
L 134.543602 238.27642 
M 135.874168 238.310277 
L 136.775996 237.843333 
L 139.939786 234.866742 
M 141.270352 233.374215 
L 142.630487 231.530421 
L 144.434143 229.054631 
L 145.335971 224.66028 
M 146.681321 222.980128 
L 147.139627 222.805201 
L 150.74694 222.788272 
M 152.077506 222.266311 
L 154.797774 220.717355 
L 156.143125 219.739735 
M 157.473691 218.989239 
L 159.277347 218.037859 
L 161.539309 217.403605 
M 162.869875 217.096635 
L 166.935494 216.23159 
M 168.280844 216.321593 
L 169.182672 216.124094 
L 170.084501 215.870167 
L 171.001113 215.983023 
L 172.346463 215.841953 
M 173.677029 215.983023 
L 174.578857 215.940984 
L 175.480685 215.805556 
L 177.742648 215.87722 
M 179.073214 214.950386 
L 179.975042 214.072927 
L 180.433348 213.974177 
L 180.87687 213.6215 
L 181.335176 213.46068 
L 182.237004 213.370395 
L 182.69531 213.226503 
L 183.138832 208.70942 
M 184.469399 189.715666 
L 185.371227 188.530672 
L 185.829533 190.124771 
L 186.273055 189.941379 
L 187.189667 189.179597 
L 188.091495 182.732668 
L 188.535017 178.909653 
M 189.880367 178.509774 
L 190.338673 178.674093 
L 190.782196 179.150207 
L 191.240502 179.00386 
L 192.14233 178.022601 
L 192.600636 178.107779 
L 193.502464 176.122097 
L 193.945986 175.215125 
M 195.276552 175.279256 
L 195.734858 174.911146 
L 196.17838 175.0727 
L 196.636686 175.018868 
L 197.996821 176.255296 
L 199.342171 173.22775 
M 200.672737 170.321017 
L 201.131043 170.249015 
L 201.574565 169.358069 
L 202.476393 166.780877 
L 203.836527 156.746888 
L 204.294834 156.914451 
L 204.738356 157.769791 
M 206.068922 158.349112 
L 206.527228 160.971361 
L 206.97075 161.839623 
L 207.429056 162.177064 
L 207.872578 161.772079 
L 208.330884 162.499439 
L 208.78919 162.667257 
L 209.232712 162.051427 
L 209.691018 161.9689 
L 210.13454 161.631262 
M 211.47989 162.451898 
L 211.938197 163.073455 
L 212.381719 162.664971 
L 212.840025 161.057584 
L 213.283547 161.06001 
L 213.741853 161.936539 
L 214.200159 163.072778 
L 215.545509 161.616421 
M 216.876075 160.750022 
L 217.334381 161.884173 
L 218.236209 164.550973 
L 218.679732 164.822506 
L 219.138038 164.735127 
L 219.596344 163.521637 
L 220.039866 163.367418 
L 220.498172 163.07543 
L 220.941694 164.136987 
M 222.27226 165.397341 
L 222.730566 164.819261 
L 223.174088 163.15364 
L 223.632394 160.327487 
L 224.075916 159.179143 
L 224.992528 157.846251 
L 225.436051 156.668424 
L 226.337879 155.445088 
M 227.668445 149.747243 
L 228.570273 153.705686 
L 229.028579 154.755534 
L 229.472101 154.087706 
L 230.388713 150.341433 
L 230.832235 148.888405 
L 231.290541 147.886804 
L 231.734063 147.213332 
M 233.079414 148.06822 
L 233.981242 146.271262 
L 234.439548 145.257811 
L 235.341376 145.350071 
L 235.799682 145.716008 
L 236.243204 145.406217 
L 236.70151 145.812783 
L 237.145032 146.469608 
M 238.475598 147.650369 
L 239.377426 148.638146 
L 240.279255 151.264035 
L 240.737561 151.46887 
L 241.195867 151.371531 
L 241.639389 150.726274 
L 242.097695 151.344446 
L 242.541217 151.653108 
M 243.871783 152.446772 
L 245.231917 147.170165 
L 245.675439 147.877775 
L 246.592052 149.827089 
L 247.035574 150.133777 
L 247.49388 149.772918 
L 247.937402 150.200362 
M 249.267968 148.534882 
L 249.726274 148.851163 
L 250.169796 149.98791 
L 250.628102 150.545139 
L 251.071624 150.631757 
L 251.52993 149.814111 
L 251.988236 149.483723 
L 252.890064 150.419868 
L 253.333587 150.437079 
M 254.678937 151.302124 
L 255.137243 152.164066 
L 256.039071 154.343608 
L 256.482593 155.783939 
L 256.940899 155.980028 
L 257.399205 154.033252 
L 258.744555 129.938383 
M 260.075121 119.173563 
L 260.533428 120.848072 
L 260.97695 126.669494 
L 261.435256 129.410497 
L 261.878778 131.039863 
L 262.337084 130.322095 
L 262.79539 129.31344 
L 263.238912 129.733831 
L 264.14074 131.897855 
M 265.471306 134.50343 
L 265.929612 136.827428 
L 266.373134 136.519894 
L 267.733269 132.805503 
L 268.635097 134.549137 
L 269.093403 136.467698 
L 269.536925 136.930974 
M 270.867491 140.182088 
L 271.769319 143.441949 
L 272.227625 143.918768 
L 272.671147 143.276896 
L 273.129453 140.754553 
L 273.587759 135.044013 
L 274.489588 128.033929 
L 274.93311 127.523253 
M 276.27846 133.721898 
L 276.736766 133.543021 
L 277.180288 129.672042 
L 277.638594 127.813013 
L 278.082116 127.039381 
L 278.540422 129.464386 
L 278.998728 131.041274 
L 279.44225 131.599631 
L 279.900556 132.71014 
L 280.344078 132.203696 
M 281.674645 135.519421 
L 282.132951 136.963702 
L 282.576473 136.594097 
L 283.478301 132.937263 
L 283.936607 131.761016 
L 284.838435 130.83136 
L 285.296741 131.540099 
L 285.740263 131.849044 
M 287.070829 130.049829 
L 287.972657 132.126953 
L 288.430964 132.40063 
L 288.874486 132.190435 
L 289.332792 131.502857 
L 289.791098 129.979294 
L 290.23462 129.162494 
L 290.692926 127.066184 
L 291.136448 123.656506 
M 292.467014 114.545035 
L 293.827148 111.697946 
L 294.27067 109.033122 
L 295.187283 101.192414 
L 295.630805 100.113224 
L 296.089111 100.869362 
L 296.532633 99.643458 
M 297.877983 90.676443 
L 298.336289 93.975521 
L 298.779811 93.383024 
L 299.238117 89.491167 
L 299.681639 84.491623 
L 300.139945 83.314529 
L 300.598251 80.800368 
L 301.041773 80.794725 
L 301.500079 75.833552 
L 301.943602 72.51303 
M 303.274168 74.807404 
L 303.732474 79.707352 
L 304.175996 82.88906 
L 304.634302 84.826242 
L 305.53613 90.833313 
L 305.994436 90.434647 
L 306.437958 86.573826 
L 306.896264 84.487108 
L 307.339786 80.111661 
M 308.670352 85.03672 
L 309.128658 84.858406 
L 310.030487 77.998986 
L 310.474009 78.417402 
L 311.390621 82.618486 
L 311.834143 77.890362 
L 312.735971 72.350517 
M 314.066537 79.821902 
L 314.524843 80.079214 
L 314.968365 78.830739 
L 315.426671 79.204576 
L 315.870193 79.091438 
L 316.786806 76.352127 
L 317.230328 76.047979 
L 317.688634 77.589317 
L 318.132156 79.878894 
M 319.477506 66.086133 
L 319.935812 52.279547 
L 320.379334 45.642455 
L 320.83764 47.679233 
L 321.281162 52.019413 
L 321.739468 52.692602 
L 322.641296 57.629229 
L 323.099603 62.566702 
L 323.543125 69.528822 
M 324.873691 68.430728 
L 325.331997 68.892875 
L 325.775519 71.533154 
L 326.233825 73.428297 
L 326.677347 73.959287 
L 327.135653 73.471182 
L 328.037481 69.979966 
L 328.495787 65.842927 
L 328.939309 66.045505 
M 330.269875 69.744378 
L 330.728182 71.048717 
L 331.171704 73.472311 
L 331.63001 72.672158 
L 332.073532 72.80674 
L 332.531838 71.073828 
L 332.990144 71.175398 
L 333.433666 72.275467 
L 333.891972 74.866936 
L 334.335494 76.54088 
M 54.87226 242.116364 
L 58.937879 242.116364 
M 60.283229 242.116364 
L 64.348847 242.116364 
M 65.679414 242.116364 
L 69.745032 242.116364 
M 71.075598 242.116364 
L 75.141217 242.116364 
M 76.471783 242.116364 
L 80.537402 242.116364 
M 81.882752 242.116364 
L 85.948371 242.038112 
M 87.278937 242.036213 
L 91.344555 242.029664 
M 92.675121 242.02969 
L 96.74074 242.029944 
M 98.071306 242.029865 
L 102.136925 242.029478 
M 103.482275 242.029413 
L 107.547894 242.026479 
M 108.87846 242.023398 
L 112.944078 242.005144 
M 114.274645 241.93052 
L 117.438435 241.598837 
L 117.896741 241.62967 
L 118.340263 241.532452 
M 119.670829 240.963421 
L 123.736448 240.906107 
M 125.081798 240.805933 
L 129.147417 240.502275 
M 130.477983 240.377617 
L 131.838117 240.223943 
L 133.641773 239.1182 
L 134.543602 238.416478 
M 135.874168 238.34443 
L 136.775996 237.967817 
L 139.939786 235.076929 
M 141.270352 233.629338 
L 142.630487 231.836065 
L 144.434143 229.338832 
L 144.892449 228.168086 
L 145.335971 226.114944 
M 146.681321 223.074871 
L 147.583149 222.796736 
L 150.74694 222.796031 
M 152.077506 222.385515 
L 155.241296 220.579783 
L 156.143125 219.934695 
M 157.473691 219.104409 
L 159.735653 217.957533 
L 161.539309 217.474958 
M 162.869875 217.146884 
L 166.935494 216.266914 
M 168.280844 216.281613 
L 169.182672 216.154001 
L 170.084501 215.878095 
L 171.444635 215.985732 
L 172.346463 215.817152 
M 173.677029 215.948602 
L 174.578857 215.909525 
L 176.397298 215.849486 
L 176.84082 215.872791 
L 177.742648 215.785976 
M 179.073214 215.327976 
L 179.975042 214.096034 
L 181.793482 213.481163 
L 182.237004 213.430011 
L 182.69531 213.257623 
L 183.138832 211.642138 
M 184.469399 191.167678 
L 184.927705 189.508687 
L 185.371227 188.673013 
L 185.829533 190.20789 
L 186.273055 190.50837 
L 186.731361 189.857668 
L 187.189667 189.621318 
L 187.633189 187.8629 
L 188.535017 179.796113 
M 189.880367 178.584429 
L 190.338673 178.616678 
L 190.782196 178.838046 
L 191.240502 178.861238 
L 191.684024 178.381146 
L 192.14233 178.177553 
L 192.600636 178.224755 
L 193.044158 177.92261 
L 193.945986 175.87875 
M 195.276552 175.653065 
L 196.17838 175.166174 
L 197.080208 175.305664 
L 197.538515 175.622312 
L 197.996821 176.108836 
L 198.440343 176.162782 
L 198.898649 174.773433 
L 199.342171 173.798973 
M 200.672737 170.908435 
L 201.131043 170.121713 
L 201.574565 169.86708 
L 202.476393 167.733556 
L 202.934699 165.504921 
L 203.836527 158.355234 
L 204.294834 156.606917 
L 204.738356 157.440701 
M 206.068922 157.789315 
L 206.97075 161.667968 
L 207.429056 162.279228 
L 207.872578 162.424954 
L 208.330884 162.408505 
L 208.78919 162.910378 
L 209.232712 162.401705 
L 209.691018 162.332439 
L 210.13454 162.112539 
M 211.47989 162.635092 
L 211.938197 162.937661 
L 212.381719 162.695499 
L 212.840025 161.177691 
L 213.283547 161.046834 
L 213.741853 161.694292 
L 214.200159 163.050122 
L 214.643681 162.761576 
L 215.101987 162.117532 
L 215.545509 161.801534 
M 216.876075 160.143954 
L 217.334381 161.381962 
L 218.236209 164.434195 
L 218.679732 164.93982 
L 219.138038 164.970517 
L 219.596344 164.067552 
L 220.039866 163.516502 
L 220.498172 163.263167 
L 220.941694 163.97453 
M 222.27226 165.11929 
L 222.730566 165.124228 
L 223.174088 163.948235 
L 224.075916 160.232151 
L 225.894357 156.592556 
L 226.337879 156.151852 
M 227.668445 150.629217 
L 228.126751 150.672103 
L 228.570273 152.564707 
L 229.028579 153.728822 
L 229.472101 154.121563 
L 231.290541 148.475068 
L 231.734063 147.56488 
M 233.079414 149.229796 
L 233.53772 148.231298 
L 234.439548 145.828865 
L 234.88307 145.263736 
L 235.341376 145.589045 
L 235.799682 145.315932 
L 236.243204 145.510045 
L 236.70151 145.573245 
L 237.145032 146.35788 
M 238.475598 147.535538 
L 239.377426 148.411304 
L 239.835733 149.334471 
L 240.279255 150.545986 
L 240.737561 151.36222 
L 241.195867 151.489184 
L 241.639389 151.061458 
L 242.097695 151.095315 
L 242.541217 151.519655 
M 243.871783 152.528875 
L 244.330089 151.182496 
L 245.231917 147.668426 
L 245.675439 147.790311 
L 246.133745 148.385347 
L 246.592052 149.548052 
L 247.035574 149.796618 
L 247.49388 149.691662 
L 247.937402 150.037003 
M 249.267968 148.960069 
L 249.726274 148.85342 
L 250.169796 149.33306 
L 250.628102 150.114874 
L 251.071624 150.626678 
L 251.988236 149.440274 
L 252.431758 149.377638 
L 253.333587 150.361747 
M 254.678937 150.762106 
L 256.039071 153.963846 
L 256.940899 155.754032 
L 257.399205 154.889269 
L 258.301033 139.58677 
L 258.744555 131.653802 
M 260.075121 120.484109 
L 260.533428 121.662049 
L 261.435256 129.418679 
L 261.878778 129.731856 
L 262.337084 130.238017 
L 262.79539 130.010329 
L 263.238912 130.391502 
L 263.697218 130.105693 
L 264.14074 131.680606 
M 265.471306 134.086989 
L 265.929612 135.723127 
L 266.373134 136.337631 
L 266.83144 135.904544 
L 267.274962 134.240192 
L 267.733269 134.129028 
L 268.191575 133.88413 
L 269.536925 137.391993 
M 270.867491 140.098857 
L 271.769319 142.413544 
L 272.227625 142.962591 
L 272.671147 143.091812 
L 273.129453 141.454263 
L 273.587759 138.002264 
L 274.489588 128.849318 
L 274.93311 126.832007 
M 276.27846 132.313167 
L 276.736766 133.323797 
L 277.180288 130.958606 
L 277.638594 127.601689 
L 278.082116 126.736361 
L 278.540422 127.96819 
L 278.998728 130.755182 
L 279.44225 132.109178 
L 280.344078 132.70365 
M 281.674645 135.185083 
L 282.576473 137.751723 
L 283.034779 136.555444 
L 283.936607 133.236897 
L 284.394913 132.876039 
L 284.838435 132.166171 
L 285.296741 131.75227 
L 285.740263 131.929172 
M 287.070829 130.169739 
L 287.529135 130.609879 
L 287.972657 131.622203 
L 288.430964 132.222317 
L 288.874486 132.446902 
L 289.791098 131.153284 
L 290.692926 128.455166 
L 291.136448 124.906393 
M 292.467014 115.722128 
L 292.92532 114.18079 
L 293.368842 113.154924 
L 293.827148 112.455778 
L 294.27067 110.477685 
L 295.187283 103.086711 
L 295.630805 101.302449 
L 296.089111 101.040904 
L 296.532633 100.40919 
M 297.877983 89.388467 
L 298.336289 90.952377 
L 298.779811 91.906015 
L 299.681639 86.089107 
L 300.139945 85.095405 
L 300.598251 83.610495 
L 301.041773 82.66504 
L 301.943602 74.374317 
M 303.274168 70.238125 
L 303.732474 77.497339 
L 304.175996 81.77178 
L 305.077824 87.705494 
L 305.53613 90.434365 
L 305.994436 91.3296 
L 306.896264 85.454853 
L 307.339786 81.800841 
M 308.670352 83.60711 
L 309.128658 85.164248 
L 309.572181 82.598736 
L 310.030487 77.897416 
L 310.474009 76.036693 
L 310.932315 77.995036 
L 311.390621 81.584721 
L 311.834143 81.257154 
L 312.735971 74.342435 
M 314.066537 79.713277 
L 314.524843 80.264581 
L 314.968365 80.427941 
L 315.870193 80.112507 
L 316.3285 78.56073 
L 317.230328 76.929389 
L 318.132156 79.19978 
M 319.477506 72.91226 
L 320.379334 44.443636 
L 320.83764 44.687689 
L 321.281162 49.900814 
L 321.739468 53.450434 
L 322.197774 55.227924 
L 322.641296 58.440385 
L 323.543125 68.276961 
M 324.873691 70.070251 
L 325.331997 69.751713 
L 325.775519 70.642433 
L 326.233825 72.853293 
L 326.677347 73.035274 
L 327.135653 72.789529 
L 327.593959 72.756518 
L 328.037481 71.392365 
L 328.939309 66.694712 
M 330.269875 68.737415 
L 331.171704 71.065928 
L 331.63001 72.641123 
L 332.073532 71.370076 
L 332.990144 70.8831 
L 334.335494 75.607274 
M 56.675916 242.116364 
L 58.036051 242.116364 
M 62.086885 242.116364 
L 63.447019 242.116364 
M 67.48307 242.116364 
L 68.843204 242.116364 
M 72.879255 242.116364 
L 74.239389 242.116364 
M 78.275439 242.116364 
L 79.635574 242.116364 
M 83.686408 242.095767 
L 85.046542 242.074663 
M 89.082593 242.029436 
L 90.442727 242.029041 
M 94.478778 242.029803 
L 95.838912 242.029887 
M 99.874962 242.029605 
L 101.235097 242.029549 
M 105.285931 242.028336 
L 106.646066 242.026981 
M 110.682116 242.015357 
L 112.04225 242.008557 
M 116.078301 241.762192 
L 117.438435 241.468849 
M 121.474486 240.96187 
L 122.83462 240.926404 
M 126.885454 240.657298 
L 128.245589 240.553131 
M 132.281639 239.842615 
L 133.641773 239.200433 
M 137.677824 236.884053 
L 139.037958 235.675077 
M 143.074009 230.871621 
L 144.434143 227.748317 
M 148.484977 222.796736 
L 149.845112 222.788272 
M 153.881162 221.230852 
L 155.241296 220.394303 
M 159.277347 218.152972 
L 160.637481 217.676718 
M 164.673532 216.690352 
L 166.033666 216.413571 
M 170.084501 216.011237 
L 171.444635 215.841953 
M 175.480685 215.903459 
L 176.84082 215.852674 
M 180.87687 213.545322 
L 182.237004 208.932312 
M 186.273055 187.317465 
L 187.633189 184.721764 
M 191.684024 178.250317 
L 193.044158 177.282177 
M 197.080208 175.488972 
L 198.440343 175.124896 
M 202.476393 164.031382 
L 203.836527 160.163647 
M 207.872578 162.250336 
L 209.232712 162.417956 
M 213.283547 161.48816 
L 214.643681 160.643203 
M 218.679732 162.979982 
L 220.039866 164.030817 
M 224.075916 159.789556 
L 225.436051 155.665496 
M 229.472101 151.440374 
L 230.832235 150.175534 
M 234.88307 145.932693 
L 236.243204 145.942003 
M 240.279255 149.883518 
L 241.639389 151.337956 
M 245.675439 148.456729 
L 247.035574 148.65056 
M 251.071624 149.856432 
L 252.431758 150.100484 
M 256.482593 152.027228 
L 257.842727 143.18774 
M 261.878778 127.362433 
L 263.238912 130.080864 
M 267.274962 135.76968 
L 268.635097 135.696323 
M 272.671147 136.613847 
L 274.031281 130.869449 
M 278.082116 132.20426 
L 279.44225 131.415675 
M 283.478301 133.334518 
L 284.838435 131.205198 
M 288.874486 130.656433 
L 290.23462 125.996869 
M 294.27067 106.917062 
L 295.630805 101.200878 
M 299.681639 86.27927 
L 301.041773 76.55273 
M 305.077824 87.215979 
L 306.437958 84.379048 
M 310.474009 82.180321 
L 311.834143 78.337274 
M 315.870193 78.068111 
L 317.230328 79.245487 
M 321.281162 46.334265 
L 322.641296 57.607786 
M 326.677347 70.514623 
L 328.037481 70.734694 
M 332.073532 72.290139 
L 333.433666 73.265501 
M 56.675916 242.116364 
L 58.036051 242.116364 
M 62.086885 242.116364 
L 63.447019 242.116364 
M 67.48307 242.116364 
L 68.843204 242.116364 
M 72.879255 242.116364 
L 74.239389 242.116364 
M 78.275439 242.116364 
L 79.635574 242.116364 
M 83.686408 242.109474 
L 85.046542 242.083412 
M 89.082593 242.031848 
L 90.442727 242.029667 
M 94.478778 242.029732 
L 95.838912 242.029817 
M 99.874962 242.029693 
L 101.235097 242.029563 
M 105.285931 242.028632 
L 106.646066 242.027661 
M 110.682116 242.018201 
L 112.04225 242.012107 
M 116.078301 241.804753 
L 117.438435 241.672225 
M 121.474486 240.964417 
L 122.83462 240.945139 
M 126.885454 240.70551 
L 128.245589 240.604515 
M 132.281639 239.987994 
L 133.641773 239.34154 
M 137.677824 237.451916 
L 139.037958 236.36673 
M 143.074009 231.80692 
L 144.434143 229.301505 
M 148.484977 222.887924 
L 149.845112 222.796511 
M 153.881162 221.615157 
L 155.241296 220.801743 
M 159.277347 218.428455 
L 160.637481 217.887082 
M 164.673532 216.844203 
L 166.033666 216.549902 
M 170.084501 216.093651 
L 171.444635 215.939179 
M 175.480685 215.891892 
L 176.84082 215.843307 
M 180.87687 214.226411 
L 182.237004 212.995231 
M 186.273055 190.223097 
L 187.633189 186.564599 
M 191.684024 178.552293 
L 193.044158 177.658808 
M 197.080208 175.656564 
L 198.440343 175.059524 
M 202.476393 167.226971 
L 203.836527 162.740134 
M 207.872578 161.022542 
L 209.232712 162.435562 
M 213.283547 162.269607 
L 214.643681 161.976631 
M 218.679732 162.918814 
L 220.039866 164.174484 
M 224.075916 161.879123 
L 225.436051 158.903971 
M 229.472101 151.981238 
L 230.832235 150.944933 
M 234.88307 146.786452 
L 236.243204 145.837329 
M 240.279255 149.457484 
L 241.639389 150.789474 
M 245.675439 149.880132 
L 247.035574 149.061076 
M 251.071624 149.517016 
L 252.431758 149.987628 
M 256.482593 153.184853 
L 257.842727 146.864888 
M 261.878778 126.61899 
L 263.238912 130.356799 
M 267.274962 134.630393 
L 268.635097 135.70648 
M 272.671147 140.335291 
L 274.031281 135.904544 
M 278.082116 130.146886 
L 279.44225 130.276671 
M 283.478301 134.908867 
L 284.838435 133.829394 
M 288.874486 131.194758 
L 290.23462 129.461 
M 294.27067 110.420975 
L 295.630805 105.32522 
M 299.681639 87.342379 
L 301.041773 82.32647 
M 305.077824 82.290638 
L 306.437958 86.126349 
M 310.474009 80.974167 
L 311.834143 77.964565 
M 315.870193 79.270315 
L 317.230328 79.086641 
M 321.281162 57.591704 
L 322.641296 56.143755 
M 326.677347 71.832788 
L 328.037481 70.750211 
M 332.073532 70.768833 
L 333.433666 73.077031 
L 333.433666 73.077031 
" style="fill:none;stroke:#ff7f0e;stroke-linecap:square;stroke-width:1.5;"/>
   </g>
   <g id="line2d_20">
    <path clip-path="url(#pa71eb9c563)" d="M 334.7938 252 
L 334.7938 34.56 
" style="fill:none;stroke:#d3d3d3;stroke-dasharray:5.55,2.4;stroke-dashoffset:0;stroke-width:1.5;"/>
   </g>
   <g id="patch_3">
    <path d="M 54 252 
L 54 34.56 
" style="fill:none;stroke:#000000;stroke-linecap:square;stroke-linejoin:miter;stroke-width:0.8;"/>
   </g>
   <g id="patch_4">
    <path d="M 388.8 252 
L 388.8 34.56 
" style="fill:none;stroke:#000000;stroke-linecap:square;stroke-linejoin:miter;stroke-width:0.8;"/>
   </g>
   <g id="patch_5">
    <path d="M 54 252 
L 388.8 252 
" style="fill:none;stroke:#000000;stroke-linecap:square;stroke-linejoin:miter;stroke-width:0.8;"/>
   </g>
   <g id="patch_6">
    <path d="M 54 34.56 
L 388.8 34.56 
" style="fill:none;stroke:#000000;stroke-linecap:square;stroke-linejoin:miter;stroke-width:0.8;"/>
   </g>
   <g id="text_20">
    <!-- USD Exchange Rate with North American - 1970 to present -->
    <g transform="translate(44.018438 28.56)scale(0.12 -0.12)">
     <defs>
      <path d="M 556 4666 
L 1191 4666 
L 1191 1831 
Q 1191 1081 1462 751 
Q 1734 422 2344 422 
Q 2950 422 3222 751 
Q 3494 1081 3494 1831 
L 3494 4666 
L 4128 4666 
L 4128 1753 
Q 4128 841 3676 375 
Q 3225 -91 2344 -91 
Q 1459 -91 1007 375 
Q 556 841 556 1753 
L 556 4666 
z
" id="DejaVuSans-55" transform="scale(0.015625)"/>
      <path d="M 3425 4513 
L 3425 3897 
Q 3066 4069 2747 4153 
Q 2428 4238 2131 4238 
Q 1616 4238 1336 4038 
Q 1056 3838 1056 3469 
Q 1056 3159 1242 3001 
Q 1428 2844 1947 2747 
L 2328 2669 
Q 3034 2534 3370 2195 
Q 3706 1856 3706 1288 
Q 3706 609 3251 259 
Q 2797 -91 1919 -91 
Q 1588 -91 1214 -16 
Q 841 59 441 206 
L 441 856 
Q 825 641 1194 531 
Q 1563 422 1919 422 
Q 2459 422 2753 634 
Q 3047 847 3047 1241 
Q 3047 1584 2836 1778 
Q 2625 1972 2144 2069 
L 1759 2144 
Q 1053 2284 737 2584 
Q 422 2884 422 3419 
Q 422 4038 858 4394 
Q 1294 4750 2059 4750 
Q 2388 4750 2728 4690 
Q 3069 4631 3425 4513 
z
" id="DejaVuSans-53" transform="scale(0.015625)"/>
      <path d="M 269 3500 
L 844 3500 
L 1563 769 
L 2278 3500 
L 2956 3500 
L 3675 769 
L 4391 3500 
L 4966 3500 
L 4050 0 
L 3372 0 
L 2619 2869 
L 1863 0 
L 1184 0 
L 269 3500 
z
" id="DejaVuSans-77" transform="scale(0.015625)"/>
      <path d="M 603 3500 
L 1178 3500 
L 1178 0 
L 603 0 
L 603 3500 
z
M 603 4863 
L 1178 4863 
L 1178 4134 
L 603 4134 
L 603 4863 
z
" id="DejaVuSans-69" transform="scale(0.015625)"/>
      <path d="M 628 4666 
L 1478 4666 
L 3547 763 
L 3547 4666 
L 4159 4666 
L 4159 0 
L 3309 0 
L 1241 3903 
L 1241 0 
L 628 0 
L 628 4666 
z
" id="DejaVuSans-4e" transform="scale(0.015625)"/>
      <path d="M 1959 3097 
Q 1497 3097 1228 2736 
Q 959 2375 959 1747 
Q 959 1119 1226 758 
Q 1494 397 1959 397 
Q 2419 397 2687 759 
Q 2956 1122 2956 1747 
Q 2956 2369 2687 2733 
Q 2419 3097 1959 3097 
z
M 1959 3584 
Q 2709 3584 3137 3096 
Q 3566 2609 3566 1747 
Q 3566 888 3137 398 
Q 2709 -91 1959 -91 
Q 1206 -91 779 398 
Q 353 888 353 1747 
Q 353 2609 779 3096 
Q 1206 3584 1959 3584 
z
" id="DejaVuSans-6f" transform="scale(0.015625)"/>
      <path d="M 2631 2963 
Q 2534 3019 2420 3045 
Q 2306 3072 2169 3072 
Q 1681 3072 1420 2755 
Q 1159 2438 1159 1844 
L 1159 0 
L 581 0 
L 581 3500 
L 1159 3500 
L 1159 2956 
Q 1341 3275 1631 3429 
Q 1922 3584 2338 3584 
Q 2397 3584 2469 3576 
Q 2541 3569 2628 3553 
L 2631 2963 
z
" id="DejaVuSans-72" transform="scale(0.015625)"/>
      <path d="M 2188 4044 
L 1331 1722 
L 3047 1722 
L 2188 4044 
z
M 1831 4666 
L 2547 4666 
L 4325 0 
L 3669 0 
L 3244 1197 
L 1141 1197 
L 716 0 
L 50 0 
L 1831 4666 
z
" id="DejaVuSans-41" transform="scale(0.015625)"/>
      <path d="M 3328 2828 
Q 3544 3216 3844 3400 
Q 4144 3584 4550 3584 
Q 5097 3584 5394 3201 
Q 5691 2819 5691 2113 
L 5691 0 
L 5113 0 
L 5113 2094 
Q 5113 2597 4934 2840 
Q 4756 3084 4391 3084 
Q 3944 3084 3684 2787 
Q 3425 2491 3425 1978 
L 3425 0 
L 2847 0 
L 2847 2094 
Q 2847 2600 2669 2842 
Q 2491 3084 2119 3084 
Q 1678 3084 1418 2786 
Q 1159 2488 1159 1978 
L 1159 0 
L 581 0 
L 581 3500 
L 1159 3500 
L 1159 2956 
Q 1356 3278 1631 3431 
Q 1906 3584 2284 3584 
Q 2666 3584 2933 3390 
Q 3200 3197 3328 2828 
z
" id="DejaVuSans-6d" transform="scale(0.015625)"/>
      <path d="M 313 2009 
L 1997 2009 
L 1997 1497 
L 313 1497 
L 313 2009 
z
" id="DejaVuSans-2d" transform="scale(0.015625)"/>
      <path d="M 1159 525 
L 1159 -1331 
L 581 -1331 
L 581 3500 
L 1159 3500 
L 1159 2969 
Q 1341 3281 1617 3432 
Q 1894 3584 2278 3584 
Q 2916 3584 3314 3078 
Q 3713 2572 3713 1747 
Q 3713 922 3314 415 
Q 2916 -91 2278 -91 
Q 1894 -91 1617 61 
Q 1341 213 1159 525 
z
M 3116 1747 
Q 3116 2381 2855 2742 
Q 2594 3103 2138 3103 
Q 1681 3103 1420 2742 
Q 1159 2381 1159 1747 
Q 1159 1113 1420 752 
Q 1681 391 2138 391 
Q 2594 391 2855 752 
Q 3116 1113 3116 1747 
z
" id="DejaVuSans-70" transform="scale(0.015625)"/>
      <path d="M 2834 3397 
L 2834 2853 
Q 2591 2978 2328 3040 
Q 2066 3103 1784 3103 
Q 1356 3103 1142 2972 
Q 928 2841 928 2578 
Q 928 2378 1081 2264 
Q 1234 2150 1697 2047 
L 1894 2003 
Q 2506 1872 2764 1633 
Q 3022 1394 3022 966 
Q 3022 478 2636 193 
Q 2250 -91 1575 -91 
Q 1294 -91 989 -36 
Q 684 19 347 128 
L 347 722 
Q 666 556 975 473 
Q 1284 391 1588 391 
Q 1994 391 2212 530 
Q 2431 669 2431 922 
Q 2431 1156 2273 1281 
Q 2116 1406 1581 1522 
L 1381 1569 
Q 847 1681 609 1914 
Q 372 2147 372 2553 
Q 372 3047 722 3315 
Q 1072 3584 1716 3584 
Q 2034 3584 2315 3537 
Q 2597 3491 2834 3397 
z
" id="DejaVuSans-73" transform="scale(0.015625)"/>
     </defs>
     <use xlink:href="#DejaVuSans-55"/>
     <use x="73.193359" xlink:href="#DejaVuSans-53"/>
     <use x="136.669922" xlink:href="#DejaVuSans-44"/>
     <use x="213.671875" xlink:href="#DejaVuSans-20"/>
     <use x="245.458984" xlink:href="#DejaVuSans-45"/>
     <use x="308.642578" xlink:href="#DejaVuSans-78"/>
     <use x="366.072266" xlink:href="#DejaVuSans-63"/>
     <use x="421.052734" xlink:href="#DejaVuSans-68"/>
     <use x="484.431641" xlink:href="#DejaVuSans-61"/>
     <use x="545.710938" xlink:href="#DejaVuSans-6e"/>
     <use x="609.089844" xlink:href="#DejaVuSans-67"/>
     <use x="672.566406" xlink:href="#DejaVuSans-65"/>
     <use x="734.089844" xlink:href="#DejaVuSans-20"/>
     <use x="765.876953" xlink:href="#DejaVuSans-52"/>
     <use x="833.109375" xlink:href="#DejaVuSans-61"/>
     <use x="894.388672" xlink:href="#DejaVuSans-74"/>
     <use x="933.597656" xlink:href="#DejaVuSans-65"/>
     <use x="995.121094" xlink:href="#DejaVuSans-20"/>
     <use x="1026.908203" xlink:href="#DejaVuSans-77"/>
     <use x="1108.695312" xlink:href="#DejaVuSans-69"/>
     <use x="1136.478516" xlink:href="#DejaVuSans-74"/>
     <use x="1175.6875" xlink:href="#DejaVuSans-68"/>
     <use x="1239.066406" xlink:href="#DejaVuSans-20"/>
     <use x="1270.853516" xlink:href="#DejaVuSans-4e"/>
     <use x="1345.658203" xlink:href="#DejaVuSans-6f"/>
     <use x="1406.839844" xlink:href="#DejaVuSans-72"/>
     <use x="1447.953125" xlink:href="#DejaVuSans-74"/>
     <use x="1487.162109" xlink:href="#DejaVuSans-68"/>
     <use x="1550.541016" xlink:href="#DejaVuSans-20"/>
     <use x="1582.328125" xlink:href="#DejaVuSans-41"/>
     <use x="1650.736328" xlink:href="#DejaVuSans-6d"/>
     <use x="1748.148438" xlink:href="#DejaVuSans-65"/>
     <use x="1809.671875" xlink:href="#DejaVuSans-72"/>
     <use x="1850.785156" xlink:href="#DejaVuSans-69"/>
     <use x="1878.568359" xlink:href="#DejaVuSans-63"/>
     <use x="1933.548828" xlink:href="#DejaVuSans-61"/>
     <use x="1994.828125" xlink:href="#DejaVuSans-6e"/>
     <use x="2058.207031" xlink:href="#DejaVuSans-20"/>
     <use x="2089.994141" xlink:href="#DejaVuSans-2d"/>
     <use x="2126.078125" xlink:href="#DejaVuSans-20"/>
     <use x="2157.865234" xlink:href="#DejaVuSans-31"/>
     <use x="2221.488281" xlink:href="#DejaVuSans-39"/>
     <use x="2285.111328" xlink:href="#DejaVuSans-37"/>
     <use x="2348.734375" xlink:href="#DejaVuSans-30"/>
     <use x="2412.357422" xlink:href="#DejaVuSans-20"/>
     <use x="2444.144531" xlink:href="#DejaVuSans-74"/>
     <use x="2483.353516" xlink:href="#DejaVuSans-6f"/>
     <use x="2544.535156" xlink:href="#DejaVuSans-20"/>
     <use x="2576.322266" xlink:href="#DejaVuSans-70"/>
     <use x="2639.798828" xlink:href="#DejaVuSans-72"/>
     <use x="2678.662109" xlink:href="#DejaVuSans-65"/>
     <use x="2740.185547" xlink:href="#DejaVuSans-73"/>
     <use x="2792.285156" xlink:href="#DejaVuSans-65"/>
     <use x="2853.808594" xlink:href="#DejaVuSans-6e"/>
     <use x="2917.1875" xlink:href="#DejaVuSans-74"/>
    </g>
   </g>
   <g id="legend_1">
    <g id="patch_7">
     <path d="M 61 71.91625 
L 283.40625 71.91625 
Q 285.40625 71.91625 285.40625 69.91625 
L 285.40625 41.56 
Q 285.40625 39.56 283.40625 39.56 
L 61 39.56 
Q 59 39.56 59 41.56 
L 59 69.91625 
Q 59 71.91625 61 71.91625 
z
" style="fill:#ffffff;opacity:0.8;stroke:#cccccc;stroke-linejoin:miter;"/>
    </g>
    <g id="line2d_21">
     <path d="M 63 47.658437 
L 83 47.658437 
" style="fill:none;stroke:#1f77b4;stroke-linecap:square;stroke-width:1.5;"/>
    </g>
    <g id="line2d_22"/>
    <g id="text_21">
     <!-- USD to Canadian Dollar (Q-smoothed) -->
     <g transform="translate(91 51.158437)scale(0.1 -0.1)">
      <defs>
       <path d="M 4122 4306 
L 4122 3641 
Q 3803 3938 3442 4084 
Q 3081 4231 2675 4231 
Q 1875 4231 1450 3742 
Q 1025 3253 1025 2328 
Q 1025 1406 1450 917 
Q 1875 428 2675 428 
Q 3081 428 3442 575 
Q 3803 722 4122 1019 
L 4122 359 
Q 3791 134 3420 21 
Q 3050 -91 2638 -91 
Q 1578 -91 968 557 
Q 359 1206 359 2328 
Q 359 3453 968 4101 
Q 1578 4750 2638 4750 
Q 3056 4750 3426 4639 
Q 3797 4528 4122 4306 
z
" id="DejaVuSans-43" transform="scale(0.015625)"/>
       <path d="M 2906 2969 
L 2906 4863 
L 3481 4863 
L 3481 0 
L 2906 0 
L 2906 525 
Q 2725 213 2448 61 
Q 2172 -91 1784 -91 
Q 1150 -91 751 415 
Q 353 922 353 1747 
Q 353 2572 751 3078 
Q 1150 3584 1784 3584 
Q 2172 3584 2448 3432 
Q 2725 3281 2906 2969 
z
M 947 1747 
Q 947 1113 1208 752 
Q 1469 391 1925 391 
Q 2381 391 2643 752 
Q 2906 1113 2906 1747 
Q 2906 2381 2643 2742 
Q 2381 3103 1925 3103 
Q 1469 3103 1208 2742 
Q 947 2381 947 1747 
z
" id="DejaVuSans-64" transform="scale(0.015625)"/>
       <path d="M 603 4863 
L 1178 4863 
L 1178 0 
L 603 0 
L 603 4863 
z
" id="DejaVuSans-6c" transform="scale(0.015625)"/>
       <path d="M 1984 4856 
Q 1566 4138 1362 3434 
Q 1159 2731 1159 2009 
Q 1159 1288 1364 580 
Q 1569 -128 1984 -844 
L 1484 -844 
Q 1016 -109 783 600 
Q 550 1309 550 2009 
Q 550 2706 781 3412 
Q 1013 4119 1484 4856 
L 1984 4856 
z
" id="DejaVuSans-28" transform="scale(0.015625)"/>
       <path d="M 2522 4238 
Q 1834 4238 1429 3725 
Q 1025 3213 1025 2328 
Q 1025 1447 1429 934 
Q 1834 422 2522 422 
Q 3209 422 3611 934 
Q 4013 1447 4013 2328 
Q 4013 3213 3611 3725 
Q 3209 4238 2522 4238 
z
M 3406 84 
L 4238 -825 
L 3475 -825 
L 2784 -78 
Q 2681 -84 2626 -87 
Q 2572 -91 2522 -91 
Q 1538 -91 948 567 
Q 359 1225 359 2328 
Q 359 3434 948 4092 
Q 1538 4750 2522 4750 
Q 3503 4750 4090 4092 
Q 4678 3434 4678 2328 
Q 4678 1516 4351 937 
Q 4025 359 3406 84 
z
" id="DejaVuSans-51" transform="scale(0.015625)"/>
       <path d="M 513 4856 
L 1013 4856 
Q 1481 4119 1714 3412 
Q 1947 2706 1947 2009 
Q 1947 1309 1714 600 
Q 1481 -109 1013 -844 
L 513 -844 
Q 928 -128 1133 580 
Q 1338 1288 1338 2009 
Q 1338 2731 1133 3434 
Q 928 4138 513 4856 
z
" id="DejaVuSans-29" transform="scale(0.015625)"/>
      </defs>
      <use xlink:href="#DejaVuSans-55"/>
      <use x="73.193359" xlink:href="#DejaVuSans-53"/>
      <use x="136.669922" xlink:href="#DejaVuSans-44"/>
      <use x="213.671875" xlink:href="#DejaVuSans-20"/>
      <use x="245.458984" xlink:href="#DejaVuSans-74"/>
      <use x="284.667969" xlink:href="#DejaVuSans-6f"/>
      <use x="345.849609" xlink:href="#DejaVuSans-20"/>
      <use x="377.636719" xlink:href="#DejaVuSans-43"/>
      <use x="447.460938" xlink:href="#DejaVuSans-61"/>
      <use x="508.740234" xlink:href="#DejaVuSans-6e"/>
      <use x="572.119141" xlink:href="#DejaVuSans-61"/>
      <use x="633.398438" xlink:href="#DejaVuSans-64"/>
      <use x="696.875" xlink:href="#DejaVuSans-69"/>
      <use x="724.658203" xlink:href="#DejaVuSans-61"/>
      <use x="785.9375" xlink:href="#DejaVuSans-6e"/>
      <use x="849.316406" xlink:href="#DejaVuSans-20"/>
      <use x="881.103516" xlink:href="#DejaVuSans-44"/>
      <use x="958.105469" xlink:href="#DejaVuSans-6f"/>
      <use x="1019.287109" xlink:href="#DejaVuSans-6c"/>
      <use x="1047.070312" xlink:href="#DejaVuSans-6c"/>
      <use x="1074.853516" xlink:href="#DejaVuSans-61"/>
      <use x="1136.132812" xlink:href="#DejaVuSans-72"/>
      <use x="1177.246094" xlink:href="#DejaVuSans-20"/>
      <use x="1209.033203" xlink:href="#DejaVuSans-28"/>
      <use x="1248.046875" xlink:href="#DejaVuSans-51"/>
      <use x="1329.507812" xlink:href="#DejaVuSans-2d"/>
      <use x="1365.591797" xlink:href="#DejaVuSans-73"/>
      <use x="1417.691406" xlink:href="#DejaVuSans-6d"/>
      <use x="1515.103516" xlink:href="#DejaVuSans-6f"/>
      <use x="1576.285156" xlink:href="#DejaVuSans-6f"/>
      <use x="1637.466797" xlink:href="#DejaVuSans-74"/>
      <use x="1676.675781" xlink:href="#DejaVuSans-68"/>
      <use x="1740.054688" xlink:href="#DejaVuSans-65"/>
      <use x="1801.578125" xlink:href="#DejaVuSans-64"/>
      <use x="1865.054688" xlink:href="#DejaVuSans-29"/>
     </g>
    </g>
    <g id="line2d_23">
     <path d="M 63 62.336562 
L 83 62.336562 
" style="fill:none;stroke:#ff7f0e;stroke-linecap:square;stroke-width:1.5;"/>
    </g>
    <g id="line2d_24"/>
    <g id="text_22">
     <!-- USD to Mexican Peso (Q-smoothed) -->
     <g transform="translate(91 65.836562)scale(0.1 -0.1)">
      <defs>
       <path d="M 628 4666 
L 1569 4666 
L 2759 1491 
L 3956 4666 
L 4897 4666 
L 4897 0 
L 4281 0 
L 4281 4097 
L 3078 897 
L 2444 897 
L 1241 4097 
L 1241 0 
L 628 0 
L 628 4666 
z
" id="DejaVuSans-4d" transform="scale(0.015625)"/>
       <path d="M 1259 4147 
L 1259 2394 
L 2053 2394 
Q 2494 2394 2734 2622 
Q 2975 2850 2975 3272 
Q 2975 3691 2734 3919 
Q 2494 4147 2053 4147 
L 1259 4147 
z
M 628 4666 
L 2053 4666 
Q 2838 4666 3239 4311 
Q 3641 3956 3641 3272 
Q 3641 2581 3239 2228 
Q 2838 1875 2053 1875 
L 1259 1875 
L 1259 0 
L 628 0 
L 628 4666 
z
" id="DejaVuSans-50" transform="scale(0.015625)"/>
      </defs>
      <use xlink:href="#DejaVuSans-55"/>
      <use x="73.193359" xlink:href="#DejaVuSans-53"/>
      <use x="136.669922" xlink:href="#DejaVuSans-44"/>
      <use x="213.671875" xlink:href="#DejaVuSans-20"/>
      <use x="245.458984" xlink:href="#DejaVuSans-74"/>
      <use x="284.667969" xlink:href="#DejaVuSans-6f"/>
      <use x="345.849609" xlink:href="#DejaVuSans-20"/>
      <use x="377.636719" xlink:href="#DejaVuSans-4d"/>
      <use x="463.916016" xlink:href="#DejaVuSans-65"/>
      <use x="523.689453" xlink:href="#DejaVuSans-78"/>
      <use x="582.869141" xlink:href="#DejaVuSans-69"/>
      <use x="610.652344" xlink:href="#DejaVuSans-63"/>
      <use x="665.632812" xlink:href="#DejaVuSans-61"/>
      <use x="726.912109" xlink:href="#DejaVuSans-6e"/>
      <use x="790.291016" xlink:href="#DejaVuSans-20"/>
      <use x="822.078125" xlink:href="#DejaVuSans-50"/>
      <use x="878.755859" xlink:href="#DejaVuSans-65"/>
      <use x="940.279297" xlink:href="#DejaVuSans-73"/>
      <use x="992.378906" xlink:href="#DejaVuSans-6f"/>
      <use x="1053.560547" xlink:href="#DejaVuSans-20"/>
      <use x="1085.347656" xlink:href="#DejaVuSans-28"/>
      <use x="1124.361328" xlink:href="#DejaVuSans-51"/>
      <use x="1205.822266" xlink:href="#DejaVuSans-2d"/>
      <use x="1241.90625" xlink:href="#DejaVuSans-73"/>
      <use x="1294.005859" xlink:href="#DejaVuSans-6d"/>
      <use x="1391.417969" xlink:href="#DejaVuSans-6f"/>
      <use x="1452.599609" xlink:href="#DejaVuSans-6f"/>
      <use x="1513.78125" xlink:href="#DejaVuSans-74"/>
      <use x="1552.990234" xlink:href="#DejaVuSans-68"/>
      <use x="1616.369141" xlink:href="#DejaVuSans-65"/>
      <use x="1677.892578" xlink:href="#DejaVuSans-64"/>
      <use x="1741.369141" xlink:href="#DejaVuSans-29"/>
     </g>
    </g>
   </g>
  </g>
 </g>
 <defs>
  <clipPath id="pa71eb9c563">
   <rect height="217.44" width="334.8" x="54" y="34.56"/>
  </clipPath>
 </defs>
</svg>
