<?xml version="1.0" encoding="utf-8" standalone="no"?>
<!DOCTYPE svg PUBLIC "-//W3C//DTD SVG 1.1//EN"
  "http://www.w3.org/Graphics/SVG/1.1/DTD/svg11.dtd">
<svg height="288pt" version="1.1" viewBox="0 0 432 288" width="432pt" xmlns="http://www.w3.org/2000/svg" xmlns:xlink="http://www.w3.org/1999/xlink">
 <metadata>
  <rdf:RDF xmlns:cc="http://creativecommons.org/ns#" xmlns:dc="http://purl.org/dc/elements/1.1/" xmlns:rdf="http://www.w3.org/1999/02/22-rdf-syntax-ns#">
   <cc:Work>
    <dc:type rdf:resource="http://purl.org/dc/dcmitype/StillImage"/>
    <dc:date>2023-02-22T18:21:55.348564</dc:date>
    <dc:format>image/svg+xml</dc:format>
    <dc:creator>
     <cc:Agent>
      <dc:title>Matplotlib v3.4.3, https://matplotlib.org/</dc:title>
     </cc:Agent>
    </dc:creator>
   </cc:Work>
  </rdf:RDF>
 </metadata>
 <defs>
  <style type="text/css">*{stroke-linecap:butt;stroke-linejoin:round;}</style>
 </defs>
 <g id="figure_1">
  <g id="patch_1">
   <path d="M 0 288 
L 432 288 
L 432 0 
L 0 0 
z
" style="fill:none;"/>
  </g>
  <g id="axes_1">
   <g id="patch_2">
    <path d="M 54 252 
L 388.8 252 
L 388.8 34.56 
L 54 34.56 
z
" style="fill:#ffffff;"/>
   </g>
   <g id="matplotlib.axis_1">
    <g id="xtick_1">
     <g id="line2d_1">
      <defs>
       <path d="M 0 0 
L 0 3.5 
" id="md71a4d44bd" style="stroke:#000000;stroke-width:0.8;"/>
      </defs>
      <g>
       <use style="stroke:#000000;stroke-width:0.8;" x="75.599523" xlink:href="#md71a4d44bd" y="252"/>
      </g>
     </g>
     <g id="text_1">
      <!-- 1975 -->
      <g transform="translate(62.874523 266.598437)scale(0.1 -0.1)">
       <defs>
        <path d="M 794 531 
L 1825 531 
L 1825 4091 
L 703 3866 
L 703 4441 
L 1819 4666 
L 2450 4666 
L 2450 531 
L 3481 531 
L 3481 0 
L 794 0 
L 794 531 
z
" id="DejaVuSans-31" transform="scale(0.015625)"/>
        <path d="M 703 97 
L 703 672 
Q 941 559 1184 500 
Q 1428 441 1663 441 
Q 2288 441 2617 861 
Q 2947 1281 2994 2138 
Q 2813 1869 2534 1725 
Q 2256 1581 1919 1581 
Q 1219 1581 811 2004 
Q 403 2428 403 3163 
Q 403 3881 828 4315 
Q 1253 4750 1959 4750 
Q 2769 4750 3195 4129 
Q 3622 3509 3622 2328 
Q 3622 1225 3098 567 
Q 2575 -91 1691 -91 
Q 1453 -91 1209 -44 
Q 966 3 703 97 
z
M 1959 2075 
Q 2384 2075 2632 2365 
Q 2881 2656 2881 3163 
Q 2881 3666 2632 3958 
Q 2384 4250 1959 4250 
Q 1534 4250 1286 3958 
Q 1038 3666 1038 3163 
Q 1038 2656 1286 2365 
Q 1534 2075 1959 2075 
z
" id="DejaVuSans-39" transform="scale(0.015625)"/>
        <path d="M 525 4666 
L 3525 4666 
L 3525 4397 
L 1831 0 
L 1172 0 
L 2766 4134 
L 525 4134 
L 525 4666 
z
" id="DejaVuSans-37" transform="scale(0.015625)"/>
        <path d="M 691 4666 
L 3169 4666 
L 3169 4134 
L 1269 4134 
L 1269 2991 
Q 1406 3038 1543 3061 
Q 1681 3084 1819 3084 
Q 2600 3084 3056 2656 
Q 3513 2228 3513 1497 
Q 3513 744 3044 326 
Q 2575 -91 1722 -91 
Q 1428 -91 1123 -41 
Q 819 9 494 109 
L 494 744 
Q 775 591 1075 516 
Q 1375 441 1709 441 
Q 2250 441 2565 725 
Q 2881 1009 2881 1497 
Q 2881 1984 2565 2268 
Q 2250 2553 1709 2553 
Q 1456 2553 1204 2497 
Q 953 2441 691 2322 
L 691 4666 
z
" id="DejaVuSans-35" transform="scale(0.015625)"/>
       </defs>
       <use xlink:href="#DejaVuSans-31"/>
       <use x="63.623047" xlink:href="#DejaVuSans-39"/>
       <use x="127.246094" xlink:href="#DejaVuSans-37"/>
       <use x="190.869141" xlink:href="#DejaVuSans-35"/>
      </g>
     </g>
    </g>
    <g id="xtick_2">
     <g id="line2d_2">
      <g>
       <use style="stroke:#000000;stroke-width:0.8;" x="102.595231" xlink:href="#md71a4d44bd" y="252"/>
      </g>
     </g>
     <g id="text_2">
      <!-- 1980 -->
      <g transform="translate(89.870231 266.598437)scale(0.1 -0.1)">
       <defs>
        <path d="M 2034 2216 
Q 1584 2216 1326 1975 
Q 1069 1734 1069 1313 
Q 1069 891 1326 650 
Q 1584 409 2034 409 
Q 2484 409 2743 651 
Q 3003 894 3003 1313 
Q 3003 1734 2745 1975 
Q 2488 2216 2034 2216 
z
M 1403 2484 
Q 997 2584 770 2862 
Q 544 3141 544 3541 
Q 544 4100 942 4425 
Q 1341 4750 2034 4750 
Q 2731 4750 3128 4425 
Q 3525 4100 3525 3541 
Q 3525 3141 3298 2862 
Q 3072 2584 2669 2484 
Q 3125 2378 3379 2068 
Q 3634 1759 3634 1313 
Q 3634 634 3220 271 
Q 2806 -91 2034 -91 
Q 1263 -91 848 271 
Q 434 634 434 1313 
Q 434 1759 690 2068 
Q 947 2378 1403 2484 
z
M 1172 3481 
Q 1172 3119 1398 2916 
Q 1625 2713 2034 2713 
Q 2441 2713 2670 2916 
Q 2900 3119 2900 3481 
Q 2900 3844 2670 4047 
Q 2441 4250 2034 4250 
Q 1625 4250 1398 4047 
Q 1172 3844 1172 3481 
z
" id="DejaVuSans-38" transform="scale(0.015625)"/>
        <path d="M 2034 4250 
Q 1547 4250 1301 3770 
Q 1056 3291 1056 2328 
Q 1056 1369 1301 889 
Q 1547 409 2034 409 
Q 2525 409 2770 889 
Q 3016 1369 3016 2328 
Q 3016 3291 2770 3770 
Q 2525 4250 2034 4250 
z
M 2034 4750 
Q 2819 4750 3233 4129 
Q 3647 3509 3647 2328 
Q 3647 1150 3233 529 
Q 2819 -91 2034 -91 
Q 1250 -91 836 529 
Q 422 1150 422 2328 
Q 422 3509 836 4129 
Q 1250 4750 2034 4750 
z
" id="DejaVuSans-30" transform="scale(0.015625)"/>
       </defs>
       <use xlink:href="#DejaVuSans-31"/>
       <use x="63.623047" xlink:href="#DejaVuSans-39"/>
       <use x="127.246094" xlink:href="#DejaVuSans-38"/>
       <use x="190.869141" xlink:href="#DejaVuSans-30"/>
      </g>
     </g>
    </g>
    <g id="xtick_3">
     <g id="line2d_3">
      <g>
       <use style="stroke:#000000;stroke-width:0.8;" x="129.605723" xlink:href="#md71a4d44bd" y="252"/>
      </g>
     </g>
     <g id="text_3">
      <!-- 1985 -->
      <g transform="translate(116.880723 266.598437)scale(0.1 -0.1)">
       <use xlink:href="#DejaVuSans-31"/>
       <use x="63.623047" xlink:href="#DejaVuSans-39"/>
       <use x="127.246094" xlink:href="#DejaVuSans-38"/>
       <use x="190.869141" xlink:href="#DejaVuSans-35"/>
      </g>
     </g>
    </g>
    <g id="xtick_4">
     <g id="line2d_4">
      <g>
       <use style="stroke:#000000;stroke-width:0.8;" x="156.601431" xlink:href="#md71a4d44bd" y="252"/>
      </g>
     </g>
     <g id="text_4">
      <!-- 1990 -->
      <g transform="translate(143.876431 266.598437)scale(0.1 -0.1)">
       <use xlink:href="#DejaVuSans-31"/>
       <use x="63.623047" xlink:href="#DejaVuSans-39"/>
       <use x="127.246094" xlink:href="#DejaVuSans-39"/>
       <use x="190.869141" xlink:href="#DejaVuSans-30"/>
      </g>
     </g>
    </g>
    <g id="xtick_5">
     <g id="line2d_5">
      <g>
       <use style="stroke:#000000;stroke-width:0.8;" x="183.597139" xlink:href="#md71a4d44bd" y="252"/>
      </g>
     </g>
     <g id="text_5">
      <!-- 1995 -->
      <g transform="translate(170.872139 266.598437)scale(0.1 -0.1)">
       <use xlink:href="#DejaVuSans-31"/>
       <use x="63.623047" xlink:href="#DejaVuSans-39"/>
       <use x="127.246094" xlink:href="#DejaVuSans-39"/>
       <use x="190.869141" xlink:href="#DejaVuSans-35"/>
      </g>
     </g>
    </g>
    <g id="xtick_6">
     <g id="line2d_6">
      <g>
       <use style="stroke:#000000;stroke-width:0.8;" x="210.592846" xlink:href="#md71a4d44bd" y="252"/>
      </g>
     </g>
     <g id="text_6">
      <!-- 2000 -->
      <g transform="translate(197.867846 266.598437)scale(0.1 -0.1)">
       <defs>
        <path d="M 1228 531 
L 3431 531 
L 3431 0 
L 469 0 
L 469 531 
Q 828 903 1448 1529 
Q 2069 2156 2228 2338 
Q 2531 2678 2651 2914 
Q 2772 3150 2772 3378 
Q 2772 3750 2511 3984 
Q 2250 4219 1831 4219 
Q 1534 4219 1204 4116 
Q 875 4013 500 3803 
L 500 4441 
Q 881 4594 1212 4672 
Q 1544 4750 1819 4750 
Q 2544 4750 2975 4387 
Q 3406 4025 3406 3419 
Q 3406 3131 3298 2873 
Q 3191 2616 2906 2266 
Q 2828 2175 2409 1742 
Q 1991 1309 1228 531 
z
" id="DejaVuSans-32" transform="scale(0.015625)"/>
       </defs>
       <use xlink:href="#DejaVuSans-32"/>
       <use x="63.623047" xlink:href="#DejaVuSans-30"/>
       <use x="127.246094" xlink:href="#DejaVuSans-30"/>
       <use x="190.869141" xlink:href="#DejaVuSans-30"/>
      </g>
     </g>
    </g>
    <g id="xtick_7">
     <g id="line2d_7">
      <g>
       <use style="stroke:#000000;stroke-width:0.8;" x="237.603338" xlink:href="#md71a4d44bd" y="252"/>
      </g>
     </g>
     <g id="text_7">
      <!-- 2005 -->
      <g transform="translate(224.878338 266.598437)scale(0.1 -0.1)">
       <use xlink:href="#DejaVuSans-32"/>
       <use x="63.623047" xlink:href="#DejaVuSans-30"/>
       <use x="127.246094" xlink:href="#DejaVuSans-30"/>
       <use x="190.869141" xlink:href="#DejaVuSans-35"/>
      </g>
     </g>
    </g>
    <g id="xtick_8">
     <g id="line2d_8">
      <g>
       <use style="stroke:#000000;stroke-width:0.8;" x="264.599046" xlink:href="#md71a4d44bd" y="252"/>
      </g>
     </g>
     <g id="text_8">
      <!-- 2010 -->
      <g transform="translate(251.874046 266.598437)scale(0.1 -0.1)">
       <use xlink:href="#DejaVuSans-32"/>
       <use x="63.623047" xlink:href="#DejaVuSans-30"/>
       <use x="127.246094" xlink:href="#DejaVuSans-31"/>
       <use x="190.869141" xlink:href="#DejaVuSans-30"/>
      </g>
     </g>
    </g>
    <g id="xtick_9">
     <g id="line2d_9">
      <g>
       <use style="stroke:#000000;stroke-width:0.8;" x="291.594754" xlink:href="#md71a4d44bd" y="252"/>
      </g>
     </g>
     <g id="text_9">
      <!-- 2015 -->
      <g transform="translate(278.869754 266.598437)scale(0.1 -0.1)">
       <use xlink:href="#DejaVuSans-32"/>
       <use x="63.623047" xlink:href="#DejaVuSans-30"/>
       <use x="127.246094" xlink:href="#DejaVuSans-31"/>
       <use x="190.869141" xlink:href="#DejaVuSans-35"/>
      </g>
     </g>
    </g>
    <g id="xtick_10">
     <g id="line2d_10">
      <g>
       <use style="stroke:#000000;stroke-width:0.8;" x="318.590462" xlink:href="#md71a4d44bd" y="252"/>
      </g>
     </g>
     <g id="text_10">
      <!-- 2020 -->
      <g transform="translate(305.865462 266.598437)scale(0.1 -0.1)">
       <use xlink:href="#DejaVuSans-32"/>
       <use x="63.623047" xlink:href="#DejaVuSans-30"/>
       <use x="127.246094" xlink:href="#DejaVuSans-32"/>
       <use x="190.869141" xlink:href="#DejaVuSans-30"/>
      </g>
     </g>
    </g>
    <g id="xtick_11">
     <g id="line2d_11">
      <g>
       <use style="stroke:#000000;stroke-width:0.8;" x="345.600954" xlink:href="#md71a4d44bd" y="252"/>
      </g>
     </g>
     <g id="text_11">
      <!-- 2025 -->
      <g transform="translate(332.875954 266.598437)scale(0.1 -0.1)">
       <use xlink:href="#DejaVuSans-32"/>
       <use x="63.623047" xlink:href="#DejaVuSans-30"/>
       <use x="127.246094" xlink:href="#DejaVuSans-32"/>
       <use x="190.869141" xlink:href="#DejaVuSans-35"/>
      </g>
     </g>
    </g>
    <g id="xtick_12">
     <g id="line2d_12">
      <g>
       <use style="stroke:#000000;stroke-width:0.8;" x="372.596662" xlink:href="#md71a4d44bd" y="252"/>
      </g>
     </g>
     <g id="text_12">
      <!-- 2030 -->
      <g transform="translate(359.871662 266.598437)scale(0.1 -0.1)">
       <defs>
        <path d="M 2597 2516 
Q 3050 2419 3304 2112 
Q 3559 1806 3559 1356 
Q 3559 666 3084 287 
Q 2609 -91 1734 -91 
Q 1441 -91 1130 -33 
Q 819 25 488 141 
L 488 750 
Q 750 597 1062 519 
Q 1375 441 1716 441 
Q 2309 441 2620 675 
Q 2931 909 2931 1356 
Q 2931 1769 2642 2001 
Q 2353 2234 1838 2234 
L 1294 2234 
L 1294 2753 
L 1863 2753 
Q 2328 2753 2575 2939 
Q 2822 3125 2822 3475 
Q 2822 3834 2567 4026 
Q 2313 4219 1838 4219 
Q 1578 4219 1281 4162 
Q 984 4106 628 3988 
L 628 4550 
Q 988 4650 1302 4700 
Q 1616 4750 1894 4750 
Q 2613 4750 3031 4423 
Q 3450 4097 3450 3541 
Q 3450 3153 3228 2886 
Q 3006 2619 2597 2516 
z
" id="DejaVuSans-33" transform="scale(0.015625)"/>
       </defs>
       <use xlink:href="#DejaVuSans-32"/>
       <use x="63.623047" xlink:href="#DejaVuSans-30"/>
       <use x="127.246094" xlink:href="#DejaVuSans-33"/>
       <use x="190.869141" xlink:href="#DejaVuSans-30"/>
      </g>
     </g>
    </g>
    <g id="text_13">
     <!-- Date -->
     <g transform="translate(209.449219 280.276563)scale(0.1 -0.1)">
      <defs>
       <path d="M 1259 4147 
L 1259 519 
L 2022 519 
Q 2988 519 3436 956 
Q 3884 1394 3884 2338 
Q 3884 3275 3436 3711 
Q 2988 4147 2022 4147 
L 1259 4147 
z
M 628 4666 
L 1925 4666 
Q 3281 4666 3915 4102 
Q 4550 3538 4550 2338 
Q 4550 1131 3912 565 
Q 3275 0 1925 0 
L 628 0 
L 628 4666 
z
" id="DejaVuSans-44" transform="scale(0.015625)"/>
       <path d="M 2194 1759 
Q 1497 1759 1228 1600 
Q 959 1441 959 1056 
Q 959 750 1161 570 
Q 1363 391 1709 391 
Q 2188 391 2477 730 
Q 2766 1069 2766 1631 
L 2766 1759 
L 2194 1759 
z
M 3341 1997 
L 3341 0 
L 2766 0 
L 2766 531 
Q 2569 213 2275 61 
Q 1981 -91 1556 -91 
Q 1019 -91 701 211 
Q 384 513 384 1019 
Q 384 1609 779 1909 
Q 1175 2209 1959 2209 
L 2766 2209 
L 2766 2266 
Q 2766 2663 2505 2880 
Q 2244 3097 1772 3097 
Q 1472 3097 1187 3025 
Q 903 2953 641 2809 
L 641 3341 
Q 956 3463 1253 3523 
Q 1550 3584 1831 3584 
Q 2591 3584 2966 3190 
Q 3341 2797 3341 1997 
z
" id="DejaVuSans-61" transform="scale(0.015625)"/>
       <path d="M 1172 4494 
L 1172 3500 
L 2356 3500 
L 2356 3053 
L 1172 3053 
L 1172 1153 
Q 1172 725 1289 603 
Q 1406 481 1766 481 
L 2356 481 
L 2356 0 
L 1766 0 
Q 1100 0 847 248 
Q 594 497 594 1153 
L 594 3053 
L 172 3053 
L 172 3500 
L 594 3500 
L 594 4494 
L 1172 4494 
z
" id="DejaVuSans-74" transform="scale(0.015625)"/>
       <path d="M 3597 1894 
L 3597 1613 
L 953 1613 
Q 991 1019 1311 708 
Q 1631 397 2203 397 
Q 2534 397 2845 478 
Q 3156 559 3463 722 
L 3463 178 
Q 3153 47 2828 -22 
Q 2503 -91 2169 -91 
Q 1331 -91 842 396 
Q 353 884 353 1716 
Q 353 2575 817 3079 
Q 1281 3584 2069 3584 
Q 2775 3584 3186 3129 
Q 3597 2675 3597 1894 
z
M 3022 2063 
Q 3016 2534 2758 2815 
Q 2500 3097 2075 3097 
Q 1594 3097 1305 2825 
Q 1016 2553 972 2059 
L 3022 2063 
z
" id="DejaVuSans-65" transform="scale(0.015625)"/>
      </defs>
      <use xlink:href="#DejaVuSans-44"/>
      <use x="77.001953" xlink:href="#DejaVuSans-61"/>
      <use x="138.28125" xlink:href="#DejaVuSans-74"/>
      <use x="177.490234" xlink:href="#DejaVuSans-65"/>
     </g>
    </g>
   </g>
   <g id="matplotlib.axis_2">
    <g id="ytick_1">
     <g id="line2d_13">
      <defs>
       <path d="M 0 0 
L -3.5 0 
" id="m9a0c3c7b25" style="stroke:#000000;stroke-width:0.8;"/>
      </defs>
      <g>
       <use style="stroke:#000000;stroke-width:0.8;" x="54" xlink:href="#m9a0c3c7b25" y="242.328039"/>
      </g>
     </g>
     <g id="text_14">
      <!-- 0 -->
      <g transform="translate(40.6375 246.127257)scale(0.1 -0.1)">
       <use xlink:href="#DejaVuSans-30"/>
      </g>
     </g>
    </g>
    <g id="ytick_2">
     <g id="line2d_14">
      <g>
       <use style="stroke:#000000;stroke-width:0.8;" x="54" xlink:href="#m9a0c3c7b25" y="214.666961"/>
      </g>
     </g>
     <g id="text_15">
      <!-- 50 -->
      <g transform="translate(34.275 218.466179)scale(0.1 -0.1)">
       <use xlink:href="#DejaVuSans-35"/>
       <use x="63.623047" xlink:href="#DejaVuSans-30"/>
      </g>
     </g>
    </g>
    <g id="ytick_3">
     <g id="line2d_15">
      <g>
       <use style="stroke:#000000;stroke-width:0.8;" x="54" xlink:href="#m9a0c3c7b25" y="187.005882"/>
      </g>
     </g>
     <g id="text_16">
      <!-- 100 -->
      <g transform="translate(27.9125 190.805101)scale(0.1 -0.1)">
       <use xlink:href="#DejaVuSans-31"/>
       <use x="63.623047" xlink:href="#DejaVuSans-30"/>
       <use x="127.246094" xlink:href="#DejaVuSans-30"/>
      </g>
     </g>
    </g>
    <g id="ytick_4">
     <g id="line2d_16">
      <g>
       <use style="stroke:#000000;stroke-width:0.8;" x="54" xlink:href="#m9a0c3c7b25" y="159.344804"/>
      </g>
     </g>
     <g id="text_17">
      <!-- 150 -->
      <g transform="translate(27.9125 163.144023)scale(0.1 -0.1)">
       <use xlink:href="#DejaVuSans-31"/>
       <use x="63.623047" xlink:href="#DejaVuSans-35"/>
       <use x="127.246094" xlink:href="#DejaVuSans-30"/>
      </g>
     </g>
    </g>
    <g id="ytick_5">
     <g id="line2d_17">
      <g>
       <use style="stroke:#000000;stroke-width:0.8;" x="54" xlink:href="#m9a0c3c7b25" y="131.683726"/>
      </g>
     </g>
     <g id="text_18">
      <!-- 200 -->
      <g transform="translate(27.9125 135.482945)scale(0.1 -0.1)">
       <use xlink:href="#DejaVuSans-32"/>
       <use x="63.623047" xlink:href="#DejaVuSans-30"/>
       <use x="127.246094" xlink:href="#DejaVuSans-30"/>
      </g>
     </g>
    </g>
    <g id="ytick_6">
     <g id="line2d_18">
      <g>
       <use style="stroke:#000000;stroke-width:0.8;" x="54" xlink:href="#m9a0c3c7b25" y="104.022648"/>
      </g>
     </g>
     <g id="text_19">
      <!-- 250 -->
      <g transform="translate(27.9125 107.821867)scale(0.1 -0.1)">
       <use xlink:href="#DejaVuSans-32"/>
       <use x="63.623047" xlink:href="#DejaVuSans-35"/>
       <use x="127.246094" xlink:href="#DejaVuSans-30"/>
      </g>
     </g>
    </g>
    <g id="ytick_7">
     <g id="line2d_19">
      <g>
       <use style="stroke:#000000;stroke-width:0.8;" x="54" xlink:href="#m9a0c3c7b25" y="76.36157"/>
      </g>
     </g>
     <g id="text_20">
      <!-- 300 -->
      <g transform="translate(27.9125 80.160789)scale(0.1 -0.1)">
       <use xlink:href="#DejaVuSans-33"/>
       <use x="63.623047" xlink:href="#DejaVuSans-30"/>
       <use x="127.246094" xlink:href="#DejaVuSans-30"/>
      </g>
     </g>
    </g>
    <g id="ytick_8">
     <g id="line2d_20">
      <g>
       <use style="stroke:#000000;stroke-width:0.8;" x="54" xlink:href="#m9a0c3c7b25" y="48.700492"/>
      </g>
     </g>
     <g id="text_21">
      <!-- 350 -->
      <g transform="translate(27.9125 52.499711)scale(0.1 -0.1)">
       <use xlink:href="#DejaVuSans-33"/>
       <use x="63.623047" xlink:href="#DejaVuSans-35"/>
       <use x="127.246094" xlink:href="#DejaVuSans-30"/>
      </g>
     </g>
    </g>
    <g id="text_22">
     <!-- Exchange Rate -->
     <g transform="translate(21.832812 180.764375)rotate(-90)scale(0.1 -0.1)">
      <defs>
       <path d="M 628 4666 
L 3578 4666 
L 3578 4134 
L 1259 4134 
L 1259 2753 
L 3481 2753 
L 3481 2222 
L 1259 2222 
L 1259 531 
L 3634 531 
L 3634 0 
L 628 0 
L 628 4666 
z
" id="DejaVuSans-45" transform="scale(0.015625)"/>
       <path d="M 3513 3500 
L 2247 1797 
L 3578 0 
L 2900 0 
L 1881 1375 
L 863 0 
L 184 0 
L 1544 1831 
L 300 3500 
L 978 3500 
L 1906 2253 
L 2834 3500 
L 3513 3500 
z
" id="DejaVuSans-78" transform="scale(0.015625)"/>
       <path d="M 3122 3366 
L 3122 2828 
Q 2878 2963 2633 3030 
Q 2388 3097 2138 3097 
Q 1578 3097 1268 2742 
Q 959 2388 959 1747 
Q 959 1106 1268 751 
Q 1578 397 2138 397 
Q 2388 397 2633 464 
Q 2878 531 3122 666 
L 3122 134 
Q 2881 22 2623 -34 
Q 2366 -91 2075 -91 
Q 1284 -91 818 406 
Q 353 903 353 1747 
Q 353 2603 823 3093 
Q 1294 3584 2113 3584 
Q 2378 3584 2631 3529 
Q 2884 3475 3122 3366 
z
" id="DejaVuSans-63" transform="scale(0.015625)"/>
       <path d="M 3513 2113 
L 3513 0 
L 2938 0 
L 2938 2094 
Q 2938 2591 2744 2837 
Q 2550 3084 2163 3084 
Q 1697 3084 1428 2787 
Q 1159 2491 1159 1978 
L 1159 0 
L 581 0 
L 581 4863 
L 1159 4863 
L 1159 2956 
Q 1366 3272 1645 3428 
Q 1925 3584 2291 3584 
Q 2894 3584 3203 3211 
Q 3513 2838 3513 2113 
z
" id="DejaVuSans-68" transform="scale(0.015625)"/>
       <path d="M 3513 2113 
L 3513 0 
L 2938 0 
L 2938 2094 
Q 2938 2591 2744 2837 
Q 2550 3084 2163 3084 
Q 1697 3084 1428 2787 
Q 1159 2491 1159 1978 
L 1159 0 
L 581 0 
L 581 3500 
L 1159 3500 
L 1159 2956 
Q 1366 3272 1645 3428 
Q 1925 3584 2291 3584 
Q 2894 3584 3203 3211 
Q 3513 2838 3513 2113 
z
" id="DejaVuSans-6e" transform="scale(0.015625)"/>
       <path d="M 2906 1791 
Q 2906 2416 2648 2759 
Q 2391 3103 1925 3103 
Q 1463 3103 1205 2759 
Q 947 2416 947 1791 
Q 947 1169 1205 825 
Q 1463 481 1925 481 
Q 2391 481 2648 825 
Q 2906 1169 2906 1791 
z
M 3481 434 
Q 3481 -459 3084 -895 
Q 2688 -1331 1869 -1331 
Q 1566 -1331 1297 -1286 
Q 1028 -1241 775 -1147 
L 775 -588 
Q 1028 -725 1275 -790 
Q 1522 -856 1778 -856 
Q 2344 -856 2625 -561 
Q 2906 -266 2906 331 
L 2906 616 
Q 2728 306 2450 153 
Q 2172 0 1784 0 
Q 1141 0 747 490 
Q 353 981 353 1791 
Q 353 2603 747 3093 
Q 1141 3584 1784 3584 
Q 2172 3584 2450 3431 
Q 2728 3278 2906 2969 
L 2906 3500 
L 3481 3500 
L 3481 434 
z
" id="DejaVuSans-67" transform="scale(0.015625)"/>
       <path id="DejaVuSans-20" transform="scale(0.015625)"/>
       <path d="M 2841 2188 
Q 3044 2119 3236 1894 
Q 3428 1669 3622 1275 
L 4263 0 
L 3584 0 
L 2988 1197 
Q 2756 1666 2539 1819 
Q 2322 1972 1947 1972 
L 1259 1972 
L 1259 0 
L 628 0 
L 628 4666 
L 2053 4666 
Q 2853 4666 3247 4331 
Q 3641 3997 3641 3322 
Q 3641 2881 3436 2590 
Q 3231 2300 2841 2188 
z
M 1259 4147 
L 1259 2491 
L 2053 2491 
Q 2509 2491 2742 2702 
Q 2975 2913 2975 3322 
Q 2975 3731 2742 3939 
Q 2509 4147 2053 4147 
L 1259 4147 
z
" id="DejaVuSans-52" transform="scale(0.015625)"/>
      </defs>
      <use xlink:href="#DejaVuSans-45"/>
      <use x="63.183594" xlink:href="#DejaVuSans-78"/>
      <use x="120.613281" xlink:href="#DejaVuSans-63"/>
      <use x="175.59375" xlink:href="#DejaVuSans-68"/>
      <use x="238.972656" xlink:href="#DejaVuSans-61"/>
      <use x="300.251953" xlink:href="#DejaVuSans-6e"/>
      <use x="363.630859" xlink:href="#DejaVuSans-67"/>
      <use x="427.107422" xlink:href="#DejaVuSans-65"/>
      <use x="488.630859" xlink:href="#DejaVuSans-20"/>
      <use x="520.417969" xlink:href="#DejaVuSans-52"/>
      <use x="587.650391" xlink:href="#DejaVuSans-61"/>
      <use x="648.929688" xlink:href="#DejaVuSans-74"/>
      <use x="688.138672" xlink:href="#DejaVuSans-65"/>
     </g>
    </g>
   </g>
   <g id="line2d_21">
    <path clip-path="url(#p2e2d48c2bc)" d="M 54.87226 240.966118 
L 58.937879 240.966118 
M 60.283229 241.073719 
L 64.348847 241.092953 
M 65.679414 241.136639 
L 67.941376 241.27583 
L 69.745032 241.230853 
M 71.075598 241.22143 
L 73.337561 241.239391 
L 75.141217 241.276272 
M 76.471783 241.348246 
L 79.635574 241.246159 
L 80.537402 241.246712 
M 81.882752 241.244241 
L 85.948371 241.280809 
M 87.278937 241.273506 
L 91.344555 241.343489 
M 92.675121 241.402388 
L 96.74074 241.440284 
M 98.071306 241.456825 
L 102.136925 241.489908 
M 103.482275 241.481149 
L 107.547894 241.48657 
M 108.87846 241.438643 
L 112.944078 241.362704 
M 114.274645 241.31284 
L 118.340263 241.23585 
M 119.670829 241.236514 
L 123.736448 241.228253 
M 125.081798 241.185673 
L 127.34376 241.035363 
L 129.147417 240.807675 
M 130.477983 240.763288 
L 134.100079 240.595625 
L 134.543602 240.552474 
M 135.874168 240.547735 
L 137.677824 240.458463 
L 139.037958 240.268524 
L 139.939786 240.263748 
M 141.270352 240.263748 
L 145.335971 240.263748 
M 146.681321 240.263748 
L 150.74694 240.263748 
M 152.077506 240.263748 
L 155.699603 240.263748 
L 156.143125 240.07888 
M 157.473691 239.709143 
L 161.095787 239.6167 
L 161.539309 239.524257 
M 162.869875 239.431813 
L 166.935494 239.33074 
M 168.280844 239.297712 
L 172.346463 239.181001 
M 173.677029 239.14198 
L 176.397298 239.122452 
L 177.742648 239.112844 
M 179.073214 237.500683 
L 182.69531 237.602605 
L 183.138832 237.618058 
M 184.469399 237.652229 
L 188.535017 237.71714 
M 189.880367 237.712567 
L 193.945986 237.719777 
M 195.276552 237.722598 
L 199.342171 237.730214 
M 200.672737 237.7363 
L 204.738356 237.748305 
M 206.068922 237.747954 
L 210.13454 237.748065 
M 211.47989 237.749026 
L 215.545509 237.749031 
M 216.876075 237.749031 
L 220.941694 237.749015 
M 222.27226 237.749031 
L 226.337879 237.749024 
M 227.668445 237.749015 
L 231.734063 237.749028 
M 233.079414 237.749026 
L 236.243204 237.748305 
L 237.145032 237.748093 
M 238.475598 237.749022 
L 242.541217 237.858916 
M 243.871783 237.880255 
L 247.937402 237.991239 
M 249.267968 238.041562 
L 253.333587 238.240268 
M 254.678937 238.39919 
L 257.842727 238.543441 
L 258.744555 238.548156 
M 260.075121 238.545585 
L 264.14074 238.551075 
M 265.471306 238.551623 
L 269.536925 238.650939 
M 270.867491 238.692405 
L 274.93311 238.817053 
M 276.27846 238.843053 
L 280.344078 238.880061 
M 281.674645 238.88706 
L 285.740263 238.964195 
M 287.070829 238.9302 
L 288.874486 238.89306 
L 291.136448 238.9235 
M 292.467014 238.875979 
L 295.187283 238.833867 
L 296.532633 238.785425 
M 297.877983 238.716188 
L 299.238117 238.694258 
L 301.943602 238.528769 
M 303.274168 238.522994 
L 305.077824 238.580558 
L 307.339786 238.685337 
M 308.670352 238.842026 
L 310.030487 238.756894 
L 311.390621 238.538292 
L 312.735971 238.49276 
M 314.066537 238.621674 
L 315.870193 238.517854 
L 317.688634 238.41641 
L 318.132156 238.449954 
M 319.477506 238.451763 
L 321.281162 238.421518 
L 323.543125 238.677414 
M 324.873691 238.741496 
L 328.495787 238.781573 
L 328.939309 238.802162 
M 330.269875 238.821831 
L 332.990144 238.501971 
L 333.891972 238.364298 
L 334.335494 238.404387 
M 54.87226 240.966112 
L 58.937879 240.966112 
M 60.283229 241.073714 
L 64.348847 241.095326 
M 65.679414 241.155259 
L 67.941376 241.274035 
L 69.745032 241.242502 
M 71.075598 241.213329 
L 75.141217 241.263893 
M 76.471783 241.339555 
L 79.192052 241.266051 
L 80.537402 241.246227 
M 81.882752 241.243977 
L 85.948371 241.276267 
M 87.278937 241.275345 
L 91.344555 241.333544 
M 92.675121 241.397754 
L 96.74074 241.423332 
M 98.071306 241.456193 
L 102.136925 241.487487 
M 103.482275 241.489831 
L 107.547894 241.490922 
M 108.87846 241.443574 
L 112.944078 241.361937 
M 114.274645 241.325948 
L 118.340263 241.233888 
M 119.670829 241.245115 
L 123.736448 241.230364 
M 125.081798 241.189061 
L 127.34376 241.057632 
L 129.147417 240.83018 
M 130.477983 240.759825 
L 134.100079 240.620614 
L 134.543602 240.576853 
M 135.874168 240.549435 
L 137.677824 240.473557 
L 139.037958 240.271237 
L 139.939786 240.264803 
M 141.270352 240.263748 
L 145.335971 240.263748 
M 146.681321 240.263748 
L 150.74694 240.263748 
M 152.077506 240.263748 
L 156.143125 240.180556 
M 157.473691 239.709143 
L 161.095787 239.665295 
L 161.539309 239.572911 
M 162.869875 239.431813 
L 166.935494 239.338013 
M 168.280844 239.298859 
L 172.346463 239.198162 
M 173.677029 239.135489 
L 177.299126 239.117248 
L 177.742648 239.113657 
M 179.073214 237.501935 
L 182.69531 237.59904 
L 183.138832 237.609145 
M 184.469399 237.650668 
L 188.535017 237.717156 
M 189.880367 237.713859 
L 193.945986 237.720015 
M 195.276552 237.722569 
L 199.342171 237.729978 
M 200.672737 237.731833 
L 204.738356 237.74855 
M 206.068922 237.748063 
L 210.13454 237.748275 
M 211.47989 237.748839 
L 215.545509 237.749026 
M 216.876075 237.749026 
L 220.941694 237.749024 
M 222.27226 237.749026 
L 226.337879 237.749022 
M 227.668445 237.74902 
L 231.734063 237.749028 
M 233.079414 237.749022 
L 237.145032 237.748366 
M 238.475598 237.749026 
L 242.541217 237.856388 
M 243.871783 237.874128 
L 247.937402 237.978343 
M 249.267968 238.035681 
L 253.333587 238.2168 
M 254.678937 238.366803 
L 257.399205 238.542906 
L 258.744555 238.54366 
M 260.075121 238.546052 
L 264.14074 238.550981 
M 265.471306 238.550909 
L 269.536925 238.64577 
M 270.867491 238.686723 
L 274.93311 238.812122 
M 276.27846 238.838103 
L 280.344078 238.871254 
M 281.674645 238.884238 
L 285.740263 238.958451 
M 287.070829 238.952174 
L 289.332792 238.90058 
L 291.136448 238.927082 
M 292.467014 238.877655 
L 296.089111 238.807726 
L 296.532633 238.792136 
M 297.877983 238.707978 
L 299.681639 238.676681 
L 301.943602 238.54856 
M 303.274168 238.517242 
L 305.53613 238.593247 
L 307.339786 238.668731 
M 308.670352 238.811191 
L 310.030487 238.798264 
L 312.292449 238.507775 
L 312.735971 238.502108 
M 314.066537 238.595724 
L 315.426671 238.551501 
L 318.132156 238.430855 
M 319.477506 238.466456 
L 321.281162 238.41835 
L 323.543125 238.663634 
M 324.873691 238.743561 
L 328.495787 238.774813 
L 328.939309 238.791162 
M 330.269875 238.815819 
L 331.63001 238.672069 
L 334.335494 238.392175 
M 56.675916 240.966118 
L 58.036051 240.966118 
M 62.086885 241.082921 
L 63.447019 241.087937 
M 67.48307 241.255563 
L 68.843204 241.252429 
M 72.879255 241.24756 
L 74.239389 241.268324 
M 78.275439 241.308359 
L 79.635574 241.272179 
M 83.686408 241.251802 
L 85.046542 241.267273 
M 89.082593 241.291246 
L 90.442727 241.322098 
M 94.478778 241.390789 
L 95.838912 241.408455 
M 99.874962 241.471855 
L 101.235097 241.486146 
M 105.285931 241.495311 
L 106.646066 241.504587 
M 110.682116 241.380278 
L 112.04225 241.355678 
M 116.078301 241.261925 
L 117.438435 241.251728 
M 121.474486 241.227478 
L 122.83462 241.229912 
M 126.885454 241.057215 
L 128.245589 240.920975 
M 132.281639 240.726001 
L 133.641773 240.655447 
M 137.677824 240.454628 
L 139.037958 240.361945 
M 143.074009 240.263748 
L 144.434143 240.263748 
M 148.484977 240.263748 
L 149.845112 240.263748 
M 153.881162 240.263748 
L 155.241296 240.07888 
M 159.277347 239.709143 
L 160.637481 239.6167 
M 164.673532 239.378612 
L 166.033666 239.339407 
M 170.084501 239.290668 
L 171.444635 239.238112 
M 175.480685 239.135913 
L 176.84082 239.12094 
M 180.87687 237.542396 
L 182.237004 237.591005 
M 186.273055 237.698312 
L 187.633189 237.718412 
M 191.684024 237.712769 
L 193.044158 237.717453 
M 197.080208 237.725032 
L 198.440343 237.727891 
M 202.476393 237.742201 
L 203.836527 237.742404 
M 207.872578 237.74801 
L 209.232712 237.748102 
M 213.283547 237.749026 
L 214.643681 237.749031 
M 218.679732 237.749037 
L 220.039866 237.749031 
M 224.075916 237.74902 
L 225.436051 237.749028 
M 229.472101 237.74902 
L 230.832235 237.749015 
M 234.88307 237.748653 
L 236.243204 237.748653 
M 240.279255 237.783237 
L 241.639389 237.821374 
M 245.675439 237.917624 
L 247.035574 237.956705 
M 251.071624 238.114427 
L 252.431758 238.193003 
M 256.482593 238.508081 
L 257.842727 238.542934 
M 261.878778 238.549416 
L 263.238912 238.550635 
M 267.274962 238.584853 
L 268.635097 238.626083 
M 272.671147 238.75122 
L 274.031281 238.796033 
M 278.082116 238.836145 
L 279.44225 238.848192 
M 283.478301 238.921387 
L 284.838435 238.951316 
M 288.874486 238.904932 
L 290.23462 238.90725 
M 294.27067 238.869325 
L 295.630805 238.816743 
M 299.681639 238.681903 
L 301.041773 238.592021 
M 305.077824 238.580649 
L 306.437958 238.650864 
M 310.474009 238.678875 
L 311.834143 238.570012 
M 315.870193 238.506264 
L 317.230328 238.460059 
M 321.281162 238.458608 
L 322.641296 238.562226 
M 326.677347 238.737124 
L 328.037481 238.773775 
M 332.073532 238.610176 
L 333.433666 238.507516 
M 56.675916 240.966112 
L 58.036051 240.966112 
M 62.086885 241.082916 
L 63.447019 241.090121 
M 67.48307 241.222433 
L 68.843204 241.251514 
M 72.879255 241.236186 
L 74.239389 241.253041 
M 78.275439 241.316783 
L 79.635574 241.285673 
M 83.686408 241.246585 
L 85.046542 241.257348 
M 89.082593 241.289153 
L 90.442727 241.308553 
M 94.478778 241.387743 
L 95.838912 241.396268 
M 99.874962 241.461255 
L 101.235097 241.471687 
M 105.285931 241.501824 
L 106.646066 241.502188 
M 110.682116 241.389605 
L 112.04225 241.362328 
M 116.078301 241.292764 
L 117.438435 241.262674 
M 121.474486 241.232702 
L 122.83462 241.227897 
M 126.885454 241.106267 
L 128.245589 240.986901 
M 132.281639 240.740083 
L 133.641773 240.679608 
M 137.677824 240.462963 
L 139.037958 240.368106 
M 143.074009 240.263748 
L 144.434143 240.263748 
M 148.484977 240.263748 
L 149.845112 240.263748 
M 153.881162 240.263746 
L 155.241296 240.236911 
M 159.277347 239.70913 
L 160.637481 239.665182 
M 164.673532 239.389997 
L 166.033666 239.358561 
M 170.084501 239.294778 
L 171.444635 239.259721 
M 175.480685 239.138681 
L 176.84082 239.130687 
M 180.87687 237.528196 
L 182.237004 237.564014 
M 186.273055 237.690866 
L 187.633189 237.712972 
M 191.684024 237.713098 
L 193.044158 237.715167 
M 197.080208 237.724157 
L 198.440343 237.726633 
M 202.476393 237.731754 
L 203.836527 237.737325 
M 207.872578 237.748331 
L 209.232712 237.748397 
M 213.283547 237.748963 
L 214.643681 237.749022 
M 218.679732 237.749024 
L 220.039866 237.749024 
M 224.075916 237.749024 
L 225.436051 237.749024 
M 229.472101 237.749024 
L 230.832235 237.749028 
M 234.88307 237.748718 
L 236.243204 237.748511 
M 240.279255 237.775057 
L 241.639389 237.810843 
M 245.675439 237.896977 
L 247.035574 237.931318 
M 251.071624 238.088021 
L 252.431758 238.14772 
M 256.482593 238.462263 
L 257.842727 238.521959 
M 261.878778 238.5482 
L 263.238912 238.549842 
M 267.274962 238.562302 
L 268.635097 238.59397 
M 272.671147 238.732788 
L 274.031281 238.774488 
M 278.082116 238.826539 
L 279.44225 238.83743 
M 283.478301 238.915816 
L 284.838435 238.940422 
M 288.874486 238.916742 
L 290.23462 238.908355 
M 294.27067 238.871464 
L 295.630805 238.842863 
M 299.681639 238.687175 
L 301.041773 238.633915 
M 305.077824 238.562509 
L 306.437958 238.612959 
M 310.474009 238.723448 
L 311.834143 238.62046 
M 315.870193 238.531012 
L 317.230328 238.475815 
M 321.281162 238.457911 
L 322.641296 238.523479 
M 326.677347 238.749481 
L 328.037481 238.765768 
M 332.073532 238.673448 
L 333.433666 238.532054 
L 333.433666 238.532054 
" style="fill:none;stroke:#1f77b4;stroke-linecap:square;stroke-width:1.5;"/>
   </g>
   <g id="line2d_22">
    <path clip-path="url(#p2e2d48c2bc)" d="M 54.87226 44.514449 
L 56.232394 44.606652 
L 56.675916 44.608496 
L 57.134222 47.844843 
L 57.592528 51.911021 
L 58.036051 57.054137 
L 58.494357 59.342631 
L 58.937879 63.093473 
M 60.283229 72.990607 
L 60.741535 74.038039 
L 61.185057 73.800154 
L 62.545191 75.729053 
L 63.447019 75.747494 
L 64.348847 75.64607 
M 65.679414 88.713163 
L 66.13772 95.326005 
L 66.581242 95.506724 
L 67.48307 96.408475 
L 67.941376 96.27939 
L 68.399682 95.829437 
L 68.843204 95.182168 
L 69.745032 89.76244 
M 71.075598 83.131158 
L 71.533904 86.658867 
L 71.977426 87.857514 
L 72.435733 86.352751 
L 73.795867 76.45193 
L 74.239389 76.138437 
L 74.697695 76.625272 
L 75.141217 76.129217 
M 76.471783 80.335545 
L 76.930089 81.394042 
L 77.373611 80.453565 
L 77.831917 80.5052 
L 78.733745 78.388205 
L 79.192052 76.852646 
L 79.635574 76.212385 
L 80.09388 75.237424 
L 80.537402 74.872298 
M 81.882752 75.42847 
L 82.341058 76.284303 
L 82.78458 76.736101 
L 83.242886 76.979334 
L 83.686408 78.127822 
L 84.60302 82.172794 
L 85.046542 81.940072 
L 85.948371 79.415169 
M 87.278937 85.853008 
L 87.737243 87.913205 
L 88.180765 88.878761 
L 89.540899 94.693304 
L 89.999205 95.326558 
L 90.442727 98.415563 
L 91.344555 107.067395 
M 92.675121 112.77406 
L 94.035256 122.527356 
L 94.937084 134.62207 
L 95.838912 139.937054 
L 96.297218 138.501444 
L 96.74074 137.739474 
M 98.071306 129.308193 
L 98.973134 122.247795 
L 99.43144 120.809419 
L 99.874962 121.66138 
L 100.333269 121.46388 
L 100.791575 120.329776 
L 101.235097 116.466261 
L 101.693403 111.159206 
L 102.136925 108.236352 
M 103.482275 105.830023 
L 103.940581 105.912637 
L 104.842409 116.709494 
L 105.285931 118.802515 
L 105.744237 119.798499 
L 106.202543 121.085661 
L 106.646066 123.995606 
L 107.104372 124.447219 
L 107.547894 125.972451 
M 108.87846 127.036296 
L 109.336766 125.284612 
L 110.238594 119.688039 
L 110.682116 115.197724 
L 111.598728 113.012314 
L 112.04225 114.155823 
L 112.944078 119.365142 
M 114.274645 111.022929 
L 115.634779 106.92743 
L 116.536607 100.076334 
L 116.994913 97.715922 
L 117.438435 93.788049 
L 117.896741 95.134222 
L 118.340263 101.302642 
M 119.670829 110.808833 
L 120.129135 110.919477 
L 120.572657 110.49534 
L 121.030964 110.366255 
L 121.474486 109.582525 
L 121.932792 108.060981 
L 122.391098 108.826271 
L 122.83462 110.283088 
L 123.292926 112.79121 
L 123.736448 113.491957 
M 125.081798 114.635097 
L 125.540104 116.067941 
L 125.983626 116.466261 
L 126.441932 114.156007 
L 126.885454 110.73507 
L 127.802067 107.341978 
L 128.245589 107.286655 
L 129.147417 105.184229 
M 130.477983 101.25654 
L 130.936289 101.938663 
L 131.379811 103.303276 
L 131.838117 103.570482 
L 132.739945 109.073561 
L 134.100079 126.050087 
L 134.543602 129.009822 
M 135.874168 140.452288 
L 136.332474 144.951823 
L 136.775996 146.187352 
L 138.13613 155.075962 
L 138.594436 156.781729 
L 139.037958 154.900591 
L 139.939786 152.780093 
M 141.270352 158.920668 
L 142.172181 163.097675 
L 142.630487 162.931524 
L 143.074009 161.105893 
L 143.990621 161.548101 
L 144.892449 165.380083 
L 145.335971 169.935125 
M 146.681321 172.218086 
L 147.583149 173.415073 
L 148.943284 168.067633 
L 149.40159 167.851692 
L 149.845112 169.354611 
L 150.303418 171.987761 
L 150.74694 173.770979 
M 152.077506 170.565797 
L 152.535812 169.94453 
L 152.979334 167.1231 
L 153.43764 165.035426 
L 153.881162 164.209282 
L 154.339468 163.825715 
L 154.797774 164.655547 
L 155.241296 163.729823 
L 155.699603 164.107858 
L 156.143125 163.315091 
M 157.473691 159.262006 
L 157.931997 156.532964 
L 158.375519 155.859693 
L 158.833825 156.836867 
L 159.277347 159.160028 
L 159.735653 160.801437 
L 161.095787 168.334655 
L 161.539309 168.814113 
M 162.869875 167.744552 
L 163.771704 165.632905 
L 164.23001 166.081199 
L 164.673532 166.016841 
L 165.131838 166.256755 
L 165.590144 167.219176 
L 166.935494 171.100763 
M 168.280844 170.866197 
L 168.73915 169.311644 
L 169.182672 169.514492 
L 170.084501 171.958072 
L 170.542807 172.852631 
L 171.001113 174.014581 
L 171.444635 174.81122 
L 171.902941 174.55305 
L 172.346463 173.603168 
M 173.677029 176.395093 
L 174.578857 180.920445 
L 175.037163 182.650185 
L 175.480685 183.858236 
L 175.938991 184.405741 
L 176.397298 184.455531 
L 177.299126 182.808775 
L 177.742648 181.610128 
M 179.073214 184.027706 
L 179.53152 185.515872 
L 179.975042 185.471615 
L 180.433348 186.181564 
L 180.87687 186.259015 
L 181.335176 187.055654 
L 181.793482 187.144096 
L 182.237004 187.735951 
L 182.69531 187.957202 
L 183.138832 187.736098 
M 184.469399 190.185228 
L 185.371227 195.475797 
L 185.829533 195.909098 
L 186.273055 195.217645 
L 187.633189 187.358008 
L 188.535017 185.803363 
M 189.880367 183.603385 
L 190.338673 184.11069 
L 191.240502 182.854877 
L 191.684024 182.393859 
L 192.14233 182.316408 
L 192.600636 181.984475 
L 193.044158 180.724974 
L 193.945986 178.93604 
M 195.276552 174.870045 
L 195.734858 173.876091 
L 196.17838 174.676418 
L 197.080208 177.96071 
L 197.538515 177.410992 
L 197.996821 176.166244 
L 198.440343 175.784521 
L 199.342171 172.622306 
M 200.672737 171.078818 
L 201.131043 170.178727 
L 201.574565 167.910518 
L 202.032871 166.785634 
L 202.476393 164.548775 
L 202.934699 163.916259 
L 203.393005 164.561868 
L 203.836527 169.727113 
L 204.738356 177.215705 
M 206.068922 177.007694 
L 206.527228 176.323359 
L 207.429056 175.528195 
L 207.872578 176.368354 
L 209.232712 183.362919 
L 209.691018 184.70153 
L 210.13454 185.325749 
M 211.47989 183.327328 
L 211.938197 183.245267 
L 212.381719 183.719193 
L 213.283547 182.959436 
L 213.741853 183.139048 
L 214.200159 182.57218 
L 214.643681 182.600764 
L 215.101987 181.744377 
L 215.545509 180.529318 
M 216.876075 176.175464 
L 217.334381 174.795914 
L 217.777903 174.457527 
L 218.236209 174.665538 
L 218.679732 174.428575 
L 219.138038 174.514324 
L 219.596344 175.410912 
L 220.039866 175.923379 
L 220.498172 174.991754 
L 220.941694 172.876973 
M 222.27226 168.674148 
L 222.730566 169.492547 
L 223.174088 171.369444 
L 223.632394 173.934363 
L 224.075916 175.47822 
L 224.534222 176.522887 
L 225.436051 175.498136 
L 225.894357 174.736904 
L 226.337879 175.244945 
M 227.668445 176.664512 
L 228.570273 176.545938 
L 229.028579 176.250149 
L 229.472101 176.167719 
L 229.930407 176.577472 
L 231.290541 181.658996 
L 231.734063 182.32489 
M 233.079414 183.517083 
L 233.53772 182.678215 
L 233.981242 182.676186 
L 234.439548 181.743639 
L 235.799682 181.130116 
L 236.243204 182.120567 
L 237.145032 184.918762 
M 238.475598 184.341014 
L 238.933904 184.043934 
L 239.835733 182.550052 
L 240.279255 181.215128 
L 241.639389 179.475984 
L 242.097695 177.983576 
L 242.541217 177.136041 
M 243.871783 177.537127 
L 244.330089 178.095327 
L 244.773611 178.871313 
L 245.231917 179.427854 
L 245.675439 179.442237 
L 246.133745 178.519464 
L 247.035574 177.242444 
L 247.49388 177.432199 
L 247.937402 177.211832 
M 249.267968 176.318195 
L 249.726274 176.63722 
L 250.169796 176.055415 
L 250.628102 175.085802 
L 251.071624 175.146472 
L 251.52993 176.138767 
L 251.988236 177.620848 
L 252.431758 178.378023 
L 252.890064 179.388759 
L 253.333587 179.999147 
M 254.678937 185.175512 
L 255.137243 185.463372 
L 255.580765 185.206861 
L 256.039071 184.090036 
L 256.940899 182.840862 
L 257.399205 182.910936 
L 258.301033 187.264274 
L 258.744555 189.950091 
M 260.075121 189.63516 
L 260.533428 188.073489 
L 260.97695 188.358749 
L 262.337084 189.798637 
L 263.697218 193.113873 
L 264.14074 192.574777 
M 265.471306 192.010399 
L 265.929612 191.243099 
L 266.373134 190.800411 
L 266.83144 191.680144 
L 267.733269 194.466831 
L 268.635097 196.509086 
L 269.093403 196.616226 
L 269.536925 196.981647 
M 270.867491 196.814243 
L 271.769319 197.060611 
L 272.227625 197.493968 
L 272.671147 198.167423 
L 273.129453 199.086231 
L 273.587759 199.744325 
L 274.489588 199.475331 
L 274.93311 199.36913 
M 276.27846 198.313012 
L 276.736766 197.625044 
L 277.180288 197.90916 
L 278.082116 198.725826 
L 278.540422 198.77521 
L 278.998728 199.126635 
L 279.44225 198.813346 
L 279.900556 198.036954 
L 280.344078 196.472886 
M 281.674645 191.132989 
L 282.132951 189.950773 
L 282.576473 188.457204 
L 283.034779 187.621987 
L 283.478301 187.528603 
L 284.394913 188.160437 
L 284.838435 188.105576 
L 285.296741 187.359465 
L 285.740263 186.002357 
M 287.070829 185.65971 
L 287.972657 185.612871 
L 288.430964 185.968961 
L 288.874486 185.910873 
L 289.332792 185.489871 
L 290.23462 182.275101 
L 290.692926 179.629411 
L 291.136448 177.811156 
M 292.467014 176.525469 
L 292.92532 176.321699 
L 293.368842 175.461071 
L 293.827148 174.981981 
L 294.27067 173.968663 
L 295.630805 175.541288 
L 296.089111 175.215993 
L 296.532633 175.185751 
M 297.877983 178.422466 
L 298.336289 180.970973 
L 298.779811 181.354355 
L 299.238117 183.126877 
L 299.681639 183.856945 
L 300.139945 185.277434 
L 300.598251 185.536157 
L 301.041773 185.221743 
L 301.500079 183.383019 
L 301.943602 180.480265 
M 303.274168 180.120303 
L 304.175996 180.719995 
L 304.634302 180.697681 
L 305.53613 180.890018 
L 305.994436 180.787119 
L 306.437958 180.266537 
L 306.896264 179.954705 
L 307.339786 179.941428 
M 308.670352 182.889361 
L 309.128658 182.792363 
L 309.572181 182.458032 
L 310.030487 181.675408 
L 312.292449 179.602118 
L 312.735971 180.238508 
M 314.066537 181.442133 
L 314.524843 180.940177 
L 314.968365 181.309729 
L 316.3285 182.847685 
L 317.230328 182.856905 
L 317.688634 182.23158 
L 318.132156 182.129234 
M 319.477506 182.182713 
L 320.379334 182.915178 
L 320.83764 183.057909 
L 322.197774 183.954497 
L 322.641296 184.013876 
L 323.099603 184.337695 
L 323.543125 184.821764 
M 324.873691 182.990785 
L 325.775519 181.585971 
L 326.233825 181.623406 
L 327.593959 181.205908 
L 328.037481 180.425496 
L 328.939309 179.293236 
M 330.269875 177.292234 
L 331.63001 169.584013 
L 332.073532 168.886954 
L 332.990144 165.403318 
L 333.433666 162.654176 
L 333.891972 162.592953 
L 334.335494 164.949308 
M 54.87226 44.443636 
L 55.774088 44.563317 
L 56.675916 44.601305 
L 57.134222 44.902441 
L 57.592528 48.478281 
L 58.494357 58.311057 
L 58.937879 61.620797 
M 60.283229 72.591549 
L 60.741535 74.280719 
L 61.185057 74.429536 
L 61.643363 74.452034 
L 63.003497 75.751182 
L 64.348847 75.764091 
M 65.679414 87.036902 
L 66.13772 93.73033 
L 66.581242 96.269801 
L 67.039548 95.790896 
L 67.48307 95.963685 
L 68.399682 95.678407 
L 68.843204 95.349978 
L 69.745032 90.233601 
M 71.075598 81.638197 
L 71.533904 85.392728 
L 71.977426 87.627927 
L 72.435733 87.479479 
L 72.879255 85.044198 
L 73.337561 80.744191 
L 73.795867 77.772654 
L 74.239389 76.2264 
L 74.697695 76.633755 
L 75.141217 76.389047 
M 76.471783 80.180274 
L 76.930089 81.561115 
L 77.373611 81.60316 
L 78.733745 78.843322 
L 79.635574 76.519238 
L 80.09388 75.653262 
L 80.537402 74.557146 
M 81.882752 75.247197 
L 82.341058 76.29168 
L 82.78458 76.78294 
L 83.242886 77.046089 
L 83.686408 77.833877 
L 84.144714 79.319646 
L 84.60302 81.509665 
L 85.046542 82.205803 
L 85.504849 81.392567 
L 85.948371 80.014861 
M 87.278937 84.546483 
L 87.737243 87.41549 
L 88.639071 90.141028 
L 89.540899 94.08808 
L 89.999205 95.189175 
L 90.442727 97.020338 
L 91.344555 105.856762 
M 92.675121 110.963181 
L 93.133428 114.54566 
L 94.035256 120.343422 
L 94.478778 124.347824 
L 94.937084 131.18177 
L 95.39539 135.655304 
L 95.838912 138.577051 
L 96.297218 138.016269 
L 96.74074 136.890463 
M 98.071306 130.89852 
L 98.973134 124.19366 
L 99.43144 121.91328 
L 100.333269 121.914571 
L 100.791575 121.282608 
L 101.235097 118.734838 
L 101.693403 113.744779 
L 102.136925 110.411988 
M 103.482275 107.694748 
L 103.940581 105.493295 
L 104.384103 108.451371 
L 105.285931 119.366248 
L 106.202543 120.70486 
L 107.104372 124.916536 
L 107.547894 125.838018 
M 108.87846 128.718459 
L 109.780288 123.584194 
L 111.140422 115.148671 
L 111.598728 114.149553 
L 112.04225 114.307037 
L 112.944078 118.172949 
M 114.274645 113.114107 
L 114.732951 109.534395 
L 115.176473 109.343164 
L 116.078301 105.427831 
L 116.536607 101.302273 
L 116.994913 99.180669 
L 117.438435 96.202677 
L 117.896741 95.127952 
L 118.340263 98.962146 
M 119.670829 112.020203 
L 120.129135 111.128964 
L 120.572657 111.317796 
L 121.030964 110.923534 
L 121.474486 110.393363 
L 121.932792 108.673766 
L 122.391098 108.202421 
L 123.292926 111.335868 
L 123.736448 112.850405 
M 125.081798 114.610202 
L 125.540104 116.205693 
L 125.983626 116.733836 
L 126.441932 115.241981 
L 126.885454 111.968201 
L 127.802067 107.653072 
L 128.245589 106.912493 
L 128.703895 106.747818 
L 129.147417 106.26799 
M 130.477983 99.842322 
L 130.936289 100.3109 
L 132.281639 105.487579 
L 133.198251 110.418627 
L 134.100079 121.481583 
L 134.543602 127.715284 
M 135.874168 138.460137 
L 136.332474 143.122135 
L 136.775996 146.368439 
L 137.234302 148.364278 
L 138.13613 153.723151 
L 138.594436 156.131878 
L 139.037958 156.586257 
L 139.939786 153.54612 
M 141.270352 157.589801 
L 142.172181 162.174901 
L 142.630487 163.444729 
L 143.532315 160.743902 
L 143.990621 160.992298 
L 144.434143 162.285915 
L 145.335971 167.311748 
M 146.681321 171.52914 
L 147.139627 171.98979 
L 147.583149 172.818516 
L 148.041455 172.792699 
L 149.40159 168.351251 
L 149.845112 169.139408 
L 150.74694 173.083877 
M 152.077506 171.296972 
L 152.535812 170.379546 
L 153.881162 164.358836 
L 154.339468 163.813175 
L 155.241296 163.333532 
L 155.699603 162.909764 
L 156.143125 163.162771 
M 157.473691 160.492924 
L 157.931997 158.021867 
L 158.375519 156.549007 
L 158.833825 156.426192 
L 159.277347 158.12993 
L 159.735653 159.265509 
L 160.193959 162.058725 
L 161.095787 169.024891 
L 161.539309 169.961126 
M 162.869875 168.351989 
L 163.328182 167.713756 
L 163.771704 166.285707 
L 164.23001 165.785779 
L 164.673532 165.635671 
L 165.131838 165.873741 
L 165.590144 166.853681 
L 166.935494 170.684371 
M 168.280844 171.220258 
L 168.73915 169.692076 
L 169.182672 169.112853 
L 169.640979 170.21358 
L 170.084501 171.644395 
L 171.444635 174.072116 
L 171.902941 174.518381 
L 172.346463 174.272382 
M 173.677029 175.396712 
L 174.578857 179.695244 
L 175.037163 181.479199 
L 175.480685 182.33448 
L 175.938991 183.557099 
L 176.397298 183.90987 
L 176.84082 184.026969 
L 177.742648 182.437748 
M 179.073214 182.803243 
L 179.53152 184.28016 
L 180.433348 185.211969 
L 181.335176 186.800084 
L 181.793482 187.503284 
L 182.237004 187.523809 
L 182.69531 187.871213 
L 183.138832 187.629216 
M 184.469399 189.11303 
L 185.371227 194.48636 
L 185.829533 195.59935 
L 186.273055 194.97928 
L 186.731361 193.200341 
L 187.633189 187.7848 
L 188.091495 186.450448 
L 188.535017 186.200761 
M 189.880367 183.846434 
L 190.338673 183.554149 
L 190.782196 183.420638 
L 191.684024 182.497864 
L 192.600636 182.030392 
L 193.044158 181.456148 
L 193.945986 179.906575 
M 195.276552 175.327744 
L 195.734858 173.902645 
L 196.17838 174.698362 
L 196.636686 176.226176 
L 197.080208 178.145117 
L 197.538515 178.280656 
L 198.898649 174.674943 
L 199.342171 173.058798 
M 200.672737 171.480826 
L 201.131043 170.995466 
L 202.934699 163.869972 
L 203.393005 164.895645 
L 204.738356 176.252546 
M 206.068922 177.874223 
L 206.97075 175.681253 
L 207.429056 175.473795 
L 207.872578 175.507541 
L 208.330884 177.13014 
L 209.232712 182.158371 
L 209.691018 183.735052 
L 210.13454 184.550132 
M 211.47989 183.146056 
L 211.938197 183.066576 
L 212.381719 183.282517 
L 212.840025 183.33286 
L 213.283547 182.895077 
L 213.741853 182.923476 
L 215.101987 182.558534 
L 215.545509 181.571956 
M 216.876075 176.990913 
L 217.777903 174.67273 
L 218.679732 174.349648 
L 219.138038 174.416773 
L 220.039866 175.662996 
L 220.498172 175.497399 
L 220.941694 173.970323 
M 222.27226 169.078369 
L 222.730566 169.42026 
L 223.632394 172.172168 
L 224.075916 174.51414 
L 224.534222 175.880412 
L 224.992528 176.363559 
L 225.436051 175.281089 
L 225.894357 174.813801 
L 226.337879 174.575363 
M 227.668445 176.545016 
L 228.126751 176.321514 
L 228.570273 176.708585 
L 229.028579 176.752658 
L 229.472101 176.982799 
L 229.930407 176.696783 
L 230.388713 177.328378 
L 231.734063 182.094935 
M 233.079414 183.042972 
L 233.53772 182.789412 
L 233.981242 181.787712 
L 234.439548 181.623406 
L 234.88307 181.327248 
L 235.341376 181.607178 
L 235.799682 181.490817 
L 236.243204 181.570665 
L 237.145032 183.789821 
M 238.475598 184.517676 
L 238.933904 183.79314 
L 239.377426 183.473563 
L 239.835733 182.826109 
L 240.737561 181.240945 
L 241.639389 180.26414 
L 242.541217 177.429433 
M 243.871783 177.654594 
L 244.330089 177.377799 
L 244.773611 178.512456 
L 245.231917 178.982879 
L 245.675439 179.233857 
L 246.133745 178.462482 
L 247.49388 177.223081 
L 247.937402 177.201321 
M 249.267968 176.268036 
L 249.726274 176.557002 
L 250.169796 176.50961 
L 250.628102 175.513627 
L 251.071624 175.01499 
L 251.52993 175.763129 
L 252.431758 178.210213 
L 252.890064 179.279406 
L 253.333587 179.786157 
M 254.678937 184.091142 
L 255.137243 185.055776 
L 255.580765 185.568428 
L 256.039071 184.456822 
L 256.940899 182.762673 
L 257.399205 182.815967 
L 257.842727 184.054077 
L 258.301033 186.351385 
L 258.744555 189.201748 
M 260.075121 190.546648 
L 260.533428 189.013431 
L 260.97695 188.263447 
L 261.435256 188.491467 
L 261.878778 189.277429 
L 262.337084 189.603995 
L 263.697218 192.357895 
L 264.14074 192.658313 
M 265.471306 192.13196 
L 266.373134 191.372903 
L 266.83144 191.328442 
L 268.635097 195.948709 
L 269.093403 196.468848 
L 269.536925 196.669059 
M 270.867491 196.784406 
L 271.325797 196.643703 
L 272.227625 197.145567 
L 273.587759 199.325832 
L 274.031281 199.83273 
L 274.93311 199.557429 
M 276.27846 198.45696 
L 276.736766 197.658754 
L 277.180288 197.424612 
L 278.082116 198.447537 
L 278.998728 198.835604 
L 279.44225 198.836323 
L 279.900556 198.407631 
L 280.344078 197.404198 
M 281.674645 191.240867 
L 282.576473 188.150627 
L 283.478301 187.360055 
L 283.936607 187.929357 
L 284.394913 187.590619 
L 284.838435 187.943446 
L 285.296741 187.556707 
L 285.740263 186.78535 
M 287.070829 185.472168 
L 287.529135 185.732366 
L 288.874486 185.983713 
L 289.332792 185.761872 
L 290.23462 183.642111 
L 291.136448 178.977531 
M 292.467014 176.440826 
L 292.92532 176.193905 
L 293.368842 175.78784 
L 294.728976 174.049802 
L 295.630805 175.327929 
L 296.089111 175.42843 
L 296.532633 175.148869 
M 297.877983 178.532741 
L 298.336289 180.110529 
L 299.681639 183.584576 
L 300.139945 185.008199 
L 300.598251 185.673172 
L 301.041773 185.728678 
L 301.500079 184.415884 
L 301.943602 181.790294 
M 303.274168 179.454408 
L 303.732474 180.332371 
L 304.175996 180.45703 
L 304.634302 180.828611 
L 305.077824 180.42734 
L 305.53613 180.866414 
L 305.994436 180.90514 
L 306.437958 180.823816 
L 307.339786 179.880204 
M 308.670352 182.412115 
L 309.128658 183.007381 
L 309.572181 182.685591 
L 310.474009 181.252563 
L 311.390621 180.660062 
L 311.834143 180.398389 
L 312.292449 179.974436 
L 312.735971 179.906021 
M 314.066537 181.385889 
L 314.524843 180.888174 
L 314.968365 180.969866 
L 315.870193 182.165563 
L 316.3285 182.84916 
L 317.230328 182.985806 
L 317.688634 182.492517 
L 318.132156 182.190089 
M 319.477506 182.042932 
L 319.935812 182.346097 
L 320.379334 182.875899 
L 320.83764 182.855799 
L 321.739468 183.241579 
L 322.641296 183.905813 
L 323.543125 184.535195 
M 324.873691 183.704441 
L 325.775519 182.059713 
L 327.135653 181.439367 
L 327.593959 181.428487 
L 328.037481 180.905324 
L 328.939309 179.437258 
M 330.269875 178.020458 
L 331.171704 173.412122 
L 331.63001 170.57594 
L 332.073532 168.651097 
L 332.531838 167.481218 
L 333.891972 162.55644 
L 334.335494 164.044422 
M 56.675916 48.669143 
L 58.036051 56.489851 
M 62.086885 75.18874 
L 63.447019 75.679263 
M 67.48307 95.775959 
L 68.843204 93.137092 
M 72.879255 83.983119 
L 74.239389 79.385848 
M 78.275439 78.232012 
L 79.635574 76.382961 
M 83.686408 79.336242 
L 85.046542 80.559046 
M 89.082593 93.396922 
L 90.442727 100.402366 
M 94.478778 128.785214 
L 95.838912 134.2551 
M 99.874962 122.306621 
L 101.235097 116.811287 
M 105.285931 117.09343 
L 106.646066 125.852955 
M 110.682116 119.06087 
L 112.04225 117.281341 
M 116.078301 100.21464 
L 117.438435 102.482848 
M 121.474486 110.615205 
L 122.83462 111.952157 
M 126.885454 112.040857 
L 128.245589 107.121058 
M 132.281639 110.200105 
L 133.641773 119.402023 
M 137.677824 150.557802 
L 139.037958 154.172367 
M 143.074009 161.327182 
L 144.434143 165.872634 
M 148.484977 170.046138 
L 149.845112 169.880171 
M 153.881162 165.691731 
L 155.241296 163.641123 
M 159.277347 159.723024 
L 160.637481 163.752136 
M 164.673532 166.487079 
L 166.033666 169.345391 
M 170.084501 172.529918 
L 171.444635 174.051462 
M 175.480685 182.244489 
L 176.84082 182.825372 
M 180.87687 186.937541 
L 182.237004 187.514828 
M 186.273055 192.387013 
L 187.633189 189.441957 
M 191.684024 181.857234 
L 193.044158 180.02773 
M 197.080208 176.088977 
L 198.440343 174.884798 
M 202.476393 167.244993 
L 203.836527 170.748729 
M 207.872578 178.61849 
L 209.232712 181.702147 
M 213.283547 183.926282 
L 214.643681 181.756547 
M 218.679732 174.274963 
L 220.039866 173.264781 
M 224.075916 173.678775 
L 225.436051 176.221935 
M 229.472101 177.918481 
L 230.832235 180.06498 
M 234.88307 182.702556 
L 236.243204 182.950215 
M 240.279255 181.342738 
L 241.639389 179.322741 
M 245.675439 177.735364 
L 247.035574 177.460044 
M 251.071624 176.521043 
L 252.431758 177.643898 
M 256.482593 185.1047 
L 257.842727 186.743766 
M 261.878778 189.965563 
L 263.238912 191.096181 
M 267.274962 193.390557 
L 268.635097 195.624484 
M 272.671147 198.055451 
L 274.031281 199.040701 
M 278.082116 198.220126 
L 279.44225 197.468335 
M 283.478301 188.685187 
L 284.838435 186.740576 
M 288.874486 184.347837 
L 290.23462 181.337206 
M 294.27067 175.474717 
L 295.630805 175.375506 
M 299.681639 183.982342 
L 301.041773 183.110834 
M 305.077824 180.317618 
L 306.437958 180.179128 
M 310.474009 181.382201 
L 311.834143 180.742492 
M 315.870193 182.120383 
L 317.230328 182.530689 
M 321.281162 182.952428 
L 322.641296 183.956525 
M 326.677347 180.850739 
L 328.037481 180.054285 
M 332.073532 168.07003 
L 333.433666 166.205121 
M 56.675916 46.022531 
L 58.036051 51.80093 
M 62.086885 74.285145 
L 63.447019 75.32262 
M 67.48307 92.810322 
L 68.843204 93.929121 
M 72.879255 82.306305 
L 74.239389 80.576934 
M 78.275439 79.461639 
L 79.635574 77.619596 
M 83.686408 77.952266 
L 85.046542 79.535218 
M 89.082593 89.997191 
L 90.442727 97.066071 
M 94.478778 122.379462 
L 95.838912 131.076842 
M 99.874962 124.708524 
L 101.235097 117.930823 
M 105.285931 114.218337 
L 106.646066 120.261545 
M 110.682116 121.195752 
L 112.04225 117.67044 
M 116.078301 106.447234 
L 117.438435 101.827465 
M 121.474486 110.351318 
L 122.83462 110.630511 
M 126.885454 112.50501 
L 128.245589 109.736136 
M 132.281639 104.642994 
L 133.641773 113.859481 
M 137.677824 147.518771 
L 139.037958 152.687889 
M 143.074009 160.661287 
L 144.434143 163.894867 
M 148.484977 170.881318 
L 149.845112 171.4019 
M 153.881162 166.904946 
L 155.241296 164.203012 
M 159.277347 159.628607 
L 160.637481 162.82549 
M 164.673532 166.992724 
L 166.033666 167.758751 
M 170.084501 171.565469 
L 171.444635 172.590773 
M 175.480685 180.314852 
L 176.84082 182.618282 
M 180.87687 185.18381 
L 182.237004 186.784336 
M 186.273055 191.68125 
L 187.633189 190.685839 
M 191.684024 182.915362 
L 193.044158 181.607362 
M 197.080208 176.224516 
L 198.440343 175.468447 
M 202.476393 167.854458 
L 203.836527 169.457141 
M 207.872578 177.647218 
L 209.232712 179.904731 
M 213.283547 183.081329 
L 214.643681 182.573287 
M 218.679732 175.500534 
L 220.039866 174.552312 
M 224.075916 172.535635 
L 225.436051 174.359422 
M 229.472101 176.881743 
L 230.832235 178.726922 
M 234.88307 182.037584 
L 236.243204 182.310507 
M 240.279255 182.722104 
L 241.639389 180.354868 
M 245.675439 178.258896 
L 247.035574 178.098462 
M 251.071624 176.299386 
L 252.431758 177.450455 
M 256.482593 183.767139 
L 257.842727 185.483066 
M 261.878778 189.854088 
L 263.238912 190.571691 
M 267.274962 192.793723 
L 268.635097 194.301418 
M 272.671147 197.778102 
L 274.031281 198.69763 
M 278.082116 198.44112 
L 279.44225 198.119827 
M 283.478301 188.848129 
L 284.838435 187.367062 
M 288.874486 185.367425 
L 290.23462 183.250983 
M 294.27067 175.416997 
L 295.630805 174.99452 
M 299.681639 182.281002 
L 301.041773 183.361443 
M 305.077824 180.390275 
L 306.437958 180.534665 
M 310.474009 181.664159 
L 311.834143 180.832852 
M 315.870193 181.966403 
L 317.230328 182.234715 
M 321.281162 182.842521 
L 322.641296 183.666822 
M 326.677347 182.285981 
L 328.037481 180.885592 
M 332.073532 171.433249 
L 333.433666 166.788954 
L 333.433666 166.788954 
" style="fill:none;stroke:#ff7f0e;stroke-linecap:square;stroke-width:1.5;"/>
   </g>
   <g id="line2d_23">
    <path clip-path="url(#p2e2d48c2bc)" d="M 54.87226 242.099126 
L 58.937879 242.107812 
M 60.283229 242.115691 
L 64.348847 242.092313 
M 65.679414 242.10206 
L 69.745032 242.09431 
M 71.075598 242.090185 
L 75.141217 242.091216 
M 76.471783 242.098007 
L 80.537402 242.056508 
M 81.882752 242.049939 
L 85.948371 241.993148 
M 87.278937 242.005398 
L 91.344555 242.029183 
M 92.675121 242.038967 
L 96.74074 242.055086 
M 98.071306 242.055436 
L 102.136925 242.072267 
M 103.482275 242.080709 
L 107.547894 242.096923 
M 108.87846 242.084425 
L 112.944078 242.038393 
M 114.274645 242.025322 
L 118.340263 241.989397 
M 119.670829 241.961807 
L 123.736448 241.951483 
M 125.081798 241.944614 
L 129.147417 241.864398 
M 130.477983 241.847325 
L 134.543602 241.948359 
M 135.874168 241.947482 
L 139.939786 241.943149 
M 141.270352 241.972761 
L 145.335971 242.021054 
M 146.681321 242.021725 
L 150.74694 242.022459 
M 152.077506 242.008224 
L 156.143125 241.979173 
M 157.473691 241.996849 
L 161.539309 242.042377 
M 162.869875 242.031831 
L 166.491972 242.011946 
L 166.935494 242.018708 
M 168.280844 242.01385 
L 172.346463 241.966355 
M 173.677029 241.952749 
L 177.742648 241.955261 
M 179.073214 241.956825 
L 183.138832 241.978418 
M 184.469399 241.98114 
L 188.535017 241.971952 
M 189.880367 241.964117 
L 193.945986 241.996623 
M 195.276552 241.986513 
L 199.342171 241.996665 
M 200.672737 241.993845 
L 204.738356 241.994732 
M 206.068922 241.986689 
L 210.13454 241.985618 
M 211.47989 241.98217 
L 215.545509 241.946955 
M 216.876075 241.94505 
L 220.941694 241.944723 
M 222.27226 241.937714 
L 226.337879 241.976592 
M 227.668445 241.982504 
L 231.734063 242.009058 
M 233.079414 242.026146 
L 237.145032 242.035248 
M 238.475598 242.036373 
L 242.541217 242.010246 
M 243.871783 242.012271 
L 247.937402 242.042722 
M 249.267968 242.045461 
L 253.333587 242.057899 
M 254.678937 242.049468 
L 258.744555 241.96783 
M 260.075121 241.939614 
L 264.14074 241.991102 
M 265.471306 241.970573 
L 269.536925 241.974815 
M 270.867491 241.983708 
L 274.93311 241.976381 
M 276.27846 241.98026 
L 280.344078 241.98438 
M 281.674645 241.968415 
L 285.740263 241.988801 
M 287.070829 241.994903 
L 291.136448 241.976771 
M 292.467014 241.961456 
L 296.532633 241.960648 
M 297.877983 241.937705 
L 301.943602 241.878729 
M 303.274168 241.884386 
L 307.339786 241.915479 
M 308.670352 241.933467 
L 312.735971 241.894571 
M 314.066537 241.907926 
L 318.132156 241.902869 
M 319.477506 241.895065 
L 323.543125 241.912432 
M 324.873691 241.927285 
L 328.939309 241.919205 
M 330.269875 241.912484 
L 334.335494 241.860805 
M 54.87226 242.098871 
L 58.937879 242.107016 
M 60.283229 242.115031 
L 64.348847 242.093956 
M 65.679414 242.099191 
L 69.745032 242.095276 
M 71.075598 242.085227 
L 75.141217 242.090553 
M 76.471783 242.096724 
L 80.537402 242.057165 
M 81.882752 242.051329 
L 85.948371 241.992983 
M 87.278937 242.005222 
L 91.344555 242.023062 
M 92.675121 242.041038 
L 96.74074 242.048903 
M 98.071306 242.053534 
L 102.136925 242.071633 
M 103.482275 242.082501 
L 107.547894 242.096112 
M 108.87846 242.088319 
L 112.944078 242.034304 
M 114.274645 242.028416 
L 118.340263 241.992512 
M 119.670829 241.966836 
L 123.736448 241.951537 
M 125.081798 241.942385 
L 129.147417 241.873115 
M 130.477983 241.831322 
L 134.543602 241.942685 
M 135.874168 241.943695 
L 139.939786 241.940813 
M 141.270352 241.968949 
L 145.335971 242.012315 
M 146.681321 242.019954 
L 150.74694 242.018942 
M 152.077506 242.011508 
L 156.143125 241.979015 
M 157.473691 241.994094 
L 161.539309 242.043659 
M 162.869875 242.037889 
L 166.935494 242.016036 
M 168.280844 242.01554 
L 172.346463 241.976932 
M 173.677029 241.953216 
L 177.742648 241.957147 
M 179.073214 241.956198 
L 183.138832 241.978859 
M 184.469399 241.978297 
L 188.535017 241.973401 
M 189.880367 241.966728 
L 193.945986 241.989935 
M 195.276552 241.988688 
L 199.342171 241.994716 
M 200.672737 241.991815 
L 204.738356 241.997806 
M 206.068922 241.98933 
L 210.13454 241.988872 
M 211.47989 241.983521 
L 215.545509 241.945558 
M 216.876075 241.948816 
L 220.941694 241.944471 
M 222.27226 241.940012 
L 226.337879 241.975987 
M 227.668445 241.982801 
L 231.734063 242.00344 
M 233.079414 242.027171 
L 237.145032 242.031163 
M 238.475598 242.035368 
L 242.541217 242.011503 
M 243.871783 242.012252 
L 247.937402 242.039287 
M 249.267968 242.044973 
L 253.333587 242.057559 
M 254.678937 242.048468 
L 258.744555 241.974614 
M 260.075121 241.942113 
L 264.14074 241.989363 
M 265.471306 241.973344 
L 269.536925 241.977984 
M 270.867491 241.98259 
L 274.93311 241.976146 
M 276.27846 241.975833 
L 280.344078 241.983627 
M 281.674645 241.971083 
L 285.740263 241.9864 
M 287.070829 241.993658 
L 291.136448 241.978509 
M 292.467014 241.962893 
L 296.532633 241.963296 
M 297.877983 241.941323 
L 301.943602 241.882415 
M 303.274168 241.881278 
L 307.339786 241.911293 
M 308.670352 241.930487 
L 312.735971 241.897905 
M 314.066537 241.903124 
L 318.132156 241.898255 
M 319.477506 241.895528 
L 323.543125 241.909011 
M 324.873691 241.926671 
L 328.939309 241.917957 
M 330.269875 241.915728 
L 334.335494 241.856057 
M 56.675916 242.101306 
L 58.036051 242.105348 
M 62.086885 242.105792 
L 63.447019 242.097738 
M 67.48307 242.105691 
L 68.843204 242.100784 
M 72.879255 242.094705 
L 74.239389 242.09326 
M 78.275439 242.077569 
L 79.635574 242.062862 
M 83.686408 242.018402 
L 85.046542 242.006495 
M 89.082593 242.00809 
L 90.442727 242.018708 
M 94.478778 242.036203 
L 95.838912 242.045068 
M 99.874962 242.069921 
L 101.235097 242.076088 
M 105.285931 242.08771 
L 106.646066 242.09539 
M 110.682116 242.04878 
L 112.04225 242.034686 
M 116.078301 242.00957 
L 117.438435 241.998627 
M 121.474486 241.959334 
L 122.83462 241.956866 
M 126.885454 241.915702 
L 128.245589 241.885248 
M 132.281639 241.905888 
L 133.641773 241.926211 
M 137.677824 241.955816 
L 139.037958 241.955353 
M 143.074009 241.985154 
L 144.434143 242.001569 
M 148.484977 242.012775 
L 149.845112 242.008765 
M 153.881162 241.986324 
L 155.241296 241.981008 
M 159.277347 242.011639 
L 160.637481 242.028117 
M 164.673532 242.002802 
L 166.033666 242.010637 
M 170.084501 242.021152 
L 171.444635 242.00556 
M 175.480685 241.960856 
L 176.84082 241.958673 
M 180.87687 241.967439 
L 182.237004 241.973621 
M 186.273055 241.981491 
L 187.633189 241.97683 
M 191.684024 241.970002 
L 193.044158 241.982378 
M 197.080208 241.989728 
L 198.440343 241.991698 
M 202.476393 241.999336 
L 203.836527 241.997369 
M 207.872578 241.984514 
L 209.232712 241.984777 
M 213.283547 241.964948 
L 214.643681 241.956796 
M 218.679732 241.941985 
L 220.039866 241.943945 
M 224.075916 241.960603 
L 225.436051 241.975792 
M 229.472101 241.988888 
L 230.832235 242.002703 
M 234.88307 242.023758 
L 236.243204 242.028761 
M 240.279255 242.022853 
L 241.639389 242.013665 
M 245.675439 242.022834 
L 247.035574 242.034908 
M 251.071624 242.051254 
L 252.431758 242.053517 
M 256.482593 242.040659 
L 257.842727 242.007258 
M 261.878778 241.973372 
L 263.238912 241.988668 
M 267.274962 241.967266 
L 268.635097 241.970209 
M 272.671147 241.979821 
L 274.031281 241.975478 
M 278.082116 241.980911 
L 279.44225 241.981985 
M 283.478301 241.97125 
L 284.838435 241.981548 
M 288.874486 241.995139 
L 290.23462 241.987601 
M 294.27067 241.964573 
L 295.630805 241.964913 
M 299.681639 241.920281 
L 301.041773 241.898709 
M 305.077824 241.900646 
L 306.437958 241.911793 
M 310.474009 241.915589 
L 311.834143 241.902467 
M 315.870193 241.891879 
L 317.230328 241.893098 
M 321.281162 241.88488 
L 322.641296 241.898976 
M 326.677347 241.923831 
L 328.037481 241.921032 
M 332.073532 241.868109 
L 333.433666 241.855292 
M 56.675916 242.099858 
L 58.036051 242.102599 
M 62.086885 242.110617 
L 63.447019 242.103577 
M 67.48307 242.104414 
L 68.843204 242.103155 
M 72.879255 242.091706 
L 74.239389 242.093513 
M 78.275439 242.08489 
L 79.635574 242.071764 
M 83.686408 242.02917 
L 85.046542 242.009821 
M 89.082593 242.006959 
L 90.442727 242.012892 
M 94.478778 242.036322 
L 95.838912 242.038967 
M 99.874962 242.065328 
L 101.235097 242.071236 
M 105.285931 242.088058 
L 106.646066 242.092637 
M 110.682116 242.058882 
L 112.04225 242.040881 
M 116.078301 242.017477 
L 117.438435 242.005563 
M 121.474486 241.966827 
L 122.83462 241.961792 
M 126.885454 241.925272 
L 128.245589 241.902427 
M 132.281639 241.881575 
L 133.641773 241.918566 
M 137.677824 241.953711 
L 139.037958 241.952825 
M 143.074009 241.982082 
L 144.434143 241.996437 
M 148.484977 242.016304 
L 149.845112 242.015927 
M 153.881162 241.993211 
L 155.241296 241.982356 
M 159.277347 242.007495 
L 160.637481 242.024139 
M 164.673532 242.013756 
L 166.033666 242.006287 
M 170.084501 242.02483 
L 171.444635 242.01203 
M 175.480685 241.960267 
L 176.84082 241.961624 
M 180.87687 241.962598 
L 182.237004 241.970135 
M 186.273055 241.97876 
L 187.633189 241.977159 
M 191.684024 241.967974 
L 193.044158 241.975569 
M 197.080208 241.988824 
L 198.440343 241.990648 
M 202.476393 241.992867 
L 203.836527 241.994854 
M 207.872578 241.985111 
L 209.232712 241.984971 
M 213.283547 241.967651 
L 214.643681 241.954989 
M 218.679732 241.943416 
L 220.039866 241.941986 
M 224.075916 241.953407 
L 225.436051 241.96533 
M 229.472101 241.984486 
L 230.832235 241.991315 
M 234.88307 242.024133 
L 236.243204 242.025608 
M 240.279255 242.027743 
L 241.639389 242.019773 
M 245.675439 242.023552 
L 247.035574 242.032452 
M 251.071624 242.049546 
L 252.431758 242.053794 
M 256.482593 242.043614 
L 257.842727 242.019352 
M 261.878778 241.967951 
L 263.238912 241.983708 
M 267.274962 241.966776 
L 268.635097 241.968497 
M 272.671147 241.985179 
L 274.031281 241.983022 
M 278.082116 241.977239 
L 279.44225 241.979821 
M 283.478301 241.970044 
L 284.838435 241.974996 
M 288.874486 241.996519 
L 290.23462 241.99154 
M 294.27067 241.966931 
L 295.630805 241.967107 
M 299.681639 241.930293 
L 301.041773 241.910672 
M 305.077824 241.894003 
L 306.437958 241.903985 
M 310.474009 241.918294 
L 311.834143 241.907579 
M 315.870193 241.893212 
L 317.230328 241.891481 
M 321.281162 241.892387 
L 322.641296 241.896941 
M 326.677347 241.928632 
L 328.037481 241.925636 
M 332.073532 241.886581 
L 333.433666 241.866792 
L 333.433666 241.866792 
" style="fill:none;stroke:#2ca02c;stroke-linecap:square;stroke-width:1.5;"/>
   </g>
   <g id="line2d_24">
    <path clip-path="url(#p2e2d48c2bc)" d="M 334.7938 252 
L 334.7938 34.56 
" style="fill:none;stroke:#d3d3d3;stroke-dasharray:5.55,2.4;stroke-dashoffset:0;stroke-width:1.5;"/>
   </g>
   <g id="patch_3">
    <path d="M 54 252 
L 54 34.56 
" style="fill:none;stroke:#000000;stroke-linecap:square;stroke-linejoin:miter;stroke-width:0.8;"/>
   </g>
   <g id="patch_4">
    <path d="M 388.8 252 
L 388.8 34.56 
" style="fill:none;stroke:#000000;stroke-linecap:square;stroke-linejoin:miter;stroke-width:0.8;"/>
   </g>
   <g id="patch_5">
    <path d="M 54 252 
L 388.8 252 
" style="fill:none;stroke:#000000;stroke-linecap:square;stroke-linejoin:miter;stroke-width:0.8;"/>
   </g>
   <g id="patch_6">
    <path d="M 54 34.56 
L 388.8 34.56 
" style="fill:none;stroke:#000000;stroke-linecap:square;stroke-linejoin:miter;stroke-width:0.8;"/>
   </g>
   <g id="text_23">
    <!-- US Dollar Exchange Rate with Countries of International Interest - 1970 to present -->
    <g transform="translate(-25.48125 28.56)scale(0.12 -0.12)">
     <defs>
      <path d="M 556 4666 
L 1191 4666 
L 1191 1831 
Q 1191 1081 1462 751 
Q 1734 422 2344 422 
Q 2950 422 3222 751 
Q 3494 1081 3494 1831 
L 3494 4666 
L 4128 4666 
L 4128 1753 
Q 4128 841 3676 375 
Q 3225 -91 2344 -91 
Q 1459 -91 1007 375 
Q 556 841 556 1753 
L 556 4666 
z
" id="DejaVuSans-55" transform="scale(0.015625)"/>
      <path d="M 3425 4513 
L 3425 3897 
Q 3066 4069 2747 4153 
Q 2428 4238 2131 4238 
Q 1616 4238 1336 4038 
Q 1056 3838 1056 3469 
Q 1056 3159 1242 3001 
Q 1428 2844 1947 2747 
L 2328 2669 
Q 3034 2534 3370 2195 
Q 3706 1856 3706 1288 
Q 3706 609 3251 259 
Q 2797 -91 1919 -91 
Q 1588 -91 1214 -16 
Q 841 59 441 206 
L 441 856 
Q 825 641 1194 531 
Q 1563 422 1919 422 
Q 2459 422 2753 634 
Q 3047 847 3047 1241 
Q 3047 1584 2836 1778 
Q 2625 1972 2144 2069 
L 1759 2144 
Q 1053 2284 737 2584 
Q 422 2884 422 3419 
Q 422 4038 858 4394 
Q 1294 4750 2059 4750 
Q 2388 4750 2728 4690 
Q 3069 4631 3425 4513 
z
" id="DejaVuSans-53" transform="scale(0.015625)"/>
      <path d="M 1959 3097 
Q 1497 3097 1228 2736 
Q 959 2375 959 1747 
Q 959 1119 1226 758 
Q 1494 397 1959 397 
Q 2419 397 2687 759 
Q 2956 1122 2956 1747 
Q 2956 2369 2687 2733 
Q 2419 3097 1959 3097 
z
M 1959 3584 
Q 2709 3584 3137 3096 
Q 3566 2609 3566 1747 
Q 3566 888 3137 398 
Q 2709 -91 1959 -91 
Q 1206 -91 779 398 
Q 353 888 353 1747 
Q 353 2609 779 3096 
Q 1206 3584 1959 3584 
z
" id="DejaVuSans-6f" transform="scale(0.015625)"/>
      <path d="M 603 4863 
L 1178 4863 
L 1178 0 
L 603 0 
L 603 4863 
z
" id="DejaVuSans-6c" transform="scale(0.015625)"/>
      <path d="M 2631 2963 
Q 2534 3019 2420 3045 
Q 2306 3072 2169 3072 
Q 1681 3072 1420 2755 
Q 1159 2438 1159 1844 
L 1159 0 
L 581 0 
L 581 3500 
L 1159 3500 
L 1159 2956 
Q 1341 3275 1631 3429 
Q 1922 3584 2338 3584 
Q 2397 3584 2469 3576 
Q 2541 3569 2628 3553 
L 2631 2963 
z
" id="DejaVuSans-72" transform="scale(0.015625)"/>
      <path d="M 269 3500 
L 844 3500 
L 1563 769 
L 2278 3500 
L 2956 3500 
L 3675 769 
L 4391 3500 
L 4966 3500 
L 4050 0 
L 3372 0 
L 2619 2869 
L 1863 0 
L 1184 0 
L 269 3500 
z
" id="DejaVuSans-77" transform="scale(0.015625)"/>
      <path d="M 603 3500 
L 1178 3500 
L 1178 0 
L 603 0 
L 603 3500 
z
M 603 4863 
L 1178 4863 
L 1178 4134 
L 603 4134 
L 603 4863 
z
" id="DejaVuSans-69" transform="scale(0.015625)"/>
      <path d="M 4122 4306 
L 4122 3641 
Q 3803 3938 3442 4084 
Q 3081 4231 2675 4231 
Q 1875 4231 1450 3742 
Q 1025 3253 1025 2328 
Q 1025 1406 1450 917 
Q 1875 428 2675 428 
Q 3081 428 3442 575 
Q 3803 722 4122 1019 
L 4122 359 
Q 3791 134 3420 21 
Q 3050 -91 2638 -91 
Q 1578 -91 968 557 
Q 359 1206 359 2328 
Q 359 3453 968 4101 
Q 1578 4750 2638 4750 
Q 3056 4750 3426 4639 
Q 3797 4528 4122 4306 
z
" id="DejaVuSans-43" transform="scale(0.015625)"/>
      <path d="M 544 1381 
L 544 3500 
L 1119 3500 
L 1119 1403 
Q 1119 906 1312 657 
Q 1506 409 1894 409 
Q 2359 409 2629 706 
Q 2900 1003 2900 1516 
L 2900 3500 
L 3475 3500 
L 3475 0 
L 2900 0 
L 2900 538 
Q 2691 219 2414 64 
Q 2138 -91 1772 -91 
Q 1169 -91 856 284 
Q 544 659 544 1381 
z
M 1991 3584 
L 1991 3584 
z
" id="DejaVuSans-75" transform="scale(0.015625)"/>
      <path d="M 2834 3397 
L 2834 2853 
Q 2591 2978 2328 3040 
Q 2066 3103 1784 3103 
Q 1356 3103 1142 2972 
Q 928 2841 928 2578 
Q 928 2378 1081 2264 
Q 1234 2150 1697 2047 
L 1894 2003 
Q 2506 1872 2764 1633 
Q 3022 1394 3022 966 
Q 3022 478 2636 193 
Q 2250 -91 1575 -91 
Q 1294 -91 989 -36 
Q 684 19 347 128 
L 347 722 
Q 666 556 975 473 
Q 1284 391 1588 391 
Q 1994 391 2212 530 
Q 2431 669 2431 922 
Q 2431 1156 2273 1281 
Q 2116 1406 1581 1522 
L 1381 1569 
Q 847 1681 609 1914 
Q 372 2147 372 2553 
Q 372 3047 722 3315 
Q 1072 3584 1716 3584 
Q 2034 3584 2315 3537 
Q 2597 3491 2834 3397 
z
" id="DejaVuSans-73" transform="scale(0.015625)"/>
      <path d="M 2375 4863 
L 2375 4384 
L 1825 4384 
Q 1516 4384 1395 4259 
Q 1275 4134 1275 3809 
L 1275 3500 
L 2222 3500 
L 2222 3053 
L 1275 3053 
L 1275 0 
L 697 0 
L 697 3053 
L 147 3053 
L 147 3500 
L 697 3500 
L 697 3744 
Q 697 4328 969 4595 
Q 1241 4863 1831 4863 
L 2375 4863 
z
" id="DejaVuSans-66" transform="scale(0.015625)"/>
      <path d="M 628 4666 
L 1259 4666 
L 1259 0 
L 628 0 
L 628 4666 
z
" id="DejaVuSans-49" transform="scale(0.015625)"/>
      <path d="M 313 2009 
L 1997 2009 
L 1997 1497 
L 313 1497 
L 313 2009 
z
" id="DejaVuSans-2d" transform="scale(0.015625)"/>
      <path d="M 1159 525 
L 1159 -1331 
L 581 -1331 
L 581 3500 
L 1159 3500 
L 1159 2969 
Q 1341 3281 1617 3432 
Q 1894 3584 2278 3584 
Q 2916 3584 3314 3078 
Q 3713 2572 3713 1747 
Q 3713 922 3314 415 
Q 2916 -91 2278 -91 
Q 1894 -91 1617 61 
Q 1341 213 1159 525 
z
M 3116 1747 
Q 3116 2381 2855 2742 
Q 2594 3103 2138 3103 
Q 1681 3103 1420 2742 
Q 1159 2381 1159 1747 
Q 1159 1113 1420 752 
Q 1681 391 2138 391 
Q 2594 391 2855 752 
Q 3116 1113 3116 1747 
z
" id="DejaVuSans-70" transform="scale(0.015625)"/>
     </defs>
     <use xlink:href="#DejaVuSans-55"/>
     <use x="73.193359" xlink:href="#DejaVuSans-53"/>
     <use x="136.669922" xlink:href="#DejaVuSans-20"/>
     <use x="168.457031" xlink:href="#DejaVuSans-44"/>
     <use x="245.458984" xlink:href="#DejaVuSans-6f"/>
     <use x="306.640625" xlink:href="#DejaVuSans-6c"/>
     <use x="334.423828" xlink:href="#DejaVuSans-6c"/>
     <use x="362.207031" xlink:href="#DejaVuSans-61"/>
     <use x="423.486328" xlink:href="#DejaVuSans-72"/>
     <use x="464.599609" xlink:href="#DejaVuSans-20"/>
     <use x="496.386719" xlink:href="#DejaVuSans-45"/>
     <use x="559.570312" xlink:href="#DejaVuSans-78"/>
     <use x="617" xlink:href="#DejaVuSans-63"/>
     <use x="671.980469" xlink:href="#DejaVuSans-68"/>
     <use x="735.359375" xlink:href="#DejaVuSans-61"/>
     <use x="796.638672" xlink:href="#DejaVuSans-6e"/>
     <use x="860.017578" xlink:href="#DejaVuSans-67"/>
     <use x="923.494141" xlink:href="#DejaVuSans-65"/>
     <use x="985.017578" xlink:href="#DejaVuSans-20"/>
     <use x="1016.804688" xlink:href="#DejaVuSans-52"/>
     <use x="1084.037109" xlink:href="#DejaVuSans-61"/>
     <use x="1145.316406" xlink:href="#DejaVuSans-74"/>
     <use x="1184.525391" xlink:href="#DejaVuSans-65"/>
     <use x="1246.048828" xlink:href="#DejaVuSans-20"/>
     <use x="1277.835938" xlink:href="#DejaVuSans-77"/>
     <use x="1359.623047" xlink:href="#DejaVuSans-69"/>
     <use x="1387.40625" xlink:href="#DejaVuSans-74"/>
     <use x="1426.615234" xlink:href="#DejaVuSans-68"/>
     <use x="1489.994141" xlink:href="#DejaVuSans-20"/>
     <use x="1521.78125" xlink:href="#DejaVuSans-43"/>
     <use x="1591.605469" xlink:href="#DejaVuSans-6f"/>
     <use x="1652.787109" xlink:href="#DejaVuSans-75"/>
     <use x="1716.166016" xlink:href="#DejaVuSans-6e"/>
     <use x="1779.544922" xlink:href="#DejaVuSans-74"/>
     <use x="1818.753906" xlink:href="#DejaVuSans-72"/>
     <use x="1859.867188" xlink:href="#DejaVuSans-69"/>
     <use x="1887.650391" xlink:href="#DejaVuSans-65"/>
     <use x="1949.173828" xlink:href="#DejaVuSans-73"/>
     <use x="2001.273438" xlink:href="#DejaVuSans-20"/>
     <use x="2033.060547" xlink:href="#DejaVuSans-6f"/>
     <use x="2094.242188" xlink:href="#DejaVuSans-66"/>
     <use x="2129.447266" xlink:href="#DejaVuSans-20"/>
     <use x="2161.234375" xlink:href="#DejaVuSans-49"/>
     <use x="2190.726562" xlink:href="#DejaVuSans-6e"/>
     <use x="2254.105469" xlink:href="#DejaVuSans-74"/>
     <use x="2293.314453" xlink:href="#DejaVuSans-65"/>
     <use x="2354.837891" xlink:href="#DejaVuSans-72"/>
     <use x="2394.201172" xlink:href="#DejaVuSans-6e"/>
     <use x="2457.580078" xlink:href="#DejaVuSans-61"/>
     <use x="2518.859375" xlink:href="#DejaVuSans-74"/>
     <use x="2558.068359" xlink:href="#DejaVuSans-69"/>
     <use x="2585.851562" xlink:href="#DejaVuSans-6f"/>
     <use x="2647.033203" xlink:href="#DejaVuSans-6e"/>
     <use x="2710.412109" xlink:href="#DejaVuSans-61"/>
     <use x="2771.691406" xlink:href="#DejaVuSans-6c"/>
     <use x="2799.474609" xlink:href="#DejaVuSans-20"/>
     <use x="2831.261719" xlink:href="#DejaVuSans-49"/>
     <use x="2860.753906" xlink:href="#DejaVuSans-6e"/>
     <use x="2924.132812" xlink:href="#DejaVuSans-74"/>
     <use x="2963.341797" xlink:href="#DejaVuSans-65"/>
     <use x="3024.865234" xlink:href="#DejaVuSans-72"/>
     <use x="3063.728516" xlink:href="#DejaVuSans-65"/>
     <use x="3125.251953" xlink:href="#DejaVuSans-73"/>
     <use x="3177.351562" xlink:href="#DejaVuSans-74"/>
     <use x="3216.560547" xlink:href="#DejaVuSans-20"/>
     <use x="3248.347656" xlink:href="#DejaVuSans-2d"/>
     <use x="3284.431641" xlink:href="#DejaVuSans-20"/>
     <use x="3316.21875" xlink:href="#DejaVuSans-31"/>
     <use x="3379.841797" xlink:href="#DejaVuSans-39"/>
     <use x="3443.464844" xlink:href="#DejaVuSans-37"/>
     <use x="3507.087891" xlink:href="#DejaVuSans-30"/>
     <use x="3570.710938" xlink:href="#DejaVuSans-20"/>
     <use x="3602.498047" xlink:href="#DejaVuSans-74"/>
     <use x="3641.707031" xlink:href="#DejaVuSans-6f"/>
     <use x="3702.888672" xlink:href="#DejaVuSans-20"/>
     <use x="3734.675781" xlink:href="#DejaVuSans-70"/>
     <use x="3798.152344" xlink:href="#DejaVuSans-72"/>
     <use x="3837.015625" xlink:href="#DejaVuSans-65"/>
     <use x="3898.539062" xlink:href="#DejaVuSans-73"/>
     <use x="3950.638672" xlink:href="#DejaVuSans-65"/>
     <use x="4012.162109" xlink:href="#DejaVuSans-6e"/>
     <use x="4075.541016" xlink:href="#DejaVuSans-74"/>
    </g>
   </g>
   <g id="legend_1">
    <g id="patch_7">
     <path d="M 149.5375 86.594375 
L 381.8 86.594375 
Q 383.8 86.594375 383.8 84.594375 
L 383.8 41.56 
Q 383.8 39.56 381.8 39.56 
L 149.5375 39.56 
Q 147.5375 39.56 147.5375 41.56 
L 147.5375 84.594375 
Q 147.5375 86.594375 149.5375 86.594375 
z
" style="fill:#ffffff;opacity:0.8;stroke:#cccccc;stroke-linejoin:miter;"/>
    </g>
    <g id="line2d_25">
     <path d="M 151.5375 47.658438 
L 171.5375 47.658438 
" style="fill:none;stroke:#1f77b4;stroke-linecap:square;stroke-width:1.5;"/>
    </g>
    <g id="line2d_26"/>
    <g id="text_24">
     <!-- USD to Chinese Yuan (Q-smoothed) -->
     <g transform="translate(179.5375 51.158438)scale(0.1 -0.1)">
      <defs>
       <path d="M -13 4666 
L 666 4666 
L 1959 2747 
L 3244 4666 
L 3922 4666 
L 2272 2222 
L 2272 0 
L 1638 0 
L 1638 2222 
L -13 4666 
z
" id="DejaVuSans-59" transform="scale(0.015625)"/>
       <path d="M 1984 4856 
Q 1566 4138 1362 3434 
Q 1159 2731 1159 2009 
Q 1159 1288 1364 580 
Q 1569 -128 1984 -844 
L 1484 -844 
Q 1016 -109 783 600 
Q 550 1309 550 2009 
Q 550 2706 781 3412 
Q 1013 4119 1484 4856 
L 1984 4856 
z
" id="DejaVuSans-28" transform="scale(0.015625)"/>
       <path d="M 2522 4238 
Q 1834 4238 1429 3725 
Q 1025 3213 1025 2328 
Q 1025 1447 1429 934 
Q 1834 422 2522 422 
Q 3209 422 3611 934 
Q 4013 1447 4013 2328 
Q 4013 3213 3611 3725 
Q 3209 4238 2522 4238 
z
M 3406 84 
L 4238 -825 
L 3475 -825 
L 2784 -78 
Q 2681 -84 2626 -87 
Q 2572 -91 2522 -91 
Q 1538 -91 948 567 
Q 359 1225 359 2328 
Q 359 3434 948 4092 
Q 1538 4750 2522 4750 
Q 3503 4750 4090 4092 
Q 4678 3434 4678 2328 
Q 4678 1516 4351 937 
Q 4025 359 3406 84 
z
" id="DejaVuSans-51" transform="scale(0.015625)"/>
       <path d="M 3328 2828 
Q 3544 3216 3844 3400 
Q 4144 3584 4550 3584 
Q 5097 3584 5394 3201 
Q 5691 2819 5691 2113 
L 5691 0 
L 5113 0 
L 5113 2094 
Q 5113 2597 4934 2840 
Q 4756 3084 4391 3084 
Q 3944 3084 3684 2787 
Q 3425 2491 3425 1978 
L 3425 0 
L 2847 0 
L 2847 2094 
Q 2847 2600 2669 2842 
Q 2491 3084 2119 3084 
Q 1678 3084 1418 2786 
Q 1159 2488 1159 1978 
L 1159 0 
L 581 0 
L 581 3500 
L 1159 3500 
L 1159 2956 
Q 1356 3278 1631 3431 
Q 1906 3584 2284 3584 
Q 2666 3584 2933 3390 
Q 3200 3197 3328 2828 
z
" id="DejaVuSans-6d" transform="scale(0.015625)"/>
       <path d="M 2906 2969 
L 2906 4863 
L 3481 4863 
L 3481 0 
L 2906 0 
L 2906 525 
Q 2725 213 2448 61 
Q 2172 -91 1784 -91 
Q 1150 -91 751 415 
Q 353 922 353 1747 
Q 353 2572 751 3078 
Q 1150 3584 1784 3584 
Q 2172 3584 2448 3432 
Q 2725 3281 2906 2969 
z
M 947 1747 
Q 947 1113 1208 752 
Q 1469 391 1925 391 
Q 2381 391 2643 752 
Q 2906 1113 2906 1747 
Q 2906 2381 2643 2742 
Q 2381 3103 1925 3103 
Q 1469 3103 1208 2742 
Q 947 2381 947 1747 
z
" id="DejaVuSans-64" transform="scale(0.015625)"/>
       <path d="M 513 4856 
L 1013 4856 
Q 1481 4119 1714 3412 
Q 1947 2706 1947 2009 
Q 1947 1309 1714 600 
Q 1481 -109 1013 -844 
L 513 -844 
Q 928 -128 1133 580 
Q 1338 1288 1338 2009 
Q 1338 2731 1133 3434 
Q 928 4138 513 4856 
z
" id="DejaVuSans-29" transform="scale(0.015625)"/>
      </defs>
      <use xlink:href="#DejaVuSans-55"/>
      <use x="73.193359" xlink:href="#DejaVuSans-53"/>
      <use x="136.669922" xlink:href="#DejaVuSans-44"/>
      <use x="213.671875" xlink:href="#DejaVuSans-20"/>
      <use x="245.458984" xlink:href="#DejaVuSans-74"/>
      <use x="284.667969" xlink:href="#DejaVuSans-6f"/>
      <use x="345.849609" xlink:href="#DejaVuSans-20"/>
      <use x="377.636719" xlink:href="#DejaVuSans-43"/>
      <use x="447.460938" xlink:href="#DejaVuSans-68"/>
      <use x="510.839844" xlink:href="#DejaVuSans-69"/>
      <use x="538.623047" xlink:href="#DejaVuSans-6e"/>
      <use x="602.001953" xlink:href="#DejaVuSans-65"/>
      <use x="663.525391" xlink:href="#DejaVuSans-73"/>
      <use x="715.625" xlink:href="#DejaVuSans-65"/>
      <use x="777.148438" xlink:href="#DejaVuSans-20"/>
      <use x="808.935547" xlink:href="#DejaVuSans-59"/>
      <use x="858.519531" xlink:href="#DejaVuSans-75"/>
      <use x="921.898438" xlink:href="#DejaVuSans-61"/>
      <use x="983.177734" xlink:href="#DejaVuSans-6e"/>
      <use x="1046.556641" xlink:href="#DejaVuSans-20"/>
      <use x="1078.34375" xlink:href="#DejaVuSans-28"/>
      <use x="1117.357422" xlink:href="#DejaVuSans-51"/>
      <use x="1198.818359" xlink:href="#DejaVuSans-2d"/>
      <use x="1234.902344" xlink:href="#DejaVuSans-73"/>
      <use x="1287.001953" xlink:href="#DejaVuSans-6d"/>
      <use x="1384.414062" xlink:href="#DejaVuSans-6f"/>
      <use x="1445.595703" xlink:href="#DejaVuSans-6f"/>
      <use x="1506.777344" xlink:href="#DejaVuSans-74"/>
      <use x="1545.986328" xlink:href="#DejaVuSans-68"/>
      <use x="1609.365234" xlink:href="#DejaVuSans-65"/>
      <use x="1670.888672" xlink:href="#DejaVuSans-64"/>
      <use x="1734.365234" xlink:href="#DejaVuSans-29"/>
     </g>
    </g>
    <g id="line2d_27">
     <path d="M 151.5375 62.336563 
L 171.5375 62.336563 
" style="fill:none;stroke:#ff7f0e;stroke-linecap:square;stroke-width:1.5;"/>
    </g>
    <g id="line2d_28"/>
    <g id="text_25">
     <!-- USD to Japanese Yen (Q-smoothed) -->
     <g transform="translate(179.5375 65.836563)scale(0.1 -0.1)">
      <defs>
       <path d="M 628 4666 
L 1259 4666 
L 1259 325 
Q 1259 -519 939 -900 
Q 619 -1281 -91 -1281 
L -331 -1281 
L -331 -750 
L -134 -750 
Q 284 -750 456 -515 
Q 628 -281 628 325 
L 628 4666 
z
" id="DejaVuSans-4a" transform="scale(0.015625)"/>
      </defs>
      <use xlink:href="#DejaVuSans-55"/>
      <use x="73.193359" xlink:href="#DejaVuSans-53"/>
      <use x="136.669922" xlink:href="#DejaVuSans-44"/>
      <use x="213.671875" xlink:href="#DejaVuSans-20"/>
      <use x="245.458984" xlink:href="#DejaVuSans-74"/>
      <use x="284.667969" xlink:href="#DejaVuSans-6f"/>
      <use x="345.849609" xlink:href="#DejaVuSans-20"/>
      <use x="377.636719" xlink:href="#DejaVuSans-4a"/>
      <use x="407.128906" xlink:href="#DejaVuSans-61"/>
      <use x="468.408203" xlink:href="#DejaVuSans-70"/>
      <use x="531.884766" xlink:href="#DejaVuSans-61"/>
      <use x="593.164062" xlink:href="#DejaVuSans-6e"/>
      <use x="656.542969" xlink:href="#DejaVuSans-65"/>
      <use x="718.066406" xlink:href="#DejaVuSans-73"/>
      <use x="770.166016" xlink:href="#DejaVuSans-65"/>
      <use x="831.689453" xlink:href="#DejaVuSans-20"/>
      <use x="863.476562" xlink:href="#DejaVuSans-59"/>
      <use x="911.310547" xlink:href="#DejaVuSans-65"/>
      <use x="972.833984" xlink:href="#DejaVuSans-6e"/>
      <use x="1036.212891" xlink:href="#DejaVuSans-20"/>
      <use x="1068" xlink:href="#DejaVuSans-28"/>
      <use x="1107.013672" xlink:href="#DejaVuSans-51"/>
      <use x="1188.474609" xlink:href="#DejaVuSans-2d"/>
      <use x="1224.558594" xlink:href="#DejaVuSans-73"/>
      <use x="1276.658203" xlink:href="#DejaVuSans-6d"/>
      <use x="1374.070312" xlink:href="#DejaVuSans-6f"/>
      <use x="1435.251953" xlink:href="#DejaVuSans-6f"/>
      <use x="1496.433594" xlink:href="#DejaVuSans-74"/>
      <use x="1535.642578" xlink:href="#DejaVuSans-68"/>
      <use x="1599.021484" xlink:href="#DejaVuSans-65"/>
      <use x="1660.544922" xlink:href="#DejaVuSans-64"/>
      <use x="1724.021484" xlink:href="#DejaVuSans-29"/>
     </g>
    </g>
    <g id="line2d_29">
     <path d="M 151.5375 77.014688 
L 171.5375 77.014688 
" style="fill:none;stroke:#2ca02c;stroke-linecap:square;stroke-width:1.5;"/>
    </g>
    <g id="line2d_30"/>
    <g id="text_26">
     <!-- USD to UK Pound Sterling (Q-smoothed) -->
     <g transform="translate(179.5375 80.514688)scale(0.1 -0.1)">
      <defs>
       <path d="M 628 4666 
L 1259 4666 
L 1259 2694 
L 3353 4666 
L 4166 4666 
L 1850 2491 
L 4331 0 
L 3500 0 
L 1259 2247 
L 1259 0 
L 628 0 
L 628 4666 
z
" id="DejaVuSans-4b" transform="scale(0.015625)"/>
       <path d="M 1259 4147 
L 1259 2394 
L 2053 2394 
Q 2494 2394 2734 2622 
Q 2975 2850 2975 3272 
Q 2975 3691 2734 3919 
Q 2494 4147 2053 4147 
L 1259 4147 
z
M 628 4666 
L 2053 4666 
Q 2838 4666 3239 4311 
Q 3641 3956 3641 3272 
Q 3641 2581 3239 2228 
Q 2838 1875 2053 1875 
L 1259 1875 
L 1259 0 
L 628 0 
L 628 4666 
z
" id="DejaVuSans-50" transform="scale(0.015625)"/>
      </defs>
      <use xlink:href="#DejaVuSans-55"/>
      <use x="73.193359" xlink:href="#DejaVuSans-53"/>
      <use x="136.669922" xlink:href="#DejaVuSans-44"/>
      <use x="213.671875" xlink:href="#DejaVuSans-20"/>
      <use x="245.458984" xlink:href="#DejaVuSans-74"/>
      <use x="284.667969" xlink:href="#DejaVuSans-6f"/>
      <use x="345.849609" xlink:href="#DejaVuSans-20"/>
      <use x="377.636719" xlink:href="#DejaVuSans-55"/>
      <use x="450.830078" xlink:href="#DejaVuSans-4b"/>
      <use x="516.40625" xlink:href="#DejaVuSans-20"/>
      <use x="548.193359" xlink:href="#DejaVuSans-50"/>
      <use x="604.871094" xlink:href="#DejaVuSans-6f"/>
      <use x="666.052734" xlink:href="#DejaVuSans-75"/>
      <use x="729.431641" xlink:href="#DejaVuSans-6e"/>
      <use x="792.810547" xlink:href="#DejaVuSans-64"/>
      <use x="856.287109" xlink:href="#DejaVuSans-20"/>
      <use x="888.074219" xlink:href="#DejaVuSans-53"/>
      <use x="951.550781" xlink:href="#DejaVuSans-74"/>
      <use x="990.759766" xlink:href="#DejaVuSans-65"/>
      <use x="1052.283203" xlink:href="#DejaVuSans-72"/>
      <use x="1093.396484" xlink:href="#DejaVuSans-6c"/>
      <use x="1121.179688" xlink:href="#DejaVuSans-69"/>
      <use x="1148.962891" xlink:href="#DejaVuSans-6e"/>
      <use x="1212.341797" xlink:href="#DejaVuSans-67"/>
      <use x="1275.818359" xlink:href="#DejaVuSans-20"/>
      <use x="1307.605469" xlink:href="#DejaVuSans-28"/>
      <use x="1346.619141" xlink:href="#DejaVuSans-51"/>
      <use x="1428.080078" xlink:href="#DejaVuSans-2d"/>
      <use x="1464.164062" xlink:href="#DejaVuSans-73"/>
      <use x="1516.263672" xlink:href="#DejaVuSans-6d"/>
      <use x="1613.675781" xlink:href="#DejaVuSans-6f"/>
      <use x="1674.857422" xlink:href="#DejaVuSans-6f"/>
      <use x="1736.039062" xlink:href="#DejaVuSans-74"/>
      <use x="1775.248047" xlink:href="#DejaVuSans-68"/>
      <use x="1838.626953" xlink:href="#DejaVuSans-65"/>
      <use x="1900.150391" xlink:href="#DejaVuSans-64"/>
      <use x="1963.626953" xlink:href="#DejaVuSans-29"/>
     </g>
    </g>
   </g>
  </g>
 </g>
 <defs>
  <clipPath id="p2e2d48c2bc">
   <rect height="217.44" width="334.8" x="54" y="34.56"/>
  </clipPath>
 </defs>
</svg>
